<svg xmlns="http://www.w3.org/2000/svg" viewBox="0 0 1519.95 849.29"><defs><style>.cls-1,.cls-4,.cls-7{fill:#fff;}.cls-2{fill:#25b8eb;opacity:0.3;}.cls-3,.cls-5{fill:none;}.cls-3,.cls-4,.cls-5,.cls-7{stroke:#25b8eb;stroke-linejoin:round;stroke-width:6px;}.cls-3{stroke-linecap:round;}.cls-4,.cls-5{stroke-linecap:square;}.cls-6{fill:#282d38;}</style></defs><title>Asset 3</title><g id="Layer_2" data-name="Layer 2"><g id="grafika"><path class="cls-1" d="M510.56,76.06V20.24A17.29,17.29,0,0,1,527.8,3H992.4a17.29,17.29,0,0,1,17.24,17.24V76.06"/><path class="cls-1" d="M284.68,376.82V93.31a17.29,17.29,0,0,1,17.24-17.24H1218a17.29,17.29,0,0,1,17.24,17.24V681.37A17.29,17.29,0,0,1,1218,698.61H301.92a17.29,17.29,0,0,1-17.24-17.24V376.82Z"/><path class="cls-2" d="M510.56,76.06V20.24A17.29,17.29,0,0,1,527.8,3H992.4a17.29,17.29,0,0,1,17.24,17.24V76.06"/><path class="cls-2" d="M284.68,376.82V93.31a17.29,17.29,0,0,1,17.24-17.24H1218a17.29,17.29,0,0,1,17.24,17.24V681.37A17.29,17.29,0,0,1,1218,698.61H301.92a17.29,17.29,0,0,1-17.24-17.24V376.82Z"/><path class="cls-3" d="M510.56,76.06V20.24A17.29,17.29,0,0,1,527.8,3H992.4a17.29,17.29,0,0,1,17.24,17.24V76.06"/><path class="cls-3" d="M1235.27,397.86V681.37A17.29,17.29,0,0,1,1218,698.61H301.92a17.29,17.29,0,0,1-17.24-17.24V397.86"/><path class="cls-3" d="M284.68,376.82V93.31a17.29,17.29,0,0,1,17.24-17.24H1218a17.29,17.29,0,0,1,17.24,17.24V376.82"/><path class="cls-1" d="M330.1,397.86v61.06a12.42,12.42,0,0,0,12.38,12.38H554a12.42,12.42,0,0,0,12.38-12.38V398h45.42v8.63l27.29-19.15-27.29-19.15V377H566.36V315.77A12.42,12.42,0,0,0,554,303.38H342.48a12.42,12.42,0,0,0-12.38,12.38v82.09Z"/><path class="cls-1" d="M953.59,397.86v61.06A12.42,12.42,0,0,0,966,471.3h211.5a12.42,12.42,0,0,0,12.38-12.38V397.86h90.84v8.63L1308,387.34l-27.29-19.15v8.63h-90.84V315.77a12.42,12.42,0,0,0-12.38-12.38H966a12.42,12.42,0,0,0-12.38,12.38v61.06"/><path class="cls-1" d="M357.39,387.34,330.1,368.19v8.63H239.26V315.77a12.42,12.42,0,0,0-12.38-12.38H15.38A12.42,12.42,0,0,0,3,315.77V458.91A12.42,12.42,0,0,0,15.38,471.3h211.5a12.42,12.42,0,0,0,12.38-12.38V397.86H330.1v8.63Z"/><path class="cls-1" d="M770.5,223.74H895.79a12.42,12.42,0,0,0,12.38-12.38V133.86a12.42,12.42,0,0,0-12.38-12.38H624.16a12.42,12.42,0,0,0-12.38,12.38v77.49a12.42,12.42,0,0,0,12.38,12.38h125.3"/><path class="cls-1" d="M770.49,653.2h125.3a12.42,12.42,0,0,0,12.38-12.38V563.32a12.42,12.42,0,0,0-12.38-12.38H624.16a12.42,12.42,0,0,0-12.38,12.38v77.49a12.42,12.42,0,0,0,12.38,12.38H770.49Z"/><path class="cls-1" d="M611.78,398v95.1a12.42,12.42,0,0,0,12.38,12.38H895.79a12.42,12.42,0,0,0,12.38-12.38V397.86h45.42v8.63l27.29-19.15-27.29-19.15v8.63H908.17V281.54a12.42,12.42,0,0,0-12.38-12.38H624.16a12.42,12.42,0,0,0-12.38,12.38V398Z"/><path class="cls-1" d="M1280.69,376.82V315.76a12.42,12.42,0,0,1,12.38-12.38h211.5A12.42,12.42,0,0,1,1517,315.76V458.91a12.42,12.42,0,0,1-12.38,12.38h-211.5a12.42,12.42,0,0,1-12.38-12.38V397.86"/><path class="cls-1" d="M749.45,744H624.16a12.42,12.42,0,0,0-12.38,12.38v77.49a12.42,12.42,0,0,0,12.38,12.38H895.79a12.42,12.42,0,0,0,12.38-12.38V756.41A12.42,12.42,0,0,0,895.79,744H770.49"/><path class="cls-4" d="M330.1,397.86v61.06a12.42,12.42,0,0,0,12.38,12.38H554a12.42,12.42,0,0,0,12.38-12.38V398h45.42v8.63l27.29-19.15-27.29-19.15V377H566.36V315.77A12.42,12.42,0,0,0,554,303.38H342.48a12.42,12.42,0,0,0-12.38,12.38v61.06"/><path class="cls-4" d="M953.59,397.86v61.06A12.42,12.42,0,0,0,966,471.3h211.5a12.42,12.42,0,0,0,12.38-12.38V397.86h90.84v8.63L1308,387.34l-27.29-19.15v8.63h-90.84V315.77a12.42,12.42,0,0,0-12.38-12.38H966a12.42,12.42,0,0,0-12.38,12.38v61.06"/><path class="cls-5" d="M357.39,387.34,330.1,368.19v8.63H239.26V315.77a12.42,12.42,0,0,0-12.38-12.38H15.38A12.42,12.42,0,0,0,3,315.77V458.91A12.42,12.42,0,0,0,15.38,471.3h211.5a12.42,12.42,0,0,0,12.38-12.38V397.86H330.1v8.63Z"/><path class="cls-5" d="M1280.69,376.82V315.76a12.42,12.42,0,0,1,12.38-12.38h211.5A12.42,12.42,0,0,1,1517,315.76V458.91a12.42,12.42,0,0,1-12.38,12.38h-211.5a12.42,12.42,0,0,1-12.38-12.38V397.86"/><path class="cls-6" d="M388.39,376.84V363a1.47,1.47,0,0,1,1.49-1.49h9.77a1.33,1.33,0,0,1,1.32,1.32,1.32,1.32,0,0,1-1.32,1.32h-8.3v4.37h7.22a1.34,1.34,0,0,1,1.32,1.34,1.31,1.31,0,0,1-1.32,1.3h-7.22v4.51h8.42a1.33,1.33,0,0,1,1.32,1.32,1.32,1.32,0,0,1-1.32,1.32h-9.89A1.47,1.47,0,0,1,388.39,376.84Z"/><path class="cls-6" d="M403.87,376.22l3.6-4.32-3.34-4a1.73,1.73,0,0,1-.48-1.1,1.31,1.31,0,0,1,1.34-1.34,1.63,1.63,0,0,1,1.34.72L409.2,370l2.9-3.72a1.62,1.62,0,0,1,1.25-.74,1.3,1.3,0,0,1,1.37,1.27,1.46,1.46,0,0,1-.41,1l-3.43,4.1,3.55,4.2a1.73,1.73,0,0,1,.48,1.1,1.31,1.31,0,0,1-1.34,1.34,1.6,1.6,0,0,1-1.34-.74l-3.07-4-3.07,4a1.7,1.7,0,0,1-1.27.74,1.3,1.3,0,0,1-1.34-1.27A1.41,1.41,0,0,1,403.87,376.22Z"/><path class="cls-6" d="M418.48,374.83v-6.67H418a1.25,1.25,0,1,1,0-2.5h.48V363.5a1.45,1.45,0,0,1,2.9,0v2.16h2.28a1.25,1.25,0,1,1,0,2.5h-2.28v6.22a1.38,1.38,0,0,0,1.56,1.58,6.86,6.86,0,0,0,.72-.07,1.22,1.22,0,0,1,1.22,1.2,1.25,1.25,0,0,1-.77,1.13,5.77,5.77,0,0,1-2,.34C420,378.55,418.48,377.61,418.48,374.83Z"/><path class="cls-6" d="M427.75,367a1.43,1.43,0,0,1,1.44-1.46,1.45,1.45,0,0,1,1.46,1.46v1.3c.67-1.58,1.92-2.78,3.19-2.78a1.35,1.35,0,0,1,1.44,1.44,1.36,1.36,0,0,1-1.15,1.39c-2.06.36-3.48,1.94-3.48,4.94V377a1.45,1.45,0,0,1-1.46,1.44,1.43,1.43,0,0,1-1.44-1.44Z"/><path class="cls-6" d="M436.22,374.68v0c0-2.74,2.14-4.08,5.23-4.08a10.59,10.59,0,0,1,3.41.53v-.31c0-1.8-1.1-2.76-3.14-2.76a7.53,7.53,0,0,0-2.81.5,1.64,1.64,0,0,1-.46.07,1.21,1.21,0,0,1-1.22-1.2,1.27,1.27,0,0,1,.79-1.15,10.86,10.86,0,0,1,4.08-.74,5.68,5.68,0,0,1,4.2,1.42,5.26,5.26,0,0,1,1.37,3.91v6.24a1.38,1.38,0,0,1-1.42,1.39,1.31,1.31,0,0,1-1.42-1.22v-.48a5.15,5.15,0,0,1-4.13,1.85C438.33,378.6,436.22,377.23,436.22,374.68Zm8.69-.91v-.86a8,8,0,0,0-2.88-.5c-1.87,0-3,.79-3,2.11v0c0,1.22,1.08,1.92,2.47,1.92C443.44,376.48,444.91,375.38,444.91,373.77Z"/><path class="cls-6" d="M450.45,372.07v0a6.54,6.54,0,0,1,6.6-6.62,6.42,6.42,0,0,1,4.44,1.58,1.38,1.38,0,0,1,.46,1,1.32,1.32,0,0,1-1.34,1.32,1.48,1.48,0,0,1-.86-.29,4,4,0,0,0-2.71-1.08,3.82,3.82,0,0,0-3.67,4v0a3.83,3.83,0,0,0,3.79,4.06,4.23,4.23,0,0,0,2.83-1.13,1.22,1.22,0,0,1,2,1,1.13,1.13,0,0,1-.41.91,6.2,6.2,0,0,1-4.61,1.8A6.47,6.47,0,0,1,450.45,372.07Z"/><path class="cls-6" d="M465.45,374.83v-6.67H465a1.25,1.25,0,1,1,0-2.5h.48V363.5a1.45,1.45,0,0,1,2.9,0v2.16h2.28a1.25,1.25,0,1,1,0,2.5h-2.28v6.22a1.38,1.38,0,0,0,1.56,1.58,6.86,6.86,0,0,0,.72-.07,1.22,1.22,0,0,1,1.22,1.2,1.25,1.25,0,0,1-.77,1.13,5.77,5.77,0,0,1-2,.34C467,378.55,465.45,377.61,465.45,374.83Z"/><path class="cls-6" d="M473.66,372.07v0a6.76,6.76,0,0,1,13.51,0v0a6.63,6.63,0,0,1-6.79,6.6A6.55,6.55,0,0,1,473.66,372.07Zm10.61,0v0a3.92,3.92,0,0,0-3.89-4.08,3.8,3.8,0,0,0-3.82,4v0a3.91,3.91,0,0,0,3.86,4.06A3.8,3.8,0,0,0,484.27,372.07Z"/><path class="cls-6" d="M490.12,367a1.43,1.43,0,0,1,1.44-1.46A1.45,1.45,0,0,1,493,367v1.3c.67-1.58,1.92-2.78,3.19-2.78a1.35,1.35,0,0,1,1.44,1.44,1.36,1.36,0,0,1-1.15,1.39c-2.06.36-3.48,1.94-3.48,4.94V377a1.45,1.45,0,0,1-1.46,1.44,1.43,1.43,0,0,1-1.44-1.44Z"/><path class="cls-6" d="M499.55,377.06a1.11,1.11,0,0,1-.55-1,1.16,1.16,0,0,1,1.18-1.18,1.27,1.27,0,0,1,.62.17,6.69,6.69,0,0,0,3.65,1.22c1.25,0,2-.53,2-1.37v0c0-1-1.34-1.32-2.83-1.78-1.87-.53-4-1.3-4-3.72v0c0-2.4,2-3.86,4.51-3.86a8.71,8.71,0,0,1,4,1,1.23,1.23,0,0,1,.7,1.1,1.17,1.17,0,0,1-1.2,1.18,1.14,1.14,0,0,1-.58-.14,6.91,6.91,0,0,0-3-.86c-1.13,0-1.78.53-1.78,1.25v0c0,.94,1.37,1.32,2.86,1.8,1.85.58,3.94,1.42,3.94,3.7v0c0,2.66-2.06,4-4.7,4A8.66,8.66,0,0,1,499.55,377.06Z"/><path class="cls-6" d="M714.44,365.12a1.38,1.38,0,0,1,.82-2.5,1.37,1.37,0,0,1,.86.26,7.29,7.29,0,0,0,4.7,1.73c1.82,0,3-.86,3-2.11v0c0-1.2-.67-1.85-3.79-2.57-3.58-.86-5.59-1.92-5.59-5v0c0-2.88,2.4-4.87,5.74-4.87a9.25,9.25,0,0,1,5.33,1.56,1.33,1.33,0,0,1,.65,1.18,1.37,1.37,0,0,1-1.39,1.37,1.43,1.43,0,0,1-.77-.22,7,7,0,0,0-3.86-1.27c-1.73,0-2.74.89-2.74,2v0c0,1.3.77,1.87,4,2.64,3.55.86,5.38,2.14,5.38,4.92v0c0,3.14-2.47,5-6,5A10.46,10.46,0,0,1,714.44,365.12Z"/><path class="cls-6" d="M730.38,363.49v-6.67h-.48a1.25,1.25,0,0,1,0-2.5h.48v-2.16a1.45,1.45,0,0,1,2.9,0v2.16h2.28a1.25,1.25,0,1,1,0,2.5h-2.28V363a1.38,1.38,0,0,0,1.56,1.58,6.86,6.86,0,0,0,.72-.07,1.22,1.22,0,0,1,1.22,1.2,1.25,1.25,0,0,1-.77,1.13,5.77,5.77,0,0,1-2,.34C731.89,367.21,730.38,366.27,730.38,363.49Z"/><path class="cls-6" d="M738.59,360.73v0a6.76,6.76,0,0,1,13.51,0v0a6.63,6.63,0,0,1-6.79,6.6A6.55,6.55,0,0,1,738.59,360.73Zm10.61,0v0a3.92,3.92,0,0,0-3.89-4.08,3.8,3.8,0,0,0-3.82,4v0a3.91,3.91,0,0,0,3.86,4.06A3.8,3.8,0,0,0,749.19,360.73Z"/><path class="cls-6" d="M755,355.64a1.43,1.43,0,0,1,1.44-1.46,1.45,1.45,0,0,1,1.46,1.46v1.3c.67-1.58,1.92-2.78,3.19-2.78a1.35,1.35,0,0,1,1.44,1.44,1.36,1.36,0,0,1-1.15,1.39c-2.06.36-3.48,1.94-3.48,4.94v3.74a1.45,1.45,0,0,1-1.46,1.44,1.43,1.43,0,0,1-1.44-1.44Z"/><path class="cls-6" d="M763.52,363.34v0c0-2.74,2.14-4.08,5.23-4.08a10.59,10.59,0,0,1,3.41.53v-.31c0-1.8-1.1-2.76-3.14-2.76a7.53,7.53,0,0,0-2.81.5,1.64,1.64,0,0,1-.46.07,1.21,1.21,0,0,1-1.22-1.2,1.27,1.27,0,0,1,.79-1.15,10.86,10.86,0,0,1,4.08-.74,5.68,5.68,0,0,1,4.2,1.42,5.26,5.26,0,0,1,1.37,3.91v6.24a1.38,1.38,0,0,1-1.42,1.39,1.31,1.31,0,0,1-1.42-1.22v-.48a5.15,5.15,0,0,1-4.13,1.85C765.63,367.26,763.52,365.89,763.52,363.34Zm8.69-.91v-.86a8,8,0,0,0-2.88-.5c-1.87,0-3,.79-3,2.11v0c0,1.22,1.08,1.92,2.47,1.92C770.75,365.14,772.21,364,772.21,362.43Z"/><path class="cls-6" d="M779.19,369.75a1.19,1.19,0,0,1-.82-1.15,1.22,1.22,0,0,1,1.22-1.2,1.15,1.15,0,0,1,.53.12,7.75,7.75,0,0,0,3.89,1c2.59,0,4-1.34,4-3.89v-1a5.31,5.31,0,0,1-4.46,2.33,5.69,5.69,0,0,1-5.76-5.93v0a5.71,5.71,0,0,1,5.76-6,5.47,5.47,0,0,1,4.44,2.16v-.6a1.45,1.45,0,1,1,2.9,0v8.76a6.49,6.49,0,0,1-1.61,4.78,7.13,7.13,0,0,1-5.21,1.7A11,11,0,0,1,779.19,369.75Zm8.86-9.72v0a3.54,3.54,0,0,0-3.72-3.48,3.42,3.42,0,0,0-3.6,3.48v0a3.45,3.45,0,0,0,3.6,3.48A3.54,3.54,0,0,0,788.05,360Z"/><path class="cls-6" d="M800.36,367.28a6.32,6.32,0,0,1-6.5-6.58v0a6.29,6.29,0,0,1,6.19-6.6,6,6,0,0,1,6,6.24,1.36,1.36,0,0,1-1.37,1.39h-7.94a3.54,3.54,0,0,0,3.65,3.22,4.55,4.55,0,0,0,3-1.1,1.08,1.08,0,0,1,.74-.26,1.14,1.14,0,0,1,1.15,1.18,1.27,1.27,0,0,1-.38.89A6.51,6.51,0,0,1,800.36,367.28Zm2.88-7.51c-.19-1.87-1.3-3.34-3.22-3.34s-3,1.37-3.29,3.34Z"/><path class="cls-6" d="M688.8,400.74c-3.36-2-5.26-4.8-5.26-8.4s1.9-6.42,5.26-8.4a.67.67,0,0,1,.36-.08.62.62,0,0,1,.6.6.61.61,0,0,1-.3.54c-2.84,1.86-4.36,4.24-4.36,7.34s1.52,5.48,4.36,7.34a.61.61,0,0,1,.3.54.62.62,0,0,1-.6.6A.67.67,0,0,1,688.8,400.74Z"/><path class="cls-6" d="M696.36,391.75h-3.5a.72.72,0,1,1,0-1.44h3.5v-3.46a.75.75,0,0,1,1.5,0v3.46h3.52a.72.72,0,0,1,0,1.44h-3.52v3.46a.75.75,0,0,1-1.5,0Z"/><path class="cls-6" d="M704.48,397l5.68-12.42a1,1,0,0,1,1-.7h.08a1,1,0,0,1,1,.7L717.9,397a1.06,1.06,0,0,1,.1.4.76.76,0,0,1-.76.76.86.86,0,0,1-.78-.58L715,394.38h-7.68l-1.46,3.26a.79.79,0,0,1-.76.54.72.72,0,0,1-.72-.72A.91.91,0,0,1,704.48,397Zm9.9-4.1-3.22-7.16-3.22,7.16Z"/><path class="cls-6" d="M729.44,397.4a.76.76,0,1,1-1.52,0v-1.12a3.94,3.94,0,0,1-3.54,2c-2.5,0-4-1.68-4-4.14v-5.74a.75.75,0,0,1,.76-.78.78.78,0,0,1,.78.78v5.36c0,1.92,1,3.12,2.86,3.12a3.05,3.05,0,0,0,3.1-3.24v-5.24a.75.75,0,0,1,.76-.78.76.76,0,0,1,.76.78Z"/><path class="cls-6" d="M742.74,397.4a.77.77,0,1,1-1.54,0V396a4.65,4.65,0,0,1-4,2.3,5,5,0,0,1-4.94-5.36v0a5.08,5.08,0,0,1,4.94-5.38,4.66,4.66,0,0,1,4,2.2v-5.56a.75.75,0,0,1,.76-.78.77.77,0,0,1,.78.78Zm-8.86-4.52v0a3.74,3.74,0,0,0,3.64,4,3.86,3.86,0,0,0,3.74-4v0a3.84,3.84,0,0,0-3.74-4A3.65,3.65,0,0,0,733.88,392.87Z"/><path class="cls-6" d="M746.18,384.49a.92.92,0,0,1,1.82,0v.26a.92.92,0,0,1-1.82,0Zm.14,3.92a.78.78,0,0,1,.76-.78.77.77,0,0,1,.78.78v9a.75.75,0,0,1-.76.78.77.77,0,0,1-.78-.78Z"/><path class="cls-6" d="M752,395.34v-6.24h-.84a.7.7,0,0,1-.68-.68.69.69,0,0,1,.68-.68H752v-2.44a.76.76,0,0,1,.76-.78.79.79,0,0,1,.78.78v2.44h2.68a.71.71,0,0,1,.7.68.69.69,0,0,1-.7.68h-2.68v6a1.53,1.53,0,0,0,1.74,1.72,4.36,4.36,0,0,0,.94-.14.67.67,0,0,1,.66.66.64.64,0,0,1-.44.6,3.89,3.89,0,0,1-1.52.28A2.63,2.63,0,0,1,752,395.34Z"/><path class="cls-6" d="M759,399.72a1.56,1.56,0,0,0,1.12-1.64,1,1,0,0,1-.78-1v-.32a.89.89,0,0,1,.92-.92,1,1,0,0,1,1,1.1v.38a3.24,3.24,0,0,1-.72,2.4,2.45,2.45,0,0,1-1.36.72.39.39,0,0,1-.16-.76Z"/><path class="cls-6" d="M769.82,397l5.68-12.42a1,1,0,0,1,1-.7h.08a1,1,0,0,1,1,.7l5.68,12.4a1.06,1.06,0,0,1,.1.4.76.76,0,0,1-.76.76.86.86,0,0,1-.78-.58l-1.46-3.22h-7.68l-1.46,3.26a.79.79,0,0,1-.76.54.72.72,0,0,1-.72-.72A.91.91,0,0,1,769.82,397Zm9.9-4.1-3.22-7.16-3.22,7.16Z"/><path class="cls-6" d="M785,393v0a5.38,5.38,0,0,1,9.1-3.9.73.73,0,0,1,.24.54.74.74,0,0,1-.74.74.8.8,0,0,1-.5-.18,4,4,0,0,0-2.82-1.24,3.82,3.82,0,0,0-3.7,4v0a3.86,3.86,0,0,0,3.8,4,4.13,4.13,0,0,0,2.88-1.26.61.61,0,0,1,.44-.2.72.72,0,0,1,.7.7.7.7,0,0,1-.2.48,5.2,5.2,0,0,1-3.9,1.66A5.31,5.31,0,0,1,785,393Z"/><path class="cls-6" d="M796.16,393v0a5.38,5.38,0,0,1,9.1-3.9.73.73,0,0,1,.24.54.74.74,0,0,1-.74.74.8.8,0,0,1-.5-.18,4,4,0,0,0-2.82-1.24,3.82,3.82,0,0,0-3.7,4v0a3.86,3.86,0,0,0,3.8,4,4.13,4.13,0,0,0,2.88-1.26.61.61,0,0,1,.44-.2.72.72,0,0,1,.7.7.7.7,0,0,1-.2.48,5.2,5.2,0,0,1-3.9,1.66A5.31,5.31,0,0,1,796.16,393Z"/><path class="cls-6" d="M812.44,398.32a5.14,5.14,0,0,1-5.16-5.38v0a5.1,5.1,0,0,1,5-5.38c3.06,0,4.8,2.5,4.8,5.24a.72.72,0,0,1-.72.72h-7.48a3.61,3.61,0,0,0,3.64,3.5,4.23,4.23,0,0,0,3-1.2.66.66,0,0,1,1.12.48.67.67,0,0,1-.24.5A5.26,5.26,0,0,1,812.44,398.32Zm3.06-6c-.16-1.88-1.24-3.52-3.3-3.52a3.57,3.57,0,0,0-3.36,3.52Z"/><path class="cls-6" d="M819.2,397a.7.7,0,0,1-.28-.56.67.67,0,0,1,.68-.66.62.62,0,0,1,.38.12,5.81,5.81,0,0,0,3.28,1.1c1.24,0,2.14-.64,2.14-1.64v0c0-1-1.22-1.44-2.58-1.82-1.62-.46-3.42-1-3.42-2.92v0c0-1.78,1.48-3,3.52-3a7.2,7.2,0,0,1,3.3.88.75.75,0,0,1,.38.64.67.67,0,0,1-.68.66.77.77,0,0,1-.34-.08,5.6,5.6,0,0,0-2.7-.8c-1.22,0-2,.64-2,1.5v0c0,1,1.28,1.36,2.66,1.78,1.6.48,3.32,1.1,3.32,3v0c0,2-1.62,3.1-3.68,3.1A7.16,7.16,0,0,1,819.2,397Z"/><path class="cls-6" d="M829,397a.7.7,0,0,1-.28-.56.67.67,0,0,1,.68-.66.62.62,0,0,1,.38.12A5.81,5.81,0,0,0,833,397c1.24,0,2.14-.64,2.14-1.64v0c0-1-1.22-1.44-2.58-1.82-1.62-.46-3.42-1-3.42-2.92v0c0-1.78,1.48-3,3.52-3a7.2,7.2,0,0,1,3.3.88.75.75,0,0,1,.38.64.67.67,0,0,1-.68.66.77.77,0,0,1-.34-.08,5.6,5.6,0,0,0-2.7-.8c-1.22,0-2,.64-2,1.5v0c0,1,1.28,1.36,2.66,1.78,1.6.48,3.32,1.1,3.32,3v0c0,2-1.62,3.1-3.68,3.1A7.16,7.16,0,0,1,829,397Z"/><path class="cls-6" d="M693,408.79a.79.79,0,0,1,.78-.78H694a.87.87,0,0,1,.74.42l5,7.52,5-7.52a.85.85,0,0,1,.74-.42h.18a.79.79,0,0,1,.78.78v12.58a.8.8,0,0,1-.78.8.82.82,0,0,1-.8-.8V410.93l-4.48,6.58a.77.77,0,0,1-.66.4.8.8,0,0,1-.68-.4L694.54,411V421.4a.77.77,0,1,1-1.54,0Z"/><path class="cls-6" d="M709.32,419.08v0c0-2.18,1.8-3.34,4.42-3.34a11,11,0,0,1,3.18.44v-.36c0-1.86-1.14-2.82-3.08-2.82a6.46,6.46,0,0,0-2.68.58.79.79,0,0,1-.28.06.68.68,0,0,1-.68-.66.71.71,0,0,1,.42-.64,8.16,8.16,0,0,1,3.38-.7,4.54,4.54,0,0,1,3.34,1.14,4.08,4.08,0,0,1,1.06,3v5.66a.73.73,0,0,1-.74.76.71.71,0,0,1-.74-.72v-.94a4.53,4.53,0,0,1-3.74,1.78C711.26,422.3,709.32,421.2,709.32,419.08Zm7.62-.8v-1a10.78,10.78,0,0,0-3-.44c-1.94,0-3,.84-3,2.14v0c0,1.3,1.2,2.06,2.6,2.06C715.38,421.08,716.94,419.92,716.94,418.28Z"/><path class="cls-6" d="M721.68,412.41a.78.78,0,0,1,.76-.78.77.77,0,0,1,.78.78v1.12a3.92,3.92,0,0,1,3.54-2c2.5,0,4,1.68,4,4.14v5.74a.77.77,0,1,1-1.54,0V416c0-1.92-1-3.12-2.86-3.12a3,3,0,0,0-3.1,3.24v5.24a.75.75,0,0,1-.76.78.77.77,0,0,1-.78-.78Z"/><path class="cls-6" d="M733.22,419.08v0c0-2.18,1.8-3.34,4.42-3.34a11,11,0,0,1,3.18.44v-.36c0-1.86-1.14-2.82-3.08-2.82a6.46,6.46,0,0,0-2.68.58.79.79,0,0,1-.28.06.68.68,0,0,1-.68-.66.71.71,0,0,1,.42-.64,8.16,8.16,0,0,1,3.38-.7,4.54,4.54,0,0,1,3.34,1.14,4.08,4.08,0,0,1,1.06,3v5.66a.73.73,0,0,1-.74.76.71.71,0,0,1-.74-.72v-.94a4.53,4.53,0,0,1-3.74,1.78C735.16,422.3,733.22,421.2,733.22,419.08Zm7.62-.8v-1a10.78,10.78,0,0,0-3-.44c-1.94,0-3,.84-3,2.14v0c0,1.3,1.2,2.06,2.6,2.06C739.28,421.08,740.84,419.92,740.84,418.28Z"/><path class="cls-6" d="M745.84,424.1a.71.71,0,0,1-.4-.64.73.73,0,0,1,.7-.68.62.62,0,0,1,.34.1,6.53,6.53,0,0,0,3.66,1.12c2.28,0,3.76-1.26,3.76-3.68V419.1a4.9,4.9,0,0,1-4.06,2.18,4.78,4.78,0,0,1-4.86-4.84v0a4.9,4.9,0,0,1,8.9-2.8v-1.18a.76.76,0,0,1,.76-.78.78.78,0,0,1,.78.78v7.86a5,5,0,0,1-1.32,3.66,5.44,5.44,0,0,1-3.94,1.38A8.1,8.1,0,0,1,745.84,424.1Zm8.1-7.68v0a3.62,3.62,0,0,0-3.8-3.5,3.42,3.42,0,0,0-3.58,3.48v0a3.5,3.5,0,0,0,3.58,3.52A3.65,3.65,0,0,0,753.94,416.41Z"/><path class="cls-6" d="M763.38,422.32a5.14,5.14,0,0,1-5.16-5.38v0a5.1,5.1,0,0,1,5-5.38c3.06,0,4.8,2.5,4.8,5.24a.72.72,0,0,1-.72.72h-7.48a3.61,3.61,0,0,0,3.64,3.5,4.23,4.23,0,0,0,3-1.2.66.66,0,0,1,1.12.48.66.66,0,0,1-.24.5A5.26,5.26,0,0,1,763.38,422.32Zm3.06-6c-.16-1.88-1.24-3.52-3.3-3.52a3.57,3.57,0,0,0-3.36,3.52Z"/><path class="cls-6" d="M770.7,412.41a.78.78,0,0,1,.76-.78.77.77,0,0,1,.78.78v1.06a3.78,3.78,0,0,1,3.34-2,3.51,3.51,0,0,1,3.32,2.06,4.12,4.12,0,0,1,3.64-2.06c2.38,0,3.84,1.6,3.84,4.16v5.72a.77.77,0,1,1-1.54,0V416c0-2-1-3.12-2.68-3.12a2.88,2.88,0,0,0-2.84,3.2v5.28a.77.77,0,1,1-1.54,0V416c0-1.94-1-3.08-2.66-3.08a3,3,0,0,0-2.88,3.26v5.22a.75.75,0,0,1-.76.78.77.77,0,0,1-.78-.78Z"/><path class="cls-6" d="M794.24,422.32a5.14,5.14,0,0,1-5.16-5.38v0a5.1,5.1,0,0,1,5-5.38c3.06,0,4.8,2.5,4.8,5.24a.72.72,0,0,1-.72.72h-7.48a3.61,3.61,0,0,0,3.64,3.5,4.23,4.23,0,0,0,3-1.2.66.66,0,0,1,1.12.48.67.67,0,0,1-.24.5A5.26,5.26,0,0,1,794.24,422.32Zm3.06-6c-.16-1.88-1.24-3.52-3.3-3.52a3.57,3.57,0,0,0-3.36,3.52Z"/><path class="cls-6" d="M801.56,412.41a.78.78,0,0,1,.76-.78.77.77,0,0,1,.78.78v1.12a3.92,3.92,0,0,1,3.54-2c2.5,0,4,1.68,4,4.14v5.74a.77.77,0,1,1-1.54,0V416c0-1.92-1-3.12-2.86-3.12a3,3,0,0,0-3.1,3.24v5.24a.75.75,0,0,1-.76.78.77.77,0,0,1-.78-.78Z"/><path class="cls-6" d="M814.42,419.34v-6.24h-.84a.7.7,0,0,1-.68-.68.69.69,0,0,1,.68-.68h.84v-2.44a.76.76,0,0,1,.76-.78.79.79,0,0,1,.78.78v2.44h2.68a.71.71,0,0,1,.7.68.69.69,0,0,1-.7.68H816v6a1.53,1.53,0,0,0,1.74,1.72,4.36,4.36,0,0,0,.94-.14.67.67,0,0,1,.66.66.64.64,0,0,1-.44.6,3.89,3.89,0,0,1-1.52.28A2.63,2.63,0,0,1,814.42,419.34Z"/><path class="cls-6" d="M821.34,424.22a.61.61,0,0,1,.3-.54c2.84-1.86,4.36-4.24,4.36-7.34s-1.52-5.48-4.36-7.34a.61.61,0,0,1-.3-.54.61.61,0,0,1,.6-.6.68.68,0,0,1,.36.08c3.36,2,5.26,4.8,5.26,8.4s-1.9,6.42-5.26,8.4a.68.68,0,0,1-.36.08A.61.61,0,0,1,821.34,424.22Z"/><path class="cls-6" d="M547.85,29.48a2.09,2.09,0,0,1,4.18,0V39.54l11.29-11.35a2.2,2.2,0,0,1,1.73-.78A1.91,1.91,0,0,1,567,29.35a2,2,0,0,1-.75,1.56L558.83,38l8,10a2.27,2.27,0,0,1,.58,1.5,2,2,0,0,1-2.11,2,2.12,2.12,0,0,1-1.77-1L555.9,40.8,552,44.54v4.93a2.09,2.09,0,0,1-4.18,0Z"/><path class="cls-6" d="M572.09,49.27V29.69a2.08,2.08,0,0,1,2.11-2.11H588a1.89,1.89,0,0,1,1.87,1.87A1.86,1.86,0,0,1,588,31.32H576.27V37.5H586.5a1.89,1.89,0,0,1,1.87,1.9,1.86,1.86,0,0,1-1.87,1.84H576.27v6.39H588.2a1.89,1.89,0,0,1,1.87,1.87,1.86,1.86,0,0,1-1.87,1.87h-14A2.08,2.08,0,0,1,572.09,49.27Z"/><path class="cls-6" d="M594.87,29.69A2.08,2.08,0,0,1,597,27.58h8.57a8.59,8.59,0,0,1,6.22,2.11,5.33,5.33,0,0,1,1.6,3.94v.07A5.67,5.67,0,0,1,610,39c2.79,1,4.73,2.55,4.73,5.78v.07c0,4.25-3.5,6.53-8.81,6.53H597a2.08,2.08,0,0,1-2.11-2.11Zm9.83,7.92c2.69,0,4.49-1.05,4.49-3.23v-.07c0-1.87-1.5-3-4.18-3h-6v6.32Zm1.22,10.06c2.86,0,4.59-1.12,4.59-3.26v-.07c0-2-1.6-3.2-4.9-3.2H599v6.53Z"/><path class="cls-6" d="M618.36,39.54v-.07a12.44,12.44,0,0,1,24.89-.07v.07a12.44,12.44,0,0,1-24.89.07Zm20.5,0v-.07A8.15,8.15,0,0,0,630.77,31c-4.73,0-8,3.77-8,8.4v.07a8.12,8.12,0,0,0,8.09,8.43C635.56,47.91,638.86,44.17,638.86,39.54Z"/><path class="cls-6" d="M647.26,39.54v-.07a12.44,12.44,0,0,1,24.89-.07v.07a12.44,12.44,0,0,1-24.89.07Zm20.5,0v-.07A8.15,8.15,0,0,0,659.67,31c-4.73,0-8,3.77-8,8.4v.07a8.12,8.12,0,0,0,8.09,8.43C664.46,47.91,667.76,44.17,667.76,39.54Z"/><path class="cls-6" d="M677.21,29.48a2.09,2.09,0,0,1,4.18,0V47.57h10.78a1.9,1.9,0,1,1,0,3.81H679.32a2.08,2.08,0,0,1-2.11-2.11Z"/><path class="cls-6" d="M696.9,48.66l8.84-19.72a2.65,2.65,0,0,1,2.52-1.7h.2a2.61,2.61,0,0,1,2.48,1.7l8.84,19.72a1.82,1.82,0,0,1,.24.88,2,2,0,0,1-2,2,2.15,2.15,0,0,1-2-1.46l-1.94-4.45H702.51l-2,4.59a2,2,0,0,1-1.94,1.33,1.92,1.92,0,0,1-1.94-1.94A2.14,2.14,0,0,1,696.9,48.66Zm15.57-6.73-4.18-9.62-4.18,9.62Z"/><path class="cls-6" d="M733.69,39.54v-.07A12,12,0,0,1,746,27.17a12.48,12.48,0,0,1,8.16,2.69,2.09,2.09,0,0,1,.82,1.67,2.09,2.09,0,0,1-3.33,1.63A8.63,8.63,0,0,0,745.93,31c-4.52,0-7.85,3.74-7.85,8.4v.07c0,4.66,3.3,8.43,7.85,8.43a8.53,8.53,0,0,0,5.95-2.28,1.9,1.9,0,0,1,1.26-.48,2,2,0,0,1,2,1.94,2,2,0,0,1-.68,1.5,12.16,12.16,0,0,1-8.64,3.2A12,12,0,0,1,733.69,39.54Z"/><path class="cls-6" d="M758.1,39.54v-.07A12.44,12.44,0,0,1,783,39.41v.07a12.44,12.44,0,0,1-24.89.07Zm20.5,0v-.07A8.15,8.15,0,0,0,770.51,31c-4.73,0-8,3.77-8,8.4v.07a8.12,8.12,0,0,0,8.09,8.43C775.3,47.91,778.6,44.17,778.6,39.54Z"/><path class="cls-6" d="M788.05,29.55a2.1,2.1,0,0,1,2.11-2.11h.44a2.63,2.63,0,0,1,2.18,1.22l11.9,15.4V29.45a2.06,2.06,0,0,1,4.11,0v20a2,2,0,0,1-2,2.07h-.17a2.63,2.63,0,0,1-2.18-1.26L792.17,34.41V49.51a2.06,2.06,0,0,1-4.11,0Z"/><path class="cls-6" d="M814.91,29.55A2.1,2.1,0,0,1,817,27.44h.44a2.63,2.63,0,0,1,2.18,1.22l11.9,15.4V29.45a2.06,2.06,0,0,1,4.11,0v20a2,2,0,0,1-2,2.07h-.17a2.63,2.63,0,0,1-2.18-1.26L819,34.41V49.51a2.06,2.06,0,0,1-4.11,0Z"/><path class="cls-6" d="M841.77,49.27V29.69a2.08,2.08,0,0,1,2.11-2.11h13.84a1.89,1.89,0,0,1,1.87,1.87,1.86,1.86,0,0,1-1.87,1.87H846V37.5h10.23a1.89,1.89,0,0,1,1.87,1.9,1.86,1.86,0,0,1-1.87,1.84H846v6.39h11.93a1.89,1.89,0,0,1,1.87,1.87,1.86,1.86,0,0,1-1.87,1.87h-14A2.08,2.08,0,0,1,841.77,49.27Z"/><path class="cls-6" d="M863.5,39.54v-.07a12,12,0,0,1,12.27-12.31,12.48,12.48,0,0,1,8.16,2.69,2.09,2.09,0,0,1,.82,1.67,2.09,2.09,0,0,1-3.33,1.63A8.63,8.63,0,0,0,875.74,31c-4.52,0-7.85,3.74-7.85,8.4v.07c0,4.66,3.3,8.43,7.85,8.43a8.53,8.53,0,0,0,6-2.28,1.9,1.9,0,0,1,1.26-.48,2,2,0,0,1,2,1.94,2,2,0,0,1-.68,1.5,12.16,12.16,0,0,1-8.64,3.2A12,12,0,0,1,863.5,39.54Z"/><path class="cls-6" d="M895.49,31.45h-5.78a1.94,1.94,0,1,1,0-3.88h15.81a1.94,1.94,0,0,1,0,3.88h-5.81v18a2.11,2.11,0,0,1-4.22,0Z"/><path class="cls-6" d="M911.91,29.48a2.09,2.09,0,0,1,4.18,0v20a2.09,2.09,0,0,1-4.18,0Z"/><path class="cls-6" d="M921.4,39.54v-.07a12.44,12.44,0,0,1,24.89-.07v.07a12.44,12.44,0,0,1-24.89.07Zm20.5,0v-.07A8.15,8.15,0,0,0,933.81,31c-4.73,0-8,3.77-8,8.4v.07a8.12,8.12,0,0,0,8.09,8.43C938.6,47.91,941.9,44.17,941.9,39.54Z"/><path class="cls-6" d="M951.35,29.55a2.1,2.1,0,0,1,2.11-2.11h.44a2.63,2.63,0,0,1,2.18,1.22L968,44.07V29.45a2.06,2.06,0,0,1,4.11,0v20a2,2,0,0,1-2,2.07h-.17a2.63,2.63,0,0,1-2.18-1.26L955.47,34.41V49.51a2.06,2.06,0,0,1-4.11,0Z"/><path class="cls-6" d="M400.37,163.24a1.38,1.38,0,0,1,.82-2.5,1.37,1.37,0,0,1,.86.26,7.29,7.29,0,0,0,4.7,1.73c1.82,0,3-.86,3-2.11v0c0-1.2-.67-1.85-3.79-2.57-3.58-.86-5.59-1.92-5.59-5v0c0-2.88,2.4-4.87,5.74-4.87a9.25,9.25,0,0,1,5.33,1.56,1.33,1.33,0,0,1,.65,1.18,1.37,1.37,0,0,1-1.39,1.37,1.43,1.43,0,0,1-.77-.22,7,7,0,0,0-3.86-1.27c-1.73,0-2.74.89-2.74,2v0c0,1.3.77,1.87,4,2.64,3.55.86,5.38,2.14,5.38,4.92v0c0,3.14-2.47,5-6,5A10.46,10.46,0,0,1,400.37,163.24Z"/><path class="cls-6" d="M421.64,165.4a6.32,6.32,0,0,1-6.5-6.58v0a6.29,6.29,0,0,1,6.19-6.6,6,6,0,0,1,6,6.24,1.36,1.36,0,0,1-1.37,1.39H418a3.54,3.54,0,0,0,3.65,3.22,4.55,4.55,0,0,0,3-1.1,1.08,1.08,0,0,1,.74-.26,1.14,1.14,0,0,1,1.15,1.18,1.27,1.27,0,0,1-.38.89A6.51,6.51,0,0,1,421.64,165.4Zm2.88-7.51c-.19-1.87-1.3-3.34-3.22-3.34s-3,1.37-3.29,3.34Z"/><path class="cls-6" d="M429.63,158.85v0a6.54,6.54,0,0,1,6.6-6.62,6.42,6.42,0,0,1,4.44,1.58,1.38,1.38,0,0,1,.46,1,1.32,1.32,0,0,1-1.34,1.32,1.48,1.48,0,0,1-.86-.29,4,4,0,0,0-2.71-1.08,3.82,3.82,0,0,0-3.67,4v0a3.83,3.83,0,0,0,3.79,4.06,4.23,4.23,0,0,0,2.83-1.13,1.22,1.22,0,0,1,2,1,1.13,1.13,0,0,1-.41.91,6.2,6.2,0,0,1-4.61,1.8A6.47,6.47,0,0,1,429.63,158.85Z"/><path class="cls-6" d="M455.29,163.79a1.46,1.46,0,0,1-2.93,0v-.65a4.56,4.56,0,0,1-4,2.23c-2.86,0-4.51-1.92-4.51-4.87v-6.74a1.45,1.45,0,1,1,2.9,0v5.88c0,2,1,3.07,2.71,3.07a2.8,2.8,0,0,0,2.86-3.12v-5.83a1.45,1.45,0,0,1,1.46-1.46,1.47,1.47,0,0,1,1.46,1.46Z"/><path class="cls-6" d="M458.91,153.76a1.43,1.43,0,0,1,1.44-1.46,1.45,1.45,0,0,1,1.46,1.46v1.3c.67-1.58,1.92-2.78,3.19-2.78a1.35,1.35,0,0,1,1.44,1.44,1.36,1.36,0,0,1-1.15,1.39c-2.06.36-3.48,1.94-3.48,4.94v3.74a1.45,1.45,0,0,1-1.46,1.44,1.43,1.43,0,0,1-1.44-1.44Z"/><path class="cls-6" d="M468.77,149a1.68,1.68,0,0,1,3.31,0v.14a1.67,1.67,0,0,1-3.31,0Zm.22,4.73a1.43,1.43,0,0,1,1.44-1.46,1.45,1.45,0,0,1,1.46,1.46v10a1.45,1.45,0,0,1-2.9,0Z"/><path class="cls-6" d="M476.28,161.61v-6.67h-.48a1.25,1.25,0,0,1,0-2.5h.48v-2.16a1.45,1.45,0,0,1,2.9,0v2.16h2.28a1.25,1.25,0,1,1,0,2.5h-2.28v6.22a1.38,1.38,0,0,0,1.56,1.58,6.86,6.86,0,0,0,.72-.07,1.22,1.22,0,0,1,1.22,1.2,1.25,1.25,0,0,1-.77,1.13,5.77,5.77,0,0,1-2,.34C477.8,165.33,476.28,164.39,476.28,161.61Z"/><path class="cls-6" d="M485.84,168.66a1.24,1.24,0,0,1-.91-1.2,1.17,1.17,0,0,1,1.18-1.2,1.49,1.49,0,0,1,.53.1,3.28,3.28,0,0,0,1,.17c.86,0,1.32-.36,1.8-1.34l.1-.26-4.7-10.51a2,2,0,0,1-.17-.7,1.39,1.39,0,0,1,1.44-1.42,1.46,1.46,0,0,1,1.42,1.1l3.41,8.42,3.17-8.42a1.49,1.49,0,0,1,1.39-1.1,1.37,1.37,0,0,1,1.39,1.37,2.61,2.61,0,0,1-.12.7l-4.63,11.11c-1.08,2.59-2.23,3.55-4.27,3.55A5.13,5.13,0,0,1,485.84,168.66Z"/><path class="cls-6" d="M384.7,178.5a1.48,1.48,0,0,1,1.49-1.49h.31a1.55,1.55,0,0,1,1.37.79l5.09,8,5.11-8a1.49,1.49,0,0,1,1.34-.77h.31a1.48,1.48,0,0,1,1.49,1.49v14.06a1.46,1.46,0,0,1-1.49,1.46,1.49,1.49,0,0,1-1.46-1.46V182.48l-4.1,6.17a1.38,1.38,0,0,1-2.47,0l-4.08-6.12v10.06a1.43,1.43,0,0,1-1.46,1.44,1.41,1.41,0,0,1-1.44-1.44Z"/><path class="cls-6" d="M404.5,187.64v0a6.76,6.76,0,0,1,13.51,0v0a6.63,6.63,0,0,1-6.79,6.6A6.55,6.55,0,0,1,404.5,187.64Zm10.61,0v0a3.92,3.92,0,0,0-3.89-4.08,3.8,3.8,0,0,0-3.82,4v0a3.91,3.91,0,0,0,3.86,4.06A3.8,3.8,0,0,0,415.11,187.64Z"/><path class="cls-6" d="M421,182.56a1.43,1.43,0,0,1,1.44-1.46,1.45,1.45,0,0,1,1.46,1.46v.62a4.59,4.59,0,0,1,4-2.21c2.86,0,4.51,1.92,4.51,4.85v6.77A1.41,1.41,0,0,1,430.9,194a1.43,1.43,0,0,1-1.46-1.44v-5.88c0-2-1-3.1-2.71-3.1a2.82,2.82,0,0,0-2.86,3.14v5.83a1.45,1.45,0,0,1-2.9,0Z"/><path class="cls-6" d="M435.8,177.83a1.68,1.68,0,0,1,3.31,0V178a1.67,1.67,0,0,1-3.31,0Zm.22,4.73a1.43,1.43,0,0,1,1.44-1.46,1.45,1.45,0,0,1,1.46,1.46v10a1.45,1.45,0,0,1-2.9,0Z"/><path class="cls-6" d="M443.31,190.41v-6.67h-.48a1.25,1.25,0,0,1,0-2.5h.48v-2.16a1.45,1.45,0,0,1,2.9,0v2.16h2.28a1.25,1.25,0,1,1,0,2.5h-2.28v6.22a1.38,1.38,0,0,0,1.56,1.58,6.86,6.86,0,0,0,.72-.07,1.22,1.22,0,0,1,1.22,1.2,1.25,1.25,0,0,1-.77,1.13,5.77,5.77,0,0,1-2,.34C444.82,194.13,443.31,193.19,443.31,190.41Z"/><path class="cls-6" d="M451.52,187.64v0a6.76,6.76,0,0,1,13.51,0v0a6.63,6.63,0,0,1-6.79,6.6A6.55,6.55,0,0,1,451.52,187.64Zm10.61,0v0a3.92,3.92,0,0,0-3.89-4.08,3.8,3.8,0,0,0-3.82,4v0a3.91,3.91,0,0,0,3.86,4.06A3.8,3.8,0,0,0,462.13,187.64Z"/><path class="cls-6" d="M468,182.56a1.43,1.43,0,0,1,1.44-1.46,1.45,1.45,0,0,1,1.46,1.46v1.3c.67-1.58,1.92-2.78,3.19-2.78a1.35,1.35,0,0,1,1.44,1.44,1.36,1.36,0,0,1-1.15,1.39c-2.06.36-3.48,1.94-3.48,4.94v3.74a1.45,1.45,0,0,1-1.46,1.44,1.43,1.43,0,0,1-1.44-1.44Z"/><path class="cls-6" d="M477.85,177.83a1.68,1.68,0,0,1,3.31,0V178a1.67,1.67,0,0,1-3.31,0Zm.22,4.73a1.43,1.43,0,0,1,1.44-1.46,1.45,1.45,0,0,1,1.46,1.46v10a1.45,1.45,0,0,1-2.9,0Z"/><path class="cls-6" d="M484.76,182.56a1.43,1.43,0,0,1,1.44-1.46,1.45,1.45,0,0,1,1.46,1.46v.62a4.59,4.59,0,0,1,4-2.21c2.86,0,4.51,1.92,4.51,4.85v6.77a1.41,1.41,0,0,1-1.44,1.44,1.43,1.43,0,0,1-1.46-1.44v-5.88c0-2-1-3.1-2.71-3.1a2.82,2.82,0,0,0-2.86,3.14v5.83a1.45,1.45,0,0,1-2.9,0Z"/><path class="cls-6" d="M500.38,196.67a1.19,1.19,0,0,1-.82-1.15,1.22,1.22,0,0,1,1.22-1.2,1.15,1.15,0,0,1,.53.12,7.75,7.75,0,0,0,3.89,1c2.59,0,4-1.34,4-3.89v-1a5.31,5.31,0,0,1-4.46,2.33A5.69,5.69,0,0,1,499,187v0a5.71,5.71,0,0,1,5.76-6,5.47,5.47,0,0,1,4.44,2.16v-.6a1.45,1.45,0,0,1,2.9,0v8.76a6.48,6.48,0,0,1-1.61,4.78,7.13,7.13,0,0,1-5.21,1.7A11,11,0,0,1,500.38,196.67Zm8.86-9.72v0a3.54,3.54,0,0,0-3.72-3.48,3.42,3.42,0,0,0-3.6,3.48v0a3.45,3.45,0,0,0,3.6,3.48A3.54,3.54,0,0,0,509.24,186.95Z"/><path class="cls-6" d="M652.16,800.16a1.42,1.42,0,0,1-.48-1.06,1.43,1.43,0,0,1,1.42-1.42,1.42,1.42,0,0,1,1,.38,5.11,5.11,0,0,0,3.82,1.61,2.63,2.63,0,0,0,2.9-2.54v0c0-1.66-1.51-2.59-3.86-2.59h-.6a1.28,1.28,0,0,1-1.27-1.27,1.68,1.68,0,0,1,.62-1.2l3.94-4.2h-6.1a1.28,1.28,0,1,1,0-2.57h8.59a1.32,1.32,0,0,1,1.46,1.3,2.15,2.15,0,0,1-.84,1.61l-4,4.1c2.54.31,4.94,1.61,4.94,4.7v0c0,3.1-2.38,5.33-5.88,5.33A7.87,7.87,0,0,1,652.16,800.16Z"/><path class="cls-6" d="M667,790.71a1.43,1.43,0,0,1,1.44-1.46,1.45,1.45,0,0,1,1.46,1.46V792c.67-1.58,1.92-2.78,3.19-2.78a1.35,1.35,0,0,1,1.44,1.44,1.36,1.36,0,0,1-1.15,1.39c-2.06.36-3.48,1.94-3.48,4.94v3.74a1.45,1.45,0,0,1-1.46,1.44,1.43,1.43,0,0,1-1.44-1.44Z"/><path class="cls-6" d="M689,800.74a1.45,1.45,0,0,1-2.9,0v-.79a5.07,5.07,0,0,1-4.32,2.38c-3,0-5.88-2.38-5.88-6.58v0c0-4.2,2.86-6.58,5.88-6.58a5.18,5.18,0,0,1,4.32,2.23v-5.5a1.45,1.45,0,0,1,2.9,0Zm-10.18-5v0a3.77,3.77,0,0,0,3.65,4.06,3.82,3.82,0,0,0,3.67-4.06v0a3.8,3.8,0,0,0-3.67-4.06C680.53,791.64,678.87,793.18,678.87,795.7Z"/><path class="cls-6" d="M700.23,786.75a1.47,1.47,0,0,1,1.49-1.49h5.14c3.94,0,6.38,2.23,6.38,5.62v0c0,3.77-3,5.74-6.72,5.74h-3.34v4.06a1.48,1.48,0,0,1-3,0Zm6.38,7.25c2.23,0,3.62-1.25,3.62-3v0c0-2-1.42-3-3.62-3h-3.43v6Z"/><path class="cls-6" d="M714.84,798.41v0c0-2.74,2.14-4.08,5.23-4.08a10.59,10.59,0,0,1,3.41.53v-.31c0-1.8-1.1-2.76-3.14-2.76a7.53,7.53,0,0,0-2.81.5,1.64,1.64,0,0,1-.46.07,1.21,1.21,0,0,1-1.22-1.2,1.27,1.27,0,0,1,.79-1.15,10.86,10.86,0,0,1,4.08-.74,5.68,5.68,0,0,1,4.2,1.42,5.26,5.26,0,0,1,1.37,3.91v6.24a1.38,1.38,0,0,1-1.42,1.39,1.31,1.31,0,0,1-1.42-1.22v-.48a5.15,5.15,0,0,1-4.13,1.85C717,802.32,714.84,801,714.84,798.41Zm8.69-.91v-.86a8,8,0,0,0-2.88-.5c-1.87,0-3,.79-3,2.11v0c0,1.22,1.08,1.92,2.47,1.92C722.07,800.21,723.53,799.11,723.53,797.5Z"/><path class="cls-6" d="M729.77,790.71a1.43,1.43,0,0,1,1.44-1.46,1.45,1.45,0,0,1,1.46,1.46V792c.67-1.58,1.92-2.78,3.19-2.78a1.35,1.35,0,0,1,1.44,1.44,1.36,1.36,0,0,1-1.15,1.39c-2.06.36-3.48,1.94-3.48,4.94v3.74a1.45,1.45,0,0,1-1.46,1.44,1.43,1.43,0,0,1-1.44-1.44Z"/><path class="cls-6" d="M740.29,798.56v-6.67h-.48a1.25,1.25,0,0,1,0-2.5h.48v-2.16a1.45,1.45,0,0,1,2.9,0v2.16h2.28a1.25,1.25,0,1,1,0,2.5h-2.28v6.22a1.38,1.38,0,0,0,1.56,1.58,6.86,6.86,0,0,0,.72-.07,1.22,1.22,0,0,1,1.22,1.2,1.25,1.25,0,0,1-.77,1.13,5.77,5.77,0,0,1-2,.34C741.8,802.28,740.29,801.34,740.29,798.56Z"/><path class="cls-6" d="M749.84,805.61a1.24,1.24,0,0,1-.91-1.2,1.17,1.17,0,0,1,1.18-1.2,1.49,1.49,0,0,1,.53.1,3.28,3.28,0,0,0,1,.17c.86,0,1.32-.36,1.8-1.34l.1-.26-4.7-10.51a2,2,0,0,1-.17-.7,1.39,1.39,0,0,1,1.44-1.42,1.46,1.46,0,0,1,1.42,1.1l3.41,8.42,3.17-8.42a1.49,1.49,0,0,1,1.39-1.1,1.37,1.37,0,0,1,1.39,1.37,2.61,2.61,0,0,1-.12.7l-4.63,11.11C755,805,753.89,806,751.85,806A5.13,5.13,0,0,1,749.84,805.61Z"/><path class="cls-6" d="M770.74,800.19a1.38,1.38,0,0,1,.82-2.5,1.37,1.37,0,0,1,.86.26,7.29,7.29,0,0,0,4.7,1.73c1.82,0,3-.86,3-2.11v0c0-1.2-.67-1.85-3.79-2.57-3.58-.86-5.59-1.92-5.59-5v0c0-2.88,2.4-4.87,5.74-4.87a9.25,9.25,0,0,1,5.33,1.56,1.33,1.33,0,0,1,.65,1.18,1.37,1.37,0,0,1-1.39,1.37,1.43,1.43,0,0,1-.77-.22,7,7,0,0,0-3.86-1.27c-1.73,0-2.74.89-2.74,2v0c0,1.3.77,1.87,4,2.64,3.55.86,5.38,2.14,5.38,4.92v0c0,3.14-2.47,5-6,5A10.46,10.46,0,0,1,770.74,800.19Z"/><path class="cls-6" d="M792,802.35a6.32,6.32,0,0,1-6.5-6.58v0a6.29,6.29,0,0,1,6.19-6.6,6,6,0,0,1,6,6.24,1.36,1.36,0,0,1-1.37,1.39H788.4a3.54,3.54,0,0,0,3.65,3.22,4.55,4.55,0,0,0,3-1.1,1.08,1.08,0,0,1,.74-.26,1.14,1.14,0,0,1,1.15,1.18,1.27,1.27,0,0,1-.38.89A6.51,6.51,0,0,1,792,802.35Zm2.88-7.51c-.19-1.87-1.3-3.34-3.22-3.34s-3,1.37-3.29,3.34Z"/><path class="cls-6" d="M800.69,790.71a1.43,1.43,0,0,1,1.44-1.46,1.45,1.45,0,0,1,1.46,1.46V792c.67-1.58,1.92-2.78,3.19-2.78a1.35,1.35,0,0,1,1.44,1.44,1.36,1.36,0,0,1-1.15,1.39c-2.06.36-3.48,1.94-3.48,4.94v3.74a1.45,1.45,0,0,1-1.46,1.44,1.43,1.43,0,0,1-1.44-1.44Z"/><path class="cls-6" d="M815.88,802.3h-.14a1.8,1.8,0,0,1-1.66-1.27l-4.22-9.67a2.25,2.25,0,0,1-.17-.72,1.47,1.47,0,0,1,2.88-.34l3.26,8.4,3.31-8.45a1.45,1.45,0,0,1,1.37-1,1.38,1.38,0,0,1,1.42,1.39,1.75,1.75,0,0,1-.17.7l-4.22,9.7A1.84,1.84,0,0,1,815.88,802.3Z"/><path class="cls-6" d="M824.62,786a1.68,1.68,0,0,1,3.31,0v.14a1.67,1.67,0,0,1-3.31,0Zm.22,4.73a1.43,1.43,0,0,1,1.44-1.46,1.45,1.45,0,0,1,1.46,1.46v10a1.45,1.45,0,0,1-2.9,0Z"/><path class="cls-6" d="M830.84,795.79v0a6.54,6.54,0,0,1,6.6-6.62,6.42,6.42,0,0,1,4.44,1.58,1.38,1.38,0,0,1,.46,1A1.32,1.32,0,0,1,841,793a1.48,1.48,0,0,1-.86-.29,4,4,0,0,0-2.71-1.08,3.82,3.82,0,0,0-3.67,4v0a3.83,3.83,0,0,0,3.79,4.06,4.23,4.23,0,0,0,2.83-1.13,1.22,1.22,0,0,1,2,1,1.13,1.13,0,0,1-.41.91,6.2,6.2,0,0,1-4.61,1.8A6.47,6.47,0,0,1,830.84,795.79Z"/><path class="cls-6" d="M850.68,802.35a6.32,6.32,0,0,1-6.5-6.58v0a6.29,6.29,0,0,1,6.19-6.6,6,6,0,0,1,6,6.24,1.36,1.36,0,0,1-1.37,1.39h-7.94a3.54,3.54,0,0,0,3.65,3.22,4.55,4.55,0,0,0,3-1.1,1.08,1.08,0,0,1,.74-.26,1.14,1.14,0,0,1,1.15,1.18,1.27,1.27,0,0,1-.38.89A6.51,6.51,0,0,1,850.68,802.35Zm2.88-7.51c-.19-1.87-1.3-3.34-3.22-3.34s-3,1.37-3.29,3.34Z"/><path class="cls-6" d="M858.89,800.79a1.11,1.11,0,0,1-.55-1,1.16,1.16,0,0,1,1.18-1.18,1.26,1.26,0,0,1,.62.17,6.69,6.69,0,0,0,3.65,1.22c1.25,0,2-.53,2-1.37v0c0-1-1.34-1.32-2.83-1.78-1.87-.53-4-1.3-4-3.72v0c0-2.4,2-3.86,4.51-3.86a8.72,8.72,0,0,1,4,1,1.23,1.23,0,0,1,.7,1.1,1.17,1.17,0,0,1-1.2,1.18,1.14,1.14,0,0,1-.58-.14,6.91,6.91,0,0,0-3-.86c-1.13,0-1.78.53-1.78,1.25v0c0,.94,1.37,1.32,2.86,1.8,1.85.58,3.94,1.42,3.94,3.7v0c0,2.66-2.06,4-4.7,4A8.67,8.67,0,0,1,858.89,800.79Z"/><path class="cls-6" d="M668.88,165.44H664.8a1.37,1.37,0,1,1,0-2.74H676a1.37,1.37,0,0,1,0,2.74h-4.1v12.72a1.49,1.49,0,0,1-3,0Z"/><path class="cls-6" d="M678.24,168.16a1.43,1.43,0,0,1,1.44-1.46,1.45,1.45,0,0,1,1.46,1.46v1.3c.67-1.58,1.92-2.78,3.19-2.78a1.35,1.35,0,0,1,1.44,1.44,1.36,1.36,0,0,1-1.15,1.39c-2.06.36-3.48,1.94-3.48,4.94v3.74a1.45,1.45,0,0,1-1.46,1.44,1.43,1.43,0,0,1-1.44-1.44Z"/><path class="cls-6" d="M686.71,175.86v0c0-2.74,2.14-4.08,5.23-4.08a10.59,10.59,0,0,1,3.41.53v-.31c0-1.8-1.1-2.76-3.14-2.76a7.53,7.53,0,0,0-2.81.5,1.64,1.64,0,0,1-.46.07,1.21,1.21,0,0,1-1.22-1.2,1.27,1.27,0,0,1,.79-1.15,10.86,10.86,0,0,1,4.08-.74,5.68,5.68,0,0,1,4.2,1.42,5.26,5.26,0,0,1,1.37,3.91v6.24a1.38,1.38,0,0,1-1.42,1.39,1.31,1.31,0,0,1-1.42-1.22v-.48a5.15,5.15,0,0,1-4.13,1.85C688.82,179.77,686.71,178.41,686.71,175.86Zm8.69-.91v-.86a8,8,0,0,0-2.88-.5c-1.87,0-3,.79-3,2.11v0c0,1.22,1.08,1.92,2.47,1.92C693.93,177.66,695.4,176.56,695.4,174.95Z"/><path class="cls-6" d="M701.64,168.16a1.43,1.43,0,0,1,1.44-1.46,1.45,1.45,0,0,1,1.46,1.46v.62a4.59,4.59,0,0,1,4-2.21c2.86,0,4.51,1.92,4.51,4.85v6.77a1.41,1.41,0,0,1-1.44,1.44,1.43,1.43,0,0,1-1.46-1.44v-5.88c0-2-1-3.1-2.71-3.1a2.82,2.82,0,0,0-2.86,3.14v5.83a1.45,1.45,0,0,1-2.9,0Z"/><path class="cls-6" d="M716,178.24a1.11,1.11,0,0,1-.55-1,1.16,1.16,0,0,1,1.18-1.18,1.27,1.27,0,0,1,.62.17,6.69,6.69,0,0,0,3.65,1.22c1.25,0,2-.53,2-1.37v0c0-1-1.34-1.32-2.83-1.78-1.87-.53-4-1.3-4-3.72v0c0-2.4,2-3.86,4.51-3.86a8.71,8.71,0,0,1,4,1,1.23,1.23,0,0,1,.7,1.1,1.17,1.17,0,0,1-1.2,1.18,1.15,1.15,0,0,1-.58-.14,6.91,6.91,0,0,0-3-.86c-1.13,0-1.78.53-1.78,1.25v0c0,.94,1.37,1.32,2.86,1.8,1.85.58,3.94,1.42,3.94,3.7v0c0,2.66-2.06,4-4.7,4A8.66,8.66,0,0,1,716,178.24Z"/><path class="cls-6" d="M729.19,169.33h-.5a1.21,1.21,0,0,1-1.22-1.2,1.23,1.23,0,0,1,1.22-1.22h.5V166a4.28,4.28,0,0,1,1-3.12,3.84,3.84,0,0,1,2.86-1,8.35,8.35,0,0,1,1.46.12,1.21,1.21,0,0,1-.22,2.4,4.7,4.7,0,0,0-.6,0c-1.1,0-1.68.6-1.68,1.92v.7h2.26a1.19,1.19,0,0,1,1.22,1.2,1.21,1.21,0,0,1-1.22,1.2h-2.21v8.86a1.45,1.45,0,0,1-2.9,0Z"/><path class="cls-6" d="M736.63,173.25v0a6.76,6.76,0,0,1,13.51,0v0a6.63,6.63,0,0,1-6.79,6.6A6.55,6.55,0,0,1,736.63,173.25Zm10.61,0v0a3.92,3.92,0,0,0-3.89-4.08,3.8,3.8,0,0,0-3.82,4v0a3.91,3.91,0,0,0,3.86,4.06A3.8,3.8,0,0,0,747.24,173.25Z"/><path class="cls-6" d="M753.09,168.16a1.43,1.43,0,0,1,1.44-1.46,1.45,1.45,0,0,1,1.46,1.46v1.3c.67-1.58,1.92-2.78,3.19-2.78a1.35,1.35,0,0,1,1.44,1.44,1.36,1.36,0,0,1-1.15,1.39c-2.06.36-3.48,1.94-3.48,4.94v3.74a1.45,1.45,0,0,1-1.46,1.44,1.43,1.43,0,0,1-1.44-1.44Z"/><path class="cls-6" d="M763,168.16a1.43,1.43,0,0,1,1.44-1.46,1.45,1.45,0,0,1,1.46,1.46v.6a4.54,4.54,0,0,1,3.86-2.18,4,4,0,0,1,3.79,2.23,5.1,5.1,0,0,1,4.27-2.23c2.76,0,4.44,1.75,4.44,4.85v6.77a1.41,1.41,0,0,1-1.44,1.44,1.43,1.43,0,0,1-1.46-1.44v-5.88c0-2-.94-3.1-2.57-3.1s-2.71,1.1-2.71,3.14v5.83a1.45,1.45,0,0,1-2.9,0v-5.9c0-2-1-3.07-2.57-3.07s-2.71,1.2-2.71,3.14v5.83a1.45,1.45,0,0,1-2.9,0Z"/><path class="cls-6" d="M785,175.86v0c0-2.74,2.14-4.08,5.23-4.08a10.59,10.59,0,0,1,3.41.53v-.31c0-1.8-1.1-2.76-3.14-2.76a7.53,7.53,0,0,0-2.81.5,1.63,1.63,0,0,1-.46.07,1.21,1.21,0,0,1-1.22-1.2,1.27,1.27,0,0,1,.79-1.15,10.86,10.86,0,0,1,4.08-.74,5.68,5.68,0,0,1,4.2,1.42,5.26,5.26,0,0,1,1.37,3.91v6.24a1.38,1.38,0,0,1-1.42,1.39,1.31,1.31,0,0,1-1.42-1.22v-.48a5.15,5.15,0,0,1-4.13,1.85C787.08,179.77,785,178.41,785,175.86Zm8.69-.91v-.86a8.05,8.05,0,0,0-2.88-.5c-1.87,0-3,.79-3,2.11v0c0,1.22,1.08,1.92,2.47,1.92C792.19,177.66,793.65,176.56,793.65,174.95Z"/><path class="cls-6" d="M800.37,176v-6.67h-.48a1.25,1.25,0,1,1,0-2.5h.48v-2.16a1.45,1.45,0,0,1,2.9,0v2.16h2.28a1.25,1.25,0,1,1,0,2.5h-2.28v6.22a1.38,1.38,0,0,0,1.56,1.58,6.83,6.83,0,0,0,.72-.07,1.22,1.22,0,0,1,1.22,1.2,1.25,1.25,0,0,1-.77,1.13,5.77,5.77,0,0,1-2,.34C801.89,179.73,800.37,178.79,800.37,176Z"/><path class="cls-6" d="M809.59,163.43a1.68,1.68,0,0,1,3.31,0v.14a1.67,1.67,0,0,1-3.31,0Zm.22,4.73a1.43,1.43,0,0,1,1.44-1.46,1.45,1.45,0,0,1,1.46,1.46v10a1.45,1.45,0,0,1-2.9,0Z"/><path class="cls-6" d="M815.81,173.25v0a6.76,6.76,0,0,1,13.51,0v0a6.63,6.63,0,0,1-6.79,6.6A6.55,6.55,0,0,1,815.81,173.25Zm10.61,0v0a3.92,3.92,0,0,0-3.89-4.08,3.8,3.8,0,0,0-3.82,4v0a3.91,3.91,0,0,0,3.86,4.06A3.8,3.8,0,0,0,826.41,173.25Z"/><path class="cls-6" d="M832.27,168.16a1.43,1.43,0,0,1,1.44-1.46,1.45,1.45,0,0,1,1.46,1.46v.62a4.59,4.59,0,0,1,4-2.21c2.86,0,4.51,1.92,4.51,4.85v6.77a1.41,1.41,0,0,1-1.44,1.44,1.43,1.43,0,0,1-1.46-1.44v-5.88c0-2-1-3.1-2.71-3.1a2.82,2.82,0,0,0-2.86,3.14v5.83a1.45,1.45,0,0,1-2.9,0Z"/><path class="cls-6" d="M846.67,178.24a1.11,1.11,0,0,1-.55-1,1.16,1.16,0,0,1,1.18-1.18,1.26,1.26,0,0,1,.62.17,6.69,6.69,0,0,0,3.65,1.22c1.25,0,2-.53,2-1.37v0c0-1-1.34-1.32-2.83-1.78-1.87-.53-4-1.3-4-3.72v0c0-2.4,2-3.86,4.51-3.86a8.72,8.72,0,0,1,4,1,1.23,1.23,0,0,1,.7,1.1,1.17,1.17,0,0,1-1.2,1.18,1.14,1.14,0,0,1-.58-.14,6.91,6.91,0,0,0-3-.86c-1.13,0-1.78.53-1.78,1.25v0c0,.94,1.37,1.32,2.86,1.8,1.85.58,3.94,1.42,3.94,3.7v0c0,2.66-2.06,4-4.7,4A8.67,8.67,0,0,1,846.67,178.24Z"/><path class="cls-6" d="M685.39,607l6.24-13.92a1.87,1.87,0,0,1,1.78-1.2h.14a1.84,1.84,0,0,1,1.75,1.2L701.54,607a1.28,1.28,0,0,1,.17.62,1.38,1.38,0,0,1-1.39,1.42,1.52,1.52,0,0,1-1.44-1l-1.37-3.14h-8.16l-1.42,3.24a1.42,1.42,0,0,1-1.37.94,1.35,1.35,0,0,1-1.37-1.37A1.51,1.51,0,0,1,685.39,607Zm11-4.75-3-6.79-3,6.79Z"/><path class="cls-6" d="M704.57,597.61a1.43,1.43,0,0,1,1.44-1.46,1.45,1.45,0,0,1,1.46,1.46v.79a5.07,5.07,0,0,1,4.32-2.38c3,0,5.88,2.35,5.88,6.58v0c0,4.2-2.88,6.58-5.88,6.58a5.18,5.18,0,0,1-4.32-2.23v4.49a1.45,1.45,0,0,1-2.9,0Zm10.15,5v0a3.75,3.75,0,0,0-3.62-4.06,3.82,3.82,0,0,0-3.7,4.06v0a3.82,3.82,0,0,0,3.7,4.06C713.09,606.71,714.72,605.15,714.72,602.66Z"/><path class="cls-6" d="M720.67,597.61a1.43,1.43,0,0,1,1.44-1.46,1.45,1.45,0,0,1,1.46,1.46v.79a5.07,5.07,0,0,1,4.32-2.38c3,0,5.88,2.35,5.88,6.58v0c0,4.2-2.88,6.58-5.88,6.58a5.18,5.18,0,0,1-4.32-2.23v4.49a1.45,1.45,0,0,1-2.9,0Zm10.15,5v0a3.75,3.75,0,0,0-3.62-4.06,3.82,3.82,0,0,0-3.7,4.06v0a3.82,3.82,0,0,0,3.7,4.06C729.19,606.71,730.82,605.15,730.82,602.66Z"/><path class="cls-6" d="M736.94,592.77a1.43,1.43,0,0,1,1.44-1.44,1.45,1.45,0,0,1,1.46,1.44v14.88a1.45,1.45,0,0,1-2.9,0Z"/><path class="cls-6" d="M743.59,592.89a1.68,1.68,0,0,1,3.31,0V593a1.67,1.67,0,0,1-3.31,0Zm.22,4.73a1.43,1.43,0,0,1,1.44-1.46,1.45,1.45,0,0,1,1.46,1.46v10a1.45,1.45,0,0,1-2.9,0Z"/><path class="cls-6" d="M749.8,602.7v0a6.54,6.54,0,0,1,6.6-6.62,6.42,6.42,0,0,1,4.44,1.58,1.38,1.38,0,0,1,.46,1,1.32,1.32,0,0,1-1.34,1.32,1.48,1.48,0,0,1-.86-.29,4,4,0,0,0-2.71-1.08,3.82,3.82,0,0,0-3.67,4v0a3.83,3.83,0,0,0,3.79,4.06,4.23,4.23,0,0,0,2.83-1.13,1.22,1.22,0,0,1,2,1,1.13,1.13,0,0,1-.41.91,6.2,6.2,0,0,1-4.61,1.8A6.47,6.47,0,0,1,749.8,602.7Z"/><path class="cls-6" d="M763.36,605.32v0c0-2.74,2.14-4.08,5.23-4.08a10.59,10.59,0,0,1,3.41.53v-.31c0-1.8-1.1-2.76-3.14-2.76a7.53,7.53,0,0,0-2.81.5,1.64,1.64,0,0,1-.46.07,1.21,1.21,0,0,1-1.22-1.2,1.27,1.27,0,0,1,.79-1.15,10.86,10.86,0,0,1,4.08-.74,5.68,5.68,0,0,1,4.2,1.42,5.26,5.26,0,0,1,1.37,3.91v6.24a1.38,1.38,0,0,1-1.42,1.39,1.31,1.31,0,0,1-1.42-1.22v-.48a5.15,5.15,0,0,1-4.13,1.85C765.48,609.23,763.36,607.86,763.36,605.32Zm8.69-.91v-.86a8,8,0,0,0-2.88-.5c-1.87,0-3,.79-3,2.11v0c0,1.22,1.08,1.92,2.47,1.92C770.59,607.12,772.05,606,772.05,604.41Z"/><path class="cls-6" d="M778.77,605.46v-6.67h-.48a1.25,1.25,0,1,1,0-2.5h.48v-2.16a1.45,1.45,0,0,1,2.9,0v2.16H784a1.25,1.25,0,1,1,0,2.5h-2.28V605a1.38,1.38,0,0,0,1.56,1.58,6.86,6.86,0,0,0,.72-.07,1.22,1.22,0,0,1,1.22,1.2,1.25,1.25,0,0,1-.77,1.13,5.77,5.77,0,0,1-2,.34C780.29,609.18,778.77,608.25,778.77,605.46Z"/><path class="cls-6" d="M788,592.89a1.68,1.68,0,0,1,3.31,0V593a1.67,1.67,0,0,1-3.31,0Zm.22,4.73a1.43,1.43,0,0,1,1.44-1.46,1.45,1.45,0,0,1,1.46,1.46v10a1.45,1.45,0,0,1-2.9,0Z"/><path class="cls-6" d="M794.2,602.7v0a6.76,6.76,0,0,1,13.51,0v0a6.63,6.63,0,0,1-6.79,6.6A6.55,6.55,0,0,1,794.2,602.7Zm10.61,0v0a3.92,3.92,0,0,0-3.89-4.08,3.8,3.8,0,0,0-3.82,4v0a3.91,3.91,0,0,0,3.86,4.06A3.8,3.8,0,0,0,804.81,602.7Z"/><path class="cls-6" d="M810.67,597.61a1.43,1.43,0,0,1,1.44-1.46,1.45,1.45,0,0,1,1.46,1.46v.62a4.59,4.59,0,0,1,4-2.21c2.86,0,4.51,1.92,4.51,4.85v6.77a1.41,1.41,0,0,1-1.44,1.44,1.43,1.43,0,0,1-1.46-1.44v-5.88c0-2-1-3.1-2.71-3.1a2.82,2.82,0,0,0-2.86,3.14v5.83a1.45,1.45,0,0,1-2.9,0Z"/><path class="cls-6" d="M825.07,607.7a1.11,1.11,0,0,1-.55-1,1.16,1.16,0,0,1,1.18-1.18,1.26,1.26,0,0,1,.62.17A6.69,6.69,0,0,0,830,606.9c1.25,0,2-.53,2-1.37v0c0-1-1.34-1.32-2.83-1.78-1.87-.53-4-1.3-4-3.72v0c0-2.4,2-3.86,4.51-3.86a8.72,8.72,0,0,1,4,1,1.23,1.23,0,0,1,.7,1.1,1.17,1.17,0,0,1-1.2,1.18,1.14,1.14,0,0,1-.58-.14,6.91,6.91,0,0,0-3-.86c-1.13,0-1.78.53-1.78,1.25v0c0,.94,1.37,1.32,2.86,1.8,1.85.58,3.94,1.42,3.94,3.7v0c0,2.66-2.06,4-4.7,4A8.67,8.67,0,0,1,825.07,607.7Z"/><path class="cls-6" d="M94.95,364.53A1.47,1.47,0,0,1,96.44,363h4.78c5.28,0,8.93,3.62,8.93,8.35v0c0,4.73-3.65,8.4-8.93,8.4H96.44a1.47,1.47,0,0,1-1.49-1.49Zm6.26,12.63a5.48,5.48,0,0,0,5.83-5.66v0a5.51,5.51,0,0,0-5.83-5.71H97.9v11.43Z"/><path class="cls-6" d="M112.54,376.19v0c0-2.74,2.14-4.08,5.23-4.08a10.59,10.59,0,0,1,3.41.53v-.31c0-1.8-1.1-2.76-3.14-2.76a7.53,7.53,0,0,0-2.81.5,1.64,1.64,0,0,1-.46.07,1.21,1.21,0,0,1-1.22-1.2,1.27,1.27,0,0,1,.79-1.15,10.86,10.86,0,0,1,4.08-.74,5.68,5.68,0,0,1,4.2,1.42,5.26,5.26,0,0,1,1.37,3.91v6.24a1.38,1.38,0,0,1-1.42,1.39,1.31,1.31,0,0,1-1.42-1.22v-.48A5.15,5.15,0,0,1,117,380.1C114.65,380.1,112.54,378.74,112.54,376.19Zm8.69-.91v-.86a8,8,0,0,0-2.88-.5c-1.87,0-3,.79-3,2.11v0c0,1.22,1.08,1.92,2.47,1.92C119.76,378,121.23,376.89,121.23,375.28Z"/><path class="cls-6" d="M127.95,376.33v-6.67h-.48a1.25,1.25,0,0,1,0-2.5h.48V365a1.45,1.45,0,0,1,2.9,0v2.16h2.28a1.25,1.25,0,1,1,0,2.5h-2.28v6.22a1.38,1.38,0,0,0,1.56,1.58,6.86,6.86,0,0,0,.72-.07,1.22,1.22,0,0,1,1.22,1.2,1.25,1.25,0,0,1-.77,1.13,5.77,5.77,0,0,1-2,.34C129.46,380.06,127.95,379.12,127.95,376.33Z"/><path class="cls-6" d="M136.37,376.19v0c0-2.74,2.14-4.08,5.23-4.08a10.59,10.59,0,0,1,3.41.53v-.31c0-1.8-1.1-2.76-3.14-2.76a7.53,7.53,0,0,0-2.81.5,1.64,1.64,0,0,1-.46.07,1.21,1.21,0,0,1-1.22-1.2,1.27,1.27,0,0,1,.79-1.15,10.86,10.86,0,0,1,4.08-.74,5.68,5.68,0,0,1,4.2,1.42,5.26,5.26,0,0,1,1.37,3.91v6.24A1.38,1.38,0,0,1,146.4,380a1.31,1.31,0,0,1-1.42-1.22v-.48a5.15,5.15,0,0,1-4.13,1.85C138.48,380.1,136.37,378.74,136.37,376.19Zm8.69-.91v-.86a8,8,0,0,0-2.88-.5c-1.87,0-3,.79-3,2.11v0c0,1.22,1.08,1.92,2.47,1.92C143.6,378,145.06,376.89,145.06,375.28Z"/><path class="cls-6" d="M75.18,406.77a1.38,1.38,0,0,1,.82-2.5,1.37,1.37,0,0,1,.86.26,7.29,7.29,0,0,0,4.7,1.73c1.82,0,3-.86,3-2.11v0c0-1.2-.67-1.85-3.79-2.57-3.58-.86-5.59-1.92-5.59-5v0c0-2.88,2.4-4.87,5.74-4.87a9.25,9.25,0,0,1,5.33,1.56,1.33,1.33,0,0,1,.65,1.18,1.37,1.37,0,0,1-1.39,1.37,1.43,1.43,0,0,1-.77-.22,7,7,0,0,0-3.86-1.27c-1.73,0-2.74.89-2.74,2v0c0,1.3.77,1.87,4,2.64,3.55.86,5.38,2.14,5.38,4.92v0c0,3.14-2.47,5-6,5A10.46,10.46,0,0,1,75.18,406.77Z"/><path class="cls-6" d="M89.94,402.37v0a6.76,6.76,0,0,1,13.51,0v0a6.63,6.63,0,0,1-6.79,6.6A6.55,6.55,0,0,1,89.94,402.37Zm10.61,0v0a3.92,3.92,0,0,0-3.89-4.08,3.8,3.8,0,0,0-3.82,4v0a3.91,3.91,0,0,0,3.86,4.06A3.8,3.8,0,0,0,100.55,402.37Z"/><path class="cls-6" d="M117.66,407.32a1.46,1.46,0,0,1-2.93,0v-.65a4.56,4.56,0,0,1-4,2.23c-2.86,0-4.51-1.92-4.51-4.87v-6.74a1.45,1.45,0,1,1,2.9,0v5.88c0,2,1,3.07,2.71,3.07a2.8,2.8,0,0,0,2.86-3.12v-5.83a1.45,1.45,0,0,1,1.46-1.46,1.47,1.47,0,0,1,1.46,1.46Z"/><path class="cls-6" d="M121.29,397.29a1.43,1.43,0,0,1,1.44-1.46,1.45,1.45,0,0,1,1.46,1.46v1.3c.67-1.58,1.92-2.78,3.19-2.78a1.35,1.35,0,0,1,1.44,1.44,1.36,1.36,0,0,1-1.15,1.39c-2.06.36-3.48,1.94-3.48,4.94v3.74a1.45,1.45,0,0,1-1.46,1.44,1.43,1.43,0,0,1-1.44-1.44Z"/><path class="cls-6" d="M130.07,402.37v0a6.54,6.54,0,0,1,6.6-6.62,6.42,6.42,0,0,1,4.44,1.58,1.38,1.38,0,0,1,.46,1,1.32,1.32,0,0,1-1.34,1.32,1.48,1.48,0,0,1-.86-.29,4,4,0,0,0-2.71-1.08,3.82,3.82,0,0,0-3.67,4v0a3.83,3.83,0,0,0,3.79,4.06,4.23,4.23,0,0,0,2.83-1.13,1.22,1.22,0,0,1,2,1,1.13,1.13,0,0,1-.41.91,6.2,6.2,0,0,1-4.61,1.8A6.47,6.47,0,0,1,130.07,402.37Z"/><path class="cls-6" d="M149.92,408.93a6.32,6.32,0,0,1-6.5-6.58v0a6.29,6.29,0,0,1,6.19-6.6,6,6,0,0,1,6,6.24,1.36,1.36,0,0,1-1.37,1.39h-7.94a3.54,3.54,0,0,0,3.65,3.22,4.55,4.55,0,0,0,3-1.1,1.08,1.08,0,0,1,.74-.26,1.14,1.14,0,0,1,1.15,1.18,1.27,1.27,0,0,1-.38.89A6.51,6.51,0,0,1,149.92,408.93Zm2.88-7.51c-.19-1.87-1.3-3.34-3.22-3.34s-3,1.37-3.29,3.34Z"/><path class="cls-6" d="M158.13,407.37a1.11,1.11,0,0,1-.55-1,1.16,1.16,0,0,1,1.18-1.18,1.27,1.27,0,0,1,.62.17,6.69,6.69,0,0,0,3.65,1.22c1.25,0,2-.53,2-1.37v0c0-1-1.34-1.32-2.83-1.78-1.87-.53-4-1.3-4-3.72v0c0-2.4,2-3.86,4.51-3.86a8.71,8.71,0,0,1,4,1,1.23,1.23,0,0,1,.7,1.1,1.17,1.17,0,0,1-1.2,1.18,1.14,1.14,0,0,1-.58-.14,6.91,6.91,0,0,0-3-.86c-1.13,0-1.78.53-1.78,1.25v0c0,.94,1.37,1.32,2.86,1.8,1.85.58,3.94,1.42,3.94,3.7v0c0,2.66-2.06,4-4.7,4A8.66,8.66,0,0,1,158.13,407.37Z"/><path class="cls-6" d="M1372.64,364.53a1.47,1.47,0,0,1,1.49-1.49h4.78c5.28,0,8.93,3.62,8.93,8.35v0c0,4.73-3.65,8.4-8.93,8.4h-4.78a1.47,1.47,0,0,1-1.49-1.49Zm6.26,12.63a5.48,5.48,0,0,0,5.83-5.66v0a5.51,5.51,0,0,0-5.83-5.71h-3.31v11.43Z"/><path class="cls-6" d="M1390.23,376.19v0c0-2.74,2.14-4.08,5.23-4.08a10.59,10.59,0,0,1,3.41.53v-.31c0-1.8-1.1-2.76-3.14-2.76a7.53,7.53,0,0,0-2.81.5,1.63,1.63,0,0,1-.46.07,1.21,1.21,0,0,1-1.22-1.2,1.27,1.27,0,0,1,.79-1.15,10.86,10.86,0,0,1,4.08-.74,5.68,5.68,0,0,1,4.2,1.42,5.26,5.26,0,0,1,1.37,3.91v6.24a1.38,1.38,0,0,1-1.42,1.39,1.31,1.31,0,0,1-1.42-1.22v-.48a5.15,5.15,0,0,1-4.13,1.85C1392.34,380.1,1390.23,378.74,1390.23,376.19Zm8.69-.91v-.86a8.05,8.05,0,0,0-2.88-.5c-1.87,0-3,.79-3,2.11v0c0,1.22,1.08,1.92,2.47,1.92C1397.45,378,1398.92,376.89,1398.92,375.28Z"/><path class="cls-6" d="M1405.64,376.33v-6.67h-.48a1.25,1.25,0,0,1,0-2.5h.48V365a1.45,1.45,0,0,1,2.9,0v2.16h2.28a1.25,1.25,0,1,1,0,2.5h-2.28v6.22a1.38,1.38,0,0,0,1.56,1.58,6.83,6.83,0,0,0,.72-.07,1.22,1.22,0,0,1,1.22,1.2,1.25,1.25,0,0,1-.77,1.13,5.77,5.77,0,0,1-2,.34C1407.15,380.06,1405.64,379.12,1405.64,376.33Z"/><path class="cls-6" d="M1414.06,376.19v0c0-2.74,2.14-4.08,5.23-4.08a10.59,10.59,0,0,1,3.41.53v-.31c0-1.8-1.1-2.76-3.14-2.76a7.53,7.53,0,0,0-2.81.5,1.63,1.63,0,0,1-.46.07,1.21,1.21,0,0,1-1.22-1.2,1.27,1.27,0,0,1,.79-1.15,10.86,10.86,0,0,1,4.08-.74,5.68,5.68,0,0,1,4.2,1.42,5.26,5.26,0,0,1,1.37,3.91v6.24a1.38,1.38,0,0,1-1.42,1.39,1.31,1.31,0,0,1-1.42-1.22v-.48a5.15,5.15,0,0,1-4.13,1.85C1416.17,380.1,1414.06,378.74,1414.06,376.19Zm8.69-.91v-.86a8.05,8.05,0,0,0-2.88-.5c-1.87,0-3,.79-3,2.11v0c0,1.22,1.08,1.92,2.47,1.92C1421.29,378,1422.75,376.89,1422.75,375.28Z"/><path class="cls-6" d="M1319.59,400.29v0a8.5,8.5,0,0,1,8.67-8.69,8.81,8.81,0,0,1,5.76,1.9,1.48,1.48,0,0,1,.58,1.18,1.48,1.48,0,0,1-2.35,1.15,6.09,6.09,0,0,0-4-1.51,5.65,5.65,0,0,0-5.54,5.93v0a5.66,5.66,0,0,0,5.54,6,6,6,0,0,0,4.2-1.61,1.34,1.34,0,0,1,.89-.34,1.4,1.4,0,0,1,1.39,1.37,1.42,1.42,0,0,1-.48,1.06,8.59,8.59,0,0,1-6.1,2.26A8.45,8.45,0,0,1,1319.59,400.29Z"/><path class="cls-6" d="M1336.77,402.37v0a6.76,6.76,0,0,1,13.51,0v0a6.63,6.63,0,0,1-6.79,6.6A6.55,6.55,0,0,1,1336.77,402.37Zm10.61,0v0a3.92,3.92,0,0,0-3.89-4.08,3.8,3.8,0,0,0-3.82,4v0a3.91,3.91,0,0,0,3.86,4.06A3.8,3.8,0,0,0,1347.38,402.37Z"/><path class="cls-6" d="M1353.23,397.29a1.43,1.43,0,0,1,1.44-1.46,1.45,1.45,0,0,1,1.46,1.46v.62a4.59,4.59,0,0,1,4-2.21c2.86,0,4.51,1.92,4.51,4.85v6.77a1.41,1.41,0,0,1-1.44,1.44,1.43,1.43,0,0,1-1.46-1.44v-5.88c0-2-1-3.1-2.71-3.1a2.82,2.82,0,0,0-2.86,3.14v5.83a1.45,1.45,0,0,1-2.9,0Z"/><path class="cls-6" d="M1367.63,407.37a1.11,1.11,0,0,1-.55-1,1.16,1.16,0,0,1,1.18-1.18,1.26,1.26,0,0,1,.62.17,6.69,6.69,0,0,0,3.65,1.22c1.25,0,2-.53,2-1.37v0c0-1-1.34-1.32-2.83-1.78-1.87-.53-4-1.3-4-3.72v0c0-2.4,2-3.86,4.51-3.86a8.72,8.72,0,0,1,4,1,1.23,1.23,0,0,1,.7,1.1,1.17,1.17,0,0,1-1.2,1.18,1.14,1.14,0,0,1-.58-.14,6.91,6.91,0,0,0-3-.86c-1.13,0-1.78.53-1.78,1.25v0c0,.94,1.37,1.32,2.86,1.8,1.85.58,3.94,1.42,3.94,3.7v0c0,2.66-2.06,4-4.7,4A8.67,8.67,0,0,1,1367.63,407.37Z"/><path class="cls-6" d="M1391.39,407.32a1.46,1.46,0,0,1-2.93,0v-.65a4.56,4.56,0,0,1-4,2.23c-2.86,0-4.51-1.92-4.51-4.87v-6.74a1.45,1.45,0,1,1,2.9,0v5.88c0,2,1,3.07,2.71,3.07a2.8,2.8,0,0,0,2.86-3.12v-5.83a1.45,1.45,0,0,1,1.46-1.46,1.47,1.47,0,0,1,1.46,1.46Z"/><path class="cls-6" d="M1395,397.29a1.43,1.43,0,0,1,1.44-1.46,1.45,1.45,0,0,1,1.46,1.46v.6a4.54,4.54,0,0,1,3.86-2.18,4,4,0,0,1,3.79,2.23,5.1,5.1,0,0,1,4.27-2.23c2.76,0,4.44,1.75,4.44,4.85v6.77a1.41,1.41,0,0,1-1.44,1.44,1.43,1.43,0,0,1-1.46-1.44v-5.88c0-2-.94-3.1-2.57-3.1s-2.71,1.1-2.71,3.14v5.83a1.45,1.45,0,0,1-2.9,0v-5.9c0-2-1-3.07-2.57-3.07s-2.71,1.2-2.71,3.14v5.83a1.45,1.45,0,0,1-2.9,0Z"/><path class="cls-6" d="M1417.82,397.29a1.43,1.43,0,0,1,1.44-1.46,1.45,1.45,0,0,1,1.46,1.46v.79a5.07,5.07,0,0,1,4.32-2.38c3,0,5.88,2.35,5.88,6.58v0c0,4.2-2.88,6.58-5.88,6.58a5.18,5.18,0,0,1-4.32-2.23v4.49a1.45,1.45,0,0,1-2.9,0Zm10.15,5v0a3.75,3.75,0,0,0-3.62-4.06,3.82,3.82,0,0,0-3.7,4.06v0a3.82,3.82,0,0,0,3.7,4.06C1426.34,406.38,1428,404.82,1428,402.33Z"/><path class="cls-6" d="M1434.52,405.13v-6.67H1434a1.25,1.25,0,0,1,0-2.5h.48v-2.16a1.45,1.45,0,0,1,2.9,0V396h2.28a1.25,1.25,0,1,1,0,2.5h-2.28v6.22a1.38,1.38,0,0,0,1.56,1.58,6.83,6.83,0,0,0,.72-.07,1.22,1.22,0,0,1,1.22,1.2,1.25,1.25,0,0,1-.77,1.13,5.77,5.77,0,0,1-2,.34C1436,408.85,1434.52,407.92,1434.52,405.13Z"/><path class="cls-6" d="M1443.74,392.56a1.68,1.68,0,0,1,3.31,0v.14a1.67,1.67,0,0,1-3.31,0Zm.22,4.73a1.43,1.43,0,0,1,1.44-1.46,1.45,1.45,0,0,1,1.46,1.46v10a1.45,1.45,0,0,1-2.9,0Z"/><path class="cls-6" d="M1450,402.37v0a6.76,6.76,0,0,1,13.51,0v0a6.63,6.63,0,0,1-6.79,6.6A6.55,6.55,0,0,1,1450,402.37Zm10.61,0v0a3.92,3.92,0,0,0-3.89-4.08,3.8,3.8,0,0,0-3.82,4v0a3.91,3.91,0,0,0,3.86,4.06A3.8,3.8,0,0,0,1460.56,402.37Z"/><path class="cls-6" d="M1466.42,397.29a1.43,1.43,0,0,1,1.44-1.46,1.45,1.45,0,0,1,1.46,1.46v.62a4.59,4.59,0,0,1,4-2.21c2.86,0,4.51,1.92,4.51,4.85v6.77a1.41,1.41,0,0,1-1.44,1.44,1.43,1.43,0,0,1-1.46-1.44v-5.88c0-2-1-3.1-2.71-3.1a2.82,2.82,0,0,0-2.86,3.14v5.83a1.45,1.45,0,0,1-2.9,0Z"/><path class="cls-6" d="M1028.64,363.43a1.54,1.54,0,0,1-.12-.58,1.48,1.48,0,0,1,1.51-1.44,1.51,1.51,0,0,1,1.46,1.08l3.86,11.54,3.79-11.5a1.56,1.56,0,0,1,1.49-1.18h.22a1.54,1.54,0,0,1,1.49,1.18l3.79,11.5,3.86-11.57a1.5,1.5,0,0,1,1.44-1.06,1.45,1.45,0,0,1,1.46,1.42,1.69,1.69,0,0,1-.14.6l-5,13.92a1.65,1.65,0,0,1-1.54,1.22H1046a1.59,1.59,0,0,1-1.51-1.22l-3.74-11-3.74,11a1.62,1.62,0,0,1-1.54,1.22h-.29a1.64,1.64,0,0,1-1.54-1.22Z"/><path class="cls-6" d="M1055,367a1.43,1.43,0,0,1,1.44-1.46,1.45,1.45,0,0,1,1.46,1.46v1.3c.67-1.58,1.92-2.78,3.19-2.78a1.35,1.35,0,0,1,1.44,1.44,1.36,1.36,0,0,1-1.15,1.39c-2.06.36-3.48,1.94-3.48,4.94V377a1.45,1.45,0,0,1-1.46,1.44A1.43,1.43,0,0,1,1055,377Z"/><path class="cls-6" d="M1064.91,362.25a1.68,1.68,0,0,1,3.31,0v.14a1.67,1.67,0,0,1-3.31,0Zm.22,4.73a1.43,1.43,0,0,1,1.44-1.46A1.45,1.45,0,0,1,1068,367v10a1.45,1.45,0,0,1-2.9,0Z"/><path class="cls-6" d="M1072.42,374.83v-6.67h-.48a1.25,1.25,0,0,1,0-2.5h.48V363.5a1.45,1.45,0,0,1,2.9,0v2.16h2.28a1.25,1.25,0,1,1,0,2.5h-2.28v6.22a1.38,1.38,0,0,0,1.56,1.58,6.83,6.83,0,0,0,.72-.07,1.22,1.22,0,0,1,1.22,1.2,1.25,1.25,0,0,1-.77,1.13,5.77,5.77,0,0,1-2,.34C1073.93,378.55,1072.42,377.61,1072.42,374.83Z"/><path class="cls-6" d="M1087.13,378.62a6.32,6.32,0,0,1-6.5-6.58v0a6.29,6.29,0,0,1,6.19-6.6,6,6,0,0,1,6,6.24,1.36,1.36,0,0,1-1.37,1.39h-7.94a3.54,3.54,0,0,0,3.65,3.22,4.55,4.55,0,0,0,3-1.1,1.08,1.08,0,0,1,.74-.26,1.14,1.14,0,0,1,1.15,1.18,1.27,1.27,0,0,1-.38.89A6.51,6.51,0,0,1,1087.13,378.62Zm2.88-7.51c-.19-1.87-1.3-3.34-3.22-3.34s-3,1.37-3.29,3.34Z"/><path class="cls-6" d="M1095.82,367a1.43,1.43,0,0,1,1.44-1.46,1.45,1.45,0,0,1,1.46,1.46v1.3c.67-1.58,1.92-2.78,3.19-2.78a1.35,1.35,0,0,1,1.44,1.44,1.36,1.36,0,0,1-1.15,1.39c-2.06.36-3.48,1.94-3.48,4.94V377a1.45,1.45,0,0,1-1.46,1.44,1.43,1.43,0,0,1-1.44-1.44Z"/><path class="cls-6" d="M1105.25,377.06a1.11,1.11,0,0,1-.55-1,1.16,1.16,0,0,1,1.18-1.18,1.26,1.26,0,0,1,.62.17,6.69,6.69,0,0,0,3.65,1.22c1.25,0,2-.53,2-1.37v0c0-1-1.34-1.32-2.83-1.78-1.87-.53-4-1.3-4-3.72v0c0-2.4,2-3.86,4.51-3.86a8.72,8.72,0,0,1,4,1,1.23,1.23,0,0,1,.7,1.1,1.17,1.17,0,0,1-1.2,1.18,1.14,1.14,0,0,1-.58-.14,6.91,6.91,0,0,0-3-.86c-1.13,0-1.78.53-1.78,1.25v0c0,.94,1.37,1.32,2.86,1.8,1.85.58,3.94,1.42,3.94,3.7v0c0,2.66-2.06,4-4.7,4A8.67,8.67,0,0,1,1105.25,377.06Z"/><path class="cls-6" d="M1016.87,409.35l5.68-12.42a1,1,0,0,1,1-.7h.08a1,1,0,0,1,1,.7l5.68,12.4a1.06,1.06,0,0,1,.1.4.76.76,0,0,1-.76.76.86.86,0,0,1-.78-.58l-1.46-3.22h-7.68l-1.46,3.26a.79.79,0,0,1-.76.54.72.72,0,0,1-.72-.72A.91.91,0,0,1,1016.87,409.35Zm9.9-4.1-3.22-7.16-3.22,7.16Z"/><path class="cls-6" d="M1033.41,397.19a.8.8,0,0,1,.78-.8h4.46c3.16,0,5.24,1.68,5.24,4.44v0c0,3-2.52,4.58-5.5,4.58H1035v4.24a.79.79,0,1,1-1.58,0Zm5,6.82c2.32,0,3.84-1.24,3.84-3.08v0c0-2-1.5-3-3.76-3H1035V404Z"/><path class="cls-6" d="M1046.91,397.09a.79.79,0,1,1,1.58,0v12.6a.79.79,0,1,1-1.58,0Z"/><path class="cls-6" d="M1058,403.43v0a7.14,7.14,0,1,1,14.28,0v0a7.14,7.14,0,1,1-14.28,0Zm12.64,0v0a5.57,5.57,0,0,0-5.52-5.78,5.5,5.5,0,0,0-5.48,5.74v0a5.57,5.57,0,0,0,5.52,5.78A5.5,5.5,0,0,0,1070.61,403.43Z"/><path class="cls-6" d="M1084.19,409.71a.76.76,0,1,1-1.52,0v-1.12a3.94,3.94,0,0,1-3.54,2c-2.5,0-4-1.68-4-4.14v-5.74a.75.75,0,0,1,.76-.78.78.78,0,0,1,.78.78v5.36c0,1.92,1,3.12,2.86,3.12a3.05,3.05,0,0,0,3.1-3.24v-5.24a.75.75,0,0,1,.76-.78.76.76,0,0,1,.76.78Z"/><path class="cls-6" d="M1088.19,407.65v-6.24h-.84a.7.7,0,0,1-.68-.68.69.69,0,0,1,.68-.68h.84v-2.44a.76.76,0,0,1,.76-.78.79.79,0,0,1,.78.78V400h2.68a.71.71,0,0,1,.7.68.69.69,0,0,1-.7.68h-2.68v6a1.53,1.53,0,0,0,1.74,1.72,4.36,4.36,0,0,0,.94-.14.67.67,0,0,1,.66.66.64.64,0,0,1-.44.6,3.89,3.89,0,0,1-1.52.28A2.63,2.63,0,0,1,1088.19,407.65Z"/><path class="cls-6" d="M1095.73,400.73a.77.77,0,1,1,1.54,0v1.4a4.65,4.65,0,0,1,4-2.3,5,5,0,0,1,4.94,5.36v0a5.06,5.06,0,0,1-4.94,5.38,4.67,4.67,0,0,1-4-2.2v4.5a.75.75,0,0,1-.76.78.77.77,0,0,1-.78-.78Zm8.86,4.52v0a3.72,3.72,0,0,0-3.64-4,3.86,3.86,0,0,0-3.74,4v0a3.85,3.85,0,0,0,3.74,4A3.65,3.65,0,0,0,1104.59,405.25Z"/><path class="cls-6" d="M1117.87,409.71a.76.76,0,1,1-1.52,0v-1.12a3.94,3.94,0,0,1-3.54,2c-2.5,0-4-1.68-4-4.14v-5.74a.75.75,0,0,1,.76-.78.78.78,0,0,1,.78.78v5.36c0,1.92,1,3.12,2.86,3.12a3.05,3.05,0,0,0,3.1-3.24v-5.24a.75.75,0,0,1,.76-.78.76.76,0,0,1,.76.78Z"/><path class="cls-6" d="M1121.87,407.65v-6.24H1121a.7.7,0,0,1-.68-.68.69.69,0,0,1,.68-.68h.84v-2.44a.76.76,0,0,1,.76-.78.79.79,0,0,1,.78.78V400h2.68a.71.71,0,0,1,.7.68.69.69,0,0,1-.7.68h-2.68v6a1.53,1.53,0,0,0,1.74,1.72,4.36,4.36,0,0,0,.94-.14.67.67,0,0,1,.66.66.64.64,0,0,1-.44.6,3.89,3.89,0,0,1-1.52.28A2.63,2.63,0,0,1,1121.87,407.65Z"/><path class="cls-6" d="M403,409.35l5.68-12.42a1,1,0,0,1,1-.7h.08a1,1,0,0,1,1,.7l5.68,12.4a1.06,1.06,0,0,1,.1.4.76.76,0,0,1-.76.76.86.86,0,0,1-.78-.58l-1.46-3.22h-7.68L404.39,410a.79.79,0,0,1-.76.54.72.72,0,0,1-.72-.72A.91.91,0,0,1,403,409.35Zm9.9-4.1-3.22-7.16-3.22,7.16Z"/><path class="cls-6" d="M419.55,397.19a.8.8,0,0,1,.78-.8h4.46c3.16,0,5.24,1.68,5.24,4.44v0c0,3-2.52,4.58-5.5,4.58h-3.4v4.24a.79.79,0,1,1-1.58,0Zm5,6.82c2.32,0,3.84-1.24,3.84-3.08v0c0-2-1.5-3-3.76-3h-3.54V404Z"/><path class="cls-6" d="M433.05,397.09a.79.79,0,1,1,1.58,0v12.6a.79.79,0,1,1-1.58,0Z"/><path class="cls-6" d="M444.87,397.09a.79.79,0,1,1,1.58,0v12.6a.79.79,0,1,1-1.58,0Z"/><path class="cls-6" d="M450.29,400.73a.78.78,0,0,1,.76-.78.77.77,0,0,1,.78.78v1.12a3.92,3.92,0,0,1,3.54-2c2.5,0,4,1.68,4,4.14v5.74a.77.77,0,1,1-1.54,0v-5.36c0-1.92-1-3.12-2.86-3.12a3,3,0,0,0-3.1,3.24v5.24a.75.75,0,0,1-.76.78.77.77,0,0,1-.78-.78Z"/><path class="cls-6" d="M462.61,400.73a.77.77,0,1,1,1.54,0v1.4a4.65,4.65,0,0,1,4-2.3,5,5,0,0,1,4.94,5.36v0a5.06,5.06,0,0,1-4.94,5.38,4.67,4.67,0,0,1-4-2.2v4.5a.75.75,0,0,1-.76.78.77.77,0,0,1-.78-.78Zm8.86,4.52v0a3.72,3.72,0,0,0-3.64-4,3.86,3.86,0,0,0-3.74,4v0a3.85,3.85,0,0,0,3.74,4A3.65,3.65,0,0,0,471.47,405.25Z"/><path class="cls-6" d="M484.75,409.71a.76.76,0,1,1-1.52,0v-1.12a3.94,3.94,0,0,1-3.54,2c-2.5,0-4-1.68-4-4.14v-5.74a.75.75,0,0,1,.76-.78.78.78,0,0,1,.78.78v5.36c0,1.92,1,3.12,2.86,3.12a3.05,3.05,0,0,0,3.1-3.24v-5.24a.75.75,0,0,1,.76-.78.76.76,0,0,1,.76.78Z"/><path class="cls-6" d="M488.75,407.65v-6.24h-.84a.7.7,0,0,1-.68-.68.69.69,0,0,1,.68-.68h.84v-2.44a.76.76,0,0,1,.76-.78.79.79,0,0,1,.78.78V400H493a.71.71,0,0,1,.7.68.69.69,0,0,1-.7.68h-2.68v6a1.53,1.53,0,0,0,1.74,1.72A4.36,4.36,0,0,0,493,409a.67.67,0,0,1,.66.66.64.64,0,0,1-.44.6,3.89,3.89,0,0,1-1.52.28A2.63,2.63,0,0,1,488.75,407.65Z"/><path class="cls-6" d="M1048.11,150.29a1.47,1.47,0,0,1,1.49-1.49h9.79a1.34,1.34,0,0,1,0,2.69h-8.33v4.58h7.25a1.34,1.34,0,0,1,0,2.69h-7.25v5.5a1.48,1.48,0,0,1-3,0Z"/><path class="cls-6" d="M1074.77,164.28a1.46,1.46,0,0,1-2.93,0v-.65a4.56,4.56,0,0,1-4,2.23c-2.86,0-4.51-1.92-4.51-4.87v-6.74a1.45,1.45,0,1,1,2.9,0v5.88c0,2,1,3.07,2.71,3.07a2.8,2.8,0,0,0,2.86-3.12v-5.83a1.45,1.45,0,0,1,1.46-1.46,1.47,1.47,0,0,1,1.46,1.46Z"/><path class="cls-6" d="M1078.56,149.4A1.43,1.43,0,0,1,1080,148a1.45,1.45,0,0,1,1.46,1.44v14.88a1.45,1.45,0,0,1-2.9,0Z"/><path class="cls-6" d="M1085.43,149.4a1.43,1.43,0,0,1,1.44-1.44,1.45,1.45,0,0,1,1.46,1.44v14.88a1.45,1.45,0,0,1-2.9,0Z"/><path class="cls-6" d="M1001.58,192.48l6.24-13.92a1.87,1.87,0,0,1,1.78-1.2h.14a1.84,1.84,0,0,1,1.75,1.2l6.24,13.92a1.28,1.28,0,0,1,.17.62,1.38,1.38,0,0,1-1.39,1.42,1.52,1.52,0,0,1-1.44-1l-1.37-3.14h-8.16l-1.42,3.24a1.42,1.42,0,0,1-1.37.94,1.35,1.35,0,0,1-1.37-1.37A1.51,1.51,0,0,1,1001.58,192.48Zm11-4.75-3-6.79-3,6.79Z"/><path class="cls-6" d="M1031.85,193.08a1.46,1.46,0,0,1-2.93,0v-.65a4.56,4.56,0,0,1-4,2.23c-2.86,0-4.51-1.92-4.51-4.87v-6.74a1.45,1.45,0,1,1,2.9,0v5.88c0,2,1,3.07,2.71,3.07a2.8,2.8,0,0,0,2.86-3.12v-5.83a1.45,1.45,0,0,1,1.46-1.46,1.47,1.47,0,0,1,1.46,1.46Z"/><path class="cls-6" d="M1036.07,190.9v-6.67h-.48a1.25,1.25,0,1,1,0-2.5h.48v-2.16a1.45,1.45,0,0,1,2.9,0v2.16h2.28a1.25,1.25,0,1,1,0,2.5H1039v6.22a1.38,1.38,0,0,0,1.56,1.58,6.83,6.83,0,0,0,.72-.07,1.22,1.22,0,0,1,1.22,1.2,1.25,1.25,0,0,1-.77,1.13,5.77,5.77,0,0,1-2,.34C1037.58,194.62,1036.07,193.68,1036.07,190.9Z"/><path class="cls-6" d="M1044.28,188.14v0a6.76,6.76,0,0,1,13.51,0v0a6.63,6.63,0,0,1-6.79,6.6A6.55,6.55,0,0,1,1044.28,188.14Zm10.61,0v0A3.92,3.92,0,0,0,1051,184a3.8,3.8,0,0,0-3.82,4v0a3.91,3.91,0,0,0,3.86,4.06A3.8,3.8,0,0,0,1054.89,188.14Z"/><path class="cls-6" d="M1060.74,183.05a1.43,1.43,0,0,1,1.44-1.46,1.45,1.45,0,0,1,1.46,1.46v.6a4.54,4.54,0,0,1,3.86-2.18,4,4,0,0,1,3.79,2.23,5.1,5.1,0,0,1,4.27-2.23c2.76,0,4.44,1.75,4.44,4.85v6.77a1.41,1.41,0,0,1-1.44,1.44,1.43,1.43,0,0,1-1.46-1.44V187.2c0-2-.94-3.1-2.57-3.1s-2.71,1.1-2.71,3.14v5.83a1.45,1.45,0,0,1-2.9,0v-5.9c0-2-1-3.07-2.57-3.07s-2.71,1.2-2.71,3.14v5.83a1.45,1.45,0,0,1-2.9,0Z"/><path class="cls-6" d="M1082.7,190.76v0c0-2.74,2.14-4.08,5.23-4.08a10.59,10.59,0,0,1,3.41.53v-.31c0-1.8-1.1-2.76-3.14-2.76a7.53,7.53,0,0,0-2.81.5,1.63,1.63,0,0,1-.46.07,1.21,1.21,0,0,1-1.22-1.2,1.27,1.27,0,0,1,.79-1.15,10.86,10.86,0,0,1,4.08-.74,5.68,5.68,0,0,1,4.2,1.42,5.26,5.26,0,0,1,1.37,3.91v6.24a1.38,1.38,0,0,1-1.42,1.39,1.31,1.31,0,0,1-1.42-1.22v-.48a5.15,5.15,0,0,1-4.13,1.85C1084.81,194.67,1082.7,193.3,1082.7,190.76Zm8.69-.91V189a8.05,8.05,0,0,0-2.88-.5c-1.87,0-3,.79-3,2.11v0c0,1.22,1.08,1.92,2.47,1.92C1089.93,192.56,1091.39,191.45,1091.39,189.84Z"/><path class="cls-6" d="M1098.11,190.9v-6.67h-.48a1.25,1.25,0,1,1,0-2.5h.48v-2.16a1.45,1.45,0,0,1,2.9,0v2.16h2.28a1.25,1.25,0,1,1,0,2.5H1101v6.22a1.38,1.38,0,0,0,1.56,1.58,6.83,6.83,0,0,0,.72-.07,1.22,1.22,0,0,1,1.22,1.2,1.25,1.25,0,0,1-.77,1.13,5.77,5.77,0,0,1-2,.34C1099.62,194.62,1098.11,193.68,1098.11,190.9Z"/><path class="cls-6" d="M1107.33,178.32a1.68,1.68,0,0,1,3.31,0v.14a1.67,1.67,0,0,1-3.31,0Zm.22,4.73a1.43,1.43,0,0,1,1.44-1.46,1.45,1.45,0,0,1,1.46,1.46v10a1.45,1.45,0,0,1-2.9,0Z"/><path class="cls-6" d="M1113.54,188.14v0a6.76,6.76,0,0,1,13.51,0v0a6.63,6.63,0,0,1-6.79,6.6A6.55,6.55,0,0,1,1113.54,188.14Zm10.61,0v0a3.92,3.92,0,0,0-3.89-4.08,3.8,3.8,0,0,0-3.82,4v0a3.91,3.91,0,0,0,3.86,4.06A3.8,3.8,0,0,0,1124.15,188.14Z"/><path class="cls-6" d="M1130,183.05a1.43,1.43,0,0,1,1.44-1.46,1.45,1.45,0,0,1,1.46,1.46v.62a4.59,4.59,0,0,1,4-2.21c2.86,0,4.51,1.92,4.51,4.85v6.77a1.41,1.41,0,0,1-1.44,1.44,1.43,1.43,0,0,1-1.46-1.44V187.2c0-2-1-3.1-2.71-3.1a2.82,2.82,0,0,0-2.86,3.14v5.83a1.45,1.45,0,0,1-2.9,0Z"/><polygon class="cls-7" points="749.45 269.16 740.82 269.16 759.97 296.45 779.12 269.16 770.49 269.16 770.49 223.74 779.12 223.74 759.97 196.44 740.82 223.74 749.45 223.74 749.45 269.16"/><polygon class="cls-7" points="749.45 550.94 740.82 550.94 759.97 578.23 779.12 550.94 770.49 550.94 770.49 505.52 779.12 505.52 759.97 478.23 740.82 505.52 749.45 505.52 749.45 550.94"/><polygon class="cls-7" points="749.45 744.03 740.82 744.03 759.97 771.32 779.12 744.03 770.49 744.03 770.49 653.2 779.12 653.2 759.97 625.9 740.82 653.2 749.45 653.2 749.45 744.03"/><path class="cls-5" d="M770.49,505.52h125.3a12.42,12.42,0,0,0,12.38-12.38V397.86h45.42v8.63l27.29-19.15-27.29-19.15v8.63H908.17V281.54a12.42,12.42,0,0,0-12.38-12.38H770.49"/><path class="cls-5" d="M611.78,398v95.1a12.42,12.42,0,0,0,12.38,12.38H749.45"/><path class="cls-5" d="M749.45,269.16H624.16a12.42,12.42,0,0,0-12.38,12.38V377"/><path class="cls-5" d="M770.5,223.74H895.79a12.42,12.42,0,0,0,12.38-12.38V133.86a12.42,12.42,0,0,0-12.38-12.38H624.16a12.42,12.42,0,0,0-12.38,12.38v77.49a12.42,12.42,0,0,0,12.38,12.38h125.3"/><path class="cls-5" d="M749.45,744H624.16a12.42,12.42,0,0,0-12.38,12.38v77.49a12.42,12.42,0,0,0,12.38,12.38H895.79a12.42,12.42,0,0,0,12.38-12.38V756.41A12.42,12.42,0,0,0,895.79,744H770.49"/><path class="cls-5" d="M770.49,653.2h125.3a12.42,12.42,0,0,0,12.38-12.38V563.32a12.42,12.42,0,0,0-12.38-12.38H770.49"/><path class="cls-5" d="M749.45,550.94H624.16a12.42,12.42,0,0,0-12.38,12.38v77.49a12.42,12.42,0,0,0,12.38,12.38H749.45"/></g></g></svg>