<?xml version="1.0" encoding="UTF-8"?>
<svg width="83px" height="99px" viewBox="0 0 83 99" version="1.1" xmlns="http://www.w3.org/2000/svg" xmlns:xlink="http://www.w3.org/1999/xlink">
    <defs></defs>
    <g id="KBC-try-mode" stroke="none" stroke-width="1" fill="none" fill-rule="evenodd">
        <path d="M71.6465269,80.7136542 L71.6465269,80.7136542 C70.1057839,78.1799312 68.2089575,75.8807477 66.0141977,73.8865886 C64.1278065,72.2253163 62.1516452,70.668846 60.0946323,69.2242023 C59.1869432,68.5538318 58.2448567,67.9313322 57.2722235,67.3592478 C58.2445783,66.7867172 59.186642,66.1642327 60.0946323,65.4942933 C64.751985,61.957207 68.674503,57.5454348 71.642364,52.5062172 C72.1879999,51.6007946 72.3414437,50.5122315 72.0673522,49.4912602 C71.7932606,48.4702888 71.1152653,47.6049351 70.1895312,47.0945188 C68.2414843,45.9819532 65.7628157,46.6002444 64.5655277,48.4973975 C62.1405532,52.6375129 58.9339838,56.2668179 55.1241955,59.1834204 C51.9686599,61.6350609 48.157419,63.0966885 44.1717506,63.3837309 C43.8345601,63.3837309 43.4973697,63.3629167 43.1601793,63.3837309 C42.8229888,63.4045451 42.4816355,63.3837309 42.1444451,63.3837309 C38.1602768,63.0956354 34.3506644,61.6340769 31.196163,59.1834204 C27.3832557,56.2606392 24.1751982,52.6241809 21.750668,48.4765833 C20.55338,46.5794302 18.0747114,45.961139 16.1266645,47.0737046 C15.2009303,47.5841209 14.5229351,48.4494746 14.2488435,49.4704459 C13.974752,50.4914172 14.1281958,51.5799804 14.6738316,52.485403 C17.6416927,57.5246205 21.5642107,61.9363928 26.2215634,65.473479 C27.1297487,66.1431393 28.0717977,66.7656141 29.0439722,67.3384335 C28.0715344,67.9108311 27.1294639,68.5333201 26.2215634,69.2033881 C24.1665139,70.6488824 22.1917837,72.20532 20.3061608,73.8657743 C18.1128745,75.8602215 16.2174618,78.1593908 14.6779945,80.69284 C14.1311579,81.5979716 13.9770373,82.6869454 14.2512251,83.7082752 C14.5254129,84.7296049 15.2041997,85.5949752 16.1308274,86.1045383 C18.0778155,87.2178704 20.556194,86.6014861 21.7548308,84.7058224 C22.9015399,82.8110456 24.3178705,81.0932189 25.9593042,79.6063374 C27.6318155,78.1443086 29.3813211,76.7727739 31.2003259,75.4976095 C32.1295361,74.8199852 33.1030405,74.2052867 34.1143173,73.6576321 C34.0019205,73.8616115 33.8853608,74.0739166 33.7688012,74.2820588 C30.2266884,80.5313207 28.2793336,87.5572398 28.0990064,94.7382786 C28.1696061,96.9554336 29.9873742,98.7162409 32.2056529,98.7162409 C34.4239316,98.7162409 36.2416998,96.9554336 36.3122994,94.7382786 C36.4963107,88.8409416 38.1213328,83.0783304 41.0454541,77.953688 C41.7781148,76.6007634 42.5149383,75.4018641 43.1809935,74.3902928 C43.8803514,75.4518182 44.6546406,76.7256488 45.4247669,78.1659931 C48.2839466,83.2360516 49.8696024,88.9244132 50.0455247,94.7424415 C50.0455247,97.0116293 51.8850649,98.8511694 54.1542526,98.8511694 C56.4234404,98.8511694 58.2629805,97.0116293 58.2629805,94.7424415 C58.0821399,87.5601634 56.1348416,80.5330185 52.5931858,74.2820588 L52.2476697,73.6617949 C53.2587526,74.2097808 54.2322352,74.8244655 55.1616611,75.5017724 C56.9790886,76.7772678 58.7271912,78.1487919 60.39852,79.6105003 C62.0399108,81.0974227 63.4562359,82.8152427 64.6029933,84.7099853 C65.3636241,85.9329324 66.7054154,86.6724155 68.1455743,86.6623595 C68.8753609,86.6633096 69.5927776,86.4739116 70.2269968,86.112864 C71.1436119,85.5966663 71.8119412,84.7310783 72.0794292,83.7136828 C72.3469171,82.6962874 72.1907326,81.6139228 71.6465269,80.7136542 L71.6465269,80.7136542 Z M43.5514867,-1.1778306 C27.7326761,-1.1778306 18.8200252,1.86104618 18.8200252,23.1581607 C18.8200252,44.4552751 29.5351879,61.2648428 43.5514867,61.2648428 C56.2897921,61.2648428 67.5044962,44.4469495 67.5044962,23.149835 C67.5044962,1.85272049 59.3494831,-1.1778306 43.5514867,-1.1778306 Z M37.7568066,55.3869058 C35.5859042,55.3094052 33.8810432,53.500394 33.9322556,51.3287124 C33.9834679,49.1570309 35.7717061,47.4303935 37.9438486,47.4553101 C40.115991,47.4802266 41.8641516,49.2474298 41.8655345,51.4197147 C41.8469292,52.4907014 41.4035534,53.5104128 40.6329812,54.2544405 C39.862409,54.9984682 38.8277876,55.4058401 37.7568066,55.3869058 Z M48.5802033,55.3869058 C46.4093009,55.3094052 44.70444,53.500394 44.7556523,51.3287124 C44.8068646,49.1570309 46.5951029,47.4303935 48.7672453,47.4553101 C50.9393877,47.4802266 52.6875483,49.2474298 52.6889312,51.4197147 C52.6703622,52.4936444 52.2246909,53.5159231 51.4504962,54.2604313 C50.6763015,55.0049394 49.637387,55.4103199 48.5635519,55.3869058 L48.5802033,55.3869058 Z" id="Connection" fill="#FFFFFF" transform="translate(43.161550, 48.836669) rotate(30.000000) translate(-43.161550, -48.836669) "></path>
    </g>
</svg>