<svg width="240" viewBox="0 0 187 195" version="1.1" xmlns="http://www.w3.org/2000/svg" xmlns:xlink="http://www.w3.org/1999/xlink">
    <style>

        @keyframes vertical {
        0% {
        transform: translate(0, 0px)
        }
        4% {
        transform: translate(0, -6px)
        }
        8% {
        transform: translate(0, 0px)
        }
        12% {
        transform: translate(0, -6px)
        }
        16% {
        transform: translate(0, 0px)
        }
        20% {
        transform: translate(0, -8px)
        }
        100%, 32% {
        transform: translate(0, 0)
        }
        }

        @-webkit-keyframes vertical {
        0% {
        transform: translate(0, 0px)
        }
        4% {
        transform: translate(0, -6px)
        }
        8% {
        transform: translate(0, 0px)
        }
        12% {
        transform: translate(0, -6px)
        }
        16% {
        transform: translate(0, 0px)
        }
        20% {
        transform: translate(0, -8px)
        }
        100%, 32% {
        transform: translate(0, 0)
        }
        }

        #octopussy path {
        transform-origin: center bottom;
        animation: vertical 4s 0.5s ease infinite;
        fill: #15C3FF;
        }
    </style>
    <g id="KBC-try-mode" stroke="none" stroke-width="1" fill="none" fill-rule="evenodd">
        <g id="keboola-finished">
            <g id="Group-12" fill-rule="nonzero" fill="#EAEBED">
                <g id="Group-11" transform="translate(6.759036, 9.017341)">
                    <rect id="Rectangle-path" x="0" y="24.7976879" width="24.7831325" height="24.7976879"></rect>
                    <rect id="Rectangle-path" x="24.7831325" y="0" width="24.7831325" height="24.7976879"></rect>
                    <rect id="Rectangle-path" x="49.5662651" y="24.7976879" width="24.7831325" height="24.7976879"></rect>
                    <rect id="Rectangle-path" x="74.3493976" y="0" width="24.7831325" height="24.7976879"></rect>
                    <rect id="Rectangle-path" x="99.1325301" y="24.7976879" width="24.7831325" height="24.7976879"></rect>
                    <rect id="Rectangle-path" x="123.915663" y="0" width="24.7831325" height="24.7976879"></rect>
                    <rect id="Rectangle-path" x="148.698795" y="24.7976879" width="24.7831325" height="24.7976879"></rect>
                </g>
                <path d="M182.493976,0 C180.015663,0 177.987952,2.03145703 177.987952,4.51434895 L177.987952,179.219653 C181.142169,176.736761 184.071084,174.028152 187,171.093825 L187,4.51434895 C187,2.03145703 184.972289,0 182.493976,0 Z" id="Shape"></path>
                <path d="M4.5060241,0 C2.02771084,0 0,2.02384213 0,4.49742695 L0,172.701195 C2.92891566,175.399651 5.85783133,177.873236 9.01204819,180.346821 L9.01204819,4.49742695 C9.01204819,2.02384213 6.98433735,0 4.5060241,0 Z" id="Shape"></path>
            </g>
            <rect id="Rectangle-path" fill="#15C3FF" fill-rule="nonzero" x="9.01204819" y="126.242775" width="33.7951807" height="20.2890173"></rect>
            <polygon id="Shape" fill="#0099CE" fill-rule="nonzero" points="42.8072289 146.531792 27.0361446 133.456647 27.0361446 112.716763 42.8072289 125.791908"></polygon>
            <rect id="Rectangle-path" fill="#15C3FF" fill-rule="nonzero" transform="translate(161.090361, 136.387283) rotate(-180.000000) translate(-161.090361, -136.387283) " x="144.192771" y="126.242775" width="33.7951807" height="20.2890173"></rect>
            <g id="octopussy">
            <path d="M128.699868,172.488514 L128.699868,172.488514 C126.791756,169.348817 124.442657,166.499752 121.724587,164.028663 C119.388411,161.970074 116.941061,160.041353 114.393582,158.251203 C113.269467,157.420504 112.102753,156.649125 110.898208,155.940219 C112.102408,155.23076 113.269094,154.4594 114.393582,153.629235 C120.161417,149.246206 125.019205,143.779298 128.694712,137.534883 C129.370448,136.412916 129.560478,135.064008 129.221033,133.798858 C128.881588,132.533707 128.041934,131.461392 126.895471,130.828903 C124.482939,129.450252 121.413266,130.216416 119.930501,132.567299 C116.927325,137.69758 112.956193,142.194883 108.238012,145.809031 C104.330082,148.847015 99.6101031,150.65821 94.6741065,151.013903 C94.2565176,151.013903 93.8389287,150.988111 93.4213398,151.013903 C93.003751,151.039695 92.5810067,151.013903 92.1634178,151.013903 C87.229279,150.656905 82.5113165,148.845795 78.6046674,145.809031 C73.8826244,142.187226 69.9096494,137.681059 66.9070231,132.541507 C65.4242581,130.190624 62.3545849,129.42446 59.9420529,130.803111 C58.79559,131.4356 57.955936,132.507915 57.6164911,133.773065 C57.2770462,135.038216 57.4670765,136.387124 58.1428118,137.509091 C61.8183188,143.753506 66.6761077,149.220414 72.4439424,153.603443 C73.5686721,154.433262 74.7353398,155.20461 75.9393161,155.914427 C74.7350137,156.623721 73.5683195,157.395087 72.4439424,158.225411 C69.8988945,160.016615 67.4533169,161.945296 65.1180929,164.00287 C62.4018475,166.474317 60.0544995,169.323364 58.1479673,172.462722 C57.470745,173.584328 57.2798765,174.933745 57.6194405,176.19934 C57.9590046,177.464935 58.7996389,178.53727 59.9472083,179.168702 C62.3584291,180.548303 65.4277431,179.784502 66.9121785,177.435464 C68.3323047,175.087526 70.0863399,172.958857 72.1191511,171.116368 C74.1904499,169.304675 76.3571013,167.605119 78.6098228,166.024981 C79.7605906,165.185294 80.9662137,164.423582 82.2186157,163.744948 C82.0794194,163.997712 81.9350677,164.260793 81.790716,164.518715 C77.4040348,172.262573 74.9923598,180.968837 74.7690361,189.86732 C74.8564693,192.614738 77.1076594,194.796666 79.8548564,194.796666 C82.6020533,194.796666 84.8532434,192.614738 84.9406766,189.86732 C85.1685629,182.559554 87.1810492,175.418735 90.8023873,169.068465 C91.7097409,167.39197 92.62225,165.906337 93.4471169,164.652835 C94.3132272,165.968238 95.272135,167.546723 96.2258874,169.331545 C99.7667995,175.614178 101.730533,182.662989 101.948402,189.872478 C101.948402,192.684373 104.226555,194.963865 107.0368,194.963865 C109.847044,194.963865 112.125198,192.684373 112.125198,189.872478 C111.901238,180.97246 109.489633,172.264677 105.103518,164.518715 L104.675618,163.750107 C105.92778,164.429151 107.133376,165.190846 108.284411,166.03014 C110.535179,167.610687 112.700093,169.31023 114.769927,171.121526 C116.802685,172.964066 118.556714,175.092727 119.9769,177.440623 C120.918893,178.956054 122.580616,179.872395 124.364161,179.859934 C125.267955,179.861111 126.15643,179.626416 126.94187,179.179019 C128.07704,178.539366 128.904723,177.46676 129.23599,176.206041 C129.567257,174.945321 129.373832,173.604095 128.699868,172.488514 L128.699868,172.488514 Z M93.9059492,71.0115607 C74.3153593,71.0115607 63.2776086,74.7772264 63.2776086,101.167837 C63.2776086,127.558448 76.5476555,148.388254 93.9059492,148.388254 C109.681529,148.388254 123.570227,127.548131 123.570227,101.15752 C123.570227,74.7669095 113.470762,71.0115607 93.9059492,71.0115607 Z M86.7296068,141.104528 C84.0410824,141.008492 81.9297206,138.766831 81.9931438,136.075762 C82.056567,133.384693 84.2711863,131.245107 86.9612464,131.275982 C89.6513065,131.306858 91.8162921,133.496712 91.8180047,136.188528 C91.7949632,137.515656 91.2458706,138.779246 90.2915659,139.701218 C89.3372613,140.62319 88.0559486,141.12799 86.7296068,141.104528 Z M100.133695,141.104528 C97.4451702,141.008492 95.3338084,138.766831 95.3972316,136.075762 C95.4606548,133.384693 97.6752741,131.245107 100.365334,131.275982 C103.055394,131.306858 105.22038,133.496712 105.222093,136.188528 C105.199096,137.519303 104.64716,138.786074 103.68837,139.708641 C102.729579,140.631209 101.442949,141.133542 100.113073,141.104528 L100.133695,141.104528 Z" id="Connection" fill="#EAEBED"></path>
            </g>
            <polygon id="Shape" fill="#0099CE" fill-rule="nonzero" points="144.192771 146.531792 159.963855 133.456647 159.963855 112.716763 144.192771 125.791908"></polygon>
            <rect id="Rectangle-path" fill="#15C3FF" fill-rule="nonzero" transform="translate(148.698795, 122.861272) rotate(-180.000000) translate(-148.698795, -122.861272) " x="137.433735" y="112.716763" width="22.5301205" height="20.2890173"></rect>
            <rect id="Rectangle-path" fill="#15C3FF" fill-rule="nonzero" x="27.0361446" y="112.716763" width="22.5301205" height="20.2890173"></rect>
        </g>
    </g>
</svg>