<?xml version="1.0" encoding="UTF-8"?>
<svg width="264px" height="322px" viewBox="0 0 264 322" version="1.1" xmlns="http://www.w3.org/2000/svg" xmlns:xlink="http://www.w3.org/1999/xlink">
    <!-- Generator: Sketch 46 (44423) - http://www.bohemiancoding.com/sketch -->
    <title>keboola-chrastitka</title>
    <desc>Created with Sketch.</desc>
    <defs></defs>
    <g id="KBC-try-mode" stroke="none" stroke-width="1" fill="none" fill-rule="evenodd">
        <g id="keboola-chrastitka" transform="translate(-32.000000, 0.000000)">
            <path d="M293.491485,263.614133 L293.491485,263.614133 C288.531731,255.45791 282.425721,248.056686 275.360643,241.637355 C269.288225,236.289609 262.92683,231.279228 256.305169,226.628824 C253.383257,224.470856 250.350618,222.466989 247.219647,220.625411 C250.349722,218.782397 253.382287,216.778578 256.305169,214.621998 C271.297497,203.235883 283.924343,189.034095 293.478085,172.812518 C295.234523,169.897903 295.728469,166.393746 294.84615,163.107171 C293.963831,159.820597 291.781319,157.034966 288.801319,155.391901 C282.530427,151.810479 274.551428,153.800799 270.697278,159.907861 C262.891124,173.235168 252.568964,184.918142 240.305002,194.306879 C230.147124,202.198873 217.878486,206.903949 205.048354,207.827958 C203.962916,207.827958 202.877477,207.760956 201.792039,207.827958 C200.7066,207.89496 199.607761,207.827958 198.522323,207.827958 C185.69702,206.900559 173.433625,202.195705 163.279075,194.306879 C151.005073,184.898252 140.678123,173.192251 132.873399,159.840859 C129.019249,153.733797 121.04025,151.743477 114.769358,155.324899 C111.789358,156.967963 109.606846,159.753594 108.724527,163.040169 C107.842208,166.326743 108.336154,169.8309 110.092592,172.745516 C119.646334,188.967092 132.27318,203.16888 147.265508,214.554996 C150.189017,216.710677 153.221535,218.714465 156.35103,220.558409 C153.220688,222.400995 150.188101,224.404828 147.265508,226.561821 C140.650167,231.214964 134.29338,236.22524 128.223434,241.570352 C121.1631,247.990611 115.06164,255.391789 110.105993,263.547131 C108.34569,266.460809 107.849565,269.966289 108.732194,273.254017 C109.614822,276.541745 111.799882,279.32743 114.782758,280.967747 C121.050242,284.551637 129.028308,282.567455 132.886799,276.465188 C136.578132,270.365775 141.137394,264.835977 146.421278,260.049607 C151.805203,255.343239 157.436979,250.928177 163.292476,246.823338 C166.283665,244.642021 169.41744,242.663265 172.672808,240.900329 C172.310995,241.556952 171.935782,242.240376 171.560568,242.9104 C160.158272,263.027189 153.889607,285.64409 153.309122,308.760331 C153.536387,315.8975 159.387904,321.565656 166.52869,321.565656 C173.669477,321.565656 179.520993,315.8975 179.748258,308.760331 C180.340603,289.776411 185.571657,271.226183 194.984598,254.729618 C197.343081,250.374464 199.714965,246.515128 201.859041,243.258812 C204.110321,246.675933 206.602809,250.776478 209.081897,255.413043 C218.285786,271.733898 223.390118,290.045112 223.956423,308.773732 C223.956423,316.078398 229.878025,322 237.182692,322 C244.487358,322 250.40896,316.078398 250.40896,308.773732 C249.826822,285.653501 243.558339,263.032655 232.157514,242.9104 L231.045274,240.913729 C234.300017,242.677732 237.433723,244.656443 240.425607,246.836739 C246.276026,250.942644 251.903285,255.357671 257.283403,260.063007 C262.56715,264.849509 267.126394,270.379286 270.817883,276.478588 C273.266403,280.415336 277.585719,282.795782 282.221686,282.763411 C284.570918,282.766469 286.88033,282.156784 288.921923,280.994548 C291.872568,279.332873 294.023965,276.546488 294.885026,273.271425 C295.746088,269.996361 295.24332,266.512157 293.491485,263.614133 L293.491485,263.614133 Z M203.051683,0 C152.129881,0 123.439465,9.78234633 123.439465,78.3391735 C123.439465,146.896001 157.932286,201.007116 203.051683,201.007116 C244.057135,201.007116 280.158013,146.8692 280.158013,78.3123725 C280.158013,9.75554538 253.906484,0 203.051683,0 Z M184.398223,182.085647 C177.409944,181.836167 171.921883,176.012839 172.086739,169.022052 C172.251595,162.031265 178.008053,156.473105 185.000323,156.553313 C191.992594,156.63352 197.620039,162.322265 197.624491,169.314994 C197.564599,172.762572 196.137343,176.045091 193.65682,178.440165 C191.176297,180.83524 187.845782,182.146597 184.398223,182.085647 Z M219.239456,182.085647 C212.251177,181.836167 206.763117,176.012839 206.927972,169.022052 C207.092828,162.031265 212.849286,156.473105 219.841557,156.553313 C226.833828,156.63352 232.461273,162.322265 232.465725,169.314994 C232.40595,172.772046 230.971304,176.062829 228.47912,178.45945 C225.986936,180.856071 222.642601,182.161018 219.185855,182.085647 L219.239456,182.085647 Z" id="Connection" fill="#fff"></path>
            <g id="chrastitko" transform="translate(69.296465, 115.000000) rotate(-45.000000) translate(-69.296465, -115.000000) translate(20.296465, 66.000000)">
                <path d="M78.5346256,23.2865997 C78.5396802,23.2936638 78.5447441,23.300743 78.5498173,23.3078374 C81.1516647,26.9462036 82.6827999,31.4026086 82.6827999,36.2166293 C82.6827999,48.4865349 72.7360761,58.4332587 60.4661705,58.4332587 C56.4780107,58.4332587 52.7352912,57.3824039 49.4998006,55.5424829 L26.6230076,81.0337666 C24.1649473,83.7727481 19.9519124,84.0004797 17.2129309,81.5424194 C17.1236544,81.4622994 17.0365576,81.3797835 16.9517358,81.2949616 L16.9517358,81.2949616 L16.9517358,81.2949616 C14.3494214,78.6926472 14.3494214,74.473462 16.9517358,71.8711475 C17.0365576,71.7863257 17.1236544,71.7038097 17.2129309,71.6236898 L17.2129309,71.6236898 L42.3434731,49.0706391 C39.7653628,45.4423636 38.2495412,41.006516 38.2495412,36.2166293 C38.2495412,23.9467238 48.1962649,14 60.4661705,14 C65.5693039,14 70.2705775,15.7205665 74.0215326,18.6132408 C74.59569,18.1030039 75.3518379,17.7930831 76.1803718,17.7930831 C77.9759677,17.7930831 79.4315858,19.2487012 79.4315858,21.0442971 C79.4315858,21.9136208 79.0903982,22.7032559 78.5346256,23.2865997 Z" id="Combined-Shape" stroke="#EAEBED" stroke-width="4" transform="translate(48.841400, 48.623379) rotate(-45.000000) translate(-48.841400, -48.623379) "></path>
                <path d="M35,34 C33.3431458,34 32,32.6568542 32,31 C32,29.3431458 33.3431458,28 35,28 C36.6568542,28 38,29.3431458 38,31 C38,32.6568542 36.6568542,34 35,34 Z M44,34 C42.3431458,34 41,32.6568542 41,31 C41,29.3431458 42.3431458,28 44,28 C45.6568542,28 47,29.3431458 47,31 C47,32.6568542 45.6568542,34 44,34 Z M53,34 C51.3431458,34 50,32.6568542 50,31 C50,29.3431458 51.3431458,28 53,28 C54.6568542,28 56,29.3431458 56,31 C56,32.6568542 54.6568542,34 53,34 Z M62,34 C60.3431458,34 59,32.6568542 59,31 C59,29.3431458 60.3431458,28 62,28 C63.6568542,28 65,29.3431458 65,31 C65,32.6568542 63.6568542,34 62,34 Z" id="Combined-Shape" fill="#EAEBED"></path>
            </g>
        </g>
    </g>
</svg>