<svg width="784" height="228" viewBox="0 0 784 228" xmlns="http://www.w3.org/2000/svg" xmlns:xlink="http://www.w3.org/1999/xlink"><title>schema 4</title><defs><path d="M349.95477 31.530983l-10.238257-7.192594v3.24136h-14.08V4.649835C325.628276 2.085224 323.55366.008246 320.991968 0h-79.347424C239.082854.008246 237.008237 2.085225 237 4.649834v53.7623c.006178 2.566074 2.081394 4.645332 4.644544 4.65359h79.347424c2.561692-.008248 4.636308-2.085226 4.644545-4.649835V35.482215h14.08v3.241362l10.238256-7.192595z" id="a"/><path d="M349.95477 111.530983l-10.238257-7.192594v3.24136h-14.08V84.649835c-.008237-2.56461-2.082853-4.641588-4.644545-4.649834h-79.347424c-2.56169.008246-4.636307 2.085225-4.644544 4.649834v53.7623c.006178 2.566074 2.081394 4.645332 4.644544 4.65359h79.347424c2.561692-.008248 4.636308-2.085226 4.644545-4.649835v-22.933674h14.08v3.241362l10.238256-7.192595z" id="b"/><path d="M163.95477 31.530983l-10.238257-7.192594v3.24136h-45.08V9.649835C108.628276 7.085224 106.55366 5.008246 103.991968 5H4.644544C2.082854 5.008246.008237 7.085225 0 9.649834v43.7623c.006178 2.566074 2.081394 4.645332 4.644544 4.65359h99.347424c2.561692-.008248 4.636308-2.085226 4.644545-4.649835V35.482215h45.08v3.241362l10.238256-7.192595z" id="c"/><path d="M163.95477 111.530983l-10.238257-7.192594v3.24136h-45.08V89.649835c-.008237-2.56461-2.082853-4.641588-4.644545-4.649834H4.644544C2.082854 85.008246.008237 87.085225 0 89.649834v43.7623c.006178 2.566074 2.081394 4.645332 4.644544 4.65359h99.347424c2.561692-.008248 4.636308-2.085226 4.644545-4.649835v-17.933674h45.08v3.241362l10.238256-7.192595z" id="d"/><filter x="-3.8%" y="-11.3%" width="107.7%" height="129.8%" filterUnits="objectBoundingBox" id="e"><feOffset dy="3" in="SourceAlpha" result="shadowOffsetOuter1"/><feGaussianBlur stdDeviation="3" in="shadowOffsetOuter1" result="shadowBlurOuter1"/><feColorMatrix values="0 0 0 0 0 0 0 0 0 0 0 0 0 0 0 0 0 0 0.2 0" in="shadowBlurOuter1" result="shadowMatrixOuter1"/><feMerge><feMergeNode in="shadowMatrixOuter1"/><feMergeNode in="SourceGraphic"/></feMerge></filter><path d="M324.636513 25.649834c-.008237-2.56461-2.082853-4.641588-4.644545-4.649834h-79.347424c-2.56169.008246-4.636307 2.085225-4.644544 4.649834v33.7623c.006178 2.566074 2.081394 4.645332 4.644544 4.65359h79.347424c2.561692-.008248 4.636308-2.085226 4.644545-4.649835V25.649833z" id="f"/><path d="M112.95477 41.530983l-10.238257-7.192594v3.24136h-14.08V4.649835C88.628276 2.085224 86.55366.008246 83.991968 0H4.644544C2.082854.008246.008237 2.085225 0 4.649834v73.7623c.006178 2.566074 2.081394 4.645332 4.644544 4.65359h79.347424c2.561692-.008248 4.636308-2.085226 4.644544-4.649835V45.482215h14.08v3.241362l10.238257-7.192595z" id="g"/></defs><g fill="none" fill-rule="evenodd"><path d="M460.95477 130.530983l-10.238257-7.192594v3.24136h-14.08V73.649835c-.008237-2.56461-2.082853-4.641588-4.644545-4.649834h-79.347424c-2.56169.008246-4.636307 2.085225-4.644544 4.649834v113.7623c.006178 2.566074 2.081394 4.645332 4.644544 4.65359h79.347424c2.561692-.008248 4.636308-2.085226 4.644545-4.649835v-52.933674h14.08v3.241362l10.238256-7.192595z" fill="#25B8EB"/><g stroke-linecap="square" stroke-linejoin="round" transform="translate(8 59)"><use fill="#FFF" xlink:href="#a"/><path stroke="#25B8EB" stroke-width="2" d="M338.716513 36.482216h-12.08l-.000006 21.936884c-.010002 3.11413-2.529603 5.6366-5.64454 5.646623l-79.350644-.000005c-3.11349-.01003-5.633818-2.53527-5.641323-5.653585l.000005-53.76551c.010002-3.11413 2.529604-5.6366 5.64454-5.646623l79.350642.000005c3.111717.010017 5.631318 2.53249 5.641326 5.64983V26.57975h12.08v-4.165986l12.97785 9.11722-12.97785 9.11722v-4.165988z"/></g><path d="M281.289 76.496v-4.77h-1.53c-.288 0-.513-.234-.513-.513s.225-.513.513-.513h4.185c.279 0 .504.234.504.513s-.225.513-.504.513h-1.539v4.77c0 .306-.252.549-.558.549-.306 0-.558-.243-.558-.549zm4.5.603c-.891 0-1.683-.513-1.683-1.467v-.018c0-1.026.801-1.53 1.962-1.53.531 0 .909.081 1.278.198v-.117c0-.675-.414-1.035-1.179-1.035-.414 0-.756.072-1.053.189-.063.018-.117.027-.171.027-.252 0-.459-.198-.459-.45 0-.198.135-.369.297-.432.45-.171.909-.279 1.53-.279.711 0 1.242.189 1.575.531.351.342.513.846.513 1.467v2.34c0 .297-.234.522-.531.522-.315 0-.531-.216-.531-.459v-.18c-.324.387-.819.693-1.548.693zm.306-.792c.72 0 1.269-.414 1.269-1.017v-.324c-.279-.108-.648-.189-1.08-.189-.702 0-1.116.297-1.116.792v.018c0 .459.405.72.927.72zm3.609.198v-5.58c0-.306.234-.54.54-.54.306 0 .549.234.549.54v2.115c.351-.495.846-.891 1.62-.891 1.116 0 2.205.882 2.205 2.466v.018c0 1.575-1.08 2.466-2.205 2.466-.792 0-1.287-.396-1.62-.837v.243c0 .297-.243.54-.549.54-.297 0-.54-.243-.54-.54zm2.448-.351c.747 0 1.359-.585 1.359-1.521v-.018c0-.918-.621-1.521-1.359-1.521s-1.386.612-1.386 1.521v.018c0 .909.648 1.521 1.386 1.521zm3.654.351c0 .306.243.54.54.54.306 0 .549-.234.549-.54v-5.58c0-.297-.243-.54-.549-.54-.306 0-.54.243-.54.54v5.58zm3.33-2.214h2.439c-.072-.702-.486-1.251-1.206-1.251-.666 0-1.134.513-1.233 1.251zm3.069 2.187c-.432.387-.972.63-1.71.63-1.377 0-2.439-.999-2.439-2.466v-.018c0-1.359.963-2.475 2.322-2.475 1.512 0 2.259 1.242 2.259 2.34 0 .306-.234.522-.513.522h-2.979c.117.774.666 1.206 1.368 1.206.459 0 .819-.162 1.125-.414.081-.063.153-.099.279-.099.243 0 .432.189.432.441 0 .135-.063.252-.144.333zm-34.2945 6.546c0 .324.27.54.621.54s.621-.216.621-.54v-.054c0-.324-.27-.531-.621-.531s-.621.207-.621.531v.054zm.081 5.481c0 .306.243.54.54.54.306 0 .549-.234.549-.54v-3.762c0-.306-.243-.549-.549-.549-.306 0-.54.243-.54.549v3.762zm2.511 0c0 .306.243.54.54.54.306 0 .549-.234.549-.54v-2.187c0-.738.441-1.179 1.071-1.179.648 0 1.017.423 1.017 1.161v2.205c0 .306.243.54.549.54.306 0 .54-.234.54-.54v-2.538c0-1.098-.621-1.818-1.692-1.818-.738 0-1.179.387-1.485.828v-.234c0-.306-.243-.549-.549-.549-.306 0-.54.243-.54.549v3.762zm9.909.585c.99 0 1.764-.495 1.764-1.494v-.018c0-.855-.783-1.17-1.476-1.386-.558-.18-1.071-.324-1.071-.675v-.018c0-.27.243-.468.666-.468.333 0 .729.126 1.116.324.072.036.126.054.216.054.252 0 .45-.189.45-.441 0-.189-.108-.333-.261-.414-.459-.243-.99-.387-1.494-.387-.945 0-1.692.549-1.692 1.449v.018c0 .909.783 1.197 1.485 1.395.558.171 1.062.297 1.062.666v.018c0 .315-.27.513-.738.513-.432 0-.909-.153-1.368-.459-.063-.036-.144-.063-.234-.063-.252 0-.441.198-.441.441 0 .18.09.315.207.378.549.378 1.206.567 1.809.567zm4.383-.009c.288 0 .513-.045.747-.126.153-.063.288-.225.288-.423 0-.252-.216-.45-.459-.45-.036 0-.144.027-.27.027-.369 0-.585-.171-.585-.594v-2.331h.855c.261 0 .477-.207.477-.468s-.216-.468-.477-.468h-.855v-.81c0-.297-.243-.54-.54-.54-.306 0-.549.243-.549.54v.81h-.18c-.261 0-.468.207-.468.468s.207.468.468.468h.18v2.502c0 1.044.567 1.395 1.368 1.395zm4.23.027c-1.449 0-2.52-1.107-2.52-2.457v-.018c0-1.359 1.08-2.484 2.538-2.484 1.458 0 2.529 1.107 2.529 2.466v.018c0 1.35-1.08 2.475-2.547 2.475zm.018-.954c.882 0 1.44-.684 1.44-1.503v-.018c0-.837-.603-1.53-1.458-1.53-.873 0-1.431.684-1.431 1.512v.018c0 .828.603 1.521 1.449 1.521zm3.636.351c0 .306.243.54.54.54.306 0 .549-.243.549-.54v-1.404c0-1.125.531-1.719 1.305-1.854.243-.045.432-.234.432-.522 0-.315-.198-.54-.54-.54-.477 0-.945.45-1.197 1.044v-.486c0-.306-.243-.549-.549-.549-.306 0-.54.243-.54.549v3.762zm4.86.594c-.891 0-1.683-.513-1.683-1.467v-.018c0-1.026.801-1.53 1.962-1.53.531 0 .909.081 1.278.198v-.117c0-.675-.414-1.035-1.179-1.035-.414 0-.756.072-1.053.189-.063.018-.117.027-.171.027-.252 0-.459-.198-.459-.45 0-.198.135-.369.297-.432.45-.171.909-.279 1.53-.279.711 0 1.242.189 1.575.531.351.342.513.846.513 1.467v2.34c0 .297-.234.522-.531.522-.315 0-.531-.216-.531-.459v-.18c-.324.387-.819.693-1.548.693zm.306-.792c.72 0 1.269-.414 1.269-1.017v-.324c-.279-.108-.648-.189-1.08-.189-.702 0-1.116.297-1.116.792v.018c0 .459.405.72.927.72zm5.724 2.151c-.666 0-1.26-.144-1.836-.423-.189-.072-.306-.225-.306-.432 0-.243.207-.45.459-.45.081 0 .144.018.198.045.432.243.909.378 1.458.378.972 0 1.503-.504 1.503-1.458v-.369c-.396.513-.891.873-1.674.873-1.116 0-2.16-.828-2.16-2.223v-.018c0-1.404 1.053-2.232 2.16-2.232.801 0 1.296.369 1.665.81v-.225c0-.297.243-.54.54-.54.306 0 .549.243.549.549v3.285c0 .801-.207 1.395-.603 1.791-.432.432-1.098.639-1.953.639zm.09-2.763c.756 0 1.395-.531 1.395-1.305v-.018c0-.774-.639-1.305-1.395-1.305s-1.35.522-1.35 1.305v.018c0 .774.603 1.305 1.35 1.305zm4.653-1.404h2.439c-.072-.702-.486-1.251-1.206-1.251-.666 0-1.134.513-1.233 1.251zm3.069 2.187c-.432.387-.972.63-1.71.63-1.377 0-2.439-.999-2.439-2.466v-.018c0-1.359.963-2.475 2.322-2.475 1.512 0 2.259 1.242 2.259 2.34 0 .306-.234.522-.513.522h-2.979c.117.774.666 1.206 1.368 1.206.459 0 .819-.162 1.125-.414.081-.063.153-.099.279-.099.243 0 .432.189.432.441 0 .135-.063.252-.144.333zm1.485-3.654v.081c0 .36.27.63.639.63.36 0 .63-.27.63-.63v-.081c0-.36-.27-.63-.63-.63-.369 0-.639.27-.639.63zm0 3.51v.09c0 .351.27.621.639.621.36 0 .63-.27.63-.621v-.09c0-.351-.27-.621-.63-.621-.369 0-.639.27-.639.621zm-51.957 12.351V95.06c0-.198.162-.36.351-.36h2.007c1.422 0 2.358.756 2.358 1.998v.018c0 1.359-1.134 2.061-2.475 2.061h-1.53v1.908c0 .198-.162.36-.36.36-.189 0-.351-.162-.351-.36zm.711-2.556h1.557c1.044 0 1.728-.558 1.728-1.386v-.018c0-.9-.675-1.368-1.692-1.368h-1.593v2.772zm7.263 2.979c-1.395 0-2.412-1.098-2.412-2.412v-.018c0-1.314 1.026-2.43 2.43-2.43 1.395 0 2.421 1.098 2.421 2.412v.018c0 1.314-1.035 2.43-2.439 2.43zm.018-.621c1.008 0 1.71-.81 1.71-1.791v-.018c0-.999-.747-1.818-1.728-1.818-1.008 0-1.701.819-1.701 1.8v.018c0 .999.738 1.809 1.719 1.809zm3.672 1.647v-5.481c0-.198.153-.351.342-.351.198 0 .351.153.351.351v.63c.378-.558.927-1.035 1.782-1.035 1.116 0 2.223.882 2.223 2.412v.018c0 1.521-1.098 2.421-2.223 2.421-.864 0-1.422-.468-1.782-.99v2.025c0 .198-.144.351-.342.351-.198 0-.351-.153-.351-.351zm2.349-1.656c.9 0 1.638-.666 1.638-1.791v-.018c0-1.098-.756-1.8-1.638-1.8-.864 0-1.683.729-1.683 1.791v.018c0 1.08.819 1.8 1.683 1.8zm7.614-3.825c0-.198-.153-.351-.342-.351-.198 0-.342.153-.342.351v2.358c0 .873-.603 1.458-1.395 1.458-.819 0-1.287-.54-1.287-1.404v-2.412c0-.198-.162-.351-.351-.351-.198 0-.342.153-.342.351v2.583c0 1.107.657 1.863 1.782 1.863.801 0 1.278-.405 1.593-.909v.504c0 .198.153.351.342.351.198 0 .342-.162.342-.351v-4.041zm1.62 4.041c0 .198.153.351.351.351.198 0 .342-.153.342-.351v-5.958c0-.189-.153-.351-.351-.351-.189 0-.342.162-.342.351v5.958zm3.69.405c-.864 0-1.737-.495-1.737-1.449v-.018c0-.981.81-1.503 1.989-1.503.594 0 1.017.081 1.431.198v-.162c0-.837-.513-1.269-1.386-1.269-.468 0-.864.108-1.206.261-.045.018-.09.027-.126.027-.162 0-.306-.135-.306-.297 0-.144.099-.252.189-.288.459-.198.927-.315 1.521-.315.657 0 1.161.171 1.503.513.315.315.477.765.477 1.359v2.547c0 .198-.144.342-.333.342-.198 0-.333-.144-.333-.324v-.423c-.324.423-.864.801-1.683.801zm.135-.549c.855 0 1.557-.522 1.557-1.26v-.45c-.342-.099-.801-.198-1.368-.198-.873 0-1.359.378-1.359.963v.018c0 .585.54.927 1.17.927zm5.202.531c.27 0 .486-.045.684-.126.117-.045.198-.144.198-.27 0-.162-.135-.297-.297-.297-.054 0-.18.063-.423.063-.468 0-.783-.207-.783-.774v-2.718h1.206c.171 0 .315-.135.315-.306 0-.162-.144-.306-.315-.306h-1.206v-1.098c0-.189-.162-.351-.351-.351-.198 0-.342.162-.342.351v1.098h-.378c-.162 0-.306.135-.306.306 0 .162.144.306.306.306h.378v2.808c0 .945.567 1.314 1.314 1.314zm2.079-6.075c0 .216.18.369.405.369.234 0 .414-.153.414-.369v-.117c0-.225-.18-.369-.414-.369-.225 0-.405.144-.405.369v.117zm.063 5.688c0 .198.153.351.351.351.198 0 .342-.153.342-.351v-4.041c0-.198-.153-.351-.351-.351-.189 0-.342.162-.342.351v4.041zm4.428.414c-1.395 0-2.412-1.098-2.412-2.412v-.018c0-1.314 1.026-2.43 2.43-2.43 1.395 0 2.421 1.098 2.421 2.412v.018c0 1.314-1.035 2.43-2.439 2.43zm.018-.621c1.008 0 1.71-.81 1.71-1.791v-.018c0-.999-.747-1.818-1.728-1.818-1.008 0-1.701.819-1.701 1.8v.018c0 .999.738 1.809 1.719 1.809zm3.672.207c0 .198.153.351.351.351.198 0 .342-.153.342-.351v-2.358c0-.873.594-1.458 1.395-1.458.819 0 1.287.54 1.287 1.404v2.412c0 .198.153.351.351.351.189 0 .342-.153.342-.351v-2.583c0-1.107-.657-1.863-1.782-1.863-.801 0-1.287.405-1.593.909v-.504c0-.198-.153-.351-.351-.351-.189 0-.342.162-.342.351v4.041zm8.244 0v-5.958c0-.198.153-.351.342-.351.198 0 .351.153.351.351v2.547c.378-.558.927-1.035 1.782-1.035 1.116 0 2.223.882 2.223 2.412v.018c0 1.521-1.098 2.421-2.223 2.421-.864 0-1.422-.468-1.782-.99v.585c0 .189-.144.351-.342.351-.198 0-.351-.162-.351-.351zm2.349-.216c.9 0 1.638-.666 1.638-1.791v-.018c0-1.098-.756-1.8-1.638-1.8-.864 0-1.683.729-1.683 1.791v.018c0 1.08.819 1.8 1.683 1.8zm4.113 1.989c.702 0 1.152-.351 1.557-1.314l1.818-4.338c.018-.054.036-.117.036-.171 0-.189-.153-.342-.342-.342-.18 0-.279.117-.333.261l-1.44 3.663-1.62-3.654c-.063-.153-.162-.27-.351-.27-.198 0-.351.153-.351.342 0 .063.018.126.045.189l1.944 4.122-.036.072c-.252.567-.504.828-.936.828-.234 0-.369-.036-.504-.081-.054-.018-.108-.036-.171-.036-.153 0-.297.126-.297.297 0 .162.108.252.216.297.234.081.459.135.765.135zm-41.5125 10.641c.783 0 1.314-.306 1.755-.747.054-.054.09-.135.09-.216 0-.162-.144-.315-.315-.315-.09 0-.153.045-.198.09-.342.324-.765.567-1.296.567-.972 0-1.71-.801-1.71-1.809v-.018c0-.999.72-1.8 1.665-1.8.558 0 .936.252 1.269.558.054.045.135.081.225.081.18 0 .333-.144.333-.333 0-.108-.054-.198-.108-.243-.414-.378-.936-.675-1.71-.675-1.359 0-2.385 1.116-2.385 2.43v.018c0 1.305 1.026 2.412 2.385 2.412zm5.031 0c-1.395 0-2.412-1.098-2.412-2.412v-.018c0-1.314 1.026-2.43 2.43-2.43 1.395 0 2.421 1.098 2.421 2.412v.018c0 1.314-1.035 2.43-2.439 2.43zm.018-.621c1.008 0 1.71-.81 1.71-1.791v-.018c0-.999-.747-1.818-1.728-1.818-1.008 0-1.701.819-1.701 1.8v.018c0 .999.738 1.809 1.719 1.809zm7.659-3.834c0-.198-.153-.351-.342-.351-.198 0-.342.153-.342.351v2.358c0 .873-.603 1.458-1.395 1.458-.819 0-1.287-.54-1.287-1.404v-2.412c0-.198-.162-.351-.351-.351-.198 0-.342.153-.342.351v2.583c0 1.107.657 1.863 1.782 1.863.801 0 1.278-.405 1.593-.909v.504c0 .198.153.351.342.351.198 0 .342-.162.342-.351v-4.041zm1.557 4.041c0 .198.153.351.351.351.198 0 .342-.153.342-.351v-2.358c0-.873.594-1.458 1.395-1.458.819 0 1.287.54 1.287 1.404v2.412c0 .198.153.351.351.351.189 0 .342-.153.342-.351v-2.583c0-1.107-.657-1.863-1.782-1.863-.801 0-1.287.405-1.593.909v-.504c0-.198-.153-.351-.351-.351-.189 0-.342.162-.342.351v4.041zm7.101.387c.27 0 .486-.045.684-.126.117-.045.198-.144.198-.27 0-.162-.135-.297-.297-.297-.054 0-.18.063-.423.063-.468 0-.783-.207-.783-.774v-2.718h1.206c.171 0 .315-.135.315-.306 0-.162-.144-.306-.315-.306h-1.206v-1.098c0-.189-.162-.351-.351-.351-.198 0-.342.162-.342.351v1.098h-.378c-.162 0-.306.135-.306.306 0 .162.144.306.306.306h.378v2.808c0 .945.567 1.314 1.314 1.314zm2.079-.387c0 .198.153.351.351.351.198 0 .342-.162.342-.351v-1.584c0-1.341.738-2.016 1.638-2.124.18-.027.306-.162.306-.351 0-.198-.135-.351-.342-.351-.585 0-1.26.468-1.602 1.242v-.873c0-.198-.153-.351-.351-.351-.189 0-.342.162-.342.351v4.041zm4.32 1.773c.702 0 1.152-.351 1.557-1.314l1.818-4.338c.018-.054.036-.117.036-.171 0-.189-.153-.342-.342-.342-.18 0-.279.117-.333.261l-1.44 3.663-1.62-3.654c-.063-.153-.162-.27-.351-.27-.198 0-.351.153-.351.342 0 .063.018.126.045.189l1.944 4.122-.036.072c-.252.567-.504.828-.936.828-.234 0-.369-.036-.504-.081-.054-.018-.108-.036-.171-.036-.153 0-.297.126-.297.297 0 .162.108.252.216.297.234.081.459.135.765.135z" fill="#282D38"/><g stroke-linecap="square" stroke-linejoin="round" transform="translate(8 59)"><use fill="#FFF" xlink:href="#b"/><path stroke="#25B8EB" stroke-width="2" d="M338.716513 116.482216h-12.08l-.000006 21.936884c-.010002 3.11413-2.529603 5.6366-5.64454 5.646623l-79.350644-.000005c-3.11349-.01003-5.633818-2.53527-5.641323-5.653585l.000005-53.76551c.010002-3.11413 2.529604-5.6366 5.64454-5.646623l79.350642.000005c3.111717.010017 5.631318 2.53249 5.641326 5.64983v21.929916h12.08v-4.165986l12.97785 9.11722-12.97785 9.11722v-4.165988z"/></g><path d="M281.289 156.496v-4.77h-1.53c-.288 0-.513-.234-.513-.513s.225-.513.513-.513h4.185c.279 0 .504.234.504.513s-.225.513-.504.513h-1.539v4.77c0 .306-.252.549-.558.549-.306 0-.558-.243-.558-.549zm4.5.603c-.891 0-1.683-.513-1.683-1.467v-.018c0-1.026.801-1.53 1.962-1.53.531 0 .909.081 1.278.198v-.117c0-.675-.414-1.035-1.179-1.035-.414 0-.756.072-1.053.189-.063.018-.117.027-.171.027-.252 0-.459-.198-.459-.45 0-.198.135-.369.297-.432.45-.171.909-.279 1.53-.279.711 0 1.242.189 1.575.531.351.342.513.846.513 1.467v2.34c0 .297-.234.522-.531.522-.315 0-.531-.216-.531-.459v-.18c-.324.387-.819.693-1.548.693zm.306-.792c.72 0 1.269-.414 1.269-1.017v-.324c-.279-.108-.648-.189-1.08-.189-.702 0-1.116.297-1.116.792v.018c0 .459.405.72.927.72zm3.609.198v-5.58c0-.306.234-.54.54-.54.306 0 .549.234.549.54v2.115c.351-.495.846-.891 1.62-.891 1.116 0 2.205.882 2.205 2.466v.018c0 1.575-1.08 2.466-2.205 2.466-.792 0-1.287-.396-1.62-.837v.243c0 .297-.243.54-.549.54-.297 0-.54-.243-.54-.54zm2.448-.351c.747 0 1.359-.585 1.359-1.521v-.018c0-.918-.621-1.521-1.359-1.521s-1.386.612-1.386 1.521v.018c0 .909.648 1.521 1.386 1.521zm3.654.351c0 .306.243.54.54.54.306 0 .549-.234.549-.54v-5.58c0-.297-.243-.54-.549-.54-.306 0-.54.243-.54.54v5.58zm3.33-2.214h2.439c-.072-.702-.486-1.251-1.206-1.251-.666 0-1.134.513-1.233 1.251zm3.069 2.187c-.432.387-.972.63-1.71.63-1.377 0-2.439-.999-2.439-2.466v-.018c0-1.359.963-2.475 2.322-2.475 1.512 0 2.259 1.242 2.259 2.34 0 .306-.234.522-.513.522h-2.979c.117.774.666 1.206 1.368 1.206.459 0 .819-.162 1.125-.414.081-.063.153-.099.279-.099.243 0 .432.189.432.441 0 .135-.063.252-.144.333zm-34.2945 6.546c0 .324.27.54.621.54s.621-.216.621-.54v-.054c0-.324-.27-.531-.621-.531s-.621.207-.621.531v.054zm.081 5.481c0 .306.243.54.54.54.306 0 .549-.234.549-.54v-3.762c0-.306-.243-.549-.549-.549-.306 0-.54.243-.54.549v3.762zm2.511 0c0 .306.243.54.54.54.306 0 .549-.234.549-.54v-2.187c0-.738.441-1.179 1.071-1.179.648 0 1.017.423 1.017 1.161v2.205c0 .306.243.54.549.54.306 0 .54-.234.54-.54v-2.538c0-1.098-.621-1.818-1.692-1.818-.738 0-1.179.387-1.485.828v-.234c0-.306-.243-.549-.549-.549-.306 0-.54.243-.54.549v3.762zm9.909.585c.99 0 1.764-.495 1.764-1.494v-.018c0-.855-.783-1.17-1.476-1.386-.558-.18-1.071-.324-1.071-.675v-.018c0-.27.243-.468.666-.468.333 0 .729.126 1.116.324.072.036.126.054.216.054.252 0 .45-.189.45-.441 0-.189-.108-.333-.261-.414-.459-.243-.99-.387-1.494-.387-.945 0-1.692.549-1.692 1.449v.018c0 .909.783 1.197 1.485 1.395.558.171 1.062.297 1.062.666v.018c0 .315-.27.513-.738.513-.432 0-.909-.153-1.368-.459-.063-.036-.144-.063-.234-.063-.252 0-.441.198-.441.441 0 .18.09.315.207.378.549.378 1.206.567 1.809.567zm4.383-.009c.288 0 .513-.045.747-.126.153-.063.288-.225.288-.423 0-.252-.216-.45-.459-.45-.036 0-.144.027-.27.027-.369 0-.585-.171-.585-.594v-2.331h.855c.261 0 .477-.207.477-.468s-.216-.468-.477-.468h-.855v-.81c0-.297-.243-.54-.54-.54-.306 0-.549.243-.549.54v.81h-.18c-.261 0-.468.207-.468.468s.207.468.468.468h.18v2.502c0 1.044.567 1.395 1.368 1.395zm4.23.027c-1.449 0-2.52-1.107-2.52-2.457v-.018c0-1.359 1.08-2.484 2.538-2.484 1.458 0 2.529 1.107 2.529 2.466v.018c0 1.35-1.08 2.475-2.547 2.475zm.018-.954c.882 0 1.44-.684 1.44-1.503v-.018c0-.837-.603-1.53-1.458-1.53-.873 0-1.431.684-1.431 1.512v.018c0 .828.603 1.521 1.449 1.521zm3.636.351c0 .306.243.54.54.54.306 0 .549-.243.549-.54v-1.404c0-1.125.531-1.719 1.305-1.854.243-.045.432-.234.432-.522 0-.315-.198-.54-.54-.54-.477 0-.945.45-1.197 1.044v-.486c0-.306-.243-.549-.549-.549-.306 0-.54.243-.54.549v3.762zm4.86.594c-.891 0-1.683-.513-1.683-1.467v-.018c0-1.026.801-1.53 1.962-1.53.531 0 .909.081 1.278.198v-.117c0-.675-.414-1.035-1.179-1.035-.414 0-.756.072-1.053.189-.063.018-.117.027-.171.027-.252 0-.459-.198-.459-.45 0-.198.135-.369.297-.432.45-.171.909-.279 1.53-.279.711 0 1.242.189 1.575.531.351.342.513.846.513 1.467v2.34c0 .297-.234.522-.531.522-.315 0-.531-.216-.531-.459v-.18c-.324.387-.819.693-1.548.693zm.306-.792c.72 0 1.269-.414 1.269-1.017v-.324c-.279-.108-.648-.189-1.08-.189-.702 0-1.116.297-1.116.792v.018c0 .459.405.72.927.72zm5.724 2.151c-.666 0-1.26-.144-1.836-.423-.189-.072-.306-.225-.306-.432 0-.243.207-.45.459-.45.081 0 .144.018.198.045.432.243.909.378 1.458.378.972 0 1.503-.504 1.503-1.458v-.369c-.396.513-.891.873-1.674.873-1.116 0-2.16-.828-2.16-2.223v-.018c0-1.404 1.053-2.232 2.16-2.232.801 0 1.296.369 1.665.81v-.225c0-.297.243-.54.54-.54.306 0 .549.243.549.549v3.285c0 .801-.207 1.395-.603 1.791-.432.432-1.098.639-1.953.639zm.09-2.763c.756 0 1.395-.531 1.395-1.305v-.018c0-.774-.639-1.305-1.395-1.305s-1.35.522-1.35 1.305v.018c0 .774.603 1.305 1.35 1.305zm4.653-1.404h2.439c-.072-.702-.486-1.251-1.206-1.251-.666 0-1.134.513-1.233 1.251zm3.069 2.187c-.432.387-.972.63-1.71.63-1.377 0-2.439-.999-2.439-2.466v-.018c0-1.359.963-2.475 2.322-2.475 1.512 0 2.259 1.242 2.259 2.34 0 .306-.234.522-.513.522h-2.979c.117.774.666 1.206 1.368 1.206.459 0 .819-.162 1.125-.414.081-.063.153-.099.279-.099.243 0 .432.189.432.441 0 .135-.063.252-.144.333zm1.485-3.654v.081c0 .36.27.63.639.63.36 0 .63-.27.63-.63v-.081c0-.36-.27-.63-.63-.63-.369 0-.639.27-.639.63zm0 3.51v.09c0 .351.27.621.639.621.36 0 .63-.27.63-.621v-.09c0-.351-.27-.621-.63-.621-.369 0-.639.27-.639.621zm-28.0845 12.774c1.035 0 1.719-.36 2.34-.927.063-.054.117-.144.117-.252 0-.18-.162-.342-.342-.342-.09 0-.171.045-.225.099-.54.495-1.089.765-1.872.765-1.386 0-2.439-1.143-2.439-2.601v-.018c0-1.449 1.044-2.583 2.439-2.583.774 0 1.323.288 1.809.72.054.036.135.081.234.081.189 0 .36-.162.36-.351 0-.126-.072-.225-.144-.288-.585-.486-1.233-.819-2.25-.819-1.854 0-3.186 1.476-3.186 3.258v.018c0 1.809 1.341 3.24 3.159 3.24zm5.031-.009c-.864 0-1.737-.495-1.737-1.449v-.018c0-.981.81-1.503 1.989-1.503.594 0 1.017.081 1.431.198v-.162c0-.837-.513-1.269-1.386-1.269-.468 0-.864.108-1.206.261-.045.018-.09.027-.126.027-.162 0-.306-.135-.306-.297 0-.144.099-.252.189-.288.459-.198.927-.315 1.521-.315.657 0 1.161.171 1.503.513.315.315.477.765.477 1.359v2.547c0 .198-.144.342-.333.342-.198 0-.333-.144-.333-.324v-.423c-.324.423-.864.801-1.683.801zm.135-.549c.855 0 1.557-.522 1.557-1.26v-.45c-.342-.099-.801-.198-1.368-.198-.873 0-1.359.378-1.359.963v.018c0 .585.54.927 1.17.927zm3.69.144c0 .198.153.351.351.351.198 0 .342-.162.342-.351v-1.584c0-1.341.738-2.016 1.638-2.124.18-.027.306-.162.306-.351 0-.198-.135-.351-.342-.351-.585 0-1.26.468-1.602 1.242v-.873c0-.198-.153-.351-.351-.351-.189 0-.342.162-.342.351v4.041zm5.184.396c.927 0 1.656-.513 1.656-1.395v-.018c0-.837-.774-1.116-1.494-1.332-.621-.189-1.197-.36-1.197-.801v-.018c0-.387.351-.675.9-.675.396 0 .819.135 1.215.36.036.018.09.036.153.036.171 0 .306-.135.306-.297 0-.135-.081-.234-.171-.288-.45-.243-.99-.396-1.485-.396-.918 0-1.584.531-1.584 1.332v.018c0 .855.81 1.107 1.539 1.314.612.171 1.161.351 1.161.819v.018c0 .45-.405.738-.963.738-.504 0-.999-.171-1.476-.495-.045-.036-.108-.054-.171-.054-.171 0-.306.135-.306.297 0 .117.063.207.126.252.504.36 1.179.585 1.791.585zm-31.167 11.604v-5.958c0-.198.153-.351.342-.351.198 0 .351.153.351.351v2.547c.378-.558.927-1.035 1.782-1.035 1.116 0 2.223.882 2.223 2.412v.018c0 1.521-1.098 2.421-2.223 2.421-.864 0-1.422-.468-1.782-.99v.585c0 .189-.144.351-.342.351-.198 0-.351-.162-.351-.351zm2.349-.216c.9 0 1.638-.666 1.638-1.791v-.018c0-1.098-.756-1.8-1.638-1.8-.864 0-1.683.729-1.683 1.791v.018c0 1.08.819 1.8 1.683 1.8zm4.113 1.989c.702 0 1.152-.351 1.557-1.314l1.818-4.338c.018-.054.036-.117.036-.171 0-.189-.153-.342-.342-.342-.18 0-.279.117-.333.261l-1.44 3.663-1.62-3.654c-.063-.153-.162-.27-.351-.27-.198 0-.351.153-.351.342 0 .063.018.126.045.189l1.944 4.122-.036.072c-.252.567-.504.828-.936.828-.234 0-.369-.036-.504-.081-.054-.018-.108-.036-.171-.036-.153 0-.297.126-.297.297 0 .162.108.252.216.297.234.081.459.135.765.135zm9.405-1.359c.783 0 1.314-.306 1.755-.747.054-.054.09-.135.09-.216 0-.162-.144-.315-.315-.315-.09 0-.153.045-.198.09-.342.324-.765.567-1.296.567-.972 0-1.71-.801-1.71-1.809v-.018c0-.999.72-1.8 1.665-1.8.558 0 .936.252 1.269.558.054.045.135.081.225.081.18 0 .333-.144.333-.333 0-.108-.054-.198-.108-.243-.414-.378-.936-.675-1.71-.675-1.359 0-2.385 1.116-2.385 2.43v.018c0 1.305 1.026 2.412 2.385 2.412zm5.031 0c-1.395 0-2.412-1.098-2.412-2.412v-.018c0-1.314 1.026-2.43 2.43-2.43 1.395 0 2.421 1.098 2.421 2.412v.018c0 1.314-1.035 2.43-2.439 2.43zm.018-.621c1.008 0 1.71-.81 1.71-1.791v-.018c0-.999-.747-1.818-1.728-1.818-1.008 0-1.701.819-1.701 1.8v.018c0 .999.738 1.809 1.719 1.809zm7.659-3.834c0-.198-.153-.351-.342-.351-.198 0-.342.153-.342.351v2.358c0 .873-.603 1.458-1.395 1.458-.819 0-1.287-.54-1.287-1.404v-2.412c0-.198-.162-.351-.351-.351-.198 0-.342.153-.342.351v2.583c0 1.107.657 1.863 1.782 1.863.801 0 1.278-.405 1.593-.909v.504c0 .198.153.351.342.351.198 0 .342-.162.342-.351v-4.041zm1.557 4.041c0 .198.153.351.351.351.198 0 .342-.153.342-.351v-2.358c0-.873.594-1.458 1.395-1.458.819 0 1.287.54 1.287 1.404v2.412c0 .198.153.351.351.351.189 0 .342-.153.342-.351v-2.583c0-1.107-.657-1.863-1.782-1.863-.801 0-1.287.405-1.593.909v-.504c0-.198-.153-.351-.351-.351-.189 0-.342.162-.342.351v4.041zm7.101.387c.27 0 .486-.045.684-.126.117-.045.198-.144.198-.27 0-.162-.135-.297-.297-.297-.054 0-.18.063-.423.063-.468 0-.783-.207-.783-.774v-2.718h1.206c.171 0 .315-.135.315-.306 0-.162-.144-.306-.315-.306h-1.206v-1.098c0-.189-.162-.351-.351-.351-.198 0-.342.162-.342.351v1.098h-.378c-.162 0-.306.135-.306.306 0 .162.144.306.306.306h.378v2.808c0 .945.567 1.314 1.314 1.314zm2.079-.387c0 .198.153.351.351.351.198 0 .342-.162.342-.351v-1.584c0-1.341.738-2.016 1.638-2.124.18-.027.306-.162.306-.351 0-.198-.135-.351-.342-.351-.585 0-1.26.468-1.602 1.242v-.873c0-.198-.153-.351-.351-.351-.189 0-.342.162-.342.351v4.041zm4.32 1.773c.702 0 1.152-.351 1.557-1.314l1.818-4.338c.018-.054.036-.117.036-.171 0-.189-.153-.342-.342-.342-.18 0-.279.117-.333.261l-1.44 3.663-1.62-3.654c-.063-.153-.162-.27-.351-.27-.198 0-.351.153-.351.342 0 .063.018.126.045.189l1.944 4.122-.036.072c-.252.567-.504.828-.936.828-.234 0-.369-.036-.504-.081-.054-.018-.108-.036-.171-.036-.153 0-.297.126-.297.297 0 .162.108.252.216.297.234.081.459.135.765.135z" fill="#282D38"/><path d="M230.636513 86.241363v-22.59153c-.008237-2.564608-2.082853-4.641587-4.644545-4.649833h-59.347424c-2.56169.008246-4.636307 2.085225-4.644544 4.649834v133.7623c.006178 2.566074 2.081394 4.645332 4.644544 4.65359h59.347424c2.561692-.008248 4.636308-2.085226 4.644545-4.649835v-22.933674h14.08v3.241362l10.238256-7.192595-10.238257-7.192594v3.24136h-14.08V94.143828H245.08v3.241363l10.238256-7.192595L245.08 83v3.241363h-14.443487z" fill="#25B8EB"/><path d="M177.8125 136h3.537c.342 0 .621-.27.621-.612 0-.342-.279-.621-.621-.621h-2.853v-1.323h2.403c.342 0 .621-.27.621-.612 0-.342-.279-.621-.621-.621h-2.403v-1.278h2.808c.342 0 .621-.27.621-.612 0-.342-.279-.621-.621-.621h-3.492c-.387 0-.693.306-.693.693v4.914c0 .387.306.693.693.693zm4.941-.522c0 .342.279.594.639.594.243 0 .432-.153.594-.351l.972-1.278.972 1.278c.18.225.369.351.639.351.342 0 .63-.243.63-.63 0-.18-.072-.342-.225-.522l-1.206-1.386 1.17-1.368c.108-.135.189-.279.189-.468 0-.342-.279-.594-.639-.594-.243 0-.432.153-.594.351l-.909 1.188-.891-1.188c-.18-.225-.369-.351-.639-.351-.342 0-.63.243-.63.63 0 .18.072.342.225.522l1.125 1.296-1.233 1.458c-.117.135-.189.279-.189.468zm7.047.603c.297 0 .531-.036.783-.135.189-.072.351-.27.351-.513 0-.315-.261-.567-.567-.567-.027 0-.117.009-.162.009-.306 0-.441-.153-.441-.468v-2.061h.603c.324 0 .585-.261.585-.585 0-.324-.261-.585-.585-.585h-.603v-.603c0-.378-.306-.684-.684-.684-.378 0-.684.306-.684.684v.603h-.045c-.324 0-.585.261-.585.585 0 .324.261.585.585.585h.045v2.286c0 1.116.567 1.449 1.404 1.449zm2.106-.711c0 .378.306.684.684.684.378 0 .684-.306.684-.684v-1.278c0-.972.387-1.503 1.08-1.665.279-.063.513-.279.513-.639 0-.387-.243-.666-.666-.666-.405 0-.729.432-.927.9v-.216c0-.378-.306-.684-.684-.684-.378 0-.684.306-.684.684v3.564zm4.905.72c-.909 0-1.656-.522-1.656-1.476v-.018c0-1.053.801-1.539 1.944-1.539.486 0 .837.081 1.179.198v-.081c0-.567-.351-.882-1.035-.882-.378 0-.684.054-.945.135-.081.027-.135.036-.198.036-.315 0-.567-.243-.567-.558 0-.243.153-.45.369-.531.432-.162.9-.252 1.539-.252.747 0 1.287.198 1.629.54.36.36.522.891.522 1.539v2.196c0 .369-.297.657-.666.657-.396 0-.657-.279-.657-.567v-.009c-.333.369-.792.612-1.458.612zm.414-.945c.639 0 1.071-.351 1.071-.846v-.243c-.234-.108-.54-.18-.873-.18-.585 0-.945.234-.945.666v.018c0 .369.306.585.747.585zm5.823.963c.792 0 1.305-.252 1.71-.621.117-.108.198-.252.198-.432 0-.324-.252-.585-.576-.585-.162 0-.297.072-.369.126-.261.207-.54.333-.9.333-.747 0-1.224-.594-1.224-1.332v-.018c0-.711.486-1.314 1.17-1.314.36 0 .612.117.855.306.081.063.216.135.396.135.342 0 .621-.27.621-.612 0-.234-.126-.396-.216-.468-.405-.342-.918-.54-1.647-.54-1.476 0-2.529 1.134-2.529 2.511v.018c0 1.377 1.062 2.493 2.511 2.493zm4.491-.027c.297 0 .531-.036.783-.135.189-.072.351-.27.351-.513 0-.315-.261-.567-.567-.567-.027 0-.117.009-.162.009-.306 0-.441-.153-.441-.468v-2.061h.603c.324 0 .585-.261.585-.585 0-.324-.261-.585-.585-.585h-.603v-.603c0-.378-.306-.684-.684-.684-.378 0-.684.306-.684.684v.603h-.045c-.324 0-.585.261-.585.585 0 .324.261.585.585.585h.045v2.286c0 1.116.567 1.449 1.404 1.449zm4.338.027c-1.494 0-2.601-1.107-2.601-2.493v-.018c0-1.386 1.116-2.511 2.619-2.511 1.494 0 2.601 1.107 2.601 2.493v.018c0 1.386-1.116 2.511-2.619 2.511zm.018-1.179c.783 0 1.251-.603 1.251-1.314v-.018c0-.711-.513-1.332-1.269-1.332-.783 0-1.251.603-1.251 1.314v.018c0 .711.513 1.332 1.269 1.332zm3.591.441c0 .378.306.684.684.684.378 0 .684-.306.684-.684v-1.278c0-.972.387-1.503 1.08-1.665.279-.063.513-.279.513-.639 0-.387-.243-.666-.666-.666-.405 0-.729.432-.927.9v-.216c0-.378-.306-.684-.684-.684-.378 0-.684.306-.684.684v3.564zM360.1045 134.361c0 .387.306.693.693.693.387 0 .693-.306.693-.693v-4.383h1.332c.351 0 .639-.288.639-.639 0-.351-.288-.639-.639-.639h-4.05c-.351 0-.639.288-.639.639 0 .351.288.639.639.639h1.332v4.383zm3.681.009c0 .378.306.684.684.684.378 0 .684-.306.684-.684v-1.278c0-.972.387-1.503 1.08-1.665.279-.063.513-.279.513-.639 0-.387-.243-.666-.666-.666-.405 0-.729.432-.927.9v-.216c0-.378-.306-.684-.684-.684-.378 0-.684.306-.684.684v3.564zm4.905.72c-.909 0-1.656-.522-1.656-1.476v-.018c0-1.053.801-1.539 1.944-1.539.486 0 .837.081 1.179.198v-.081c0-.567-.351-.882-1.035-.882-.378 0-.684.054-.945.135-.081.027-.135.036-.198.036-.315 0-.567-.243-.567-.558 0-.243.153-.45.369-.531.432-.162.9-.252 1.539-.252.747 0 1.287.198 1.629.54.36.36.522.891.522 1.539v2.196c0 .369-.297.657-.666.657-.396 0-.657-.279-.657-.567v-.009c-.333.369-.792.612-1.458.612zm.414-.945c.639 0 1.071-.351 1.071-.846v-.243c-.234-.108-.54-.18-.873-.18-.585 0-.945.234-.945.666v.018c0 .369.306.585.747.585zm3.546.225c0 .378.306.684.684.684.378 0 .684-.306.684-.684v-2.061c0-.648.333-.981.855-.981s.828.333.828.981v2.061c0 .378.306.684.684.684.378 0 .684-.306.684-.684v-2.493c0-1.107-.603-1.791-1.638-1.791-.693 0-1.098.369-1.413.774v-.054c0-.378-.306-.684-.684-.684-.378 0-.684.306-.684.684v3.564zm7.299.72c1.044 0 1.845-.486 1.845-1.557v-.018c0-.882-.783-1.206-1.458-1.431-.522-.18-.981-.306-.981-.576v-.018c0-.189.171-.333.504-.333.288 0 .657.117 1.044.306.09.045.153.063.252.063.306 0 .549-.234.549-.54 0-.234-.126-.414-.324-.513-.468-.234-.99-.369-1.494-.369-.972 0-1.764.549-1.764 1.53v.018c0 .936.765 1.251 1.44 1.449.531.162.999.261.999.558v.018c0 .216-.18.36-.576.36-.387 0-.846-.144-1.305-.432-.072-.045-.171-.072-.27-.072-.306 0-.54.234-.54.54 0 .216.117.378.261.468.585.378 1.224.549 1.818.549zm3.06-.72c0 .378.306.684.684.684.378 0 .684-.306.684-.684v-3.024h.576c.315 0 .567-.243.567-.558 0-.315-.252-.558-.567-.558h-.594v-.189c0-.36.18-.522.495-.522h.117c.306 0 .558-.261.558-.567 0-.306-.234-.513-.468-.549-.153-.027-.342-.036-.558-.036-.486 0-.855.126-1.107.378s-.387.639-.387 1.17v.306h-.054c-.315 0-.567.252-.567.567 0 .315.252.558.567.558h.054v3.024zm5.481.738c-1.494 0-2.601-1.107-2.601-2.493v-.018c0-1.386 1.116-2.511 2.619-2.511 1.494 0 2.601 1.107 2.601 2.493v.018c0 1.386-1.116 2.511-2.619 2.511zm.018-1.179c.783 0 1.251-.603 1.251-1.314v-.018c0-.711-.513-1.332-1.269-1.332-.783 0-1.251.603-1.251 1.314v.018c0 .711.513 1.332 1.269 1.332zm3.591.441c0 .378.306.684.684.684.378 0 .684-.306.684-.684v-1.278c0-.972.387-1.503 1.08-1.665.279-.063.513-.279.513-.639 0-.387-.243-.666-.666-.666-.405 0-.729.432-.927.9v-.216c0-.378-.306-.684-.684-.684-.378 0-.684.306-.684.684v3.564zm3.762 0c0 .378.306.684.684.684.378 0 .684-.306.684-.684v-2.061c0-.648.315-.981.828-.981.513 0 .801.333.801.981v2.061c0 .378.306.684.684.684.378 0 .684-.306.684-.684v-2.061c0-.648.315-.981.828-.981.513 0 .801.333.801.981v2.061c0 .378.306.684.684.684.378 0 .684-.306.684-.684v-2.511c0-1.161-.612-1.773-1.629-1.773-.657 0-1.161.27-1.584.765-.252-.486-.729-.765-1.359-.765-.693 0-1.107.369-1.422.774v-.054c0-.378-.306-.684-.684-.684-.378 0-.684.306-.684.684v3.564zm9.918.72c-.909 0-1.656-.522-1.656-1.476v-.018c0-1.053.801-1.539 1.944-1.539.486 0 .837.081 1.179.198v-.081c0-.567-.351-.882-1.035-.882-.378 0-.684.054-.945.135-.081.027-.135.036-.198.036-.315 0-.567-.243-.567-.558 0-.243.153-.45.369-.531.432-.162.9-.252 1.539-.252.747 0 1.287.198 1.629.54.36.36.522.891.522 1.539v2.196c0 .369-.297.657-.666.657-.396 0-.657-.279-.657-.567v-.009c-.333.369-.792.612-1.458.612zm.414-.945c.639 0 1.071-.351 1.071-.846v-.243c-.234-.108-.54-.18-.873-.18-.585 0-.945.234-.945.666v.018c0 .369.306.585.747.585zm5.13.936c.297 0 .531-.036.783-.135.189-.072.351-.27.351-.513 0-.315-.261-.567-.567-.567-.027 0-.117.009-.162.009-.306 0-.441-.153-.441-.468v-2.061h.603c.324 0 .585-.261.585-.585 0-.324-.261-.585-.585-.585h-.603v-.603c0-.378-.306-.684-.684-.684-.378 0-.684.306-.684.684v.603h-.045c-.324 0-.585.261-.585.585 0 .324.261.585.585.585h.045v2.286c0 1.116.567 1.449 1.404 1.449zm2.088-6.039c0 .396.333.648.765.648s.765-.252.765-.648v-.018c0-.396-.333-.639-.765-.639s-.765.243-.765.639v.018zm.081 5.328c0 .378.306.684.684.684.378 0 .684-.306.684-.684v-3.564c0-.378-.306-.684-.684-.684-.378 0-.684.306-.684.684v3.564zm5.022.738c-1.494 0-2.601-1.107-2.601-2.493v-.018c0-1.386 1.116-2.511 2.619-2.511 1.494 0 2.601 1.107 2.601 2.493v.018c0 1.386-1.116 2.511-2.619 2.511zm.018-1.179c.783 0 1.251-.603 1.251-1.314v-.018c0-.711-.513-1.332-1.269-1.332-.783 0-1.251.603-1.251 1.314v.018c0 .711.513 1.332 1.269 1.332zm3.591.441c0 .378.306.684.684.684.378 0 .684-.306.684-.684v-2.061c0-.648.333-.981.855-.981s.828.333.828.981v2.061c0 .378.306.684.684.684.378 0 .684-.306.684-.684v-2.493c0-1.107-.603-1.791-1.638-1.791-.693 0-1.098.369-1.413.774v-.054c0-.378-.306-.684-.684-.684-.378 0-.684.306-.684.684v3.564z" fill="#FFF"/><g stroke-linecap="square" stroke-linejoin="round" transform="translate(8 59)"><use fill="#FFF" xlink:href="#c"/><path stroke="#25B8EB" stroke-width="2" d="M152.716513 36.482216h-43.08l-.000006 16.936884c-.010002 3.11413-2.529603 5.6366-5.64454 5.646623l-99.350644-.000005C1.527833 59.055688-.992495 56.530448-1 53.412133l.000005-43.76551C-.989993 6.532492 1.52961 4.010022 4.644545 4l99.350642.000005c3.111717.010017 5.631318 2.53249 5.641326 5.64983V26.57975h43.08v-4.165986l12.97785 9.11722-12.97785 9.11722v-4.165988z"/></g><path d="M24.4935 82.496v-4.77h-1.53c-.288 0-.513-.234-.513-.513s.225-.513.513-.513h4.185c.279 0 .504.234.504.513s-.225.513-.504.513h-1.539v4.77c0 .306-.252.549-.558.549-.306 0-.558-.243-.558-.549zm4.5.603c-.891 0-1.683-.513-1.683-1.467v-.018c0-1.026.801-1.53 1.962-1.53.531 0 .909.081 1.278.198v-.117c0-.675-.414-1.035-1.179-1.035-.414 0-.756.072-1.053.189-.063.018-.117.027-.171.027-.252 0-.459-.198-.459-.45 0-.198.135-.369.297-.432.45-.171.909-.279 1.53-.279.711 0 1.242.189 1.575.531.351.342.513.846.513 1.467v2.34c0 .297-.234.522-.531.522-.315 0-.531-.216-.531-.459v-.18c-.324.387-.819.693-1.548.693zm.306-.792c.72 0 1.269-.414 1.269-1.017v-.324c-.279-.108-.648-.189-1.08-.189-.702 0-1.116.297-1.116.792v.018c0 .459.405.72.927.72zm3.609.198v-5.58c0-.306.234-.54.54-.54.306 0 .549.234.549.54v2.115c.351-.495.846-.891 1.62-.891 1.116 0 2.205.882 2.205 2.466v.018c0 1.575-1.08 2.466-2.205 2.466-.792 0-1.287-.396-1.62-.837v.243c0 .297-.243.54-.549.54-.297 0-.54-.243-.54-.54zm2.448-.351c.747 0 1.359-.585 1.359-1.521v-.018c0-.918-.621-1.521-1.359-1.521s-1.386.612-1.386 1.521v.018c0 .909.648 1.521 1.386 1.521zm3.654.351c0 .306.243.54.54.54.306 0 .549-.234.549-.54v-5.58c0-.297-.243-.54-.549-.54-.306 0-.54.243-.54.54v5.58zm3.33-2.214h2.439c-.072-.702-.486-1.251-1.206-1.251-.666 0-1.134.513-1.233 1.251zm3.069 2.187c-.432.387-.972.63-1.71.63-1.377 0-2.439-.999-2.439-2.466v-.018c0-1.359.963-2.475 2.322-2.475 1.512 0 2.259 1.242 2.259 2.34 0 .306-.234.522-.513.522h-2.979c.117.774.666 1.206 1.368 1.206.459 0 .819-.162 1.125-.414.081-.063.153-.099.279-.099.243 0 .432.189.432.441 0 .135-.063.252-.144.333zm4.23-5.454c0 .324.27.54.621.54s.621-.216.621-.54v-.054c0-.324-.27-.531-.621-.531s-.621.207-.621.531v.054zm.081 5.481c0 .306.243.54.54.54.306 0 .549-.234.549-.54v-3.762c0-.306-.243-.549-.549-.549-.306 0-.54.243-.54.549v3.762zm2.511 0c0 .306.243.54.54.54.306 0 .549-.234.549-.54v-2.187c0-.738.441-1.179 1.071-1.179.648 0 1.017.423 1.017 1.161v2.205c0 .306.243.54.549.54.306 0 .54-.234.54-.54v-2.538c0-1.098-.621-1.818-1.692-1.818-.738 0-1.179.387-1.485.828v-.234c0-.306-.243-.549-.549-.549-.306 0-.54.243-.54.549v3.762zm12.951-5.58v5.58c0 .306-.243.54-.54.54-.306 0-.549-.234-.549-.54v-.297c-.351.495-.846.891-1.62.891-1.116 0-2.205-.891-2.205-2.466v-.018c0-1.575 1.071-2.466 2.205-2.466.783 0 1.278.387 1.62.837v-2.061c0-.306.243-.54.54-.54.306 0 .549.234.549.54zm-2.448 2.169c-.747 0-1.368.576-1.368 1.521v.018c0 .918.63 1.521 1.368 1.521.729 0 1.377-.612 1.377-1.521v-.018c0-.918-.648-1.521-1.377-1.521zm5.184 4.005c-.891 0-1.683-.513-1.683-1.467v-.018c0-1.026.801-1.53 1.962-1.53.531 0 .909.081 1.278.198v-.117c0-.675-.414-1.035-1.179-1.035-.414 0-.756.072-1.053.189-.063.018-.117.027-.171.027-.252 0-.459-.198-.459-.45 0-.198.135-.369.297-.432.45-.171.909-.279 1.53-.279.711 0 1.242.189 1.575.531.351.342.513.846.513 1.467v2.34c0 .297-.234.522-.531.522-.315 0-.531-.216-.531-.459v-.18c-.324.387-.819.693-1.548.693zm.306-.792c.72 0 1.269-.414 1.269-1.017v-.324c-.279-.108-.648-.189-1.08-.189-.702 0-1.116.297-1.116.792v.018c0 .459.405.72.927.72zm5.157.774c.288 0 .513-.045.747-.126.153-.063.288-.225.288-.423 0-.252-.216-.45-.459-.45-.036 0-.144.027-.27.027-.369 0-.585-.171-.585-.594v-2.331h.855c.261 0 .477-.207.477-.468s-.216-.468-.477-.468h-.855v-.81c0-.297-.243-.54-.54-.54-.306 0-.549.243-.549.54v.81h-.18c-.261 0-.468.207-.468.468s.207.468.468.468h.18v2.502c0 1.044.567 1.395 1.368 1.395zm3.474.018c-.891 0-1.683-.513-1.683-1.467v-.018c0-1.026.801-1.53 1.962-1.53.531 0 .909.081 1.278.198v-.117c0-.675-.414-1.035-1.179-1.035-.414 0-.756.072-1.053.189-.063.018-.117.027-.171.027-.252 0-.459-.198-.459-.45 0-.198.135-.369.297-.432.45-.171.909-.279 1.53-.279.711 0 1.242.189 1.575.531.351.342.513.846.513 1.467v2.34c0 .297-.234.522-.531.522-.315 0-.531-.216-.531-.459v-.18c-.324.387-.819.693-1.548.693zm.306-.792c.72 0 1.269-.414 1.269-1.017v-.324c-.279-.108-.648-.189-1.08-.189-.702 0-1.116.297-1.116.792v.018c0 .459.405.72.927.72zm3.609.198v-5.58c0-.306.234-.54.54-.54.306 0 .549.234.549.54v2.115c.351-.495.846-.891 1.62-.891 1.116 0 2.205.882 2.205 2.466v.018c0 1.575-1.08 2.466-2.205 2.466-.792 0-1.287-.396-1.62-.837v.243c0 .297-.243.54-.549.54-.297 0-.54-.243-.54-.54zm2.448-.351c.747 0 1.359-.585 1.359-1.521v-.018c0-.918-.621-1.521-1.359-1.521s-1.386.612-1.386 1.521v.018c0 .909.648 1.521 1.386 1.521zm4.959.945c-.891 0-1.683-.513-1.683-1.467v-.018c0-1.026.801-1.53 1.962-1.53.531 0 .909.081 1.278.198v-.117c0-.675-.414-1.035-1.179-1.035-.414 0-.756.072-1.053.189-.063.018-.117.027-.171.027-.252 0-.459-.198-.459-.45 0-.198.135-.369.297-.432.45-.171.909-.279 1.53-.279.711 0 1.242.189 1.575.531.351.342.513.846.513 1.467v2.34c0 .297-.234.522-.531.522-.315 0-.531-.216-.531-.459v-.18c-.324.387-.819.693-1.548.693zm.306-.792c.72 0 1.269-.414 1.269-1.017v-.324c-.279-.108-.648-.189-1.08-.189-.702 0-1.116.297-1.116.792v.018c0 .459.405.72.927.72zm5.238.783c.99 0 1.764-.495 1.764-1.494v-.018c0-.855-.783-1.17-1.476-1.386-.558-.18-1.071-.324-1.071-.675v-.018c0-.27.243-.468.666-.468.333 0 .729.126 1.116.324.072.036.126.054.216.054.252 0 .45-.189.45-.441 0-.189-.108-.333-.261-.414-.459-.243-.99-.387-1.494-.387-.945 0-1.692.549-1.692 1.449v.018c0 .909.783 1.197 1.485 1.395.558.171 1.062.297 1.062.666v.018c0 .315-.27.513-.738.513-.432 0-.909-.153-1.368-.459-.063-.036-.144-.063-.234-.063-.252 0-.441.198-.441.441 0 .18.09.315.207.378.549.378 1.206.567 1.809.567zm3.699-2.799h2.439c-.072-.702-.486-1.251-1.206-1.251-.666 0-1.134.513-1.233 1.251zm3.069 2.187c-.432.387-.972.63-1.71.63-1.377 0-2.439-.999-2.439-2.466v-.018c0-1.359.963-2.475 2.322-2.475 1.512 0 2.259 1.242 2.259 2.34 0 .306-.234.522-.513.522h-2.979c.117.774.666 1.206 1.368 1.206.459 0 .819-.162 1.125-.414.081-.063.153-.099.279-.099.243 0 .432.189.432.441 0 .135-.063.252-.144.333zm1.485-3.654v.081c0 .36.27.63.639.63.36 0 .63-.27.63-.63v-.081c0-.36-.27-.63-.63-.63-.369 0-.639.27-.639.63zm0 3.51v.09c0 .351.27.621.639.621.36 0 .63-.27.63-.621v-.09c0-.351-.27-.621-.63-.621-.369 0-.639.27-.639.621zm-69.066 12.351V89.06c0-.198.162-.36.351-.36h2.007c1.422 0 2.358.756 2.358 1.998v.018c0 1.359-1.134 2.061-2.475 2.061h-1.53v1.908c0 .198-.162.36-.36.36-.189 0-.351-.162-.351-.36zm.711-2.556h1.557c1.044 0 1.728-.558 1.728-1.386v-.018c0-.9-.675-1.368-1.692-1.368h-1.593v2.772zm7.263 2.979c-1.395 0-2.412-1.098-2.412-2.412v-.018c0-1.314 1.026-2.43 2.43-2.43 1.395 0 2.421 1.098 2.421 2.412v.018c0 1.314-1.035 2.43-2.439 2.43zm.018-.621c1.008 0 1.71-.81 1.71-1.791v-.018c0-.999-.747-1.818-1.728-1.818-1.008 0-1.701.819-1.701 1.8v.018c0 .999.738 1.809 1.719 1.809zm3.672 1.647v-5.481c0-.198.153-.351.342-.351.198 0 .351.153.351.351v.63c.378-.558.927-1.035 1.782-1.035 1.116 0 2.223.882 2.223 2.412v.018c0 1.521-1.098 2.421-2.223 2.421-.864 0-1.422-.468-1.782-.99v2.025c0 .198-.144.351-.342.351-.198 0-.351-.153-.351-.351zm2.349-1.656c.9 0 1.638-.666 1.638-1.791v-.018c0-1.098-.756-1.8-1.638-1.8-.864 0-1.683.729-1.683 1.791v.018c0 1.08.819 1.8 1.683 1.8zm7.614-3.825c0-.198-.153-.351-.342-.351-.198 0-.342.153-.342.351v2.358c0 .873-.603 1.458-1.395 1.458-.819 0-1.287-.54-1.287-1.404v-2.412c0-.198-.162-.351-.351-.351-.198 0-.342.153-.342.351v2.583c0 1.107.657 1.863 1.782 1.863.801 0 1.278-.405 1.593-.909v.504c0 .198.153.351.342.351.198 0 .342-.162.342-.351v-4.041zm1.62 4.041c0 .198.153.351.351.351.198 0 .342-.153.342-.351v-5.958c0-.189-.153-.351-.351-.351-.189 0-.342.162-.342.351v5.958zm3.69.405c-.864 0-1.737-.495-1.737-1.449v-.018c0-.981.81-1.503 1.989-1.503.594 0 1.017.081 1.431.198v-.162c0-.837-.513-1.269-1.386-1.269-.468 0-.864.108-1.206.261-.045.018-.09.027-.126.027-.162 0-.306-.135-.306-.297 0-.144.099-.252.189-.288.459-.198.927-.315 1.521-.315.657 0 1.161.171 1.503.513.315.315.477.765.477 1.359v2.547c0 .198-.144.342-.333.342-.198 0-.333-.144-.333-.324v-.423c-.324.423-.864.801-1.683.801zm.135-.549c.855 0 1.557-.522 1.557-1.26v-.45c-.342-.099-.801-.198-1.368-.198-.873 0-1.359.378-1.359.963v.018c0 .585.54.927 1.17.927zm5.202.531c.27 0 .486-.045.684-.126.117-.045.198-.144.198-.27 0-.162-.135-.297-.297-.297-.054 0-.18.063-.423.063-.468 0-.783-.207-.783-.774v-2.718h1.206c.171 0 .315-.135.315-.306 0-.162-.144-.306-.315-.306h-1.206v-1.098c0-.189-.162-.351-.351-.351-.198 0-.342.162-.342.351v1.098h-.378c-.162 0-.306.135-.306.306 0 .162.144.306.306.306h.378v2.808c0 .945.567 1.314 1.314 1.314zm2.079-6.075c0 .216.18.369.405.369.234 0 .414-.153.414-.369v-.117c0-.225-.18-.369-.414-.369-.225 0-.405.144-.405.369v.117zm.063 5.688c0 .198.153.351.351.351.198 0 .342-.153.342-.351v-4.041c0-.198-.153-.351-.351-.351-.189 0-.342.162-.342.351v4.041zm4.428.414c-1.395 0-2.412-1.098-2.412-2.412v-.018c0-1.314 1.026-2.43 2.43-2.43 1.395 0 2.421 1.098 2.421 2.412v.018c0 1.314-1.035 2.43-2.439 2.43zm.018-.621c1.008 0 1.71-.81 1.71-1.791v-.018c0-.999-.747-1.818-1.728-1.818-1.008 0-1.701.819-1.701 1.8v.018c0 .999.738 1.809 1.719 1.809zm3.672.207c0 .198.153.351.351.351.198 0 .342-.153.342-.351v-2.358c0-.873.594-1.458 1.395-1.458.819 0 1.287.54 1.287 1.404v2.412c0 .198.153.351.351.351.189 0 .342-.153.342-.351v-2.583c0-1.107-.657-1.863-1.782-1.863-.801 0-1.287.405-1.593.909v-.504c0-.198-.153-.351-.351-.351-.189 0-.342.162-.342.351v4.041zm8.244 0v-5.958c0-.198.153-.351.342-.351.198 0 .351.153.351.351v2.547c.378-.558.927-1.035 1.782-1.035 1.116 0 2.223.882 2.223 2.412v.018c0 1.521-1.098 2.421-2.223 2.421-.864 0-1.422-.468-1.782-.99v.585c0 .189-.144.351-.342.351-.198 0-.351-.162-.351-.351zm2.349-.216c.9 0 1.638-.666 1.638-1.791v-.018c0-1.098-.756-1.8-1.638-1.8-.864 0-1.683.729-1.683 1.791v.018c0 1.08.819 1.8 1.683 1.8zm4.113 1.989c.702 0 1.152-.351 1.557-1.314l1.818-4.338c.018-.054.036-.117.036-.171 0-.189-.153-.342-.342-.342-.18 0-.279.117-.333.261l-1.44 3.663-1.62-3.654c-.063-.153-.162-.27-.351-.27-.198 0-.351.153-.351.342 0 .063.018.126.045.189l1.944 4.122-.036.072c-.252.567-.504.828-.936.828-.234 0-.369-.036-.504-.081-.054-.018-.108-.036-.171-.036-.153 0-.297.126-.297.297 0 .162.108.252.216.297.234.081.459.135.765.135zM48.636 107.108c.783 0 1.314-.306 1.755-.747.054-.054.09-.135.09-.216 0-.162-.144-.315-.315-.315-.09 0-.153.045-.198.09-.342.324-.765.567-1.296.567-.972 0-1.71-.801-1.71-1.809v-.018c0-.999.72-1.8 1.665-1.8.558 0 .936.252 1.269.558.054.045.135.081.225.081.18 0 .333-.144.333-.333 0-.108-.054-.198-.108-.243-.414-.378-.936-.675-1.71-.675-1.359 0-2.385 1.116-2.385 2.43v.018c0 1.305 1.026 2.412 2.385 2.412zm5.031 0c-1.395 0-2.412-1.098-2.412-2.412v-.018c0-1.314 1.026-2.43 2.43-2.43 1.395 0 2.421 1.098 2.421 2.412v.018c0 1.314-1.035 2.43-2.439 2.43zm.018-.621c1.008 0 1.71-.81 1.71-1.791v-.018c0-.999-.747-1.818-1.728-1.818-1.008 0-1.701.819-1.701 1.8v.018c0 .999.738 1.809 1.719 1.809zm7.659-3.834c0-.198-.153-.351-.342-.351-.198 0-.342.153-.342.351v2.358c0 .873-.603 1.458-1.395 1.458-.819 0-1.287-.54-1.287-1.404v-2.412c0-.198-.162-.351-.351-.351-.198 0-.342.153-.342.351v2.583c0 1.107.657 1.863 1.782 1.863.801 0 1.278-.405 1.593-.909v.504c0 .198.153.351.342.351.198 0 .342-.162.342-.351v-4.041zm1.557 4.041c0 .198.153.351.351.351.198 0 .342-.153.342-.351v-2.358c0-.873.594-1.458 1.395-1.458.819 0 1.287.54 1.287 1.404v2.412c0 .198.153.351.351.351.189 0 .342-.153.342-.351v-2.583c0-1.107-.657-1.863-1.782-1.863-.801 0-1.287.405-1.593.909v-.504c0-.198-.153-.351-.351-.351-.189 0-.342.162-.342.351v4.041zm7.101.387c.27 0 .486-.045.684-.126.117-.045.198-.144.198-.27 0-.162-.135-.297-.297-.297-.054 0-.18.063-.423.063-.468 0-.783-.207-.783-.774v-2.718h1.206c.171 0 .315-.135.315-.306 0-.162-.144-.306-.315-.306h-1.206v-1.098c0-.189-.162-.351-.351-.351-.198 0-.342.162-.342.351v1.098h-.378c-.162 0-.306.135-.306.306 0 .162.144.306.306.306h.378v2.808c0 .945.567 1.314 1.314 1.314zm2.079-.387c0 .198.153.351.351.351.198 0 .342-.162.342-.351v-1.584c0-1.341.738-2.016 1.638-2.124.18-.027.306-.162.306-.351 0-.198-.135-.351-.342-.351-.585 0-1.26.468-1.602 1.242v-.873c0-.198-.153-.351-.351-.351-.189 0-.342.162-.342.351v4.041zm4.32 1.773c.702 0 1.152-.351 1.557-1.314l1.818-4.338c.018-.054.036-.117.036-.171 0-.189-.153-.342-.342-.342-.18 0-.279.117-.333.261l-1.44 3.663-1.62-3.654c-.063-.153-.162-.27-.351-.27-.198 0-.351.153-.351.342 0 .063.018.126.045.189l1.944 4.122-.036.072c-.252.567-.504.828-.936.828-.234 0-.369-.036-.504-.081-.054-.018-.108-.036-.171-.036-.153 0-.297.126-.297.297 0 .162.108.252.216.297.234.081.459.135.765.135z" fill="#282D38"/><g stroke-linecap="square" stroke-linejoin="round" transform="translate(8 59)"><use fill="#FFF" xlink:href="#d"/><path stroke="#25B8EB" stroke-width="2" d="M152.716513 116.482216h-43.08l-.000006 16.936884c-.010002 3.11413-2.529603 5.6366-5.64454 5.646623l-99.350644-.000005c-3.11349-.01003-5.633818-2.53527-5.641323-5.653585l.000005-43.76551c.010002-3.11413 2.529604-5.6366 5.64454-5.646623l99.350642.000005c3.111717.010017 5.631318 2.53249 5.641326 5.64983v16.929916h43.08v-4.165986l12.97785 9.11722-12.97785 9.11722v-4.165988z"/></g><path d="M24.4935 166.496v-4.77h-1.53c-.288 0-.513-.234-.513-.513s.225-.513.513-.513h4.185c.279 0 .504.234.504.513s-.225.513-.504.513h-1.539v4.77c0 .306-.252.549-.558.549-.306 0-.558-.243-.558-.549zm4.5.603c-.891 0-1.683-.513-1.683-1.467v-.018c0-1.026.801-1.53 1.962-1.53.531 0 .909.081 1.278.198v-.117c0-.675-.414-1.035-1.179-1.035-.414 0-.756.072-1.053.189-.063.018-.117.027-.171.027-.252 0-.459-.198-.459-.45 0-.198.135-.369.297-.432.45-.171.909-.279 1.53-.279.711 0 1.242.189 1.575.531.351.342.513.846.513 1.467v2.34c0 .297-.234.522-.531.522-.315 0-.531-.216-.531-.459v-.18c-.324.387-.819.693-1.548.693zm.306-.792c.72 0 1.269-.414 1.269-1.017v-.324c-.279-.108-.648-.189-1.08-.189-.702 0-1.116.297-1.116.792v.018c0 .459.405.72.927.72zm3.609.198v-5.58c0-.306.234-.54.54-.54.306 0 .549.234.549.54v2.115c.351-.495.846-.891 1.62-.891 1.116 0 2.205.882 2.205 2.466v.018c0 1.575-1.08 2.466-2.205 2.466-.792 0-1.287-.396-1.62-.837v.243c0 .297-.243.54-.549.54-.297 0-.54-.243-.54-.54zm2.448-.351c.747 0 1.359-.585 1.359-1.521v-.018c0-.918-.621-1.521-1.359-1.521s-1.386.612-1.386 1.521v.018c0 .909.648 1.521 1.386 1.521zm3.654.351c0 .306.243.54.54.54.306 0 .549-.234.549-.54v-5.58c0-.297-.243-.54-.549-.54-.306 0-.54.243-.54.54v5.58zm3.33-2.214h2.439c-.072-.702-.486-1.251-1.206-1.251-.666 0-1.134.513-1.233 1.251zm3.069 2.187c-.432.387-.972.63-1.71.63-1.377 0-2.439-.999-2.439-2.466v-.018c0-1.359.963-2.475 2.322-2.475 1.512 0 2.259 1.242 2.259 2.34 0 .306-.234.522-.513.522h-2.979c.117.774.666 1.206 1.368 1.206.459 0 .819-.162 1.125-.414.081-.063.153-.099.279-.099.243 0 .432.189.432.441 0 .135-.063.252-.144.333zm4.23-5.454c0 .324.27.54.621.54s.621-.216.621-.54v-.054c0-.324-.27-.531-.621-.531s-.621.207-.621.531v.054zm.081 5.481c0 .306.243.54.54.54.306 0 .549-.234.549-.54v-3.762c0-.306-.243-.549-.549-.549-.306 0-.54.243-.54.549v3.762zm2.511 0c0 .306.243.54.54.54.306 0 .549-.234.549-.54v-2.187c0-.738.441-1.179 1.071-1.179.648 0 1.017.423 1.017 1.161v2.205c0 .306.243.54.549.54.306 0 .54-.234.54-.54v-2.538c0-1.098-.621-1.818-1.692-1.818-.738 0-1.179.387-1.485.828v-.234c0-.306-.243-.549-.549-.549-.306 0-.54.243-.54.549v3.762zm12.951-5.58v5.58c0 .306-.243.54-.54.54-.306 0-.549-.234-.549-.54v-.297c-.351.495-.846.891-1.62.891-1.116 0-2.205-.891-2.205-2.466v-.018c0-1.575 1.071-2.466 2.205-2.466.783 0 1.278.387 1.62.837v-2.061c0-.306.243-.54.54-.54.306 0 .549.234.549.54zm-2.448 2.169c-.747 0-1.368.576-1.368 1.521v.018c0 .918.63 1.521 1.368 1.521.729 0 1.377-.612 1.377-1.521v-.018c0-.918-.648-1.521-1.377-1.521zm5.184 4.005c-.891 0-1.683-.513-1.683-1.467v-.018c0-1.026.801-1.53 1.962-1.53.531 0 .909.081 1.278.198v-.117c0-.675-.414-1.035-1.179-1.035-.414 0-.756.072-1.053.189-.063.018-.117.027-.171.027-.252 0-.459-.198-.459-.45 0-.198.135-.369.297-.432.45-.171.909-.279 1.53-.279.711 0 1.242.189 1.575.531.351.342.513.846.513 1.467v2.34c0 .297-.234.522-.531.522-.315 0-.531-.216-.531-.459v-.18c-.324.387-.819.693-1.548.693zm.306-.792c.72 0 1.269-.414 1.269-1.017v-.324c-.279-.108-.648-.189-1.08-.189-.702 0-1.116.297-1.116.792v.018c0 .459.405.72.927.72zm5.157.774c.288 0 .513-.045.747-.126.153-.063.288-.225.288-.423 0-.252-.216-.45-.459-.45-.036 0-.144.027-.27.027-.369 0-.585-.171-.585-.594v-2.331h.855c.261 0 .477-.207.477-.468s-.216-.468-.477-.468h-.855v-.81c0-.297-.243-.54-.54-.54-.306 0-.549.243-.549.54v.81h-.18c-.261 0-.468.207-.468.468s.207.468.468.468h.18v2.502c0 1.044.567 1.395 1.368 1.395zm3.474.018c-.891 0-1.683-.513-1.683-1.467v-.018c0-1.026.801-1.53 1.962-1.53.531 0 .909.081 1.278.198v-.117c0-.675-.414-1.035-1.179-1.035-.414 0-.756.072-1.053.189-.063.018-.117.027-.171.027-.252 0-.459-.198-.459-.45 0-.198.135-.369.297-.432.45-.171.909-.279 1.53-.279.711 0 1.242.189 1.575.531.351.342.513.846.513 1.467v2.34c0 .297-.234.522-.531.522-.315 0-.531-.216-.531-.459v-.18c-.324.387-.819.693-1.548.693zm.306-.792c.72 0 1.269-.414 1.269-1.017v-.324c-.279-.108-.648-.189-1.08-.189-.702 0-1.116.297-1.116.792v.018c0 .459.405.72.927.72zm3.609.198v-5.58c0-.306.234-.54.54-.54.306 0 .549.234.549.54v2.115c.351-.495.846-.891 1.62-.891 1.116 0 2.205.882 2.205 2.466v.018c0 1.575-1.08 2.466-2.205 2.466-.792 0-1.287-.396-1.62-.837v.243c0 .297-.243.54-.549.54-.297 0-.54-.243-.54-.54zm2.448-.351c.747 0 1.359-.585 1.359-1.521v-.018c0-.918-.621-1.521-1.359-1.521s-1.386.612-1.386 1.521v.018c0 .909.648 1.521 1.386 1.521zm4.959.945c-.891 0-1.683-.513-1.683-1.467v-.018c0-1.026.801-1.53 1.962-1.53.531 0 .909.081 1.278.198v-.117c0-.675-.414-1.035-1.179-1.035-.414 0-.756.072-1.053.189-.063.018-.117.027-.171.027-.252 0-.459-.198-.459-.45 0-.198.135-.369.297-.432.45-.171.909-.279 1.53-.279.711 0 1.242.189 1.575.531.351.342.513.846.513 1.467v2.34c0 .297-.234.522-.531.522-.315 0-.531-.216-.531-.459v-.18c-.324.387-.819.693-1.548.693zm.306-.792c.72 0 1.269-.414 1.269-1.017v-.324c-.279-.108-.648-.189-1.08-.189-.702 0-1.116.297-1.116.792v.018c0 .459.405.72.927.72zm5.238.783c.99 0 1.764-.495 1.764-1.494v-.018c0-.855-.783-1.17-1.476-1.386-.558-.18-1.071-.324-1.071-.675v-.018c0-.27.243-.468.666-.468.333 0 .729.126 1.116.324.072.036.126.054.216.054.252 0 .45-.189.45-.441 0-.189-.108-.333-.261-.414-.459-.243-.99-.387-1.494-.387-.945 0-1.692.549-1.692 1.449v.018c0 .909.783 1.197 1.485 1.395.558.171 1.062.297 1.062.666v.018c0 .315-.27.513-.738.513-.432 0-.909-.153-1.368-.459-.063-.036-.144-.063-.234-.063-.252 0-.441.198-.441.441 0 .18.09.315.207.378.549.378 1.206.567 1.809.567zm3.699-2.799h2.439c-.072-.702-.486-1.251-1.206-1.251-.666 0-1.134.513-1.233 1.251zm3.069 2.187c-.432.387-.972.63-1.71.63-1.377 0-2.439-.999-2.439-2.466v-.018c0-1.359.963-2.475 2.322-2.475 1.512 0 2.259 1.242 2.259 2.34 0 .306-.234.522-.513.522h-2.979c.117.774.666 1.206 1.368 1.206.459 0 .819-.162 1.125-.414.081-.063.153-.099.279-.099.243 0 .432.189.432.441 0 .135-.063.252-.144.333zm1.485-3.654v.081c0 .36.27.63.639.63.36 0 .63-.27.63-.63v-.081c0-.36-.27-.63-.63-.63-.369 0-.639.27-.639.63zm0 3.51v.09c0 .351.27.621.639.621.36 0 .63-.27.63-.621v-.09c0-.351-.27-.621-.63-.621-.369 0-.639.27-.639.621zM31.311 179.108c1.035 0 1.719-.36 2.34-.927.063-.054.117-.144.117-.252 0-.18-.162-.342-.342-.342-.09 0-.171.045-.225.099-.54.495-1.089.765-1.872.765-1.386 0-2.439-1.143-2.439-2.601v-.018c0-1.449 1.044-2.583 2.439-2.583.774 0 1.323.288 1.809.72.054.036.135.081.234.081.189 0 .36-.162.36-.351 0-.126-.072-.225-.144-.288-.585-.486-1.233-.819-2.25-.819-1.854 0-3.186 1.476-3.186 3.258v.018c0 1.809 1.341 3.24 3.159 3.24zm5.031-.009c-.864 0-1.737-.495-1.737-1.449v-.018c0-.981.81-1.503 1.989-1.503.594 0 1.017.081 1.431.198v-.162c0-.837-.513-1.269-1.386-1.269-.468 0-.864.108-1.206.261-.045.018-.09.027-.126.027-.162 0-.306-.135-.306-.297 0-.144.099-.252.189-.288.459-.198.927-.315 1.521-.315.657 0 1.161.171 1.503.513.315.315.477.765.477 1.359v2.547c0 .198-.144.342-.333.342-.198 0-.333-.144-.333-.324v-.423c-.324.423-.864.801-1.683.801zm.135-.549c.855 0 1.557-.522 1.557-1.26v-.45c-.342-.099-.801-.198-1.368-.198-.873 0-1.359.378-1.359.963v.018c0 .585.54.927 1.17.927zm3.69.144c0 .198.153.351.351.351.198 0 .342-.162.342-.351v-1.584c0-1.341.738-2.016 1.638-2.124.18-.027.306-.162.306-.351 0-.198-.135-.351-.342-.351-.585 0-1.26.468-1.602 1.242v-.873c0-.198-.153-.351-.351-.351-.189 0-.342.162-.342.351v4.041zm5.184.396c.927 0 1.656-.513 1.656-1.395v-.018c0-.837-.774-1.116-1.494-1.332-.621-.189-1.197-.36-1.197-.801v-.018c0-.387.351-.675.9-.675.396 0 .819.135 1.215.36.036.018.09.036.153.036.171 0 .306-.135.306-.297 0-.135-.081-.234-.171-.288-.45-.243-.99-.396-1.485-.396-.918 0-1.584.531-1.584 1.332v.018c0 .855.81 1.107 1.539 1.314.612.171 1.161.351 1.161.819v.018c0 .45-.405.738-.963.738-.504 0-.999-.171-1.476-.495-.045-.036-.108-.054-.171-.054-.171 0-.306.135-.306.297 0 .117.063.207.126.252.504.36 1.179.585 1.791.585zm5.643-.396v-5.958c0-.198.153-.351.342-.351.198 0 .351.153.351.351v2.547c.378-.558.927-1.035 1.782-1.035 1.116 0 2.223.882 2.223 2.412v.018c0 1.521-1.098 2.421-2.223 2.421-.864 0-1.422-.468-1.782-.99v.585c0 .189-.144.351-.342.351-.198 0-.351-.162-.351-.351zm2.349-.216c.9 0 1.638-.666 1.638-1.791v-.018c0-1.098-.756-1.8-1.638-1.8-.864 0-1.683.729-1.683 1.791v.018c0 1.08.819 1.8 1.683 1.8zm4.113 1.989c.702 0 1.152-.351 1.557-1.314l1.818-4.338c.018-.054.036-.117.036-.171 0-.189-.153-.342-.342-.342-.18 0-.279.117-.333.261l-1.44 3.663-1.62-3.654c-.063-.153-.162-.27-.351-.27-.198 0-.351.153-.351.342 0 .063.018.126.045.189l1.944 4.122-.036.072c-.252.567-.504.828-.936.828-.234 0-.369-.036-.504-.081-.054-.018-.108-.036-.171-.036-.153 0-.297.126-.297.297 0 .162.108.252.216.297.234.081.459.135.765.135zm9.405-1.359c.783 0 1.314-.306 1.755-.747.054-.054.09-.135.09-.216 0-.162-.144-.315-.315-.315-.09 0-.153.045-.198.09-.342.324-.765.567-1.296.567-.972 0-1.71-.801-1.71-1.809v-.018c0-.999.72-1.8 1.665-1.8.558 0 .936.252 1.269.558.054.045.135.081.225.081.18 0 .333-.144.333-.333 0-.108-.054-.198-.108-.243-.414-.378-.936-.675-1.71-.675-1.359 0-2.385 1.116-2.385 2.43v.018c0 1.305 1.026 2.412 2.385 2.412zm5.031 0c-1.395 0-2.412-1.098-2.412-2.412v-.018c0-1.314 1.026-2.43 2.43-2.43 1.395 0 2.421 1.098 2.421 2.412v.018c0 1.314-1.035 2.43-2.439 2.43zm.018-.621c1.008 0 1.71-.81 1.71-1.791v-.018c0-.999-.747-1.818-1.728-1.818-1.008 0-1.701.819-1.701 1.8v.018c0 .999.738 1.809 1.719 1.809zm7.659-3.834c0-.198-.153-.351-.342-.351-.198 0-.342.153-.342.351v2.358c0 .873-.603 1.458-1.395 1.458-.819 0-1.287-.54-1.287-1.404v-2.412c0-.198-.162-.351-.351-.351-.198 0-.342.153-.342.351v2.583c0 1.107.657 1.863 1.782 1.863.801 0 1.278-.405 1.593-.909v.504c0 .198.153.351.342.351.198 0 .342-.162.342-.351v-4.041zm1.557 4.041c0 .198.153.351.351.351.198 0 .342-.153.342-.351v-2.358c0-.873.594-1.458 1.395-1.458.819 0 1.287.54 1.287 1.404v2.412c0 .198.153.351.351.351.189 0 .342-.153.342-.351v-2.583c0-1.107-.657-1.863-1.782-1.863-.801 0-1.287.405-1.593.909v-.504c0-.198-.153-.351-.351-.351-.189 0-.342.162-.342.351v4.041zm7.101.387c.27 0 .486-.045.684-.126.117-.045.198-.144.198-.27 0-.162-.135-.297-.297-.297-.054 0-.18.063-.423.063-.468 0-.783-.207-.783-.774v-2.718h1.206c.171 0 .315-.135.315-.306 0-.162-.144-.306-.315-.306h-1.206v-1.098c0-.189-.162-.351-.351-.351-.198 0-.342.162-.342.351v1.098h-.378c-.162 0-.306.135-.306.306 0 .162.144.306.306.306h.378v2.808c0 .945.567 1.314 1.314 1.314zm2.079-.387c0 .198.153.351.351.351.198 0 .342-.162.342-.351v-1.584c0-1.341.738-2.016 1.638-2.124.18-.027.306-.162.306-.351 0-.198-.135-.351-.342-.351-.585 0-1.26.468-1.602 1.242v-.873c0-.198-.153-.351-.351-.351-.189 0-.342.162-.342.351v4.041zm4.32 1.773c.702 0 1.152-.351 1.557-1.314l1.818-4.338c.018-.054.036-.117.036-.171 0-.189-.153-.342-.342-.342-.18 0-.279.117-.333.261l-1.44 3.663-1.62-3.654c-.063-.153-.162-.27-.351-.27-.198 0-.351.153-.351.342 0 .063.018.126.045.189l1.944 4.122-.036.072c-.252.567-.504.828-.936.828-.234 0-.369-.036-.504-.081-.054-.018-.108-.036-.171-.036-.153 0-.297.126-.297.297 0 .162.108.252.216.297.234.081.459.135.765.135z" fill="#282D38"/><path fill="#FFF" opacity=".5" d="M0 52h471v157H0z"/><g opacity=".5" transform="translate(141)"><path d="M162 0h200c5.522847 0 10 4.477152 10 10v40H152V10c0-5.522848 4.477153-10 10-10z" fill="#C8EDFA"/><rect fill="#C8EDFA" y="35" width="524" height="193" rx="10"/><path d="M175.654 25.216c0 .476.378.854.868.854.476 0 .854-.378.854-.854v-2.03l1.596-1.54 3.15 4.018c.182.238.392.406.728.406.49 0 .868-.364.868-.84 0-.266-.098-.434-.238-.616l-3.304-4.102 3.052-2.94c.196-.182.308-.378.308-.644 0-.42-.322-.798-.798-.798-.308 0-.518.112-.714.322l-4.648 4.676v-4.144c0-.476-.378-.854-.854-.854-.49 0-.868.378-.868.854v8.232zm10.85.784h5.768c.42 0 .77-.336.77-.77 0-.42-.35-.77-.77-.77h-4.914v-2.632h4.214c.42 0 .77-.336.77-.756 0-.434-.35-.784-.77-.784h-4.214V17.74h4.844c.42 0 .77-.336.77-.77 0-.42-.35-.77-.77-.77h-5.698c-.49 0-.868.378-.868.868v8.064c0 .49.378.868.868.868zm8.512-.868v-8.064c0-.49.378-.868.868-.868h3.528c1.12 0 2.002.308 2.562.868.434.434.658.966.658 1.624v.028c0 1.176-.672 1.806-1.4 2.184 1.148.392 1.946 1.05 1.946 2.38v.028c0 1.75-1.442 2.688-3.626 2.688h-3.668c-.49 0-.868-.378-.868-.868zm1.694-4.802h2.352c1.106 0 1.848-.434 1.848-1.33v-.028c0-.77-.616-1.246-1.722-1.246h-2.478v2.604zm0 4.144h2.856c1.176 0 1.89-.462 1.89-1.344v-.028c0-.826-.658-1.316-2.016-1.316h-2.73v2.688zm13.09 1.694c-3.01 0-5.11-2.282-5.11-5.04V21.1c0-2.758 2.128-5.068 5.138-5.068s5.11 2.282 5.11 5.04v.028c0 2.758-2.128 5.068-5.138 5.068zm.028-1.596c1.946 0 3.304-1.54 3.304-3.444V21.1c0-1.904-1.386-3.486-3.332-3.486s-3.304 1.554-3.304 3.458v.028c0 1.904 1.386 3.472 3.332 3.472zm11.872 1.596c-3.01 0-5.11-2.282-5.11-5.04V21.1c0-2.758 2.128-5.068 5.138-5.068s5.11 2.282 5.11 5.04v.028c0 2.758-2.128 5.068-5.138 5.068zm.028-1.596c1.946 0 3.304-1.54 3.304-3.444V21.1c0-1.904-1.386-3.486-3.332-3.486s-3.304 1.554-3.304 3.458v.028c0 1.904 1.386 3.472 3.332 3.472zm7.196.56c0 .49.378.868.868.868h5.292c.434 0 .784-.35.784-.784 0-.434-.35-.784-.784-.784h-4.438v-7.448c0-.476-.378-.854-.854-.854-.49 0-.868.378-.868.854v8.148zm7.994.14c0-.126.042-.252.112-.392l3.64-8.12c.196-.434.546-.7 1.036-.7h.084c.49 0 .826.266 1.022.7l3.64 8.12c.07.126.098.252.098.364 0 .462-.35.826-.812.826-.406 0-.686-.238-.84-.602l-.798-1.834h-4.76l-.826 1.89c-.14.35-.434.546-.798.546-.448 0-.798-.35-.798-.798zm3.08-3.164h3.444l-1.722-3.962-1.722 3.962zm17.164 4.06c1.582 0 2.632-.504 3.556-1.316.154-.14.28-.35.28-.616 0-.434-.378-.798-.812-.798-.21 0-.392.084-.518.196-.714.602-1.414.938-2.45.938-1.876 0-3.234-1.554-3.234-3.472v-.028c0-1.918 1.372-3.458 3.234-3.458.938 0 1.666.336 2.338.882.112.084.28.168.518.168.476 0 .854-.364.854-.84 0-.308-.154-.546-.336-.686-.854-.658-1.848-1.106-3.36-1.106-2.968 0-5.054 2.282-5.054 5.068v.028c0 2.814 2.128 5.04 4.984 5.04zm10.178 0c-3.01 0-5.11-2.282-5.11-5.04V21.1c0-2.758 2.128-5.068 5.138-5.068s5.11 2.282 5.11 5.04v.028c0 2.758-2.128 5.068-5.138 5.068zm.028-1.596c1.946 0 3.304-1.54 3.304-3.444V21.1c0-1.904-1.386-3.486-3.332-3.486s-3.304 1.554-3.304 3.458v.028c0 1.904 1.386 3.472 3.332 3.472zm7.196.658c0 .462.378.84.854.84.462 0 .84-.378.84-.84v-6.216l5.04 6.524c.238.308.49.518.896.518h.07c.476 0 .84-.378.84-.854V16.97c0-.462-.378-.84-.854-.84-.462 0-.84.378-.84.84v6.02l-4.9-6.342c-.238-.294-.476-.504-.896-.504h-.182c-.49 0-.868.392-.868.868v8.218zm11.06 0c0 .462.378.84.854.84.462 0 .84-.378.84-.84v-6.216l5.04 6.524c.238.308.49.518.896.518h.07c.476 0 .84-.378.84-.854V16.97c0-.462-.378-.84-.854-.84-.462 0-.84.378-.84.84v6.02l-4.9-6.342c-.238-.294-.476-.504-.896-.504h-.182c-.49 0-.868.392-.868.868v8.218zm11.928.77h5.768c.42 0 .77-.336.77-.77 0-.42-.35-.77-.77-.77h-4.914v-2.632h4.214c.42 0 .77-.336.77-.756 0-.434-.35-.784-.77-.784h-4.214V17.74h4.844c.42 0 .77-.336.77-.77 0-.42-.35-.77-.77-.77h-5.698c-.49 0-.868.378-.868.868v8.064c0 .49.378.868.868.868zm13.062.168c1.582 0 2.632-.504 3.556-1.316.154-.14.28-.35.28-.616 0-.434-.378-.798-.812-.798-.21 0-.392.084-.518.196-.714.602-1.414.938-2.45.938-1.876 0-3.234-1.554-3.234-3.472v-.028c0-1.918 1.372-3.458 3.234-3.458.938 0 1.666.336 2.338.882.112.084.28.168.518.168.476 0 .854-.364.854-.84 0-.308-.154-.546-.336-.686-.854-.658-1.848-1.106-3.36-1.106-2.968 0-5.054 2.282-5.054 5.068v.028c0 2.814 2.128 5.04 4.984 5.04zm8.19-.952c0 .476.392.854.868.854s.868-.378.868-.854v-7.42h2.394c.434 0 .784-.364.784-.798 0-.434-.35-.798-.784-.798h-6.51c-.448 0-.798.364-.798.798 0 .434.35.798.798.798h2.38v7.42zm6.762 0c0 .476.378.854.868.854.476 0 .854-.378.854-.854v-8.232c0-.476-.378-.854-.854-.854-.49 0-.868.378-.868.854v8.232zm9.016.952c-3.01 0-5.11-2.282-5.11-5.04V21.1c0-2.758 2.128-5.068 5.138-5.068s5.11 2.282 5.11 5.04v.028c0 2.758-2.128 5.068-5.138 5.068zm.028-1.596c1.946 0 3.304-1.54 3.304-3.444V21.1c0-1.904-1.386-3.486-3.332-3.486s-3.304 1.554-3.304 3.458v.028c0 1.904 1.386 3.472 3.332 3.472zm7.196.658c0 .462.378.84.854.84.462 0 .84-.378.84-.84v-6.216l5.04 6.524c.238.308.49.518.896.518h.07c.476 0 .84-.378.84-.854V16.97c0-.462-.378-.84-.854-.84-.462 0-.84.378-.84.84v6.02l-4.9-6.342c-.238-.294-.476-.504-.896-.504h-.182c-.49 0-.868.392-.868.868v8.218z" fill="#282D38"/></g><g filter="url(#e)" transform="translate(451 89)"><g stroke-linecap="square" stroke-linejoin="round"><use fill="#FFF" xlink:href="#f"/><path stroke="#25B8EB" stroke-width="2" d="M325.636507 25.646622l.000006.003212-.000006 33.769266c-.010002 3.11413-2.529603 5.6366-5.64454 5.646623l-79.350644-.000005c-3.11349-.01003-5.633818-2.53527-5.641323-5.653585l.000005-33.76551c.010002-3.11413 2.529604-5.6366 5.64454-5.646623l79.350642.000005c3.111717.010017 5.631318 2.53249 5.64132 5.646617z"/></g><path d="M266.8575 39.496v-4.77h-1.53c-.288 0-.513-.234-.513-.513s.225-.513.513-.513h4.185c.279 0 .504.234.504.513s-.225.513-.504.513h-1.539v4.77c0 .306-.252.549-.558.549-.306 0-.558-.243-.558-.549zm4.5.603c-.891 0-1.683-.513-1.683-1.467v-.018c0-1.026.801-1.53 1.962-1.53.531 0 .909.081 1.278.198v-.117c0-.675-.414-1.035-1.179-1.035-.414 0-.756.072-1.053.189-.063.018-.117.027-.171.027-.252 0-.459-.198-.459-.45 0-.198.135-.369.297-.432.45-.171.909-.279 1.53-.279.711 0 1.242.189 1.575.531.351.342.513.846.513 1.467v2.34c0 .297-.234.522-.531.522-.315 0-.531-.216-.531-.459v-.18c-.324.387-.819.693-1.548.693zm.306-.792c.72 0 1.269-.414 1.269-1.017v-.324c-.279-.108-.648-.189-1.08-.189-.702 0-1.116.297-1.116.792v.018c0 .459.405.72.927.72zm3.609.198v-5.58c0-.306.234-.54.54-.54.306 0 .549.234.549.54v2.115c.351-.495.846-.891 1.62-.891 1.116 0 2.205.882 2.205 2.466v.018c0 1.575-1.08 2.466-2.205 2.466-.792 0-1.287-.396-1.62-.837v.243c0 .297-.243.54-.549.54-.297 0-.54-.243-.54-.54zm2.448-.351c.747 0 1.359-.585 1.359-1.521v-.018c0-.918-.621-1.521-1.359-1.521s-1.386.612-1.386 1.521v.018c0 .909.648 1.521 1.386 1.521zm3.654.351c0 .306.243.54.54.54.306 0 .549-.234.549-.54v-5.58c0-.297-.243-.54-.549-.54-.306 0-.54.243-.54.54v5.58zm3.33-2.214h2.439c-.072-.702-.486-1.251-1.206-1.251-.666 0-1.134.513-1.233 1.251zm3.069 2.187c-.432.387-.972.63-1.71.63-1.377 0-2.439-.999-2.439-2.466v-.018c0-1.359.963-2.475 2.322-2.475 1.512 0 2.259 1.242 2.259 2.34 0 .306-.234.522-.513.522h-2.979c.117.774.666 1.206 1.368 1.206.459 0 .819-.162 1.125-.414.081-.063.153-.099.279-.099.243 0 .432.189.432.441 0 .135-.063.252-.144.333zm2.916.621c-.891 0-1.683-.513-1.683-1.467v-.018c0-1.026.801-1.53 1.962-1.53.531 0 .909.081 1.278.198v-.117c0-.675-.414-1.035-1.179-1.035-.414 0-.756.072-1.053.189-.063.018-.117.027-.171.027-.252 0-.459-.198-.459-.45 0-.198.135-.369.297-.432.45-.171.909-.279 1.53-.279.711 0 1.242.189 1.575.531.351.342.513.846.513 1.467v2.34c0 .297-.234.522-.531.522-.315 0-.531-.216-.531-.459v-.18c-.324.387-.819.693-1.548.693zm.306-.792c.72 0 1.269-.414 1.269-1.017v-.324c-.279-.108-.648-.189-1.08-.189-.702 0-1.116.297-1.116.792v.018c0 .459.405.72.927.72zm7.83-3.564c0-.306-.252-.549-.549-.549-.306 0-.549.243-.549.549v2.187c0 .738-.441 1.17-1.071 1.17-.648 0-1.017-.414-1.017-1.152v-2.205c0-.306-.243-.549-.549-.549-.297 0-.54.243-.54.549v2.529c0 1.107.621 1.827 1.692 1.827.738 0 1.179-.387 1.485-.837v.243c0 .306.252.54.549.54.306 0 .549-.243.549-.54v-3.762zm-42.336 16.347h.063c.315 0 .522-.171.639-.45l2.214-5.22c.027-.063.054-.153.054-.234 0-.297-.243-.531-.549-.531-.261 0-.459.171-.531.36l-1.845 4.581-1.818-4.545c-.09-.234-.279-.396-.567-.396-.315 0-.558.243-.558.54 0 .099.027.18.063.261l2.205 5.184c.117.279.324.45.63.45zm3.816-6.066c0 .324.27.54.621.54s.621-.216.621-.54v-.054c0-.324-.27-.531-.621-.531s-.621.207-.621.531v.054zm.081 5.481c0 .306.243.54.54.54.306 0 .549-.234.549-.54v-3.762c0-.306-.243-.549-.549-.549-.306 0-.54.243-.54.549v3.762zm4.14.585c.99 0 1.764-.495 1.764-1.494v-.018c0-.855-.783-1.17-1.476-1.386-.558-.18-1.071-.324-1.071-.675v-.018c0-.27.243-.468.666-.468.333 0 .729.126 1.116.324.072.036.126.054.216.054.252 0 .45-.189.45-.441 0-.189-.108-.333-.261-.414-.459-.243-.99-.387-1.494-.387-.945 0-1.692.549-1.692 1.449v.018c0 .909.783 1.197 1.485 1.395.558.171 1.062.297 1.062.666v.018c0 .315-.27.513-.738.513-.432 0-.909-.153-1.368-.459-.063-.036-.144-.063-.234-.063-.252 0-.441.198-.441.441 0 .18.09.315.207.378.549.378 1.206.567 1.809.567zm7.101-4.347c0-.306-.252-.549-.549-.549-.306 0-.549.243-.549.549v2.187c0 .738-.441 1.17-1.071 1.17-.648 0-1.017-.414-1.017-1.152v-2.205c0-.306-.243-.549-.549-.549-.297 0-.54.243-.54.549v2.529c0 1.107.621 1.827 1.692 1.827.738 0 1.179-.387 1.485-.837v.243c0 .306.252.54.549.54.306 0 .549-.243.549-.54v-3.762zm2.727 4.356c-.891 0-1.683-.513-1.683-1.467v-.018c0-1.026.801-1.53 1.962-1.53.531 0 .909.081 1.278.198v-.117c0-.675-.414-1.035-1.179-1.035-.414 0-.756.072-1.053.189-.063.018-.117.027-.171.027-.252 0-.459-.198-.459-.45 0-.198.135-.369.297-.432.45-.171.909-.279 1.53-.279.711 0 1.242.189 1.575.531.351.342.513.846.513 1.467v2.34c0 .297-.234.522-.531.522-.315 0-.531-.216-.531-.459v-.18c-.324.387-.819.693-1.548.693zm.306-.792c.72 0 1.269-.414 1.269-1.017v-.324c-.279-.108-.648-.189-1.08-.189-.702 0-1.116.297-1.116.792v.018c0 .459.405.72.927.72zm3.672.198c0 .306.243.54.54.54.306 0 .549-.234.549-.54v-5.58c0-.297-.243-.54-.549-.54-.306 0-.54.243-.54.54v5.58zm2.493-5.481c0 .324.27.54.621.54s.621-.216.621-.54v-.054c0-.324-.27-.531-.621-.531s-.621.207-.621.531v.054zm.081 5.481c0 .306.243.54.54.54.306 0 .549-.234.549-.54v-3.762c0-.306-.243-.549-.549-.549-.306 0-.54.243-.54.549v3.762zm2.799.495h3.222c.252 0 .45-.198.45-.441 0-.252-.198-.45-.45-.45h-2.34l2.538-2.88c.162-.18.234-.315.234-.522v-.027c0-.252-.225-.432-.522-.432h-3.132c-.252 0-.45.198-.45.45 0 .243.198.441.45.441h2.241l-2.529 2.88c-.171.18-.243.315-.243.522v.018c0 .252.225.441.531.441zm6.12.099c-.891 0-1.683-.513-1.683-1.467v-.018c0-1.026.801-1.53 1.962-1.53.531 0 .909.081 1.278.198v-.117c0-.675-.414-1.035-1.179-1.035-.414 0-.756.072-1.053.189-.063.018-.117.027-.171.027-.252 0-.459-.198-.459-.45 0-.198.135-.369.297-.432.45-.171.909-.279 1.53-.279.711 0 1.242.189 1.575.531.351.342.513.846.513 1.467v2.34c0 .297-.234.522-.531.522-.315 0-.531-.216-.531-.459v-.18c-.324.387-.819.693-1.548.693zm.306-.792c.72 0 1.269-.414 1.269-1.017v-.324c-.279-.108-.648-.189-1.08-.189-.702 0-1.116.297-1.116.792v.018c0 .459.405.72.927.72zm5.157.774c.288 0 .513-.045.747-.126.153-.063.288-.225.288-.423 0-.252-.216-.45-.459-.45-.036 0-.144.027-.27.027-.369 0-.585-.171-.585-.594v-2.331h.855c.261 0 .477-.207.477-.468s-.216-.468-.477-.468h-.855v-.81c0-.297-.243-.54-.54-.54-.306 0-.549.243-.549.54v.81h-.18c-.261 0-.468.207-.468.468s.207.468.468.468h.18v2.502c0 1.044.567 1.395 1.368 1.395zm2.088-6.057c0 .324.27.54.621.54s.621-.216.621-.54v-.054c0-.324-.27-.531-.621-.531s-.621.207-.621.531v.054zm.081 5.481c0 .306.243.54.54.54.306 0 .549-.234.549-.54v-3.762c0-.306-.243-.549-.549-.549-.306 0-.54.243-.54.549v3.762zm4.77.603c-1.449 0-2.52-1.107-2.52-2.457v-.018c0-1.359 1.08-2.484 2.538-2.484 1.458 0 2.529 1.107 2.529 2.466v.018c0 1.35-1.08 2.475-2.547 2.475zm.018-.954c.882 0 1.44-.684 1.44-1.503v-.018c0-.837-.603-1.53-1.458-1.53-.873 0-1.431.684-1.431 1.512v.018c0 .828.603 1.521 1.449 1.521zm3.636.351c0 .306.243.54.54.54.306 0 .549-.234.549-.54v-2.187c0-.738.441-1.179 1.071-1.179.648 0 1.017.423 1.017 1.161v2.205c0 .306.243.54.549.54.306 0 .54-.234.54-.54v-2.538c0-1.098-.621-1.818-1.692-1.818-.738 0-1.179.387-1.485.828v-.234c0-.306-.243-.549-.549-.549-.306 0-.54.243-.54.549v3.762z" fill="#282D38"/><path d="M245.95477 41.530983l-10.238257-7.192594v3.24136h-44.08V14.649835c-.008237-2.56461-2.082853-4.641588-4.644545-4.649834h-79.347424c-2.56169.008246-4.636307 2.085225-4.644544 4.649834v53.7623c.006178 2.566074 2.081394 4.645332 4.644544 4.65359h79.347424c2.561692-.008248 4.636308-2.085226 4.644545-4.649835V45.482215h44.08v3.241362l10.238256-7.192595z" fill="#25B8EB"/><path d="M135.116 45.532c.126.351.387.567.72.567h.144c.333 0 .585-.207.711-.567l1.242-3.609 1.242 3.609c.126.36.378.567.711.567h.144c.333 0 .594-.216.72-.567l1.764-4.95c.027-.081.054-.189.054-.27 0-.378-.306-.666-.684-.666-.342 0-.576.225-.666.495l-1.251 3.861-1.26-3.825c-.108-.333-.351-.549-.702-.549h-.108c-.351 0-.594.225-.702.549l-1.26 3.825-1.251-3.861c-.09-.288-.351-.495-.675-.495-.387 0-.711.288-.711.675 0 .081.027.18.054.261l1.764 4.95zm8.145-.162c0 .378.306.684.684.684.378 0 .684-.306.684-.684v-1.278c0-.972.387-1.503 1.08-1.665.279-.063.513-.279.513-.639 0-.387-.243-.666-.666-.666-.405 0-.729.432-.927.9v-.216c0-.378-.306-.684-.684-.684-.378 0-.684.306-.684.684v3.564zm3.744-5.328c0 .396.333.648.765.648s.765-.252.765-.648v-.018c0-.396-.333-.639-.765-.639s-.765.243-.765.639v.018zm.081 5.328c0 .378.306.684.684.684.378 0 .684-.306.684-.684v-3.564c0-.378-.306-.684-.684-.684-.378 0-.684.306-.684.684v3.564zm4.284.711c.297 0 .531-.036.783-.135.189-.072.351-.27.351-.513 0-.315-.261-.567-.567-.567-.027 0-.117.009-.162.009-.306 0-.441-.153-.441-.468v-2.061h.603c.324 0 .585-.261.585-.585 0-.324-.261-.585-.585-.585h-.603v-.603c0-.378-.306-.684-.684-.684-.378 0-.684.306-.684.684v.603h-.045c-.324 0-.585.261-.585.585 0 .324.261.585.585.585h.045v2.286c0 1.116.567 1.449 1.404 1.449zm3.078-2.871h2.061c-.081-.612-.441-1.026-1.017-1.026-.567 0-.936.405-1.044 1.026zm2.853 2.313c-.423.36-.972.585-1.674.585-1.449 0-2.52-1.017-2.52-2.493v-.018c0-1.377.981-2.511 2.385-2.511 1.611 0 2.322 1.323 2.322 2.322 0 .396-.279.657-.639.657h-2.709c.135.621.567.945 1.179.945.378 0 .693-.117.972-.324.099-.072.189-.108.333-.108.306 0 .531.234.531.54 0 .18-.081.315-.18.405zm1.557-.153c0 .378.306.684.684.684.378 0 .684-.306.684-.684v-1.278c0-.972.387-1.503 1.08-1.665.279-.063.513-.279.513-.639 0-.387-.243-.666-.666-.666-.405 0-.729.432-.927.9v-.216c0-.378-.306-.684-.684-.684-.378 0-.684.306-.684.684v3.564z" fill="#FFF"/><g stroke-linecap="square" stroke-linejoin="round"><use fill="#FFF" xlink:href="#g"/><path stroke="#25B8EB" stroke-width="2" d="M101.716513 46.482216h-12.08L89.636506 78.4191c-.010002 3.11413-2.529603 5.6366-5.64454 5.646623l-79.350644-.000005C1.527833 84.055688-.992495 81.530448-1 78.412133l.000005-73.76551C-.989993 1.532492 1.52961-.989978 4.644545-1l79.350642.000005c3.111717.010017 5.631318 2.53249 5.641325 5.64983V36.57975h12.08v-4.165986l12.977852 9.11722-12.97785 9.11722v-4.165988z"/></g><path d="M34.789 21.496v-4.77h-1.53c-.288 0-.513-.234-.513-.513s.225-.513.513-.513h4.185c.279 0 .504.234.504.513s-.225.513-.504.513h-1.539v4.77c0 .306-.252.549-.558.549-.306 0-.558-.243-.558-.549zm4.5.603c-.891 0-1.683-.513-1.683-1.467v-.018c0-1.026.801-1.53 1.962-1.53.531 0 .909.081 1.278.198v-.117c0-.675-.414-1.035-1.179-1.035-.414 0-.756.072-1.053.189-.063.018-.117.027-.171.027-.252 0-.459-.198-.459-.45 0-.198.135-.369.297-.432.45-.171.909-.279 1.53-.279.711 0 1.242.189 1.575.531.351.342.513.846.513 1.467v2.34c0 .297-.234.522-.531.522-.315 0-.531-.216-.531-.459v-.18c-.324.387-.819.693-1.548.693zm.306-.792c.72 0 1.269-.414 1.269-1.017v-.324c-.279-.108-.648-.189-1.08-.189-.702 0-1.116.297-1.116.792v.018c0 .459.405.72.927.72zm3.609.198v-5.58c0-.306.234-.54.54-.54.306 0 .549.234.549.54v2.115c.351-.495.846-.891 1.62-.891 1.116 0 2.205.882 2.205 2.466v.018c0 1.575-1.08 2.466-2.205 2.466-.792 0-1.287-.396-1.62-.837v.243c0 .297-.243.54-.549.54-.297 0-.54-.243-.54-.54zm2.448-.351c.747 0 1.359-.585 1.359-1.521v-.018c0-.918-.621-1.521-1.359-1.521s-1.386.612-1.386 1.521v.018c0 .909.648 1.521 1.386 1.521zm3.654.351c0 .306.243.54.54.54.306 0 .549-.234.549-.54v-5.58c0-.297-.243-.54-.549-.54-.306 0-.54.243-.54.54v5.58zm3.33-2.214h2.439c-.072-.702-.486-1.251-1.206-1.251-.666 0-1.134.513-1.233 1.251zm3.069 2.187c-.432.387-.972.63-1.71.63-1.377 0-2.439-.999-2.439-2.466v-.018c0-1.359.963-2.475 2.322-2.475 1.512 0 2.259 1.242 2.259 2.34 0 .306-.234.522-.513.522h-2.979c.117.774.666 1.206 1.368 1.206.459 0 .819-.162 1.125-.414.081-.063.153-.099.279-.099.243 0 .432.189.432.441 0 .135-.063.252-.144.333zm-34.2945 6.546c0 .324.27.54.621.54s.621-.216.621-.54v-.054c0-.324-.27-.531-.621-.531s-.621.207-.621.531v.054zm.081 5.481c0 .306.243.54.54.54.306 0 .549-.234.549-.54v-3.762c0-.306-.243-.549-.549-.549-.306 0-.54.243-.54.549v3.762zm2.511 0c0 .306.243.54.54.54.306 0 .549-.234.549-.54v-2.187c0-.738.441-1.179 1.071-1.179.648 0 1.017.423 1.017 1.161v2.205c0 .306.243.54.549.54.306 0 .54-.234.54-.54v-2.538c0-1.098-.621-1.818-1.692-1.818-.738 0-1.179.387-1.485.828v-.234c0-.306-.243-.549-.549-.549-.306 0-.54.243-.54.549v3.762zm9.909.585c.99 0 1.764-.495 1.764-1.494v-.018c0-.855-.783-1.17-1.476-1.386-.558-.18-1.071-.324-1.071-.675v-.018c0-.27.243-.468.666-.468.333 0 .729.126 1.116.324.072.036.126.054.216.054.252 0 .45-.189.45-.441 0-.189-.108-.333-.261-.414-.459-.243-.99-.387-1.494-.387-.945 0-1.692.549-1.692 1.449v.018c0 .909.783 1.197 1.485 1.395.558.171 1.062.297 1.062.666v.018c0 .315-.27.513-.738.513-.432 0-.909-.153-1.368-.459-.063-.036-.144-.063-.234-.063-.252 0-.441.198-.441.441 0 .18.09.315.207.378.549.378 1.206.567 1.809.567zm4.383-.009c.288 0 .513-.045.747-.126.153-.063.288-.225.288-.423 0-.252-.216-.45-.459-.45-.036 0-.144.027-.27.027-.369 0-.585-.171-.585-.594v-2.331h.855c.261 0 .477-.207.477-.468s-.216-.468-.477-.468h-.855v-.81c0-.297-.243-.54-.54-.54-.306 0-.549.243-.549.54v.81h-.18c-.261 0-.468.207-.468.468s.207.468.468.468h.18v2.502c0 1.044.567 1.395 1.368 1.395zm4.23.027c-1.449 0-2.52-1.107-2.52-2.457v-.018c0-1.359 1.08-2.484 2.538-2.484 1.458 0 2.529 1.107 2.529 2.466v.018c0 1.35-1.08 2.475-2.547 2.475zm.018-.954c.882 0 1.44-.684 1.44-1.503v-.018c0-.837-.603-1.53-1.458-1.53-.873 0-1.431.684-1.431 1.512v.018c0 .828.603 1.521 1.449 1.521zm3.636.351c0 .306.243.54.54.54.306 0 .549-.243.549-.54v-1.404c0-1.125.531-1.719 1.305-1.854.243-.045.432-.234.432-.522 0-.315-.198-.54-.54-.54-.477 0-.945.45-1.197 1.044v-.486c0-.306-.243-.549-.549-.549-.306 0-.54.243-.54.549v3.762zm4.86.594c-.891 0-1.683-.513-1.683-1.467v-.018c0-1.026.801-1.53 1.962-1.53.531 0 .909.081 1.278.198v-.117c0-.675-.414-1.035-1.179-1.035-.414 0-.756.072-1.053.189-.063.018-.117.027-.171.027-.252 0-.459-.198-.459-.45 0-.198.135-.369.297-.432.45-.171.909-.279 1.53-.279.711 0 1.242.189 1.575.531.351.342.513.846.513 1.467v2.34c0 .297-.234.522-.531.522-.315 0-.531-.216-.531-.459v-.18c-.324.387-.819.693-1.548.693zm.306-.792c.72 0 1.269-.414 1.269-1.017v-.324c-.279-.108-.648-.189-1.08-.189-.702 0-1.116.297-1.116.792v.018c0 .459.405.72.927.72zm5.724 2.151c-.666 0-1.26-.144-1.836-.423-.189-.072-.306-.225-.306-.432 0-.243.207-.45.459-.45.081 0 .144.018.198.045.432.243.909.378 1.458.378.972 0 1.503-.504 1.503-1.458v-.369c-.396.513-.891.873-1.674.873-1.116 0-2.16-.828-2.16-2.223v-.018c0-1.404 1.053-2.232 2.16-2.232.801 0 1.296.369 1.665.81v-.225c0-.297.243-.54.54-.54.306 0 .549.243.549.549v3.285c0 .801-.207 1.395-.603 1.791-.432.432-1.098.639-1.953.639zm.09-2.763c.756 0 1.395-.531 1.395-1.305v-.018c0-.774-.639-1.305-1.395-1.305s-1.35.522-1.35 1.305v.018c0 .774.603 1.305 1.35 1.305zm4.653-1.404h2.439c-.072-.702-.486-1.251-1.206-1.251-.666 0-1.134.513-1.233 1.251zm3.069 2.187c-.432.387-.972.63-1.71.63-1.377 0-2.439-.999-2.439-2.466v-.018c0-1.359.963-2.475 2.322-2.475 1.512 0 2.259 1.242 2.259 2.34 0 .306-.234.522-.513.522h-2.979c.117.774.666 1.206 1.368 1.206.459 0 .819-.162 1.125-.414.081-.063.153-.099.279-.099.243 0 .432.189.432.441 0 .135-.063.252-.144.333zm1.485-3.654v.081c0 .36.27.63.639.63.36 0 .63-.27.63-.63v-.081c0-.36-.27-.63-.63-.63-.369 0-.639.27-.639.63zm0 3.51v.09c0 .351.27.621.639.621.36 0 .63-.27.63-.621v-.09c0-.351-.27-.621-.63-.621-.369 0-.639.27-.639.621zm-45.072 12.351V40.06c0-.198.162-.36.351-.36h2.007c1.422 0 2.358.756 2.358 1.998v.018c0 1.359-1.134 2.061-2.475 2.061h-1.53v1.908c0 .198-.162.36-.36.36-.189 0-.351-.162-.351-.36zm.711-2.556h1.557c1.044 0 1.728-.558 1.728-1.386v-.018c0-.9-.675-1.368-1.692-1.368h-1.593v2.772zm7.263 2.979c-1.395 0-2.412-1.098-2.412-2.412v-.018c0-1.314 1.026-2.43 2.43-2.43 1.395 0 2.421 1.098 2.421 2.412v.018c0 1.314-1.035 2.43-2.439 2.43zm.018-.621c1.008 0 1.71-.81 1.71-1.791v-.018c0-.999-.747-1.818-1.728-1.818-1.008 0-1.701.819-1.701 1.8v.018c0 .999.738 1.809 1.719 1.809zm3.672 1.647v-5.481c0-.198.153-.351.342-.351.198 0 .351.153.351.351v.63c.378-.558.927-1.035 1.782-1.035 1.116 0 2.223.882 2.223 2.412v.018c0 1.521-1.098 2.421-2.223 2.421-.864 0-1.422-.468-1.782-.99v2.025c0 .198-.144.351-.342.351-.198 0-.351-.153-.351-.351zm2.349-1.656c.9 0 1.638-.666 1.638-1.791v-.018c0-1.098-.756-1.8-1.638-1.8-.864 0-1.683.729-1.683 1.791v.018c0 1.08.819 1.8 1.683 1.8zm7.614-3.825c0-.198-.153-.351-.342-.351-.198 0-.342.153-.342.351v2.358c0 .873-.603 1.458-1.395 1.458-.819 0-1.287-.54-1.287-1.404v-2.412c0-.198-.162-.351-.351-.351-.198 0-.342.153-.342.351v2.583c0 1.107.657 1.863 1.782 1.863.801 0 1.278-.405 1.593-.909v.504c0 .198.153.351.342.351.198 0 .342-.162.342-.351v-4.041zm1.62 4.041c0 .198.153.351.351.351.198 0 .342-.153.342-.351v-5.958c0-.189-.153-.351-.351-.351-.189 0-.342.162-.342.351v5.958zm3.69.405c-.864 0-1.737-.495-1.737-1.449v-.018c0-.981.81-1.503 1.989-1.503.594 0 1.017.081 1.431.198v-.162c0-.837-.513-1.269-1.386-1.269-.468 0-.864.108-1.206.261-.045.018-.09.027-.126.027-.162 0-.306-.135-.306-.297 0-.144.099-.252.189-.288.459-.198.927-.315 1.521-.315.657 0 1.161.171 1.503.513.315.315.477.765.477 1.359v2.547c0 .198-.144.342-.333.342-.198 0-.333-.144-.333-.324v-.423c-.324.423-.864.801-1.683.801zm.135-.549c.855 0 1.557-.522 1.557-1.26v-.45c-.342-.099-.801-.198-1.368-.198-.873 0-1.359.378-1.359.963v.018c0 .585.54.927 1.17.927zm5.202.531c.27 0 .486-.045.684-.126.117-.045.198-.144.198-.27 0-.162-.135-.297-.297-.297-.054 0-.18.063-.423.063-.468 0-.783-.207-.783-.774v-2.718h1.206c.171 0 .315-.135.315-.306 0-.162-.144-.306-.315-.306h-1.206v-1.098c0-.189-.162-.351-.351-.351-.198 0-.342.162-.342.351v1.098h-.378c-.162 0-.306.135-.306.306 0 .162.144.306.306.306h.378v2.808c0 .945.567 1.314 1.314 1.314zm2.079-6.075c0 .216.18.369.405.369.234 0 .414-.153.414-.369v-.117c0-.225-.18-.369-.414-.369-.225 0-.405.144-.405.369v.117zm.063 5.688c0 .198.153.351.351.351.198 0 .342-.153.342-.351v-4.041c0-.198-.153-.351-.351-.351-.189 0-.342.162-.342.351v4.041zm4.428.414c-1.395 0-2.412-1.098-2.412-2.412v-.018c0-1.314 1.026-2.43 2.43-2.43 1.395 0 2.421 1.098 2.421 2.412v.018c0 1.314-1.035 2.43-2.439 2.43zm.018-.621c1.008 0 1.71-.81 1.71-1.791v-.018c0-.999-.747-1.818-1.728-1.818-1.008 0-1.701.819-1.701 1.8v.018c0 .999.738 1.809 1.719 1.809zm3.672.207c0 .198.153.351.351.351.198 0 .342-.153.342-.351v-2.358c0-.873.594-1.458 1.395-1.458.819 0 1.287.54 1.287 1.404v2.412c0 .198.153.351.351.351.189 0 .342-.153.342-.351v-2.583c0-1.107-.657-1.863-1.782-1.863-.801 0-1.287.405-1.593.909v-.504c0-.198-.153-.351-.351-.351-.189 0-.342.162-.342.351v4.041zM35.59 58.081c-.126 0-.198-.045-.288-.126l-.819-.855c-.576.621-1.251.99-2.07.99-1.134 0-1.98-.711-1.98-1.764v-.018c0-.837.558-1.44 1.521-1.818-.432-.504-.63-.891-.63-1.386v-.018c0-.828.666-1.494 1.665-1.494.882 0 1.53.639 1.53 1.422v.018c0 .801-.567 1.314-1.485 1.638l1.44 1.467c.234-.351.459-.756.657-1.197.036-.072.126-.189.288-.189.18 0 .324.144.324.324 0 .045-.018.108-.045.162-.234.495-.495.954-.783 1.341l.873.891c.081.09.135.153.135.279 0 .189-.144.333-.333.333zm-2.952-3.816c.801-.27 1.215-.648 1.215-1.197v-.018c0-.504-.378-.873-.891-.873-.567 0-.954.396-.954.909v.018c0 .369.153.648.63 1.161zm-.171 3.222c.603 0 1.125-.315 1.584-.828l-1.692-1.728c-.837.306-1.206.819-1.206 1.35v.018c0 .675.54 1.188 1.314 1.188zm10.296.621c1.035 0 1.719-.36 2.34-.927.063-.054.117-.144.117-.252 0-.18-.162-.342-.342-.342-.09 0-.171.045-.225.099-.54.495-1.089.765-1.872.765-1.386 0-2.439-1.143-2.439-2.601v-.018c0-1.449 1.044-2.583 2.439-2.583.774 0 1.323.288 1.809.72.054.036.135.081.234.081.189 0 .36-.162.36-.351 0-.126-.072-.225-.144-.288-.585-.486-1.233-.819-2.25-.819-1.854 0-3.186 1.476-3.186 3.258v.018c0 1.809 1.341 3.24 3.159 3.24zm5.031-.009c-.864 0-1.737-.495-1.737-1.449v-.018c0-.981.81-1.503 1.989-1.503.594 0 1.017.081 1.431.198v-.162c0-.837-.513-1.269-1.386-1.269-.468 0-.864.108-1.206.261-.045.018-.09.027-.126.027-.162 0-.306-.135-.306-.297 0-.144.099-.252.189-.288.459-.198.927-.315 1.521-.315.657 0 1.161.171 1.503.513.315.315.477.765.477 1.359v2.547c0 .198-.144.342-.333.342-.198 0-.333-.144-.333-.324v-.423c-.324.423-.864.801-1.683.801zm.135-.549c.855 0 1.557-.522 1.557-1.26v-.45c-.342-.099-.801-.198-1.368-.198-.873 0-1.359.378-1.359.963v.018c0 .585.54.927 1.17.927zm3.69.144c0 .198.153.351.351.351.198 0 .342-.162.342-.351V56.11c0-1.341.738-2.016 1.638-2.124.18-.027.306-.162.306-.351 0-.198-.135-.351-.342-.351-.585 0-1.26.468-1.602 1.242v-.873c0-.198-.153-.351-.351-.351-.189 0-.342.162-.342.351v4.041zm5.184.396c.927 0 1.656-.513 1.656-1.395v-.018c0-.837-.774-1.116-1.494-1.332-.621-.189-1.197-.36-1.197-.801v-.018c0-.387.351-.675.9-.675.396 0 .819.135 1.215.36.036.018.09.036.153.036.171 0 .306-.135.306-.297 0-.135-.081-.234-.171-.288-.45-.243-.99-.396-1.485-.396-.918 0-1.584.531-1.584 1.332v.018c0 .855.81 1.107 1.539 1.314.612.171 1.161.351 1.161.819v.018c0 .45-.405.738-.963.738-.504 0-.999-.171-1.476-.495-.045-.036-.108-.054-.171-.054-.171 0-.306.135-.306.297 0 .117.063.207.126.252.504.36 1.179.585 1.791.585zM21.154 69.694v-5.958c0-.198.153-.351.342-.351.198 0 .351.153.351.351v2.547c.378-.558.927-1.035 1.782-1.035 1.116 0 2.223.882 2.223 2.412v.018c0 1.521-1.098 2.421-2.223 2.421-.864 0-1.422-.468-1.782-.99v.585c0 .189-.144.351-.342.351-.198 0-.351-.162-.351-.351zm2.349-.216c.9 0 1.638-.666 1.638-1.791v-.018c0-1.098-.756-1.8-1.638-1.8-.864 0-1.683.729-1.683 1.791v.018c0 1.08.819 1.8 1.683 1.8zm4.113 1.989c.702 0 1.152-.351 1.557-1.314l1.818-4.338c.018-.054.036-.117.036-.171 0-.189-.153-.342-.342-.342-.18 0-.279.117-.333.261l-1.44 3.663-1.62-3.654c-.063-.153-.162-.27-.351-.27-.198 0-.351.153-.351.342 0 .063.018.126.045.189l1.944 4.122-.036.072c-.252.567-.504.828-.936.828-.234 0-.369-.036-.504-.081-.054-.018-.108-.036-.171-.036-.153 0-.297.126-.297.297 0 .162.108.252.216.297.234.081.459.135.765.135zm9.405-1.359c.783 0 1.314-.306 1.755-.747.054-.054.09-.135.09-.216 0-.162-.144-.315-.315-.315-.09 0-.153.045-.198.09-.342.324-.765.567-1.296.567-.972 0-1.71-.801-1.71-1.809v-.018c0-.999.72-1.8 1.665-1.8.558 0 .936.252 1.269.558.054.045.135.081.225.081.18 0 .333-.144.333-.333 0-.108-.054-.198-.108-.243-.414-.378-.936-.675-1.71-.675-1.359 0-2.385 1.116-2.385 2.43v.018c0 1.305 1.026 2.412 2.385 2.412zm5.031 0c-1.395 0-2.412-1.098-2.412-2.412v-.018c0-1.314 1.026-2.43 2.43-2.43 1.395 0 2.421 1.098 2.421 2.412v.018c0 1.314-1.035 2.43-2.439 2.43zm.018-.621c1.008 0 1.71-.81 1.71-1.791v-.018c0-.999-.747-1.818-1.728-1.818-1.008 0-1.701.819-1.701 1.8v.018c0 .999.738 1.809 1.719 1.809zm7.659-3.834c0-.198-.153-.351-.342-.351-.198 0-.342.153-.342.351v2.358c0 .873-.603 1.458-1.395 1.458-.819 0-1.287-.54-1.287-1.404v-2.412c0-.198-.162-.351-.351-.351-.198 0-.342.153-.342.351v2.583c0 1.107.657 1.863 1.782 1.863.801 0 1.278-.405 1.593-.909v.504c0 .198.153.351.342.351.198 0 .342-.162.342-.351v-4.041zm1.557 4.041c0 .198.153.351.351.351.198 0 .342-.153.342-.351v-2.358c0-.873.594-1.458 1.395-1.458.819 0 1.287.54 1.287 1.404v2.412c0 .198.153.351.351.351.189 0 .342-.153.342-.351v-2.583c0-1.107-.657-1.863-1.782-1.863-.801 0-1.287.405-1.593.909v-.504c0-.198-.153-.351-.351-.351-.189 0-.342.162-.342.351v4.041zm7.101.387c.27 0 .486-.045.684-.126.117-.045.198-.144.198-.27 0-.162-.135-.297-.297-.297-.054 0-.18.063-.423.063-.468 0-.783-.207-.783-.774v-2.718h1.206c.171 0 .315-.135.315-.306 0-.162-.144-.306-.315-.306h-1.206v-1.098c0-.189-.162-.351-.351-.351-.198 0-.342.162-.342.351v1.098h-.378c-.162 0-.306.135-.306.306 0 .162.144.306.306.306h.378v2.808c0 .945.567 1.314 1.314 1.314zm2.079-.387c0 .198.153.351.351.351.198 0 .342-.162.342-.351V68.11c0-1.341.738-2.016 1.638-2.124.18-.027.306-.162.306-.351 0-.198-.135-.351-.342-.351-.585 0-1.26.468-1.602 1.242v-.873c0-.198-.153-.351-.351-.351-.189 0-.342.162-.342.351v4.041zm4.32 1.773c.702 0 1.152-.351 1.557-1.314l1.818-4.338c.018-.054.036-.117.036-.171 0-.189-.153-.342-.342-.342-.18 0-.279.117-.333.261l-1.44 3.663-1.62-3.654c-.063-.153-.162-.27-.351-.27-.198 0-.351.153-.351.342 0 .063.018.126.045.189l1.944 4.122-.036.072c-.252.567-.504.828-.936.828-.234 0-.369-.036-.504-.081-.054-.018-.108-.036-.171-.036-.153 0-.297.126-.297.297 0 .162.108.252.216.297.234.081.459.135.765.135z" fill="#282D38"/></g></g></svg>