<svg width="772" height="228" viewBox="0 0 772 228" xmlns="http://www.w3.org/2000/svg" xmlns:xlink="http://www.w3.org/1999/xlink"><title>schema 1</title><defs><path d="M767.64 114.65c0-2.56-2.1-4.64-4.65-4.65h-79.36c-2.56 0-4.63 2.1-4.64 4.65v33.76c0 2.58 2.08 4.66 4.64 4.67H763c2.55 0 4.63-2.1 4.64-4.65v-33.77z" id="a"/><path d="M555.95 130.53l-10.23-7.2v3.25h-14.08V93.65c0-2.56-2.1-4.64-4.65-4.65h-79.36c-2.56 0-4.63 2.1-4.64 4.65v73.76c0 2.58 2.08 4.66 4.64 4.67H527c2.55 0 4.63-2.1 4.64-4.65v-32.94h14.08v3.24l10.23-7.2z" id="b"/><path d="M349.95 90.53l-10.23-7.2v3.25h-14.08V63.65c0-2.56-2.1-4.64-4.65-4.65h-79.36c-2.56 0-4.63 2.1-4.64 4.65v53.76c0 2.58 2.08 4.66 4.64 4.67H321c2.55 0 4.63-2.1 4.64-4.65V94.48h14.08v3.24l10.23-7.2z" id="c"/><path d="M349.95 170.53l-10.23-7.2v3.25h-14.08v-22.93c0-2.56-2.1-4.64-4.65-4.65h-79.36c-2.56 0-4.63 2.1-4.64 4.65v53.76c0 2.58 2.08 4.66 4.64 4.67H321c2.55 0 4.63-2.1 4.64-4.65v-22.94h14.08v3.24l10.23-7.2z" id="d"/><path d="M163.95 90.53l-10.23-7.2v3.25h-45.08V68.65c0-2.56-2.1-4.64-4.65-4.65H4.63C2.08 64 0 66.1 0 68.65v43.76c0 2.58 2.08 4.66 4.64 4.67H104c2.55 0 4.63-2.1 4.64-4.65V94.48h45.08v3.24l10.23-7.2z" id="e"/><path d="M163.95 170.53l-10.23-7.2v3.25h-45.08v-17.93c0-2.56-2.1-4.64-4.65-4.65H4.63C2.08 144 0 146.1 0 148.65v43.76c0 2.58 2.08 4.66 4.64 4.67H104c2.55 0 4.63-2.1 4.64-4.65v-17.94h45.08v3.24l10.23-7.2z" id="f"/></defs><g fill="none" fill-rule="evenodd"><g transform="translate(2)"><path d="M295 0h200c5.52 0 10 4.48 10 10v40H285V10c0-5.52 4.48-10 10-10z" fill="#C8EDFA"/><rect fill="#C8EDFA" x="133" y="35" width="524" height="193" rx="10"/><path d="M308.65 25.22c0 .47.38.85.87.85.48 0 .86-.38.86-.85V23.2l1.6-1.55 3.14 4c.18.25.4.42.73.42.5 0 .87-.36.87-.84 0-.27-.1-.43-.24-.62l-3.3-4.1 3.05-2.93c.2-.18.3-.38.3-.64 0-.42-.32-.8-.8-.8-.3 0-.5.1-.7.32l-4.65 4.68v-4.15c0-.47-.38-.85-.86-.85-.5 0-.87.38-.87.85v8.24zm10.85.78h5.77c.42 0 .77-.34.77-.77 0-.42-.35-.77-.77-.77h-4.9v-2.63h4.2c.42 0 .77-.34.77-.76 0-.43-.35-.78-.77-.78h-4.2v-2.56h4.83c.42 0 .77-.34.77-.77 0-.42-.35-.77-.77-.77h-5.7c-.5 0-.86.38-.86.87v8.06c0 .5.37.87.86.87zm8.52-.87v-8.06c0-.5.37-.87.86-.87h3.53c1.13 0 2 .3 2.57.87.44.43.66.96.66 1.62v.02c0 1.18-.67 1.8-1.4 2.18 1.15.4 1.95 1.05 1.95 2.38v.03c0 1.76-1.44 2.7-3.63 2.7h-3.67c-.5 0-.86-.38-.86-.87zm1.7-4.8h2.34c1.1 0 1.85-.43 1.85-1.33v-.03c0-.77-.6-1.24-1.7-1.24h-2.5v2.6zm0 4.14h2.85c1.17 0 1.9-.46 1.9-1.34v-.03c0-.82-.67-1.3-2.03-1.3h-2.73v2.67zm13.08 1.7c-3 0-5.1-2.28-5.1-5.04v-.03c0-2.76 2.12-5.07 5.13-5.07 3 0 5.1 2.28 5.1 5.04v.03c0 2.76-2.12 5.07-5.13 5.07zm.03-1.6c1.94 0 3.3-1.54 3.3-3.44v-.03c0-1.9-1.38-3.5-3.33-3.5-1.95 0-3.3 1.57-3.3 3.47v.03c0 1.9 1.38 3.47 3.33 3.47zm11.87 1.6c-3 0-5.1-2.28-5.1-5.04v-.03c0-2.76 2.12-5.07 5.13-5.07 3 0 5.1 2.28 5.1 5.04v.03c0 2.76-2.12 5.07-5.13 5.07zm.03-1.6c1.94 0 3.3-1.54 3.3-3.44v-.03c0-1.9-1.38-3.5-3.33-3.5-1.95 0-3.3 1.57-3.3 3.47v.03c0 1.9 1.38 3.47 3.33 3.47zm7.2.56c0 .5.37.87.86.87h5.28c.44 0 .8-.35.8-.78 0-.44-.36-.8-.8-.8h-4.43V17c0-.47-.38-.85-.86-.85-.5 0-.88.38-.88.85v8.15zm8 .14c0-.12.03-.25.1-.4l3.64-8.1c.2-.44.55-.7 1.04-.7h.1c.48 0 .82.26 1 .7l3.65 8.1c.07.14.1.26.1.37 0 .47-.35.83-.8.83-.42 0-.7-.24-.85-.6l-.8-1.84h-4.76l-.83 1.9c-.13.34-.42.54-.78.54-.45 0-.8-.35-.8-.8zM373 22.1h3.44l-1.72-3.95L373 22.1zm17.16 4.07c1.58 0 2.63-.5 3.56-1.32.15-.14.28-.35.28-.6 0-.45-.38-.8-.8-.8-.22 0-.4.07-.53.18-.72.6-1.42.94-2.45.94-1.88 0-3.24-1.55-3.24-3.47v-.03c0-1.92 1.38-3.46 3.24-3.46.94 0 1.66.35 2.34.9.1.08.28.16.5.16.5 0 .87-.36.87-.84 0-.3-.16-.54-.34-.68-.86-.66-1.86-1.1-3.37-1.1-2.97 0-5.05 2.27-5.05 5.06v.03c0 2.8 2.13 5.04 4.98 5.04zm10.18 0c-3 0-5.1-2.28-5.1-5.04v-.03c0-2.76 2.12-5.07 5.13-5.07 3 0 5.1 2.28 5.1 5.04v.03c0 2.76-2.12 5.07-5.13 5.07zm.03-1.6c1.94 0 3.3-1.54 3.3-3.44v-.03c0-1.9-1.38-3.5-3.33-3.5-1.95 0-3.3 1.57-3.3 3.47v.03c0 1.9 1.38 3.47 3.33 3.47zm7.2.66c0 .46.37.84.85.84.46 0 .84-.38.84-.84V19l5.04 6.54c.24.3.5.52.9.52h.06c.48 0 .84-.38.84-.86v-8.23c0-.46-.37-.84-.85-.84-.46 0-.84.38-.84.84V23l-4.9-6.35c-.23-.3-.47-.5-.9-.5h-.17c-.5 0-.87.4-.87.86v8.23zm11.05 0c0 .46.38.84.86.84.46 0 .84-.38.84-.84V19l5.04 6.54c.24.3.5.52.9.52h.06c.48 0 .84-.38.84-.86v-8.23c0-.46-.37-.84-.85-.84-.45 0-.83.38-.83.84V23l-4.9-6.35c-.24-.3-.48-.5-.9-.5h-.18c-.5 0-.88.4-.88.86v8.23zm11.93.77h5.77c.42 0 .77-.34.77-.77 0-.42-.36-.77-.78-.77h-4.9v-2.63h4.2c.42 0 .77-.34.77-.76 0-.43-.36-.78-.78-.78h-4.2v-2.56h4.83c.42 0 .77-.34.77-.77 0-.42-.35-.77-.77-.77h-5.7c-.5 0-.87.38-.87.87v8.06c0 .5.38.87.87.87zm13.06.17c1.6 0 2.65-.5 3.57-1.32.15-.14.28-.35.28-.6 0-.45-.38-.8-.8-.8-.22 0-.4.07-.53.18-.7.6-1.4.94-2.45.94-1.88 0-3.23-1.55-3.23-3.47v-.03c0-1.92 1.37-3.46 3.23-3.46.94 0 1.67.35 2.34.9.12.08.3.16.53.16.47 0 .85-.36.85-.84 0-.3-.15-.54-.34-.68-.85-.66-1.84-1.1-3.36-1.1-2.96 0-5.05 2.27-5.05 5.06v.03c0 2.8 2.13 5.04 4.98 5.04zm8.2-.95c0 .47.4.85.87.85.48 0 .87-.38.87-.85V17.8h2.4c.43 0 .78-.37.78-.8 0-.44-.35-.8-.8-.8h-6.5c-.44 0-.8.36-.8.8 0 .43.36.8.8.8h2.38v7.42zm6.77 0c0 .47.37.85.86.85.48 0 .86-.38.86-.85v-8.24c0-.47-.4-.85-.87-.85-.5 0-.86.38-.86.85v8.24zm9 .95c-3 0-5.1-2.28-5.1-5.04v-.03c0-2.76 2.13-5.07 5.14-5.07 3.02 0 5.12 2.28 5.12 5.04v.03c0 2.76-2.13 5.07-5.14 5.07zm.04-1.6c1.96 0 3.3-1.54 3.3-3.44v-.03c0-1.9-1.37-3.5-3.32-3.5-1.94 0-3.3 1.57-3.3 3.47v.03c0 1.9 1.38 3.47 3.33 3.47zm7.2.66c0 .46.38.84.86.84.46 0 .84-.38.84-.84V19l5.04 6.54c.24.3.5.52.9.52h.07c.48 0 .85-.38.85-.86v-8.23c0-.46-.38-.84-.86-.84-.47 0-.85.38-.85.84V23l-4.9-6.35c-.24-.3-.47-.5-.9-.5h-.18c-.5 0-.86.4-.86.86v8.23z" fill="#282D38"/><g stroke-linecap="square" stroke-linejoin="round"><use fill="#FFF" xlink:href="#a"/><path stroke="#25B8EB" stroke-width="2" d="M768.64 114.65v33.77c0 3.1-2.53 5.64-5.65 5.65h-79.36c-3.1 0-5.63-2.54-5.64-5.66v-33.75c0-3.12 2.53-5.64 5.64-5.65H763c3.1 0 5.63 2.53 5.64 5.65z"/></g><path d="M709.86 128.5v-4.77h-1.53c-.3 0-.52-.24-.52-.52 0-.27.24-.5.53-.5h4.18c.3 0 .52.23.52.5 0 .3-.23.53-.5.53h-1.55v4.77c0 .3-.25.54-.55.54-.3 0-.56-.24-.56-.54zm4.5.6c-.9 0-1.7-.5-1.7-1.47v-.02c0-1 .82-1.52 1.98-1.52.53 0 .9.1 1.27.2v-.1c0-.7-.4-1.05-1.16-1.05-.42 0-.76.07-1.06.2l-.17.02c-.24 0-.45-.2-.45-.45 0-.2.14-.37.3-.44.45-.17.9-.27 1.53-.27.7-.02 1.24.17 1.57.52.36.34.52.84.52 1.46v2.34c0 .3-.24.52-.53.52-.32 0-.53-.2-.53-.45v-.2c-.32.4-.8.7-1.54.7zm.3-.8c.72 0 1.27-.4 1.27-1v-.33c-.28-.1-.65-.2-1.08-.2-.7 0-1.1.3-1.1.8v.02c0 .45.4.7.9.7zm3.6.2v-5.58c0-.3.25-.53.55-.53.32-.02.56.22.56.52v2.12c.35-.5.85-.9 1.62-.9 1.12 0 2.2.9 2.2 2.47v.03c0 1.58-1.07 2.47-2.2 2.47-.8 0-1.3-.4-1.62-.84v.25c0 .3-.24.54-.55.54-.28 0-.53-.24-.53-.53zm2.46-.35c.75 0 1.36-.58 1.36-1.52v-.02c0-.9-.62-1.5-1.36-1.5-.74 0-1.4.6-1.4 1.52s.66 1.53 1.4 1.53zm3.65.35c0 .3.25.54.54.54.32 0 .56-.23.56-.53v-5.58c0-.3-.24-.53-.55-.53-.3-.02-.53.23-.53.52v5.58zm3.33-2.2h2.44c-.07-.7-.48-1.26-1.2-1.26-.67 0-1.14.5-1.24 1.25zm3.07 2.18c-.43.4-.97.63-1.7.63-1.38 0-2.45-1-2.45-2.46v-.02c0-1.36.97-2.47 2.33-2.47 1.5 0 2.26 1.24 2.26 2.34 0 .3-.23.5-.5.5h-3c.13.78.68 1.22 1.38 1.22.46 0 .82-.16 1.13-.42.1-.06.16-.1.3-.1.23 0 .42.2.42.45 0 .13-.07.25-.15.33zm2.92.62c-.9 0-1.7-.5-1.7-1.47v-.02c0-1 .8-1.52 1.97-1.52.53 0 .9.1 1.28.2v-.1c0-.7-.42-1.05-1.18-1.05-.42 0-.76.07-1.06.2l-.16.02c-.25 0-.46-.2-.46-.45 0-.2.14-.37.3-.44.45-.17.9-.27 1.53-.27.72-.02 1.25.17 1.6.52.34.34.5.84.5 1.46v2.34c0 .3-.23.52-.53.52-.32 0-.53-.2-.53-.45v-.2c-.33.4-.82.7-1.55.7zm.3-.8c.72 0 1.26-.4 1.26-1v-.33c-.27-.1-.64-.2-1.08-.2-.7 0-1.1.3-1.1.8v.02c0 .45.4.7.92.7zm7.83-3.56c0-.3-.26-.55-.55-.55-.3 0-.55.24-.55.54v2.2c0 .73-.44 1.16-1.07 1.16-.65 0-1.02-.4-1.02-1.15v-2.2c0-.3-.24-.56-.55-.56-.3 0-.55.24-.55.54v2.53c0 1.1.62 1.83 1.7 1.83.73 0 1.17-.4 1.48-.84v.25c0 .3.25.54.55.54.3 0 .55-.24.55-.53v-3.76zM699.5 141.1h.05c.32 0 .52-.18.64-.46l2.2-5.22c.03-.06.06-.15.06-.23 0-.3-.24-.54-.55-.54-.25 0-.45.17-.52.35l-1.85 4.6-1.8-4.55c-.1-.23-.3-.4-.58-.4-.32 0-.56.25-.56.54 0 .1.02.18.05.26l2.2 5.18c.13.28.33.45.64.45zm3.8-6.08c0 .33.28.54.63.54s.62-.2.62-.54v-.05c0-.32-.27-.53-.62-.53s-.62.2-.62.53v.05zm.1 5.48c0 .3.23.54.53.54.3 0 .55-.23.55-.53v-3.76c0-.3-.25-.55-.55-.55-.3 0-.54.24-.54.54v3.76zm4.13.6c1 0 1.76-.5 1.76-1.5v-.02c0-.86-.8-1.17-1.5-1.4-.54-.17-1.06-.3-1.06-.66v-.02c0-.27.25-.47.67-.47.34 0 .74.13 1.13.32.07.04.12.06.2.06.26 0 .46-.18.46-.43 0-.2-.12-.34-.27-.42-.46-.24-1-.38-1.5-.38-.94 0-1.7.55-1.7 1.45 0 .92.8 1.2 1.5 1.4.56.18 1.06.3 1.06.67 0 .33-.28.53-.75.53-.43 0-.9-.16-1.36-.46-.08-.04-.16-.07-.25-.07-.25 0-.44.2-.44.45 0 .17.1.3.22.37.55.38 1.2.57 1.8.57zm7.1-4.36c0-.3-.25-.55-.55-.55-.3 0-.55.24-.55.54v2.2c0 .73-.44 1.16-1.07 1.16-.65 0-1.02-.4-1.02-1.15v-2.2c0-.3-.24-.56-.55-.56-.3 0-.55.24-.55.54v2.53c0 1.1.62 1.83 1.7 1.83.73 0 1.17-.4 1.48-.84v.25c0 .3.25.54.55.54.3 0 .55-.24.55-.53v-3.76zm2.72 4.36c-.9 0-1.68-.5-1.68-1.47v-.02c0-1 .8-1.52 1.96-1.52.53 0 .9.08 1.28.2v-.12c0-.67-.4-1.03-1.17-1.03-.4 0-.75.07-1.05.2l-.17.02c-.24 0-.45-.2-.45-.45 0-.2.13-.37.3-.44.45-.17.9-.28 1.53-.28.7 0 1.24.2 1.57.54.35.34.5.84.5 1.46v2.34c0 .3-.22.52-.52.52-.3 0-.53-.2-.53-.45v-.2c-.32.4-.82.7-1.55.7zm.3-.8c.73 0 1.28-.4 1.28-1v-.33c-.28-.1-.65-.2-1.08-.2-.7 0-1.12.3-1.12.8v.02c0 .45.4.7.93.7zm3.68.2c0 .3.25.54.54.54.3 0 .55-.23.55-.53v-5.57c0-.3-.24-.55-.55-.55-.3 0-.54.25-.54.55v5.57zm2.5-5.48c0 .33.27.54.62.54s.62-.2.62-.54v-.05c0-.32-.27-.53-.62-.53s-.62.2-.62.53v.05zm.08 5.48c0 .3.25.54.55.54.3 0 .55-.23.55-.53v-3.76c0-.3-.25-.55-.55-.55-.3 0-.54.24-.54.54v3.76zm2.8.5h3.23c.25 0 .45-.2.45-.44 0-.25-.2-.45-.45-.45h-2.34l2.53-2.87c.16-.18.23-.32.23-.52v-.02c0-.25-.23-.43-.52-.43h-3.13c-.25 0-.44.2-.44.45 0 .24.2.44.45.44h2.25l-2.53 2.88c-.17.18-.25.3-.25.52v.02c0 .25.23.44.54.44zm6.13.1c-.9 0-1.7-.5-1.7-1.47v-.02c0-1 .8-1.52 1.97-1.52.54 0 .9.08 1.28.2v-.12c0-.67-.4-1.03-1.18-1.03-.4 0-.75.07-1.05.2l-.17.02c-.25 0-.46-.2-.46-.45 0-.2.14-.37.3-.44.45-.17.9-.28 1.53-.28.7 0 1.24.2 1.57.54.35.34.52.84.52 1.46v2.34c0 .3-.24.52-.54.52-.3 0-.53-.2-.53-.45v-.2c-.32.4-.82.7-1.54.7zm.3-.8c.72 0 1.27-.4 1.27-1v-.33c-.28-.1-.65-.2-1.08-.2-.7 0-1.12.3-1.12.8v.02c0 .45.4.7.93.7zm5.16.78c.28 0 .5-.04.74-.13.15-.06.28-.22.28-.42 0-.25-.2-.45-.46-.45-.03 0-.14.03-.27.03-.37 0-.6-.16-.6-.6v-2.32h.86c.27 0 .48-.2.48-.46s-.2-.47-.48-.47H738v-.8c0-.3-.23-.55-.53-.55-.3 0-.55.24-.55.54v.8h-.18c-.26 0-.47.22-.47.48s.2.46.47.46h.18v2.5c0 1.05.57 1.4 1.37 1.4zm2.08-6.06c0 .33.27.54.62.54s.62-.2.62-.54v-.05c0-.32-.27-.53-.62-.53s-.62.2-.62.53v.05zm.08 5.48c0 .3.24.54.54.54.3 0 .55-.23.55-.53v-3.76c0-.3-.25-.55-.55-.55-.3 0-.54.24-.54.54v3.76zm4.77.6c-1.45 0-2.52-1.1-2.52-2.45v-.02c0-1.36 1.1-2.48 2.55-2.48 1.45 0 2.52 1.1 2.52 2.47 0 1.36-1.08 2.5-2.54 2.5zm.02-.95c.88 0 1.44-.68 1.44-1.5v-.02c0-.83-.62-1.53-1.47-1.53-.88 0-1.43.7-1.43 1.52 0 .84.6 1.53 1.45 1.53zm3.63.35c0 .3.24.54.54.54.3 0 .55-.23.55-.53v-2.18c0-.74.44-1.18 1.07-1.18.65 0 1.02.42 1.02 1.16v2.2c0 .3.24.54.55.54.3 0 .55-.23.55-.53v-2.53c0-1.1-.62-1.82-1.7-1.82-.73 0-1.17.4-1.48.83v-.24c0-.3-.24-.55-.55-.55-.3 0-.54.24-.54.54v3.76z" fill="#282D38"/><path d="M688.95 130.53l-10.23-7.2v3.25h-44.08v-22.93c0-2.56-2.1-4.64-4.65-4.65h-79.36c-2.56 0-4.63 2.1-4.64 4.65v53.76c0 2.58 2.08 4.66 4.64 4.67H630c2.55 0 4.63-2.1 4.64-4.65v-22.94h44.08v3.24l10.23-7.2z" fill="#25B8EB"/><path d="M578.12 134.53c.12.35.38.57.72.57h.14c.33 0 .6-.2.7-.57l1.25-3.6 1.25 3.6c.12.36.37.57.7.57h.15c.33 0 .6-.22.72-.57l1.76-4.95c.04-.08.07-.2.07-.27 0-.37-.3-.65-.7-.65-.33 0-.56.22-.65.5l-1.25 3.85-1.26-3.82c-.1-.34-.34-.55-.7-.55h-.1c-.35 0-.6.22-.7.55l-1.27 3.82-1.25-3.86c-.1-.3-.35-.5-.67-.5-.38 0-.7.3-.7.68 0 .08.03.18.05.26l1.77 4.95zm8.14-.16c0 .38.3.68.7.68.36 0 .67-.3.67-.68v-1.28c0-.98.4-1.5 1.08-1.67.3-.07.52-.28.52-.64 0-.4-.24-.68-.66-.68-.4 0-.73.43-.93.9v-.2c0-.4-.3-.7-.68-.7-.38 0-.7.3-.7.7v3.55zm3.75-5.33c0 .4.34.65.77.65s.76-.26.76-.66v-.02c0-.4-.33-.64-.76-.64s-.76.25-.76.64v.02zm.1 5.33c0 .38.3.68.67.68.38 0 .68-.3.68-.68v-3.56c0-.37-.3-.68-.68-.68-.38 0-.68.3-.68.7v3.55zm4.27.7c.3 0 .53-.03.78-.12.2-.08.35-.27.35-.52 0-.3-.26-.56-.56-.56h-.17c-.3 0-.44-.15-.44-.46v-2.05h.6c.33 0 .6-.26.6-.6 0-.3-.27-.57-.6-.57h-.6v-.6c0-.4-.3-.7-.68-.7-.38 0-.68.3-.68.7v.6h-.05c-.32 0-.58.26-.58.58 0 .33.26.6.58.6h.05v2.27c0 1.12.56 1.45 1.4 1.45zm3.08-2.86h2.06c-.07-.6-.43-1.02-1-1.02-.58 0-.94.4-1.05 1.03zm2.85 2.32c-.42.36-.97.6-1.67.6-1.45 0-2.52-1.03-2.52-2.5v-.02c0-1.38 1-2.5 2.4-2.5 1.6 0 2.3 1.3 2.3 2.3 0 .4-.26.66-.63.66h-2.7c.13.63.56.95 1.17.95.38 0 .7-.1.98-.3.1-.1.2-.12.33-.12.3 0 .53.23.53.54 0 .18-.08.3-.18.4zm1.56-.15c0 .38.3.68.68.68.38 0 .7-.3.7-.68v-1.28c0-.98.37-1.5 1.07-1.67.3-.07.52-.28.52-.64 0-.4-.24-.68-.67-.68-.4 0-.73.43-.92.9v-.2c0-.4-.3-.7-.7-.7-.37 0-.67.3-.67.7v3.55z" fill="#FFF"/><g stroke-linecap="square" stroke-linejoin="round"><use fill="#FFF" xlink:href="#b"/><path stroke="#25B8EB" stroke-width="2" d="M544.72 135.48h-12.08v31.94c0 3.1-2.53 5.64-5.65 5.65h-79.36c-3.1 0-5.63-2.54-5.64-5.66V93.66c0-3.12 2.53-5.64 5.64-5.65H527c3.1 0 5.63 2.53 5.64 5.65v31.93h12.08v-4.17l12.97 9.13-12.98 9.12v-4.17z"/></g><path d="M477.8 110.5v-4.77h-1.54c-.3 0-.5-.24-.5-.52 0-.27.2-.5.5-.5h4.18c.28 0 .5.23.5.5 0 .3-.22.53-.5.53h-1.54v4.77c0 .3-.25.55-.55.55-.3 0-.56-.25-.56-.55zm4.5.6c-.9 0-1.7-.5-1.7-1.47v-.02c0-1 .8-1.52 1.97-1.52.53 0 .9.1 1.28.2v-.1c0-.7-.42-1.05-1.18-1.05-.42 0-.76.07-1.06.2l-.16.02c-.25 0-.46-.2-.46-.45 0-.2.14-.37.3-.44.45-.17.9-.27 1.53-.27.72-.02 1.25.17 1.6.52.34.34.5.84.5 1.46v2.34c0 .3-.23.53-.53.53-.32 0-.53-.22-.53-.46v-.2c-.33.4-.82.7-1.55.7zm.3-.8c.7 0 1.26-.4 1.26-1v-.33c-.28-.1-.64-.2-1.08-.2-.7 0-1.1.3-1.1.8v.02c0 .45.4.7.92.7zm3.6.2v-5.58c0-.3.24-.53.54-.53.3-.02.55.22.55.52v2.12c.34-.5.84-.9 1.6-.9 1.13 0 2.22.9 2.22 2.47v.03c0 1.58-1.08 2.47-2.2 2.47-.8 0-1.3-.4-1.63-.84v.24c0 .3-.25.55-.56.55-.3 0-.54-.25-.54-.55zm2.45-.35c.75 0 1.36-.58 1.36-1.52v-.02c0-.9-.6-1.5-1.35-1.5-.74 0-1.38.6-1.38 1.52s.64 1.53 1.38 1.53zm3.66.35c0 .3.25.55.55.55.3 0 .54-.24.54-.55v-5.58c0-.3-.25-.53-.55-.53-.3-.02-.54.23-.54.52v5.58zm3.34-2.2h2.44c-.08-.7-.5-1.26-1.2-1.26-.68 0-1.14.5-1.24 1.25zm3.06 2.18c-.43.38-.97.63-1.7.63-1.38 0-2.44-1-2.44-2.46v-.02c0-1.36.96-2.47 2.32-2.47 1.5 0 2.26 1.24 2.26 2.34 0 .3-.24.5-.52.5h-2.98c.12.78.67 1.22 1.37 1.22.47 0 .83-.16 1.14-.42.08-.06.15-.1.28-.1.24 0 .43.2.43.44 0 .14-.06.26-.15.34zm-34.3 6.54c0 .33.28.54.63.54s.62-.2.62-.54v-.05c0-.32-.27-.53-.62-.53s-.62.2-.62.53v.05zm.1 5.48c0 .3.23.55.53.55.3 0 .55-.24.55-.55v-3.76c0-.3-.24-.55-.55-.55-.3 0-.54.24-.54.54v3.77zm2.5 0c0 .3.25.55.54.55.3 0 .55-.24.55-.55v-2.18c0-.74.43-1.18 1.06-1.18.65 0 1.02.42 1.02 1.16v2.2c0 .3.24.55.55.55.3 0 .54-.24.54-.55v-2.53c0-1.1-.62-1.82-1.7-1.82-.73 0-1.17.4-1.48.83v-.24c0-.3-.25-.55-.56-.55-.3 0-.54.24-.54.54v3.77zm9.9.6c1 0 1.78-.5 1.78-1.5v-.02c0-.86-.8-1.17-1.48-1.4-.56-.17-1.07-.3-1.07-.66v-.02c0-.27.24-.47.66-.47.33 0 .72.13 1.1.33.08.03.14.05.23.05.25 0 .45-.18.45-.43 0-.2-.1-.33-.26-.42-.46-.24-1-.38-1.5-.38-.94 0-1.7.55-1.7 1.45 0 .92.8 1.2 1.5 1.4.55.18 1.06.3 1.06.67 0 .33-.27.53-.74.53-.43 0-.9-.16-1.37-.46-.06-.04-.14-.07-.23-.07-.26 0-.44.2-.44.44 0 .2.1.32.2.38.55.38 1.2.57 1.8.57zm4.4-.02c.28 0 .5-.04.74-.13.15-.06.3-.22.3-.42 0-.25-.23-.45-.47-.45-.04 0-.14.03-.27.03-.37 0-.58-.16-.58-.58v-2.34h.85c.26 0 .48-.2.48-.46 0-.27-.22-.47-.48-.47h-.85v-.8c0-.3-.25-.55-.54-.55-.3 0-.55.24-.55.54v.8h-.18c-.26 0-.47.22-.47.48s.2.46.47.46h.18v2.5c0 1.05.56 1.4 1.36 1.4zm4.22.03c-1.44 0-2.52-1.1-2.52-2.45v-.02c0-1.36 1.08-2.48 2.54-2.48s2.53 1.1 2.53 2.46v.03c0 1.35-1.08 2.48-2.55 2.48zm.02-.95c.88 0 1.44-.68 1.44-1.5v-.02c0-.83-.6-1.53-1.46-1.53-.87 0-1.43.7-1.43 1.52 0 .84.6 1.53 1.44 1.53zm3.64.35c0 .3.24.55.54.55.3 0 .55-.25.55-.55v-1.4c0-1.12.53-1.72 1.3-1.85.25-.05.43-.24.43-.53 0-.3-.2-.53-.54-.53-.47-.02-.94.44-1.2 1.03v-.5c0-.3-.24-.54-.54-.54-.3 0-.54.24-.54.54v3.77zm4.86.6c-.9 0-1.68-.5-1.68-1.47v-.02c0-1 .8-1.52 1.96-1.52.53 0 .9.1 1.28.2v-.1c0-.7-.42-1.05-1.18-1.05-.42 0-.76.07-1.06.2l-.17.02c-.26 0-.47-.2-.47-.45 0-.2.14-.37.3-.44.45-.17.9-.27 1.53-.27.7-.02 1.24.17 1.58.52.35.34.5.84.5 1.46v2.34c0 .3-.23.53-.52.53-.32 0-.53-.22-.53-.46v-.2c-.34.4-.83.7-1.56.7zm.3-.8c.72 0 1.27-.4 1.27-1v-.33c-.27-.1-.63-.2-1.07-.2-.7 0-1.1.3-1.1.8v.02c0 .45.4.7.9.7zm5.73 2.16c-.67 0-1.26-.15-1.84-.42-.2-.08-.3-.23-.3-.44 0-.24.2-.45.46-.45.07 0 .13.02.18.05.44.24.9.38 1.46.38.97 0 1.5-.5 1.5-1.46v-.37c-.4.5-.9.87-1.67.87-1.12 0-2.16-.83-2.16-2.22v-.02c0-1.4 1.06-2.23 2.17-2.23.8 0 1.3.37 1.67.8v-.22c0-.3.24-.54.54-.54.3 0 .54.24.54.54v3.3c0 .8-.2 1.38-.6 1.78-.43.43-1.1.64-1.95.64zm.1-2.77c.74 0 1.38-.54 1.38-1.3v-.03c0-.77-.64-1.3-1.4-1.3-.75 0-1.34.52-1.34 1.3v.02c0 .76.6 1.3 1.36 1.3zm4.64-1.4h2.45c-.07-.7-.5-1.26-1.2-1.26-.67 0-1.14.5-1.24 1.25zm3.08 2.18c-.43.38-.97.63-1.7.63-1.4 0-2.45-1-2.45-2.46v-.02c0-1.36.96-2.47 2.32-2.47 1.52 0 2.26 1.24 2.26 2.34 0 .3-.22.5-.5.5h-2.98c.12.78.67 1.22 1.37 1.22.45 0 .8-.16 1.1-.42.1-.06.17-.1.3-.1.24 0 .42.2.42.44 0 .14-.06.26-.14.34zm1.5-3.66v.1c0 .34.26.6.62.6.36.02.63-.25.63-.6v-.1c0-.36-.27-.63-.63-.63s-.63.26-.63.62zm0 3.5v.1c0 .36.26.63.62.63s.63-.27.63-.63v-.1c0-.34-.27-.6-.63-.6s-.63.26-.63.6zm-45.1 12.37v-5.64c0-.2.18-.36.36-.36h2c1.43 0 2.37.76 2.37 2v.02c0 1.35-1.12 2.06-2.47 2.06H465v1.9c0 .2-.16.36-.36.36-.18 0-.35-.16-.35-.35zm.72-2.57h1.56c1.05 0 1.73-.56 1.73-1.4 0-.9-.7-1.37-1.7-1.37H465v2.77zm7.27 2.98c-1.4 0-2.4-1.1-2.4-2.4v-.02c0-1.32 1-2.43 2.42-2.43 1.38 0 2.4 1.1 2.4 2.4v.03c0 1.3-1.03 2.43-2.43 2.43zm.02-.6c1 0 1.7-.82 1.7-1.8v-.02c0-1-.75-1.82-1.73-1.82-1 0-1.7.82-1.7 1.8v.02c0 1 .73 1.8 1.72 1.8zm3.66 1.63v-5.48c0-.2.15-.35.34-.35.2 0 .35.16.35.35v.63c.38-.56.93-1.03 1.78-1.03 1.12 0 2.23.88 2.23 2.4v.03c0 1.52-1.1 2.42-2.23 2.42-.86 0-1.42-.47-1.78-1v2.03c0 .2-.14.36-.34.36s-.34-.17-.34-.37zm2.35-1.65c.9 0 1.64-.67 1.64-1.8 0-1.1-.75-1.8-1.63-1.8-.86 0-1.68.72-1.68 1.78v.02c0 1.08.82 1.8 1.7 1.8zm7.62-3.83c0-.2-.15-.35-.34-.35-.2 0-.34.16-.34.35V133c0 .88-.6 1.47-1.4 1.47-.82 0-1.3-.54-1.3-1.4v-2.42c0-.2-.15-.35-.34-.35-.2 0-.34.16-.34.35v2.6c0 1.1.66 1.85 1.78 1.85.8 0 1.28-.4 1.6-.9v.5c0 .2.15.34.34.34.2 0 .34-.16.34-.35v-4.05zm1.62 4.04c0 .2.15.34.35.34.2 0 .33-.15.33-.35v-5.96c0-.2-.15-.36-.35-.36-.2 0-.34.17-.34.36v5.95zm3.7.4c-.87 0-1.75-.5-1.75-1.45v-.02c0-.98.8-1.5 1.98-1.5.6 0 1.02.08 1.43.2v-.17c0-.83-.5-1.26-1.37-1.26-.47 0-.87.1-1.2.26-.05.02-.1.02-.13.02-.17 0-.3-.13-.3-.3 0-.14.1-.25.18-.28.46-.2.93-.32 1.52-.32.66 0 1.16.18 1.5.52.32.3.48.76.48 1.36v2.54c0 .2-.14.34-.33.34-.2 0-.34-.14-.34-.32v-.42c-.3.42-.85.8-1.67.8zm.13-.55c.85 0 1.55-.52 1.55-1.26v-.46c-.34-.1-.8-.2-1.37-.2-.87 0-1.35.38-1.35.97v.02c0 .6.54.93 1.17.93zm5.2.53c.27 0 .48-.04.68-.13.12-.04.2-.14.2-.26 0-.18-.14-.3-.3-.3-.05 0-.18.05-.42.05-.47 0-.78-.2-.78-.77v-2.72h1.2c.17 0 .32-.14.32-.3 0-.17-.15-.3-.32-.3h-1.2v-1.1c0-.2-.17-.36-.35-.36-.2 0-.35.16-.35.35v1.1h-.37c-.17 0-.3.13-.3.3 0 .16.13.3.3.3h.37v2.82c0 .94.57 1.3 1.32 1.3zm2.08-6.07c0 .22.18.38.4.38.24 0 .42-.16.42-.37v-.1c0-.24-.18-.38-.42-.38-.22 0-.4.14-.4.37v.1zm.06 5.7c0 .2.16.34.36.34.2 0 .34-.15.34-.35v-4.05c0-.2-.15-.35-.35-.35-.2 0-.34.16-.34.35v4.04zm4.44.4c-1.4 0-2.4-1.1-2.4-2.4v-.02c0-1.32 1-2.43 2.42-2.43 1.4 0 2.42 1.1 2.42 2.4v.03c0 1.3-1.04 2.43-2.44 2.43zm.02-.6c1 0 1.7-.82 1.7-1.8v-.02c0-1-.74-1.82-1.72-1.82-1 0-1.7.82-1.7 1.8v.02c0 1 .73 1.8 1.72 1.8zm3.67.2c0 .2.15.34.35.34.2 0 .34-.15.34-.35v-2.36c0-.88.6-1.46 1.4-1.46.8 0 1.28.54 1.28 1.4v2.4c0 .2.16.36.35.36.2 0 .35-.15.35-.35v-2.6c0-1.1-.66-1.85-1.8-1.85-.8 0-1.27.4-1.58.9v-.5c0-.2-.15-.35-.35-.35-.2 0-.34.16-.34.35v4.04zm-28.24 12.38c-.14 0-.2-.04-.3-.13l-.82-.85c-.57.62-1.25 1-2.07 1-1.12 0-1.97-.72-1.97-1.77v-.02c0-.83.56-1.43 1.52-1.8-.43-.5-.63-.9-.63-1.4 0-.84.67-1.5 1.67-1.5.87 0 1.52.63 1.52 1.4v.03c0 .8-.57 1.32-1.5 1.64l1.45 1.47c.24-.35.46-.76.66-1.2.04-.07.13-.2.3-.2.17 0 .3.16.3.33 0 .05 0 .1-.03.17-.24.5-.5.95-.78 1.34l.87.9c.07.08.12.14.12.27 0 .2-.14.33-.33.33zm-2.96-3.82c.8-.26 1.2-.64 1.2-1.2 0-.5-.36-.88-.88-.88-.56 0-.95.4-.95.9v.02c0 .37.16.65.64 1.16zm-.17 3.23c.6 0 1.12-.33 1.58-.84l-1.7-1.73c-.83.3-1.2.82-1.2 1.35v.02c0 .67.54 1.2 1.32 1.2zm10.3.6c1.03 0 1.7-.35 2.33-.92.07-.05.12-.14.12-.25 0-.18-.16-.34-.34-.34-.1 0-.17.03-.23.1-.54.48-1.1.75-1.87.75-1.38 0-2.44-1.14-2.44-2.6v-.02c0-1.45 1.05-2.58 2.44-2.58.78 0 1.32.3 1.8.72.06.03.15.08.24.08.2 0 .36-.16.36-.35 0-.13-.07-.23-.14-.3-.6-.47-1.23-.8-2.25-.8-1.86 0-3.2 1.47-3.2 3.25v.02c0 1.8 1.34 3.24 3.16 3.24zm5.02 0c-.87 0-1.74-.5-1.74-1.45v-.02c0-.98.8-1.5 2-1.5.58 0 1 .08 1.42.2v-.17c0-.83-.52-1.26-1.4-1.26-.46 0-.85.1-1.2.26-.04.02-.08.02-.12.02-.16 0-.3-.13-.3-.3 0-.14.1-.25.18-.28.46-.2.93-.32 1.52-.32.66 0 1.16.18 1.5.52.32.3.48.76.48 1.36v2.54c0 .2-.14.34-.33.34-.2 0-.32-.14-.32-.32v-.42c-.33.42-.87.8-1.7.8zm.13-.55c.85 0 1.56-.52 1.56-1.26v-.46c-.36-.1-.8-.2-1.38-.2-.88 0-1.36.38-1.36.97v.02c0 .6.54.93 1.17.93zm3.7.14c0 .2.14.34.34.34s.34-.16.34-.35v-1.6c0-1.33.75-2 1.65-2.1.18-.04.3-.18.3-.37 0-.2-.13-.35-.34-.35-.57 0-1.25.47-1.6 1.25v-.88c0-.2-.14-.35-.34-.35s-.34.16-.34.35v4.04zm5.17.4c.93 0 1.66-.52 1.66-1.4v-.02c0-.84-.77-1.12-1.5-1.34-.62-.18-1.2-.35-1.2-.8 0-.4.36-.7.9-.7.4 0 .83.15 1.22.37.04.03.1.05.16.05.17 0 .3-.14.3-.3 0-.13-.08-.23-.17-.3-.45-.23-1-.38-1.48-.38-.93 0-1.6.53-1.6 1.33v.02c0 .85.8 1.1 1.54 1.3.6.18 1.16.36 1.16.83v.02c0 .45-.4.73-.96.73-.5 0-1-.17-1.48-.5-.04-.03-.1-.04-.17-.04-.18 0-.3.13-.3.3 0 .1.05.2.1.25.52.37 1.2.6 1.8.6zm-35.65 11.6v-5.96c0-.2.16-.36.35-.36.2 0 .35.16.35.36v2.54c.38-.56.92-1.03 1.78-1.03 1.12 0 2.22.88 2.22 2.4v.03c0 1.52-1.1 2.42-2.22 2.42-.87 0-1.42-.47-1.78-1v.6c0 .18-.15.34-.35.34-.2 0-.35-.16-.35-.35zm2.35-.22c.9 0 1.64-.67 1.64-1.8 0-1.1-.75-1.8-1.64-1.8-.86 0-1.68.72-1.68 1.78v.02c0 1.08.82 1.8 1.68 1.8zm4.12 2c.7 0 1.15-.36 1.55-1.33l1.82-4.34c0-.04.03-.1.03-.16 0-.18-.16-.34-.34-.34-.2 0-.3.12-.35.26l-1.44 3.67-1.6-3.66c-.07-.15-.17-.27-.36-.27-.2 0-.35.16-.35.34 0 .07 0 .13.03.2l1.95 4.12-.04.07c-.25.56-.5.82-.93.82-.23 0-.36-.03-.5-.08-.05 0-.1-.03-.17-.03-.15 0-.3.12-.3.3 0 .16.1.25.22.3.23.07.46.13.77.13zm9.4-1.37c.78 0 1.3-.3 1.76-.74.05-.05.1-.13.1-.22 0-.16-.16-.3-.33-.3-.1 0-.15.03-.2.08-.34.32-.76.57-1.3.57-.97 0-1.7-.8-1.7-1.82v-.02c0-1 .72-1.8 1.66-1.8.57 0 .95.25 1.28.56.06.04.14.08.23.08.2 0 .34-.15.34-.33 0-.1-.05-.2-.1-.25-.42-.38-.94-.67-1.72-.67-1.36 0-2.38 1.1-2.38 2.43v.02c0 1.3 1.02 2.4 2.38 2.4zm5.03 0c-1.4 0-2.4-1.1-2.4-2.4v-.02c0-1.32 1.02-2.43 2.42-2.43s2.42 1.1 2.42 2.4v.03c0 1.3-1.04 2.43-2.45 2.43zm.02-.6c1 0 1.7-.82 1.7-1.8v-.02c0-1-.74-1.82-1.72-1.82-1 0-1.7.82-1.7 1.8v.02c0 1 .74 1.8 1.72 1.8zm7.66-3.85c0-.2-.15-.35-.34-.35-.2 0-.35.16-.35.35V157c0 .88-.6 1.47-1.4 1.47-.82 0-1.3-.54-1.3-1.4v-2.42c0-.2-.15-.35-.34-.35-.2 0-.33.16-.33.35v2.6c0 1.1.66 1.85 1.78 1.85.8 0 1.28-.4 1.6-.9v.5c0 .2.15.34.34.34.2 0 .33-.16.33-.35v-4.05zm1.56 4.04c0 .2.14.34.34.34s.34-.15.34-.35v-2.36c0-.88.6-1.46 1.4-1.46.8 0 1.28.54 1.28 1.4v2.4c0 .2.15.36.35.36.2 0 .35-.15.35-.35v-2.6c0-1.1-.65-1.85-1.78-1.85-.8 0-1.28.4-1.6.9v-.5c0-.2-.14-.35-.34-.35s-.34.16-.34.35v4.04zm7.1.38c.26 0 .47-.04.67-.13.12-.04.2-.14.2-.26 0-.18-.14-.3-.3-.3-.05 0-.18.05-.42.05-.47 0-.78-.2-.78-.77v-2.72h1.2c.17 0 .32-.14.32-.3 0-.17-.16-.3-.33-.3h-1.2v-1.1c0-.2-.17-.36-.35-.36-.2 0-.35.16-.35.35v1.1h-.38c-.17 0-.3.13-.3.3 0 .16.13.3.3.3h.37v2.82c0 .94.57 1.3 1.32 1.3zm2.07-.4c0 .2.15.36.35.36.2 0 .34-.16.34-.35v-1.6c0-1.33.74-2 1.64-2.1.18-.04.3-.18.3-.37 0-.2-.13-.35-.34-.35-.58 0-1.26.47-1.6 1.25v-.88c0-.2-.15-.35-.35-.35-.18 0-.33.16-.33.35v4.04zm4.32 1.8c.7 0 1.14-.36 1.54-1.33l1.82-4.34c.02-.04.04-.1.04-.16 0-.18-.16-.34-.34-.34-.2 0-.28.12-.34.26l-1.44 3.67-1.62-3.66c-.06-.15-.16-.27-.35-.27-.2 0-.34.16-.34.34 0 .07.02.13.05.2l1.95 4.12-.04.07c-.24.56-.5.82-.92.82-.24 0-.37-.03-.5-.08-.06 0-.1-.03-.18-.03-.15 0-.3.12-.3.3 0 .16.1.25.22.3.24.07.46.13.77.13z" fill="#282D38"/><path d="M452.95 130.53l-10.23-7.2v3.25h-14.08V73.65c0-2.56-2.1-4.64-4.65-4.65h-79.36c-2.56 0-4.63 2.1-4.64 4.65V187.4c0 2.58 2.08 4.66 4.64 4.67H424c2.55 0 4.63-2.1 4.64-4.65v-52.94h14.08v3.24l10.23-7.2z" fill="#25B8EB"/><g stroke-linecap="square" stroke-linejoin="round"><use fill="#FFF" xlink:href="#c"/><path stroke="#25B8EB" stroke-width="2" d="M338.72 95.48h-12.08v21.94c0 3.1-2.53 5.64-5.65 5.65h-79.36c-3.1 0-5.63-2.54-5.64-5.66V63.66c0-3.12 2.53-5.64 5.64-5.65H321c3.1 0 5.63 2.53 5.64 5.65v21.93h12.08V81.4l12.97 9.13-12.98 9.12v-4.17z"/></g><path d="M273.3 76.5v-4.77h-1.54c-.3 0-.5-.24-.5-.52 0-.27.2-.5.5-.5h4.18c.28 0 .5.23.5.5 0 .3-.22.53-.5.53h-1.54v4.77c0 .3-.25.55-.55.55-.3 0-.56-.25-.56-.55zm4.5.6c-.9 0-1.7-.5-1.7-1.47v-.02c0-1 .8-1.52 1.97-1.52.53 0 .9.1 1.28.2v-.1c0-.7-.42-1.05-1.18-1.05-.42 0-.76.07-1.06.2l-.16.02c-.25 0-.46-.2-.46-.45 0-.2.14-.37.3-.44.45-.17.9-.27 1.53-.27.72-.02 1.25.17 1.6.52.34.34.5.84.5 1.46v2.34c0 .3-.23.53-.53.53-.32 0-.53-.22-.53-.46v-.2c-.33.4-.82.7-1.55.7zm.3-.8c.7 0 1.26-.4 1.26-1v-.33c-.28-.1-.64-.2-1.08-.2-.7 0-1.1.3-1.1.8v.02c0 .45.4.7.92.7zm3.6.2v-5.58c0-.3.24-.53.54-.53.3-.02.55.22.55.52v2.12c.34-.5.84-.9 1.6-.9 1.13 0 2.22.9 2.22 2.47v.03c0 1.58-1.08 2.47-2.2 2.47-.8 0-1.3-.4-1.63-.84v.24c0 .3-.25.55-.56.55-.3 0-.54-.25-.54-.55zm2.45-.35c.75 0 1.36-.58 1.36-1.52v-.02c0-.9-.6-1.5-1.35-1.5-.74 0-1.38.6-1.38 1.52s.64 1.53 1.38 1.53zm3.66.35c0 .3.25.55.55.55.3 0 .54-.24.54-.55v-5.58c0-.3-.25-.53-.55-.53-.3-.02-.54.23-.54.52v5.58zm3.34-2.2h2.44c-.08-.7-.5-1.26-1.2-1.26-.68 0-1.14.5-1.24 1.25zm3.06 2.18c-.43.38-.97.63-1.7.63-1.38 0-2.44-1-2.44-2.46v-.02c0-1.36.96-2.47 2.32-2.47 1.5 0 2.26 1.24 2.26 2.34 0 .3-.24.5-.52.5h-2.98c.12.78.67 1.22 1.37 1.22.47 0 .83-.16 1.14-.42.08-.06.15-.1.28-.1.24 0 .43.2.43.44 0 .14-.06.26-.15.34zm-34.3 6.54c0 .33.28.54.63.54s.62-.2.62-.54v-.05c0-.32-.27-.53-.62-.53s-.62.2-.62.53v.05zm.1 5.48c0 .3.23.55.53.55.3 0 .55-.24.55-.55v-3.76c0-.3-.24-.55-.55-.55-.3 0-.54.24-.54.54v3.77zm2.5 0c0 .3.25.55.54.55.3 0 .55-.24.55-.55v-2.18c0-.74.43-1.18 1.06-1.18.65 0 1.02.42 1.02 1.16v2.2c0 .3.24.55.55.55.3 0 .54-.24.54-.55v-2.53c0-1.1-.62-1.82-1.7-1.82-.73 0-1.17.4-1.48.83v-.24c0-.3-.25-.55-.56-.55-.3 0-.54.24-.54.54v3.77zm9.9.6c1 0 1.78-.5 1.78-1.5v-.02c0-.86-.8-1.17-1.48-1.4-.56-.17-1.07-.3-1.07-.66v-.02c0-.27.24-.47.66-.47.33 0 .72.13 1.1.33.08.03.14.05.23.05.25 0 .45-.18.45-.43 0-.2-.1-.33-.26-.42-.46-.24-1-.38-1.5-.38-.94 0-1.7.55-1.7 1.45 0 .92.8 1.2 1.5 1.4.55.18 1.06.3 1.06.67 0 .33-.27.53-.74.53-.43 0-.9-.16-1.37-.46-.06-.04-.14-.07-.23-.07-.26 0-.44.2-.44.44 0 .2.1.32.2.38.55.38 1.2.57 1.8.57zm4.4-.02c.28 0 .5-.04.74-.13.15-.06.3-.22.3-.42 0-.25-.23-.45-.47-.45-.04 0-.14.03-.27.03-.37 0-.58-.16-.58-.58v-2.34h.85c.26 0 .48-.2.48-.46 0-.27-.22-.47-.48-.47h-.85v-.8c0-.3-.25-.55-.54-.55-.3 0-.55.24-.55.54v.8h-.18c-.26 0-.47.22-.47.48s.2.46.47.46h.18v2.5c0 1.05.56 1.4 1.36 1.4zm4.22.03c-1.44 0-2.52-1.1-2.52-2.45v-.02c0-1.36 1.08-2.48 2.54-2.48s2.53 1.1 2.53 2.46v.03c0 1.35-1.08 2.48-2.55 2.48zm.02-.95c.88 0 1.44-.68 1.44-1.5v-.02c0-.83-.6-1.53-1.46-1.53-.87 0-1.43.7-1.43 1.52 0 .84.6 1.53 1.44 1.53zm3.64.35c0 .3.24.55.54.55.3 0 .55-.25.55-.55v-1.4c0-1.12.53-1.72 1.3-1.85.25-.05.43-.24.43-.53 0-.3-.2-.53-.54-.53-.47-.02-.94.44-1.2 1.03v-.5c0-.3-.24-.54-.54-.54-.3 0-.54.24-.54.54v3.77zm4.86.6c-.9 0-1.68-.5-1.68-1.47v-.02c0-1 .8-1.52 1.96-1.52.53 0 .9.1 1.28.2v-.1c0-.7-.42-1.05-1.18-1.05-.42 0-.76.07-1.06.2l-.17.02c-.26 0-.47-.2-.47-.45 0-.2.14-.37.3-.44.45-.17.9-.27 1.53-.27.7-.02 1.24.17 1.58.52.35.34.5.84.5 1.46v2.34c0 .3-.23.53-.52.53-.32 0-.53-.22-.53-.46v-.2c-.34.4-.83.7-1.56.7zm.3-.8c.72 0 1.27-.4 1.27-1v-.33c-.27-.1-.63-.2-1.07-.2-.7 0-1.1.3-1.1.8v.02c0 .45.4.7.9.7zm5.73 2.16c-.67 0-1.26-.15-1.84-.42-.2-.08-.3-.23-.3-.44 0-.24.2-.45.46-.45.07 0 .13.02.18.05.44.24.9.38 1.46.38.97 0 1.5-.5 1.5-1.46v-.37c-.4.5-.9.87-1.67.87-1.12 0-2.16-.83-2.16-2.22v-.02c0-1.4 1.06-2.23 2.17-2.23.8 0 1.3.37 1.67.8v-.22c0-.3.24-.54.54-.54.3 0 .54.24.54.54v3.3c0 .8-.2 1.38-.6 1.78-.43.43-1.1.64-1.95.64zm.1-2.77c.74 0 1.38-.54 1.38-1.3v-.03c0-.77-.64-1.3-1.4-1.3-.75 0-1.34.52-1.34 1.3v.02c0 .76.6 1.3 1.36 1.3zm4.64-1.4h2.45c-.07-.7-.5-1.26-1.2-1.26-.67 0-1.14.5-1.24 1.25zm3.08 2.18c-.43.38-.97.63-1.7.63-1.4 0-2.45-1-2.45-2.46v-.02c0-1.36.96-2.47 2.32-2.47 1.52 0 2.26 1.24 2.26 2.34 0 .3-.22.5-.5.5h-2.98c.12.78.67 1.22 1.37 1.22.45 0 .8-.16 1.1-.42.1-.06.17-.1.3-.1.24 0 .42.2.42.44 0 .14-.06.26-.14.34zm1.5-3.66v.1c0 .34.26.6.62.6.36.02.63-.25.63-.6v-.1c0-.36-.27-.63-.63-.63s-.63.26-.63.62zm0 3.5v.1c0 .36.26.63.62.63s.63-.27.63-.63v-.1c0-.34-.27-.6-.63-.6s-.63.26-.63.6zM252.9 100.7v-5.64c0-.2.17-.36.36-.36h2c1.43 0 2.36.76 2.36 2v.02c0 1.36-1.13 2.06-2.47 2.06h-1.53v1.9c0 .2-.16.36-.36.36-.2 0-.35-.16-.35-.36zm.72-2.57h1.56c1.04 0 1.72-.56 1.72-1.4 0-.9-.67-1.37-1.7-1.37h-1.58v2.77zm7.26 2.98c-1.4 0-2.4-1.1-2.4-2.4v-.02c0-1.32 1.02-2.43 2.42-2.43s2.42 1.1 2.42 2.4v.03c0 1.3-1.03 2.43-2.44 2.43zm.02-.6c1 0 1.7-.82 1.7-1.8v-.02c0-1-.74-1.82-1.72-1.82-1 0-1.7.82-1.7 1.8v.02c0 1 .74 1.8 1.72 1.8zm3.67 1.63v-5.48c0-.2.16-.35.34-.35.2 0 .37.16.37.35v.63c.37-.56.92-1.03 1.78-1.03 1.1 0 2.22.88 2.22 2.4v.03c0 1.52-1.1 2.42-2.22 2.42-.87 0-1.42-.47-1.78-1v2.03c0 .2-.15.36-.35.36-.2-.02-.35-.17-.35-.37zm2.35-1.65c.9 0 1.64-.67 1.64-1.8 0-1.1-.76-1.8-1.64-1.8-.86 0-1.68.72-1.68 1.78v.02c0 1.08.82 1.8 1.68 1.8zm7.62-3.83c0-.2-.16-.35-.35-.35-.2 0-.35.16-.35.35V99c0 .88-.6 1.47-1.4 1.47-.8 0-1.28-.54-1.28-1.4v-2.42c0-.2-.16-.35-.35-.35-.2 0-.34.16-.34.35v2.6c0 1.1.65 1.85 1.78 1.85.8 0 1.28-.4 1.6-.9v.5c0 .2.14.34.33.34.2 0 .34-.16.34-.35v-4.05zm1.62 4.04c0 .2.15.34.35.34.2 0 .35-.15.35-.35v-5.96c0-.2-.15-.35-.35-.35-.2-.02-.34.15-.34.34v5.95zm3.7.4c-.88 0-1.75-.5-1.75-1.45v-.02c0-.98.82-1.5 2-1.5.6 0 1 .08 1.43.2v-.16c0-.84-.5-1.27-1.4-1.27-.46 0-.85.1-1.2.26-.04.02-.08.02-.12.02-.15 0-.3-.13-.3-.3 0-.14.1-.24.2-.28.45-.2.92-.32 1.5-.32.67 0 1.18.17 1.52.52.3.3.47.76.47 1.36v2.54c0 .2-.15.34-.34.34-.2 0-.33-.14-.33-.32v-.42c-.33.42-.87.8-1.68.8zm.12-.55c.86 0 1.56-.52 1.56-1.26v-.46c-.34-.1-.8-.2-1.37-.2-.87 0-1.36.38-1.36.97v.02c0 .6.55.93 1.18.93zm5.2.53c.27 0 .5-.04.7-.13.1-.04.18-.14.18-.27 0-.16-.13-.3-.3-.3-.05 0-.17.07-.42.07-.46 0-.78-.2-.78-.77v-2.72h1.2c.18 0 .32-.14.32-.3 0-.17-.14-.3-.3-.3h-1.22v-1.1c0-.2-.16-.36-.35-.36-.2 0-.33.16-.33.35v1.1h-.38c-.17 0-.32.13-.32.3 0 .16.15.3.3.3h.4v2.82c0 .94.56 1.3 1.3 1.3zm2.08-6.07c0 .22.18.38.4.38.24 0 .42-.16.42-.37v-.1c0-.24-.18-.38-.4-.38-.24 0-.42.14-.42.37v.1zm.06 5.7c0 .2.16.34.36.34.2 0 .34-.15.34-.35v-4.05c0-.2-.16-.35-.35-.35-.2 0-.35.16-.35.35v4.04zm4.43.4c-1.4 0-2.4-1.1-2.4-2.4v-.02c0-1.32 1.02-2.43 2.42-2.43s2.42 1.1 2.42 2.4v.03c0 1.3-1.04 2.43-2.45 2.43zm.02-.6c1 0 1.7-.82 1.7-1.8v-.02c0-1-.74-1.82-1.72-1.82-1 0-1.7.82-1.7 1.8v.02c0 1 .74 1.8 1.72 1.8zm3.67.2c0 .2.16.34.35.34.2 0 .34-.15.34-.35v-2.36c0-.88.6-1.46 1.4-1.46.8 0 1.28.54 1.28 1.4v2.4c0 .2.15.36.35.36.2 0 .34-.15.34-.35v-2.6c0-1.1-.65-1.85-1.77-1.85-.8 0-1.3.4-1.6.9v-.5c0-.2-.15-.35-.35-.35-.18 0-.34.16-.34.35v4.04zm8.25 0v-5.96c0-.2.14-.35.33-.35.2-.02.35.14.35.34v2.54c.38-.56.93-1.03 1.78-1.03 1.12 0 2.22.88 2.22 2.4v.03c0 1.52-1.1 2.42-2.22 2.42-.86 0-1.42-.47-1.78-1v.6c0 .18-.14.34-.34.34s-.35-.16-.35-.35zm2.34-.22c.9 0 1.63-.67 1.63-1.8 0-1.1-.75-1.8-1.63-1.8-.87 0-1.7.72-1.7 1.78v.02c0 1.08.83 1.8 1.7 1.8zm4.1 2c.7 0 1.16-.36 1.57-1.33l1.82-4.34c.02-.04.04-.1.04-.16 0-.2-.15-.34-.34-.34-.18 0-.28.12-.34.26l-1.44 3.67-1.62-3.66c-.06-.15-.16-.27-.35-.27-.2 0-.35.16-.35.34 0 .07.02.13.05.2l1.94 4.1-.02.1c-.26.55-.5.8-.94.8-.23.02-.37-.02-.5-.07-.06 0-.1-.03-.18-.03-.15 0-.3.12-.3.3 0 .16.12.25.22.3.24.07.46.13.77.13zm-41.5 10.63c.78 0 1.3-.3 1.75-.74.05-.05.08-.13.08-.22 0-.16-.14-.3-.3-.3-.1 0-.17.03-.2.08-.35.32-.78.57-1.3.57-.98 0-1.72-.8-1.72-1.82v-.02c0-1 .72-1.8 1.67-1.8.56 0 .93.25 1.27.56.05.04.13.08.22.08.18 0 .33-.14.33-.33 0-.1-.05-.2-.1-.25-.42-.38-.94-.67-1.7-.67-1.37 0-2.4 1.1-2.4 2.43v.02c0 1.3 1.03 2.4 2.4 2.4zm5.03 0c-1.4 0-2.42-1.1-2.42-2.4v-.02c0-1.32 1.03-2.43 2.44-2.43 1.38 0 2.4 1.1 2.4 2.4v.03c0 1.3-1.03 2.43-2.43 2.43zm0-.6c1.02 0 1.72-.82 1.72-1.8v-.02c0-1-.75-1.82-1.73-1.82-1 0-1.7.82-1.7 1.8v.02c0 1 .73 1.8 1.7 1.8zm7.67-3.85c0-.2-.15-.35-.34-.35-.2 0-.34.16-.34.35V111c0 .88-.6 1.47-1.4 1.47-.8 0-1.28-.54-1.28-1.4v-2.42c0-.2-.16-.35-.35-.35-.2 0-.34.16-.34.35v2.6c0 1.1.64 1.85 1.77 1.85.8 0 1.28-.4 1.6-.9v.5c0 .2.14.34.33.34.2 0 .34-.16.34-.35v-4.05zm1.56 4.04c0 .2.15.34.35.34.2 0 .34-.15.34-.35v-2.36c0-.88.6-1.46 1.4-1.46.8 0 1.28.54 1.28 1.4v2.4c0 .2.15.36.35.36.2 0 .34-.15.34-.35v-2.6c0-1.1-.66-1.85-1.78-1.85-.8 0-1.3.4-1.6.9v-.5c0-.2-.16-.35-.36-.35-.2 0-.34.16-.34.35v4.04zm7.1.38c.27 0 .5-.04.7-.13.1-.04.18-.14.18-.27 0-.16-.13-.3-.3-.3-.05 0-.17.07-.42.07-.46 0-.78-.2-.78-.77v-2.72h1.2c.18 0 .32-.14.32-.3 0-.17-.14-.3-.3-.3h-1.22v-1.1c0-.2-.16-.36-.35-.36-.2 0-.34.16-.34.35v1.1h-.4c-.15 0-.3.13-.3.3 0 .16.15.3.3.3h.4v2.82c0 .94.56 1.3 1.3 1.3zm2.08-.4c0 .2.15.36.35.36.2 0 .34-.16.34-.35v-1.6c0-1.33.74-2 1.64-2.1.2-.04.32-.18.32-.36 0-.2-.14-.36-.34-.36-.6 0-1.26.47-1.6 1.25v-.88c0-.2-.16-.35-.36-.35-.2 0-.34.16-.34.35v4.04zm4.32 1.8c.7 0 1.15-.36 1.56-1.33l1.82-4.34c0-.04.03-.1.03-.16 0-.2-.14-.34-.33-.34-.18 0-.28.12-.33.26l-1.44 3.67-1.62-3.66c-.07-.15-.16-.27-.35-.27-.2 0-.36.16-.36.34 0 .07.02.13.05.2l1.94 4.1-.03.1c-.25.55-.5.8-.94.8-.24.02-.38-.02-.5-.07-.07 0-.12-.03-.18-.03-.16 0-.3.12-.3.3 0 .16.1.25.22.3.23.07.46.13.76.13z" fill="#282D38"/><g stroke-linecap="square" stroke-linejoin="round"><use fill="#FFF" xlink:href="#d"/><path stroke="#25B8EB" stroke-width="2" d="M338.72 175.48h-12.08v21.94c0 3.1-2.53 5.64-5.65 5.65h-79.36c-3.1 0-5.63-2.54-5.64-5.66v-53.75c0-3.12 2.53-5.64 5.64-5.65H321c3.1 0 5.63 2.53 5.64 5.65v21.93h12.08v-4.17l12.97 9.13-12.98 9.12v-4.17z"/></g><path d="M273.3 156.5v-4.77h-1.54c-.3 0-.5-.24-.5-.52 0-.27.2-.5.5-.5h4.18c.28 0 .5.23.5.5 0 .3-.22.53-.5.53h-1.54v4.77c0 .3-.25.54-.55.54-.3 0-.56-.24-.56-.54zm4.5.6c-.9 0-1.7-.5-1.7-1.47v-.02c0-1 .8-1.52 1.97-1.52.53 0 .9.08 1.28.2v-.12c0-.67-.42-1.03-1.18-1.03-.42 0-.76.07-1.06.2l-.16.02c-.25 0-.46-.2-.46-.45 0-.2.14-.37.3-.44.45-.17.9-.28 1.53-.28.72 0 1.25.2 1.6.54.34.34.5.84.5 1.46v2.34c0 .3-.23.52-.53.52-.32 0-.53-.2-.53-.45v-.2c-.33.4-.82.7-1.55.7zm.3-.8c.7 0 1.26-.4 1.26-1v-.33c-.28-.1-.64-.2-1.08-.2-.7 0-1.1.3-1.1.8v.02c0 .45.4.7.92.7zm3.6.2v-5.57c0-.3.24-.55.54-.55.3 0 .55.24.55.55v2.1c.34-.5.84-.88 1.6-.88 1.13 0 2.22.88 2.22 2.47 0 1.6-1.08 2.48-2.2 2.48-.8 0-1.3-.4-1.63-.84v.25c0 .3-.25.54-.56.54-.3 0-.54-.24-.54-.53zm2.45-.35c.75 0 1.36-.58 1.36-1.52 0-.93-.6-1.54-1.35-1.54-.74 0-1.38.6-1.38 1.52s.64 1.53 1.38 1.53zm3.66.35c0 .3.25.54.55.54.3 0 .54-.23.54-.53v-5.57c0-.3-.25-.55-.55-.55-.3 0-.54.25-.54.55v5.57zm3.34-2.2h2.44c-.08-.7-.5-1.26-1.2-1.26-.68 0-1.14.5-1.24 1.25zm3.06 2.18c-.43.4-.97.63-1.7.63-1.38 0-2.44-1-2.44-2.46v-.02c0-1.36.96-2.47 2.32-2.47 1.5 0 2.26 1.24 2.26 2.34 0 .3-.24.5-.52.5h-2.98c.12.78.67 1.22 1.37 1.22.47 0 .83-.16 1.14-.42.08-.06.15-.1.28-.1.24 0 .43.2.43.45 0 .13-.06.25-.15.33zm-34.3 6.54c0 .33.28.54.63.54s.62-.2.62-.54v-.05c0-.32-.27-.53-.62-.53s-.62.2-.62.53v.05zm.1 5.48c0 .3.23.54.53.54.3 0 .55-.23.55-.53v-3.76c0-.3-.24-.55-.55-.55-.3 0-.54.24-.54.54v3.76zm2.5 0c0 .3.25.54.54.54.3 0 .55-.23.55-.53v-2.18c0-.74.43-1.18 1.06-1.18.65 0 1.02.42 1.02 1.16v2.2c0 .3.24.54.55.54.3 0 .54-.23.54-.53v-2.53c0-1.1-.62-1.82-1.7-1.82-.73 0-1.17.4-1.48.83v-.24c0-.3-.25-.55-.56-.55-.3 0-.54.24-.54.54v3.76zm9.9.6c1 0 1.78-.5 1.78-1.5v-.02c0-.86-.8-1.17-1.48-1.4-.56-.17-1.07-.3-1.07-.66v-.02c0-.27.24-.47.66-.47.33 0 .72.13 1.1.32.08.04.14.06.23.06.25 0 .45-.18.45-.43 0-.2-.1-.34-.26-.42-.46-.24-1-.38-1.5-.38-.94 0-1.7.55-1.7 1.45 0 .92.8 1.2 1.5 1.4.55.18 1.06.3 1.06.67 0 .33-.27.53-.74.53-.43 0-.9-.16-1.37-.46-.06-.04-.14-.07-.23-.07-.26 0-.44.2-.44.45 0 .17.1.3.2.37.55.38 1.2.57 1.8.57zm4.4-.02c.28 0 .5-.04.74-.13.15-.06.3-.22.3-.42 0-.25-.23-.45-.47-.45-.04 0-.14.03-.27.03-.37 0-.58-.16-.58-.6v-2.32h.85c.26 0 .48-.2.48-.46s-.22-.47-.48-.47h-.85v-.8c0-.3-.25-.55-.54-.55-.3 0-.55.24-.55.54v.8h-.18c-.26 0-.47.22-.47.48s.2.46.47.46h.18v2.5c0 1.05.56 1.4 1.36 1.4zm4.22.03c-1.44 0-2.52-1.1-2.52-2.45v-.02c0-1.36 1.08-2.48 2.54-2.48s2.53 1.1 2.53 2.47c0 1.36-1.08 2.5-2.55 2.5zm.02-.95c.88 0 1.44-.68 1.44-1.5v-.02c0-.83-.6-1.53-1.46-1.53-.87 0-1.43.7-1.43 1.52 0 .84.6 1.53 1.44 1.53zm3.64.35c0 .3.24.54.54.54.3 0 .55-.24.55-.53v-1.4c0-1.12.53-1.72 1.3-1.85.25-.05.43-.24.43-.53 0-.3-.2-.53-.54-.53-.47 0-.94.44-1.2 1.03v-.5c0-.3-.24-.54-.54-.54-.3 0-.54.24-.54.54v3.76zm4.86.6c-.9 0-1.68-.5-1.68-1.47v-.02c0-1 .8-1.52 1.96-1.52.53 0 .9.08 1.28.2v-.12c0-.67-.42-1.03-1.18-1.03-.42 0-.76.07-1.06.2l-.17.02c-.26 0-.47-.2-.47-.45 0-.2.14-.37.3-.44.45-.17.9-.28 1.53-.28.7 0 1.24.2 1.58.54.35.34.5.84.5 1.46v2.34c0 .3-.23.52-.52.52-.32 0-.53-.2-.53-.45v-.2c-.34.4-.83.7-1.56.7zm.3-.8c.72 0 1.27-.4 1.27-1v-.33c-.27-.1-.63-.2-1.07-.2-.7 0-1.1.3-1.1.8v.02c0 .45.4.7.9.7zm5.73 2.16c-.67 0-1.26-.15-1.84-.43-.2-.07-.3-.22-.3-.43 0-.24.2-.45.46-.45.07 0 .13.02.18.05.44.24.9.38 1.46.38.97 0 1.5-.5 1.5-1.46v-.37c-.4.5-.9.87-1.67.87-1.12 0-2.16-.83-2.16-2.22v-.02c0-1.4 1.06-2.23 2.17-2.23.8 0 1.3.37 1.67.8v-.22c0-.3.24-.54.54-.54.3 0 .54.24.54.54v3.3c0 .8-.2 1.38-.6 1.78-.43.43-1.1.64-1.95.64zm.1-2.77c.74 0 1.38-.54 1.38-1.3v-.03c0-.77-.64-1.3-1.4-1.3-.75 0-1.34.52-1.34 1.3v.02c0 .76.6 1.3 1.36 1.3zm4.64-1.4h2.45c-.07-.7-.5-1.26-1.2-1.26-.67 0-1.14.5-1.24 1.25zm3.08 2.18c-.43.4-.97.63-1.7.63-1.4 0-2.45-1-2.45-2.46v-.02c0-1.36.96-2.47 2.32-2.47 1.52 0 2.26 1.24 2.26 2.34 0 .3-.22.5-.5.5h-2.98c.12.78.67 1.22 1.37 1.22.45 0 .8-.16 1.1-.42.1-.06.17-.1.3-.1.24 0 .42.2.42.45 0 .13-.06.25-.14.33zm1.5-3.66v.1c0 .34.26.62.62.62s.63-.28.63-.63v-.08c0-.36-.27-.63-.63-.63s-.63.26-.63.62zm0 3.5v.1c0 .36.26.63.62.63s.63-.28.63-.63v-.1c0-.34-.27-.6-.63-.6s-.63.26-.63.6zm-28.1 12.8c1.04 0 1.72-.37 2.34-.94.06-.05.12-.14.12-.25 0-.18-.16-.34-.34-.34-.1 0-.17.03-.23.1-.54.48-1.1.75-1.87.75-1.4 0-2.44-1.14-2.44-2.6v-.02c0-1.45 1.04-2.58 2.44-2.58.77 0 1.32.3 1.8.72.06.03.14.08.24.08.2 0 .36-.16.36-.35 0-.13-.07-.23-.14-.3-.6-.47-1.24-.8-2.25-.8-1.85 0-3.18 1.47-3.18 3.25v.02c0 1.8 1.34 3.24 3.16 3.24zm5.03-.02c-.85 0-1.73-.5-1.73-1.45v-.02c0-.98.8-1.5 2-1.5.6 0 1 .08 1.43.2v-.17c0-.83-.52-1.26-1.4-1.26-.46 0-.86.1-1.2.26-.04.02-.1.02-.12.02-.16 0-.3-.13-.3-.3 0-.14.1-.25.18-.28.46-.2.93-.32 1.52-.32.66 0 1.16.18 1.5.52.32.3.48.76.48 1.36v2.54c0 .2-.14.34-.33.34-.2 0-.33-.14-.33-.32v-.42c-.33.42-.87.8-1.7.8zm.15-.55c.85 0 1.55-.52 1.55-1.26v-.46c-.34-.1-.8-.2-1.36-.2-.88 0-1.36.38-1.36.97v.02c0 .6.54.93 1.17.93zm3.7.14c0 .2.14.34.34.34s.33-.16.33-.35v-1.6c0-1.33.74-2 1.64-2.1.18-.04.3-.18.3-.37 0-.2-.13-.35-.34-.35-.58 0-1.26.47-1.6 1.25v-.88c0-.2-.15-.35-.35-.35-.2 0-.34.16-.34.35v4.04zm5.17.4c.93 0 1.66-.52 1.66-1.4v-.02c0-.84-.78-1.12-1.5-1.34-.62-.18-1.2-.35-1.2-.8 0-.4.36-.7.9-.7.4 0 .82.15 1.22.37.04.03.1.05.15.05.18 0 .3-.14.3-.3 0-.13-.07-.23-.16-.3-.46-.23-1-.38-1.5-.38-.9 0-1.58.53-1.58 1.33v.02c0 .85.8 1.1 1.54 1.3.6.18 1.16.36 1.16.83v.02c0 .45-.4.73-.96.73-.5 0-1-.17-1.48-.5-.04-.03-.1-.04-.17-.04-.16 0-.3.13-.3.3 0 .1.07.2.13.25.5.37 1.18.6 1.8.6zm-31.17 11.6v-5.96c0-.2.16-.36.35-.36.2 0 .35.16.35.36v2.54c.38-.56.92-1.03 1.78-1.03 1.12 0 2.22.88 2.22 2.4v.03c0 1.52-1.1 2.42-2.22 2.42-.87 0-1.42-.47-1.78-1v.6c0 .18-.15.34-.35.34-.2 0-.35-.16-.35-.35zm2.35-.22c.9 0 1.64-.67 1.64-1.8 0-1.1-.75-1.8-1.64-1.8-.86 0-1.68.72-1.68 1.78v.02c0 1.08.82 1.8 1.68 1.8zm4.12 2c.7 0 1.15-.36 1.55-1.33l1.82-4.34c0-.04.03-.1.03-.16 0-.18-.16-.34-.34-.34-.2 0-.3.12-.35.26l-1.44 3.67-1.6-3.66c-.07-.15-.17-.27-.36-.27-.2 0-.35.16-.35.34 0 .07 0 .13.03.2l1.95 4.12-.04.07c-.25.56-.5.82-.93.82-.23 0-.36-.03-.5-.08-.05 0-.1-.03-.17-.03-.15 0-.3.12-.3.3 0 .16.1.25.22.3.23.07.46.13.77.13zm9.4-1.37c.78 0 1.3-.3 1.76-.74.05-.05.1-.13.1-.22 0-.16-.16-.3-.33-.3-.1 0-.15.03-.2.08-.34.32-.76.57-1.3.57-.97 0-1.7-.8-1.7-1.82v-.02c0-1 .72-1.8 1.66-1.8.57 0 .95.25 1.28.56.06.04.14.08.23.08.2 0 .34-.15.34-.33 0-.1-.05-.2-.1-.25-.42-.38-.94-.67-1.72-.67-1.36 0-2.38 1.1-2.38 2.43v.02c0 1.3 1.02 2.4 2.38 2.4zm5.03 0c-1.4 0-2.4-1.1-2.4-2.4v-.02c0-1.32 1.02-2.43 2.42-2.43s2.42 1.1 2.42 2.4v.03c0 1.3-1.04 2.43-2.45 2.43zm.02-.6c1 0 1.7-.82 1.7-1.8v-.02c0-1-.74-1.82-1.72-1.82-1 0-1.7.82-1.7 1.8v.02c0 1 .74 1.8 1.72 1.8zm7.66-3.85c0-.2-.15-.35-.34-.35-.2 0-.35.16-.35.35V191c0 .88-.6 1.47-1.4 1.47-.82 0-1.3-.54-1.3-1.4v-2.42c0-.2-.15-.35-.34-.35-.2 0-.33.16-.33.35v2.6c0 1.1.66 1.85 1.78 1.85.8 0 1.28-.4 1.6-.9v.5c0 .2.15.34.34.34.2 0 .33-.16.33-.35v-4.05zm1.56 4.04c0 .2.14.34.34.34s.34-.15.34-.35v-2.36c0-.88.6-1.46 1.4-1.46.8 0 1.28.54 1.28 1.4v2.4c0 .2.15.36.35.36.2 0 .35-.15.35-.35v-2.6c0-1.1-.65-1.85-1.78-1.85-.8 0-1.28.4-1.6.9v-.5c0-.2-.14-.35-.34-.35s-.34.16-.34.35v4.04zm7.1.38c.26 0 .47-.04.67-.13.12-.04.2-.14.2-.26 0-.18-.14-.3-.3-.3-.05 0-.18.05-.42.05-.47 0-.78-.2-.78-.77v-2.72h1.2c.17 0 .32-.14.32-.3 0-.17-.16-.3-.33-.3h-1.2v-1.1c0-.2-.17-.36-.35-.36-.2 0-.35.16-.35.35v1.1h-.38c-.17 0-.3.13-.3.3 0 .16.13.3.3.3h.37v2.82c0 .94.57 1.3 1.32 1.3zm2.07-.4c0 .2.15.36.35.36.2 0 .34-.16.34-.35v-1.6c0-1.33.74-2 1.64-2.1.18-.04.3-.18.3-.37 0-.2-.13-.35-.34-.35-.58 0-1.26.47-1.6 1.25v-.88c0-.2-.15-.35-.35-.35-.18 0-.33.16-.33.35v4.04zm4.32 1.8c.7 0 1.14-.36 1.54-1.33l1.82-4.34c.02-.04.04-.1.04-.16 0-.18-.16-.34-.34-.34-.2 0-.28.12-.34.26l-1.44 3.67-1.62-3.66c-.06-.15-.16-.27-.35-.27-.2 0-.34.16-.34.34 0 .07.02.13.05.2l1.95 4.12-.04.07c-.24.56-.5.82-.92.82-.24 0-.37-.03-.5-.08-.06 0-.1-.03-.18-.03-.15 0-.3.12-.3.3 0 .16.1.25.22.3.24.07.46.13.77.13z" fill="#282D38"/><path d="M222.64 86.24v-22.6c0-2.55-2.1-4.63-4.65-4.64h-59.36c-2.56 0-4.63 2.1-4.64 4.65V197.4c0 2.58 2.08 4.66 4.64 4.67H218c2.55 0 4.63-2.1 4.64-4.65v-22.94h14.08v3.24l10.23-7.2-10.23-7.18v3.24h-14.08V94.14h14.44v3.25l10.24-7.2-10.24-7.2v3.24h-14.44z" fill="#25B8EB"/><path d="M169.8 136h3.55c.34 0 .62-.27.62-.6 0-.35-.28-.63-.62-.63h-2.85v-1.33h2.4c.34 0 .62-.27.62-.6 0-.35-.28-.63-.62-.63h-2.4v-1.27h2.8c.35 0 .63-.27.63-.6 0-.35-.28-.63-.63-.63h-3.5c-.37 0-.68.3-.68.7v4.9c0 .4.3.7.7.7zm4.95-.52c0 .34.28.6.64.6.24 0 .42-.16.6-.36l.96-1.28.97 1.28c.18.23.37.35.64.35.34 0 .63-.24.63-.63 0-.18-.07-.34-.23-.52l-1.2-1.4 1.17-1.35c.1-.14.2-.28.2-.47 0-.34-.3-.6-.65-.6-.25 0-.44.16-.6.36l-.9 1.18-.9-1.18c-.2-.23-.37-.36-.64-.36-.35 0-.63.25-.63.63 0 .18.07.35.22.53l1.13 1.3-1.24 1.45c-.1.15-.2.3-.2.48zm7.05.6c.3 0 .53-.04.78-.13.2-.08.35-.27.35-.52 0-.3-.26-.56-.56-.56h-.16c-.3 0-.44-.15-.44-.46v-2.05h.6c.33 0 .6-.26.6-.6 0-.3-.27-.57-.6-.57h-.6v-.6c0-.4-.3-.7-.68-.7-.38 0-.68.3-.68.7v.6h-.05c-.32 0-.58.26-.58.58 0 .33.26.6.58.6h.05v2.27c0 1.12.56 1.45 1.4 1.45zm2.1-.7c0 .37.3.67.7.67.37 0 .67-.3.67-.68v-1.28c0-.98.4-1.5 1.08-1.67.28-.07.52-.28.52-.64 0-.4-.25-.68-.67-.68-.4 0-.73.43-.93.9v-.2c0-.4-.3-.7-.68-.7-.4 0-.7.3-.7.7v3.55zm4.9.7c-.9 0-1.64-.5-1.64-1.47 0-1.06.8-1.54 1.94-1.54.5 0 .84.08 1.18.2v-.1c0-.55-.35-.87-1.04-.87-.37 0-.68.05-.94.13l-.2.03c-.3 0-.57-.24-.57-.56 0-.24.16-.44.37-.53.43-.16.9-.25 1.54-.25.75 0 1.3.2 1.63.54.36.36.52.9.52 1.54v2.2c0 .37-.3.65-.67.65-.4 0-.66-.28-.66-.56v-.02c-.33.37-.8.6-1.46.6zm.43-.94c.63 0 1.07-.35 1.07-.84v-.24c-.24-.1-.54-.18-.88-.18-.58 0-.94.23-.94.66v.02c0 .37.3.6.75.6zm5.82.97c.8 0 1.3-.24 1.7-.6.13-.12.2-.26.2-.44 0-.33-.25-.6-.57-.6-.16 0-.3.08-.37.14-.25.2-.53.33-.9.33-.74 0-1.2-.6-1.2-1.33v-.02c0-.7.47-1.32 1.16-1.32.36 0 .6.12.85.3.1.07.23.15.4.15.35 0 .63-.26.63-.6 0-.24-.13-.4-.22-.47-.4-.35-.9-.54-1.63-.54-1.48 0-2.53 1.12-2.53 2.5v.02c0 1.37 1.06 2.5 2.5 2.5zm4.5-.02c.3 0 .52-.04.77-.13.2-.08.35-.27.35-.52 0-.3-.26-.56-.56-.56h-.16c-.3 0-.44-.15-.44-.46v-2.05h.6c.33 0 .6-.26.6-.6 0-.3-.27-.57-.6-.57h-.6v-.6c0-.4-.3-.7-.68-.7-.38 0-.68.3-.68.7v.6h-.05c-.33 0-.6.26-.6.58 0 .33.27.6.6.6h.04v2.27c0 1.12.56 1.45 1.4 1.45zm4.33.03c-1.5 0-2.6-1.1-2.6-2.48v-.02c0-1.4 1.1-2.5 2.62-2.5 1.5 0 2.6 1.1 2.6 2.48v.02c0 1.38-1.12 2.5-2.62 2.5zm.02-1.17c.78 0 1.25-.6 1.25-1.3v-.03c0-.7-.52-1.34-1.27-1.34-.8 0-1.25.6-1.25 1.32v.02c0 .7.5 1.33 1.27 1.33zm3.6.44c0 .38.3.68.67.68.38 0 .68-.3.68-.68v-1.28c0-.98.4-1.5 1.08-1.67.28-.07.52-.28.52-.64 0-.4-.25-.68-.67-.68-.4 0-.73.43-.93.9v-.2c0-.4-.3-.7-.68-.7-.38 0-.68.3-.68.7v3.55zM352.1 134.36c0 .4.3.7.7.7.38 0 .7-.3.7-.7v-4.38h1.32c.35 0 .64-.3.64-.64 0-.35-.3-.64-.64-.64h-4.05c-.35 0-.64.3-.64.64 0 .35.3.64.64.64h1.33v4.38zm3.7 0c0 .4.3.7.67.7.38 0 .68-.3.68-.7v-1.27c0-.98.4-1.5 1.08-1.67.28-.07.52-.28.52-.64 0-.4-.25-.68-.67-.68-.4 0-.73.43-.93.9v-.2c0-.4-.3-.7-.68-.7-.38 0-.68.3-.68.7v3.55zm4.9.73c-.92 0-1.67-.53-1.67-1.5 0-1.06.8-1.54 1.95-1.54.48 0 .84.08 1.18.2v-.1c0-.55-.35-.87-1.04-.87-.38 0-.68.05-.94.13l-.2.03c-.32 0-.57-.24-.57-.56 0-.24.17-.44.38-.53.43-.16.9-.25 1.54-.25.75 0 1.3.2 1.63.54.36.36.52.9.52 1.54v2.2c0 .37-.3.65-.66.65-.4 0-.65-.28-.65-.56v-.02c-.33.37-.8.6-1.46.6zm.4-.95c.64 0 1.08-.36 1.08-.85v-.24c-.24-.1-.54-.18-.88-.18-.58 0-.94.23-.94.66v.02c0 .37.3.6.74.6zm3.55.22c0 .38.3.68.68.68.38 0 .7-.3.7-.68v-2.06c0-.64.32-.97.84-.97.53 0 .83.33.83.98v2.07c0 .38.3.68.7.68.36 0 .67-.3.67-.68v-2.5c0-1.1-.6-1.78-1.64-1.78-.7 0-1.1.36-1.4.76v-.05c0-.37-.32-.68-.7-.68-.37 0-.68.3-.68.7v3.55zm7.3.72c1.04 0 1.84-.5 1.84-1.57v-.02c0-.87-.8-1.2-1.46-1.42-.53-.18-.98-.3-.98-.57 0-.2.17-.34.5-.34.3 0 .66.1 1.04.3.1.05.16.07.26.07.3 0 .54-.24.54-.54 0-.25-.12-.43-.32-.53-.47-.23-1-.37-1.5-.37-.97 0-1.76.55-1.76 1.53v.02c0 .94.77 1.25 1.44 1.45.53.16 1 .26 1 .56v.02c0 .2-.18.36-.57.36-.4 0-.86-.15-1.32-.44-.07-.04-.17-.07-.27-.07-.3 0-.53.24-.53.54 0 .22.12.38.26.47.6.38 1.23.55 1.82.55zm3.06-.73c0 .38.32.68.7.68.37 0 .68-.3.68-.68v-3.02h.57c.32 0 .57-.25.57-.56 0-.33-.25-.57-.57-.57h-.6v-.2c0-.35.2-.5.5-.5h.12c.3 0 .56-.27.56-.58 0-.3-.23-.5-.47-.55-.15-.02-.34-.03-.56-.03-.48 0-.85.12-1.1.38-.26.25-.4.63-.4 1.16v.32h-.04c-.32 0-.57.25-.57.57 0 .3.24.55.56.55h.05v3.02zm5.5.74c-1.5 0-2.6-1.1-2.6-2.48v-.02c0-1.4 1.1-2.5 2.6-2.5s2.6 1.1 2.6 2.48v.02c0 1.38-1.1 2.5-2.6 2.5zm0-1.17c.8 0 1.26-.6 1.26-1.3v-.03c0-.7-.5-1.34-1.27-1.34-.8 0-1.26.6-1.26 1.32v.02c0 .7.5 1.33 1.27 1.33zm3.6.44c0 .38.3.68.68.68.38 0 .7-.3.7-.68v-1.28c0-.98.37-1.5 1.07-1.67.28-.07.5-.28.5-.64 0-.4-.23-.68-.66-.68-.4 0-.73.43-.93.9v-.2c0-.4-.3-.7-.7-.7-.36 0-.67.3-.67.7v3.55zm3.76 0c0 .38.3.68.7.68.36 0 .67-.3.67-.68v-2.06c0-.64.3-.97.83-.97.5 0 .8.33.8.98v2.07c0 .38.3.68.68.68.38 0 .7-.3.7-.68v-2.06c0-.64.3-.97.8-.97.53 0 .82.33.82.98v2.07c0 .38.3.68.68.68.38 0 .68-.3.68-.68v-2.5c0-1.17-.6-1.78-1.63-1.78-.66 0-1.17.26-1.6.75-.24-.48-.72-.76-1.35-.76-.7 0-1.1.36-1.42.76v-.05c0-.37-.3-.68-.68-.68-.38 0-.7.3-.7.7v3.55zm9.92.72c-.9 0-1.66-.53-1.66-1.5 0-1.06.8-1.54 1.95-1.54.48 0 .83.08 1.18.2v-.1c0-.55-.35-.87-1.04-.87-.37 0-.67.05-.93.13l-.2.03c-.32 0-.57-.24-.57-.56 0-.24.15-.44.37-.53.43-.16.9-.25 1.54-.25.76 0 1.3.2 1.64.54.36.36.52.9.52 1.54v2.2c0 .37-.3.65-.67.65-.4 0-.66-.28-.66-.56v-.02c-.34.37-.8.6-1.46.6zm.4-.95c.65 0 1.08-.36 1.08-.85v-.24c-.23-.1-.54-.18-.87-.18-.6 0-.95.23-.95.66v.02c0 .37.3.6.74.6zm5.14.93c.3 0 .53-.04.8-.13.18-.08.34-.27.34-.52 0-.3-.26-.56-.57-.56h-.17c-.3 0-.44-.15-.44-.46v-2.05h.6c.3 0 .58-.26.58-.6 0-.3-.27-.57-.6-.57h-.6v-.6c0-.4-.3-.7-.68-.7-.37 0-.68.3-.68.7v.6h-.05c-.32 0-.58.26-.58.58 0 .33.25.6.57.6h.05v2.27c0 1.12.57 1.45 1.4 1.45zm2.1-6.04c0 .4.32.65.76.65.43 0 .76-.26.76-.66v-.02c0-.4-.33-.64-.76-.64-.44 0-.77.25-.77.64v.02zm.07 5.33c0 .38.3.68.68.68.37 0 .68-.3.68-.68v-3.56c0-.37-.3-.68-.68-.68-.38 0-.7.3-.7.7v3.55zm5 .74c-1.48 0-2.6-1.1-2.6-2.48v-.02c0-1.4 1.13-2.5 2.63-2.5s2.6 1.1 2.6 2.48v.02c0 1.38-1.1 2.5-2.62 2.5zm.03-1.17c.8 0 1.25-.6 1.25-1.3v-.03c0-.7-.5-1.34-1.27-1.34s-1.24.6-1.24 1.32v.02c0 .7.52 1.33 1.27 1.33zm3.6.44c0 .38.3.68.68.68.4 0 .7-.3.7-.68v-2.06c0-.64.32-.97.85-.97.52 0 .82.33.82.98v2.07c0 .38.3.68.7.68.37 0 .67-.3.67-.68v-2.5c0-1.1-.6-1.78-1.64-1.78-.7 0-1.1.36-1.4.76v-.05c0-.37-.3-.68-.7-.68-.37 0-.68.3-.68.7v3.55z" fill="#FFF"/><g stroke-linecap="square" stroke-linejoin="round"><use fill="#FFF" xlink:href="#e"/><path stroke="#25B8EB" stroke-width="2" d="M152.72 95.48h-43.08v16.94c0 3.1-2.53 5.64-5.65 5.65H4.63c-3.1 0-5.63-2.54-5.64-5.66V68.66C-1 65.53 1.53 63 4.64 63H104c3.1 0 5.63 2.53 5.64 5.65v16.93h43.08V81.4l12.97 9.13-12.98 9.12v-4.17z"/></g><path d="M16.5 82.5v-4.77h-1.54c-.28 0-.5-.24-.5-.52 0-.27.22-.5.5-.5h4.2c.27 0 .5.23.5.5 0 .3-.23.53-.5.53H17.6v4.77c0 .3-.24.55-.55.55-.3 0-.56-.25-.56-.55zm4.5.6c-.9 0-1.7-.5-1.7-1.47v-.02c0-1 .8-1.52 1.97-1.52.53 0 .9.1 1.28.2v-.1c0-.7-.4-1.05-1.18-1.05-.4 0-.75.07-1.05.2l-.17.02c-.25 0-.46-.2-.46-.45 0-.2.12-.37.3-.44.44-.17.9-.27 1.52-.27.7-.02 1.24.17 1.57.52.34.34.5.84.5 1.46v2.34c0 .3-.23.53-.53.53-.3 0-.53-.22-.53-.46v-.2c-.32.4-.82.7-1.55.7zm.3-.8c.72 0 1.27-.4 1.27-1v-.33c-.28-.1-.65-.2-1.08-.2-.7 0-1.13.3-1.13.8v.02c0 .45.4.7.93.7zm3.6.2v-5.58c0-.3.24-.53.55-.53.3-.02.55.22.55.52v2.12c.35-.5.84-.9 1.62-.9 1.1 0 2.2.9 2.2 2.47v.03c0 1.58-1.08 2.47-2.2 2.47-.8 0-1.3-.4-1.62-.84v.24c0 .3-.25.55-.55.55-.3 0-.54-.25-.54-.55zm2.46-.35c.74 0 1.36-.58 1.36-1.52v-.02c0-.9-.63-1.5-1.36-1.5-.74 0-1.4.6-1.4 1.52s.66 1.53 1.4 1.53zm3.65.35c0 .3.25.55.55.55.3 0 .55-.24.55-.55v-5.58c0-.3-.24-.53-.55-.53-.3-.02-.54.23-.54.52v5.58zm3.34-2.2h2.44c-.07-.7-.5-1.26-1.2-1.26-.67 0-1.14.5-1.24 1.25zm3.07 2.18c-.42.38-.96.63-1.7.63-1.38 0-2.44-1-2.44-2.46v-.02c0-1.36.96-2.47 2.32-2.47 1.5 0 2.26 1.24 2.26 2.34 0 .3-.23.5-.5.5h-3c.13.78.68 1.22 1.38 1.22.46 0 .82-.16 1.12-.42.08-.06.16-.1.28-.1.24 0 .43.2.43.44 0 .14-.06.26-.14.34zm4.24-5.46c0 .33.27.54.62.54s.62-.2.62-.54v-.05c0-.32-.27-.53-.62-.53s-.62.2-.62.53v.05zm.08 5.48c0 .3.24.55.54.55.3 0 .55-.24.55-.55v-3.76c0-.3-.23-.55-.54-.55-.3 0-.54.24-.54.54v3.77zm2.5 0c0 .3.25.55.55.55.3 0 .55-.24.55-.55v-2.18c0-.74.44-1.18 1.07-1.18.64 0 1 .42 1 1.16v2.2c0 .3.25.55.56.55.3 0 .54-.24.54-.55v-2.53c0-1.1-.62-1.82-1.7-1.82-.73 0-1.17.4-1.48.83v-.24c0-.3-.24-.55-.55-.55-.3 0-.54.24-.54.54v3.77zm12.96-5.58v5.58c0 .3-.24.55-.54.55-.3 0-.55-.24-.55-.55v-.3c-.36.5-.85.9-1.63.9-1.1 0-2.2-.9-2.2-2.47v-.02c0-1.56 1.07-2.45 2.2-2.45.8 0 1.28.4 1.62.84V76.9c0-.3.24-.53.53-.53.3-.02.55.22.55.52zm-2.45 2.17c-.74 0-1.36.57-1.36 1.52 0 .93.63 1.53 1.36 1.53.73 0 1.38-.6 1.38-1.52v-.02c0-.9-.64-1.5-1.37-1.5zm5.2 4c-.9 0-1.7-.5-1.7-1.47v-.02c0-1 .8-1.52 1.97-1.52.53 0 .9.1 1.28.2v-.1c0-.7-.42-1.05-1.18-1.05-.42 0-.76.07-1.06.2l-.17.02c-.25 0-.46-.2-.46-.45 0-.2.15-.37.3-.44.46-.17.92-.27 1.54-.27.7-.02 1.24.17 1.58.52.35.34.5.84.5 1.46v2.34c0 .3-.23.53-.52.53-.32 0-.53-.22-.53-.46v-.2c-.33.4-.82.7-1.55.7zm.3-.8c.7 0 1.26-.4 1.26-1v-.33c-.3-.1-.65-.2-1.1-.2-.7 0-1.1.3-1.1.8v.02c0 .45.4.7.92.7zm5.15.78c.3 0 .5-.04.75-.13.15-.06.3-.22.3-.42 0-.25-.23-.45-.47-.45-.04 0-.15.03-.27.03-.38 0-.6-.16-.6-.58v-2.34h.86c.26 0 .47-.2.47-.46 0-.27-.2-.47-.47-.47h-.86v-.8c0-.3-.24-.55-.54-.55-.3 0-.55.24-.55.54v.8h-.17c-.26 0-.46.22-.46.48s.2.46.46.46H64v2.5c0 1.05.58 1.4 1.38 1.4zm3.48.02c-.9 0-1.7-.5-1.7-1.47v-.02c0-1 .8-1.52 1.97-1.52.54 0 .9.1 1.28.2v-.1c0-.7-.4-1.05-1.17-1.05-.4 0-.75.07-1.05.2l-.17.02c-.24 0-.45-.2-.45-.45 0-.2.14-.37.3-.44.45-.17.9-.27 1.53-.27.7-.02 1.24.17 1.57.52.35.34.52.84.52 1.46v2.34c0 .3-.24.53-.54.53-.3 0-.53-.22-.53-.46v-.2c-.32.4-.82.7-1.54.7zm.3-.8c.72 0 1.27-.4 1.27-1v-.33c-.28-.1-.65-.2-1.08-.2-.7 0-1.12.3-1.12.8v.02c0 .45.4.7.93.7zm3.6.2v-5.58c0-.3.24-.53.55-.53.32-.02.56.22.56.52v2.12c.35-.5.85-.9 1.62-.9 1.12 0 2.2.9 2.2 2.47v.03c0 1.58-1.08 2.47-2.2 2.47-.8 0-1.3-.4-1.62-.84v.24c0 .3-.24.55-.55.55-.3 0-.53-.25-.53-.55zm2.46-.35c.75 0 1.36-.58 1.36-1.52v-.02c0-.9-.62-1.5-1.36-1.5-.74 0-1.4.6-1.4 1.52s.66 1.53 1.4 1.53zm4.96.95c-.9 0-1.7-.5-1.7-1.47v-.02c0-1 .82-1.52 1.98-1.52.53 0 .9.1 1.27.2v-.1c0-.7-.4-1.05-1.17-1.05-.42 0-.76.07-1.06.2l-.17.02c-.25 0-.46-.2-.46-.45 0-.2.14-.37.3-.44.45-.17.9-.27 1.53-.27.7-.02 1.24.17 1.57.52.36.34.52.84.52 1.46v2.34c0 .3-.25.53-.54.53-.32 0-.53-.22-.53-.46v-.2c-.33.4-.82.7-1.55.7zm.3-.8c.72 0 1.27-.4 1.27-1v-.33c-.28-.1-.65-.2-1.08-.2-.7 0-1.1.3-1.1.8v.02c0 .45.4.7.9.7zm5.24.8c1 0 1.77-.5 1.77-1.5v-.02c0-.86-.8-1.17-1.5-1.4-.55-.17-1.06-.3-1.06-.66v-.02c0-.27.24-.47.66-.47.34 0 .73.13 1.12.33.07.03.13.05.22.05.25 0 .45-.18.45-.43 0-.2-.12-.33-.27-.42-.46-.24-1-.38-1.5-.38-.94 0-1.7.55-1.7 1.45 0 .92.8 1.2 1.5 1.4.55.18 1.06.3 1.06.67 0 .33-.28.53-.75.53-.43 0-.9-.16-1.37-.46-.06-.04-.14-.07-.23-.07-.26 0-.44.2-.44.44 0 .2.1.32.2.38.56.38 1.22.57 1.82.57zm3.7-2.8h2.44c-.07-.7-.5-1.26-1.2-1.26-.67 0-1.14.5-1.24 1.25zm3.07 2.18c-.44.38-.98.63-1.72.63-1.38 0-2.44-1-2.44-2.46v-.02c0-1.36.96-2.47 2.32-2.47 1.5 0 2.26 1.24 2.26 2.34 0 .3-.23.5-.5.5h-3c.13.78.68 1.22 1.38 1.22.46 0 .82-.16 1.12-.42.08-.06.16-.1.28-.1.24 0 .43.2.43.44 0 .14-.06.26-.14.34zm1.47-3.66v.1c0 .34.27.6.64.6.37.02.64-.25.64-.6v-.1c0-.36-.27-.63-.63-.63s-.63.26-.63.62zm0 3.5v.1c0 .36.27.63.64.63s.64-.27.64-.63v-.1c0-.34-.27-.6-.63-.6s-.63.26-.63.6zM24.9 94.7v-5.64c0-.2.17-.36.36-.36h2c1.43 0 2.36.76 2.36 2v.02c0 1.36-1.13 2.06-2.47 2.06h-1.53v1.9c0 .2-.16.36-.36.36-.2 0-.35-.16-.35-.36zm.72-2.57h1.56c1.04 0 1.72-.56 1.72-1.4 0-.9-.67-1.37-1.7-1.37h-1.58v2.77zm7.26 2.98c-1.4 0-2.4-1.1-2.4-2.4v-.02c0-1.32 1.02-2.43 2.42-2.43s2.42 1.1 2.42 2.4v.03c0 1.3-1.03 2.43-2.44 2.43zm.02-.6c1 0 1.7-.82 1.7-1.8v-.02c0-1-.74-1.82-1.72-1.82-1 0-1.7.82-1.7 1.8v.02c0 1 .74 1.8 1.72 1.8zm3.67 1.63v-5.48c0-.2.16-.35.34-.35.2 0 .37.16.37.35v.63c.37-.56.92-1.03 1.78-1.03 1.1 0 2.22.88 2.22 2.4v.03c0 1.52-1.1 2.42-2.22 2.42-.87 0-1.42-.47-1.78-1v2.03c0 .2-.15.36-.35.36-.2-.02-.35-.17-.35-.37zm2.35-1.65c.9 0 1.64-.67 1.64-1.8 0-1.1-.76-1.8-1.64-1.8-.86 0-1.68.72-1.68 1.78v.02c0 1.08.82 1.8 1.68 1.8zm7.62-3.83c0-.2-.16-.35-.35-.35-.2 0-.35.16-.35.35V93c0 .88-.6 1.47-1.4 1.47-.8 0-1.28-.54-1.28-1.4v-2.42c0-.2-.16-.35-.35-.35-.2 0-.34.16-.34.35v2.6c0 1.1.65 1.85 1.78 1.85.8 0 1.28-.4 1.6-.9v.5c0 .2.14.34.33.34.2 0 .34-.16.34-.35v-4.05zm1.62 4.04c0 .2.15.34.35.34.2 0 .35-.15.35-.35v-5.96c0-.2-.15-.35-.35-.35-.2-.02-.34.15-.34.34v5.95zm3.7.4c-.88 0-1.75-.5-1.75-1.45v-.02c0-.98.82-1.5 2-1.5.6 0 1 .08 1.43.2v-.16c0-.84-.5-1.27-1.4-1.27-.46 0-.85.1-1.2.26-.04.02-.08.02-.12.02-.15 0-.3-.13-.3-.3 0-.14.1-.24.2-.28.45-.2.92-.32 1.5-.32.67 0 1.18.17 1.52.52.3.3.47.76.47 1.36v2.54c0 .2-.15.34-.34.34-.2 0-.33-.14-.33-.32v-.42c-.33.42-.87.8-1.68.8zm.12-.55c.86 0 1.56-.52 1.56-1.26v-.46c-.34-.1-.8-.2-1.37-.2-.87 0-1.36.38-1.36.97v.02c0 .6.55.93 1.18.93zm5.2.53c.27 0 .5-.04.7-.13.1-.04.18-.14.18-.27 0-.16-.13-.3-.3-.3-.05 0-.17.07-.42.07-.46 0-.78-.2-.78-.77v-2.72h1.2c.18 0 .32-.14.32-.3 0-.17-.14-.3-.3-.3h-1.22v-1.1c0-.2-.16-.36-.35-.36-.2 0-.33.16-.33.35v1.1h-.38c-.17 0-.32.13-.32.3 0 .16.15.3.3.3h.4v2.82c0 .94.56 1.3 1.3 1.3zM59.26 89c0 .22.18.38.4.38.24 0 .42-.16.42-.37v-.1c0-.24-.18-.38-.4-.38-.24 0-.42.14-.42.37v.1zm.06 5.7c0 .2.16.34.36.34.2 0 .34-.15.34-.35v-4.05c0-.2-.16-.35-.35-.35-.2 0-.35.16-.35.35v4.04zm4.43.4c-1.4 0-2.4-1.1-2.4-2.4v-.02c0-1.32 1.02-2.43 2.42-2.43s2.42 1.1 2.42 2.4v.03c0 1.3-1.04 2.43-2.45 2.43zm.02-.6c1 0 1.7-.82 1.7-1.8v-.02c0-1-.74-1.82-1.72-1.82-1 0-1.7.82-1.7 1.8v.02c0 1 .74 1.8 1.72 1.8zm3.67.2c0 .2.16.34.35.34.2 0 .34-.15.34-.35v-2.36c0-.88.6-1.46 1.4-1.46.8 0 1.28.54 1.28 1.4v2.4c0 .2.15.36.35.36.2 0 .34-.15.34-.35v-2.6c0-1.1-.65-1.85-1.77-1.85-.8 0-1.3.4-1.6.9v-.5c0-.2-.15-.35-.35-.35-.18 0-.34.16-.34.35v4.04zm8.25 0v-5.96c0-.2.14-.35.33-.35.2-.02.35.14.35.34v2.54c.38-.56.93-1.03 1.78-1.03 1.12 0 2.22.88 2.22 2.4v.03c0 1.52-1.1 2.42-2.22 2.42-.86 0-1.42-.47-1.78-1v.6c0 .18-.14.34-.34.34s-.35-.16-.35-.35zm2.34-.22c.9 0 1.63-.67 1.63-1.8 0-1.1-.75-1.8-1.63-1.8-.87 0-1.7.72-1.7 1.78v.02c0 1.08.83 1.8 1.7 1.8zm4.1 2c.7 0 1.16-.36 1.57-1.33l1.82-4.34c.02-.04.04-.1.04-.16 0-.2-.15-.34-.34-.34-.18 0-.28.12-.34.26l-1.44 3.67-1.62-3.66c-.06-.15-.16-.27-.35-.27-.2 0-.35.16-.35.34 0 .07.02.13.05.2l1.94 4.1-.02.1c-.26.55-.5.8-.94.8-.23.02-.37-.02-.5-.07-.06 0-.1-.03-.18-.03-.15 0-.3.12-.3.3 0 .16.12.25.22.3.24.07.46.13.77.13zm-41.5 10.63c.78 0 1.3-.3 1.75-.74.05-.05.08-.13.08-.22 0-.16-.14-.3-.3-.3-.1 0-.17.03-.2.08-.35.32-.78.57-1.3.57-.98 0-1.72-.8-1.72-1.82v-.02c0-1 .72-1.8 1.67-1.8.55 0 .93.25 1.27.56.05.04.13.08.22.08.18 0 .33-.14.33-.33 0-.1-.05-.2-.1-.25-.42-.38-.94-.67-1.7-.67-1.37 0-2.4 1.1-2.4 2.43v.02c0 1.3 1.03 2.4 2.4 2.4zm5.03 0c-1.4 0-2.4-1.1-2.4-2.4l-.02-.02c0-1.32 1.03-2.43 2.44-2.43 1.38 0 2.4 1.1 2.4 2.4v.03c0 1.3-1.03 2.43-2.43 2.43zm.02-.6c1 0 1.7-.82 1.7-1.8v-.02c0-1-.75-1.82-1.73-1.82-1 0-1.7.82-1.7 1.8v.02c0 1 .73 1.8 1.72 1.8zm7.64-3.85c0-.2-.15-.35-.34-.35-.2 0-.34.16-.34.35V105c0 .88-.6 1.47-1.4 1.47-.8 0-1.28-.54-1.28-1.4v-2.42c0-.2-.16-.35-.35-.35-.2 0-.35.16-.35.35v2.6c0 1.1.66 1.85 1.8 1.85.8 0 1.27-.4 1.58-.9v.5c0 .2.15.34.34.34.2 0 .34-.16.34-.35v-4.05zm1.56 4.04c0 .2.15.34.35.34.2 0 .34-.15.34-.35v-2.36c0-.88.6-1.46 1.4-1.46.8 0 1.28.54 1.28 1.4v2.4c0 .2.15.36.35.36.2 0 .34-.15.34-.35v-2.6c0-1.1-.66-1.85-1.78-1.85-.8 0-1.3.4-1.6.9v-.5c0-.2-.16-.35-.36-.35-.2 0-.34.16-.34.35v4.04zm7.1.38c.27 0 .5-.04.7-.13.1-.04.18-.14.18-.27 0-.16-.13-.3-.3-.3-.05 0-.17.07-.42.07-.46 0-.78-.2-.78-.77v-2.72h1.2c.18 0 .32-.14.32-.3 0-.17-.14-.3-.3-.3h-1.22v-1.1c0-.2-.16-.36-.35-.36-.2 0-.34.16-.34.35v1.1h-.4c-.15 0-.3.13-.3.3 0 .16.15.3.3.3h.4v2.82c0 .94.55 1.3 1.3 1.3zm2.08-.4c0 .2.15.36.35.36.2 0 .34-.16.34-.35v-1.6c0-1.33.74-2 1.64-2.1.2-.04.32-.18.32-.36 0-.2-.14-.36-.34-.36-.6 0-1.26.47-1.6 1.25v-.88c0-.2-.16-.35-.36-.35-.2 0-.34.16-.34.35v4.04zm4.32 1.8c.7 0 1.15-.36 1.56-1.33l1.82-4.34c0-.04.03-.1.03-.16 0-.2-.14-.34-.33-.34-.18 0-.28.12-.33.26l-1.44 3.67-1.62-3.66c-.07-.15-.16-.27-.35-.27-.2 0-.36.16-.36.34 0 .07.02.13.05.2l1.94 4.1-.03.1c-.25.55-.5.8-.94.8-.24.02-.38-.02-.5-.07-.07 0-.12-.03-.18-.03-.16 0-.3.12-.3.3 0 .16.1.25.22.3.23.07.45.13.76.13z" fill="#282D38"/><g stroke-linecap="square" stroke-linejoin="round"><use fill="#FFF" xlink:href="#f"/><path stroke="#25B8EB" stroke-width="2" d="M152.72 175.48h-43.08v16.94c0 3.1-2.53 5.64-5.65 5.65H4.63c-3.1 0-5.63-2.54-5.64-5.66v-43.75c0-3.12 2.53-5.64 5.64-5.65H104c3.1 0 5.63 2.53 5.64 5.65v16.93h43.08v-4.17l12.97 9.13-12.98 9.12v-4.17z"/></g><path d="M16.5 166.5v-4.77h-1.54c-.28 0-.5-.24-.5-.52 0-.27.22-.5.5-.5h4.2c.27 0 .5.23.5.5 0 .3-.23.53-.5.53H17.6v4.77c0 .3-.24.54-.55.54-.3 0-.56-.24-.56-.54zm4.5.6c-.9 0-1.7-.5-1.7-1.47v-.02c0-1 .8-1.52 1.97-1.52.53 0 .9.08 1.28.2v-.12c0-.67-.4-1.03-1.18-1.03-.4 0-.75.07-1.05.2l-.17.02c-.25 0-.46-.2-.46-.45 0-.2.12-.37.3-.44.44-.17.9-.28 1.52-.28.7 0 1.24.2 1.57.54.34.34.5.84.5 1.46v2.34c0 .3-.23.52-.53.52-.3 0-.53-.2-.53-.45v-.2c-.32.4-.82.7-1.55.7zm.3-.8c.72 0 1.27-.4 1.27-1v-.33c-.28-.1-.65-.2-1.08-.2-.7 0-1.13.3-1.13.8v.02c0 .45.4.7.93.7zm3.6.2v-5.57c0-.3.24-.55.55-.55.3 0 .55.24.55.55v2.1c.35-.5.84-.88 1.62-.88 1.1 0 2.2.88 2.2 2.47 0 1.6-1.08 2.48-2.2 2.48-.8 0-1.3-.4-1.62-.84v.25c0 .3-.25.54-.55.54-.3 0-.54-.24-.54-.53zm2.46-.35c.74 0 1.36-.58 1.36-1.52 0-.93-.63-1.54-1.36-1.54-.74 0-1.4.6-1.4 1.52s.66 1.53 1.4 1.53zm3.65.35c0 .3.25.54.55.54.3 0 .55-.23.55-.53v-5.57c0-.3-.24-.55-.55-.55-.3 0-.54.25-.54.55v5.57zm3.34-2.2h2.44c-.07-.7-.5-1.26-1.2-1.26-.67 0-1.14.5-1.24 1.25zm3.07 2.18c-.42.4-.96.63-1.7.63-1.38 0-2.44-1-2.44-2.46v-.02c0-1.36.96-2.47 2.32-2.47 1.5 0 2.26 1.24 2.26 2.34 0 .3-.23.5-.5.5h-3c.13.78.68 1.22 1.38 1.22.46 0 .82-.16 1.12-.42.08-.06.16-.1.28-.1.24 0 .43.2.43.45 0 .13-.06.25-.14.33zm4.24-5.46c0 .33.27.54.62.54s.62-.2.62-.54v-.05c0-.32-.27-.53-.62-.53s-.62.2-.62.53v.05zm.08 5.48c0 .3.24.54.54.54.3 0 .55-.23.55-.53v-3.76c0-.3-.23-.55-.54-.55-.3 0-.54.24-.54.54v3.76zm2.5 0c0 .3.25.54.55.54.3 0 .55-.23.55-.53v-2.18c0-.74.44-1.18 1.07-1.18.64 0 1 .42 1 1.16v2.2c0 .3.25.54.56.54.3 0 .54-.23.54-.53v-2.53c0-1.1-.62-1.82-1.7-1.82-.73 0-1.17.4-1.48.83v-.24c0-.3-.24-.55-.55-.55-.3 0-.54.24-.54.54v3.76zm12.96-5.57v5.57c0 .3-.24.54-.54.54-.3 0-.55-.23-.55-.53v-.3c-.36.5-.85.9-1.63.9-1.1 0-2.2-.9-2.2-2.47 0-1.6 1.07-2.48 2.2-2.48.8 0 1.28.4 1.62.84v-2.07c0-.3.24-.55.53-.55.3 0 .55.24.55.55zm-2.45 2.16c-.74 0-1.36.57-1.36 1.52 0 .93.63 1.53 1.36 1.53.73 0 1.38-.6 1.38-1.52 0-.93-.64-1.54-1.37-1.54zm5.2 4c-.9 0-1.7-.5-1.7-1.47v-.02c0-1 .8-1.52 1.97-1.52.53 0 .9.08 1.28.2v-.12c0-.67-.42-1.03-1.18-1.03-.42 0-.76.07-1.06.2l-.17.02c-.25 0-.46-.2-.46-.45 0-.2.15-.37.3-.44.46-.17.92-.28 1.54-.28.7 0 1.24.2 1.58.54.35.34.5.84.5 1.46v2.34c0 .3-.23.52-.52.52-.32 0-.53-.2-.53-.45v-.2c-.33.4-.82.7-1.55.7zm.3-.8c.7 0 1.26-.4 1.26-1v-.33c-.3-.1-.65-.2-1.1-.2-.7 0-1.1.3-1.1.8v.02c0 .45.4.7.92.7zm5.15.78c.3 0 .5-.04.75-.13.15-.06.3-.22.3-.42 0-.25-.23-.45-.47-.45-.04 0-.15.03-.27.03-.38 0-.6-.16-.6-.6v-2.32h.86c.26 0 .47-.2.47-.46s-.2-.47-.47-.47h-.86v-.8c0-.3-.24-.55-.54-.55-.3 0-.55.24-.55.54v.8h-.17c-.26 0-.46.22-.46.48s.2.46.46.46H64v2.5c0 1.05.58 1.4 1.38 1.4zm3.48.02c-.9 0-1.7-.5-1.7-1.47v-.02c0-1 .8-1.52 1.97-1.52.54 0 .9.08 1.28.2v-.12c0-.67-.4-1.03-1.17-1.03-.4 0-.75.07-1.05.2l-.17.02c-.24 0-.45-.2-.45-.45 0-.2.14-.37.3-.44.45-.17.9-.28 1.53-.28.7 0 1.24.2 1.57.54.35.34.52.84.52 1.46v2.34c0 .3-.24.52-.54.52-.3 0-.53-.2-.53-.45v-.2c-.32.4-.82.7-1.54.7zm.3-.8c.72 0 1.27-.4 1.27-1v-.33c-.28-.1-.65-.2-1.08-.2-.7 0-1.12.3-1.12.8v.02c0 .45.4.7.93.7zm3.6.2v-5.57c0-.3.24-.55.55-.55.32 0 .56.24.56.55v2.1c.35-.5.85-.88 1.62-.88 1.12 0 2.2.88 2.2 2.47 0 1.6-1.08 2.48-2.2 2.48-.8 0-1.3-.4-1.62-.84v.25c0 .3-.24.54-.55.54-.3 0-.53-.24-.53-.53zm2.46-.35c.75 0 1.36-.58 1.36-1.52 0-.93-.62-1.54-1.36-1.54-.74 0-1.4.6-1.4 1.52s.66 1.53 1.4 1.53zm4.96.95c-.9 0-1.7-.5-1.7-1.47v-.02c0-1 .82-1.52 1.98-1.52.53 0 .9.08 1.27.2v-.12c0-.67-.4-1.03-1.17-1.03-.42 0-.76.07-1.06.2l-.17.02c-.25 0-.46-.2-.46-.45 0-.2.14-.37.3-.44.45-.17.9-.28 1.53-.28.7 0 1.24.2 1.57.54.36.34.52.84.52 1.46v2.34c0 .3-.25.52-.54.52-.32 0-.53-.2-.53-.45v-.2c-.33.4-.82.7-1.55.7zm.3-.8c.72 0 1.27-.4 1.27-1v-.33c-.28-.1-.65-.2-1.08-.2-.7 0-1.1.3-1.1.8v.02c0 .45.4.7.9.7zm5.24.8c1 0 1.77-.5 1.77-1.5v-.02c0-.86-.8-1.17-1.5-1.4-.55-.17-1.06-.3-1.06-.66v-.02c0-.27.24-.47.66-.47.34 0 .73.13 1.12.32.07.04.13.06.22.06.25 0 .45-.18.45-.43 0-.2-.12-.34-.27-.42-.46-.24-1-.38-1.5-.38-.94 0-1.7.55-1.7 1.45 0 .92.8 1.2 1.5 1.4.55.18 1.06.3 1.06.67 0 .33-.28.53-.75.53-.43 0-.9-.16-1.37-.46-.06-.04-.14-.07-.23-.07-.26 0-.44.2-.44.45 0 .17.1.3.2.37.56.38 1.22.57 1.82.57zm3.7-2.8h2.44c-.07-.7-.5-1.26-1.2-1.26-.67 0-1.14.5-1.24 1.25zm3.07 2.18c-.44.4-.98.63-1.72.63-1.38 0-2.44-1-2.44-2.46v-.02c0-1.36.96-2.47 2.32-2.47 1.5 0 2.26 1.24 2.26 2.34 0 .3-.23.5-.5.5h-3c.13.78.68 1.22 1.38 1.22.46 0 .82-.16 1.12-.42.08-.06.16-.1.28-.1.24 0 .43.2.43.45 0 .13-.06.25-.14.33zm1.47-3.66v.1c0 .34.27.62.64.62s.64-.28.64-.63v-.08c0-.36-.27-.63-.63-.63s-.63.26-.63.62zm0 3.5v.1c0 .36.27.63.64.63s.64-.28.64-.63v-.1c0-.34-.27-.6-.63-.6s-.63.26-.63.6zm-70.66 12.8c1.05 0 1.73-.37 2.35-.94.06-.05.12-.14.12-.25 0-.18-.16-.34-.34-.34-.1 0-.18.03-.23.1-.54.48-1.1.75-1.87.75-1.4 0-2.44-1.14-2.44-2.6v-.02c0-1.45 1.03-2.58 2.43-2.58.77 0 1.32.3 1.8.72.06.03.14.08.24.08.2 0 .36-.16.36-.35 0-.13-.07-.23-.14-.3-.6-.47-1.25-.8-2.26-.8-1.86 0-3.2 1.47-3.2 3.25v.02c0 1.8 1.35 3.24 3.17 3.24zm5.04-.02c-.86 0-1.73-.5-1.73-1.45v-.02c0-.98.8-1.5 2-1.5.6 0 1 .08 1.42.2v-.17c0-.83-.5-1.26-1.38-1.26-.47 0-.87.1-1.2.26-.05.02-.1.02-.13.02-.16 0-.3-.13-.3-.3 0-.14.1-.25.2-.28.45-.2.92-.32 1.5-.32.67 0 1.17.18 1.5.52.33.3.5.76.5 1.36v2.54c0 .2-.15.34-.34.34-.2 0-.34-.14-.34-.32v-.42c-.32.42-.86.8-1.68.8zm.14-.55c.85 0 1.55-.52 1.55-1.26v-.46c-.34-.1-.8-.2-1.36-.2-.88 0-1.36.38-1.36.97v.02c0 .6.55.93 1.18.93zm3.7.14c0 .2.14.34.34.34s.34-.16.34-.35v-1.6c0-1.33.74-2 1.64-2.1.18-.04.3-.18.3-.37 0-.2-.13-.35-.34-.35-.58 0-1.26.47-1.6 1.25v-.88c0-.2-.15-.35-.35-.35-.18 0-.33.16-.33.35v4.04zm5.17.4c.93 0 1.66-.52 1.66-1.4v-.02c0-.84-.77-1.12-1.5-1.34-.6-.18-1.18-.35-1.18-.8 0-.4.35-.7.9-.7.4 0 .8.15 1.2.37.05.03.1.05.16.05.18 0 .3-.14.3-.3 0-.13-.07-.23-.16-.3-.45-.23-1-.38-1.5-.38-.9 0-1.57.53-1.57 1.33v.02c0 .85.8 1.1 1.54 1.3.6.18 1.15.36 1.15.83v.02c0 .45-.4.73-.96.73-.52 0-1-.17-1.5-.5-.03-.03-.1-.04-.16-.04-.17 0-.3.13-.3.3 0 .1.06.2.12.25.5.37 1.18.6 1.8.6zm5.64-.4v-5.96c0-.2.15-.36.34-.36.2 0 .35.16.35.36v2.54c.36-.56.9-1.03 1.77-1.03 1.12 0 2.22.88 2.22 2.4v.03c0 1.52-1.1 2.42-2.23 2.42-.87 0-1.42-.47-1.78-1v.6c0 .18-.16.34-.36.34-.2 0-.35-.16-.35-.35zm2.34-.22c.9 0 1.64-.67 1.64-1.8 0-1.1-.75-1.8-1.64-1.8-.86 0-1.68.72-1.68 1.78v.02c0 1.08.82 1.8 1.68 1.8zm4.12 2c.7 0 1.15-.36 1.55-1.33l1.83-4.34c.02-.04.04-.1.04-.16 0-.18-.16-.34-.34-.34-.2 0-.28.12-.34.26l-1.45 3.67-1.62-3.66c-.06-.15-.16-.27-.35-.27-.2 0-.35.16-.35.34 0 .07.02.13.05.2l1.94 4.12-.04.07c-.25.56-.5.82-.93.82-.24 0-.37-.03-.5-.08l-.18-.03c-.15 0-.3.12-.3.3 0 .16.1.25.22.3.22.07.45.13.76.13zm9.4-1.37c.78 0 1.3-.3 1.76-.74.05-.05.1-.13.1-.22 0-.16-.16-.3-.33-.3-.1 0-.16.03-.2.08-.35.32-.77.57-1.3.57-.98 0-1.7-.8-1.7-1.82v-.02c0-1 .7-1.8 1.65-1.8.56 0 .94.25 1.27.56.05.04.14.08.23.08.18 0 .33-.15.33-.33 0-.1-.05-.2-.1-.25-.42-.38-.95-.67-1.72-.67-1.36 0-2.38 1.1-2.38 2.43v.02c0 1.3 1.02 2.4 2.38 2.4zm5.03 0c-1.4 0-2.42-1.1-2.42-2.4v-.02c0-1.32 1.03-2.43 2.43-2.43 1.4 0 2.43 1.1 2.43 2.4v.03c0 1.3-1.03 2.43-2.44 2.43zm0-.6c1.02 0 1.72-.82 1.72-1.8v-.02c0-1-.75-1.82-1.73-1.82-1.02 0-1.7.82-1.7 1.8v.02c0 1 .73 1.8 1.7 1.8zm7.67-3.85c0-.2-.15-.35-.34-.35-.2 0-.34.16-.34.35l-.02 2.36c0 .88-.6 1.47-1.4 1.47-.8 0-1.28-.54-1.28-1.4v-2.42c0-.2-.16-.35-.35-.35-.2 0-.34.16-.34.35v2.6c0 1.1.67 1.85 1.8 1.85.8 0 1.27-.4 1.6-.9l-.02.5c0 .2.16.34.35.34.2 0 .34-.16.34-.35v-4.05zm1.56 4.04c0 .2.15.34.35.34.2 0 .34-.15.34-.35v-2.36c0-.88.6-1.46 1.4-1.46.8 0 1.28.54 1.28 1.4v2.4c0 .2.15.36.35.36.2 0 .34-.15.34-.35v-2.6c0-1.1-.66-1.85-1.8-1.85-.8 0-1.28.4-1.58.9v-.5c0-.2-.15-.35-.35-.35-.2 0-.34.16-.34.35v4.04zm7.1.38c.27 0 .48-.04.68-.13.13-.04.2-.14.2-.26 0-.18-.13-.3-.3-.3-.04 0-.17.05-.4.05-.48 0-.8-.2-.8-.77v-2.72h1.2c.18 0 .33-.14.33-.3 0-.17-.15-.3-.32-.3h-1.2v-1.1c0-.2-.16-.36-.34-.36-.2 0-.35.16-.35.35v1.1h-.37c-.16 0-.3.13-.3.3 0 .16.14.3.3.3h.38v2.82c0 .94.58 1.3 1.33 1.3zm2.08-.4c0 .2.16.36.36.36.2 0 .34-.16.34-.35v-1.6c0-1.33.74-2 1.64-2.1.18-.04.3-.18.3-.37 0-.2-.13-.35-.34-.35-.58 0-1.26.47-1.6 1.25v-.88c0-.2-.15-.35-.35-.35-.2 0-.34.16-.34.35v4.04zm4.33 1.8c.7 0 1.15-.36 1.55-1.33L90 174.8c.02-.04.04-.1.04-.16 0-.18-.16-.34-.35-.34-.2 0-.28.12-.34.26l-1.44 3.67-1.62-3.66c-.06-.15-.16-.27-.35-.27-.2 0-.35.16-.35.34 0 .07.02.13.05.2l1.94 4.12-.05.07c-.25.56-.5.82-.93.82-.24 0-.37-.03-.5-.08l-.18-.03c-.15 0-.3.12-.3.3 0 .16.1.25.22.3.23.07.46.13.77.13z" fill="#282D38"/></g></g></svg>