<?xml version="1.0" encoding="UTF-8"?>
<svg width="781px" height="228px" viewBox="0 0 781 228" version="1.1" xmlns="http://www.w3.org/2000/svg" xmlns:xlink="http://www.w3.org/1999/xlink">
    <!-- Generator: Sketch 47.1 (45422) - http://www.bohemiancoding.com/sketch -->
    <title>schema 3</title>
    <desc>Created with Sketch.</desc>
    <defs>
        <path d="M163.954769,31.5309834 L153.716513,24.3383886 L153.716513,27.5797512 L108.636513,27.5797512 L108.636513,9.64983412 C108.628276,7.08522518 106.55366,5.00824639 103.991968,5 L4.64454425,5 C2.08285293,5.00824639 0.00823701339,7.08522518 0,9.64983412 L0,53.4121327 C0.00617794772,55.9782083 2.08139377,58.0574658 4.64454425,58.0657227 L103.991968,58.0657227 C106.55366,58.0574764 108.628276,55.9804976 108.636513,53.4158886 L108.636513,35.4822156 L153.716513,35.4822156 L153.716513,38.7235782 L163.954769,31.5309834 Z" id="path-1"></path>
        <path d="M163.954769,111.530983 L153.716513,104.338389 L153.716513,107.579751 L108.636513,107.579751 L108.636513,89.6498341 C108.628276,87.0852252 106.55366,85.0082464 103.991968,85 L4.64454425,85 C2.08285293,85.0082464 0.00823701339,87.0852252 0,89.6498341 L0,133.412133 C0.00617794772,135.978208 2.08139377,138.057466 4.64454425,138.065723 L103.991968,138.065723 C106.55366,138.057476 108.628276,135.980498 108.636513,133.415889 L108.636513,115.482216 L153.716513,115.482216 L153.716513,118.723578 L163.954769,111.530983 Z" id="path-2"></path>
        <path d="M221.636513,15.6498341 C221.628276,13.0852252 219.55366,11.0082464 216.991968,11 L137.644544,11 C135.082853,11.0082464 133.008237,13.0852252 133,15.6498341 L133,49.4121327 C133.006178,51.9782083 135.081394,54.0574658 137.644544,54.0657227 L216.991968,54.0657227 C219.55366,54.0574764 221.628276,51.9804976 221.636513,49.4158886 L221.636513,15.6498341 Z" id="path-3"></path>
        <filter x="-3.9%" y="-6.6%" width="107.8%" height="117.4%" filterUnits="objectBoundingBox" id="filter-4">
            <feOffset dx="0" dy="3" in="SourceAlpha" result="shadowOffsetOuter1"></feOffset>
            <feGaussianBlur stdDeviation="3" in="shadowOffsetOuter1" result="shadowBlurOuter1"></feGaussianBlur>
            <feColorMatrix values="0 0 0 0 0   0 0 0 0 0   0 0 0 0 0  0 0 0 0.2 0" type="matrix" in="shadowBlurOuter1" result="shadowMatrixOuter1"></feColorMatrix>
            <feMerge>
                <feMergeNode in="shadowMatrixOuter1"></feMergeNode>
                <feMergeNode in="SourceGraphic"></feMergeNode>
            </feMerge>
        </filter>
        <path d="M318.954769,71.5309834 L308.716513,64.3383886 L308.716513,67.5797512 L294.636513,67.5797512 L294.636513,34.6498341 C294.628276,32.0852252 292.55366,30.0082464 289.991968,30 L210.644544,30 C208.082853,30.0082464 206.008237,32.0852252 206,34.6498341 L206,108.412133 C206.006178,110.978208 208.081394,113.057466 210.644544,113.065723 L289.991968,113.065723 C292.55366,113.057476 294.628276,110.980498 294.636513,108.415889 L294.636513,75.4822156 L308.716513,75.4822156 L308.716513,78.7235782 L318.954769,71.5309834 Z" id="path-5"></path>
        <path d="M112.954769,31.5309834 L102.716513,24.3383886 L102.716513,27.5797512 L88.6365125,27.5797512 L88.6365125,4.64983412 C88.6282755,2.08522518 86.5536596,0.00824639488 83.9919683,0 L4.64454425,0 C2.08285293,0.00824639488 0.00823701339,2.08522518 0,4.64983412 L0,58.4121327 C0.00617794772,60.9782083 2.08139377,63.0574658 4.64454425,63.0657227 L83.9919683,63.0657227 C86.5536596,63.0574764 88.6282755,60.9804976 88.6365125,58.4158886 L88.6365125,35.4822156 L102.716513,35.4822156 L102.716513,38.7235782 L112.954769,31.5309834 Z" id="path-6"></path>
        <path d="M112.954769,111.530983 L102.716513,104.338389 L102.716513,107.579751 L88.6365125,107.579751 L88.6365125,84.6498341 C88.6282755,82.0852252 86.5536596,80.0082464 83.9919683,80 L4.64454425,80 C2.08285293,80.0082464 0.00823701339,82.0852252 0,84.6498341 L0,138.412133 C0.00617794772,140.978208 2.08139377,143.057466 4.64454425,143.065723 L83.9919683,143.065723 C86.5536596,143.057476 88.6282755,140.980498 88.6365125,138.415889 L88.6365125,115.482216 L102.716513,115.482216 L102.716513,118.723578 L112.954769,111.530983 Z" id="path-7"></path>
    </defs>
    <g id="KBC-try-mode" stroke="none" stroke-width="1" fill="none" fill-rule="evenodd">
        <g id="Schema-KBC" transform="translate(-24.000000, -600.000000)">
            <g id="schema-3" transform="translate(26.000000, 600.000000)">
                <g id="Group-8" transform="translate(0.000000, 59.000000)">
                    <path d="M222.636513,27.2413626 L222.636513,4.64983412 C222.628276,2.08522518 220.55366,0.00824639488 217.991968,0 L158.644544,0 C156.082853,0.00824639488 154.008237,2.08522518 154,4.64983412 L154,138.412133 C154.006178,140.978208 156.081394,143.057466 158.644544,143.065723 L217.991968,143.065723 C220.55366,143.057476 222.628276,140.980498 222.636513,138.415889 L222.636513,115.482216 L236.716513,115.482216 L236.716513,118.723578 L246.954769,111.530983 L236.716513,104.338389 L236.716513,107.579751 L222.636513,107.579751 L222.636513,35.143827 L237.08,35.143827 L237.08,38.3851896 L247.318256,31.1925948 L237.08,24 L237.08,27.2413626 L222.636513,27.2413626 Z" id="Combined-Shape" fill-opacity="0.5" fill="#25B8EB"></path>
                    <text id="Extractor" font-family="GothamRounded-Bold, Gotham Rounded" font-size="9" font-weight="bold" line-spacing="12" fill="#FFFFFF">
                        <tspan x="168.3635" y="73">Extractor</tspan>
                    </text>
                    <g id="Shape" stroke-linecap="square" stroke-linejoin="round">
                        <use fill="#FFFFFF" fill-rule="evenodd" xlink:href="#path-1"></use>
                        <path stroke-opacity="0.5" stroke="#25B8EB" stroke-width="2" d="M152.716513,36.4822156 L109.636512,36.4822156 L109.636507,53.4191004 C109.626505,56.5332291 107.106904,59.0557006 103.991968,59.0657227 L4.64132288,59.0657176 C1.52783443,59.0556878 -0.992495404,56.5304493 -1,53.4121327 L-0.999994842,9.64662234 C-0.989992881,6.53249367 1.52960893,4.01002217 4.64454425,4 L103.995187,4.00000518 C107.106904,4.01002217 109.626505,6.53249367 109.636513,9.64983412 L109.636513,26.5797512 L152.716513,26.5797512 L152.716513,22.4137639 L165.694364,31.5309834 L152.716513,40.6482029 L152.716513,36.4822156 Z"></path>
                    </g>
                    <text id="Table-in-database:-P" opacity="0.5" font-family="GothamRounded-Medium, Gotham Rounded" font-size="9" font-weight="400" line-spacing="12" fill="#282D38">
                        <tspan x="14.1355" y="20">Table in database:</tspan>
                        <tspan x="24.0175" y="32" font-family="GothamRounded-Book, Gotham Rounded" font-weight="300">Population by</tspan>
                        <tspan x="37.765" y="44" font-family="GothamRounded-Book, Gotham Rounded" font-weight="300">country</tspan>
                    </text>
                    <g id="Shape" stroke-linecap="square" stroke-linejoin="round">
                        <use fill="#FFFFFF" fill-rule="evenodd" xlink:href="#path-2"></use>
                        <path stroke-opacity="0.5" stroke="#25B8EB" stroke-width="2" d="M152.716513,116.482216 L109.636512,116.482216 L109.636507,133.4191 C109.626505,136.533229 107.106904,139.055701 103.991968,139.065723 L4.64132288,139.065718 C1.52783443,139.055688 -0.992495404,136.530449 -1,133.412133 L-0.999994842,89.6466223 C-0.989992881,86.5324937 1.52960893,84.0100222 4.64454425,84 L103.995187,84.0000052 C107.106904,84.0100222 109.626505,86.5324937 109.636513,89.6498341 L109.636513,106.579751 L152.716513,106.579751 L152.716513,102.413764 L165.694364,111.530983 L152.716513,120.648203 L152.716513,116.482216 Z"></path>
                    </g>
                    <text id="Table-in-database:-C" opacity="0.5" font-family="GothamRounded-Medium, Gotham Rounded" font-size="9" font-weight="400" line-spacing="12" fill="#282D38">
                        <tspan x="14.1355" y="104">Table in database:</tspan>
                        <tspan x="19.54" y="116" font-family="GothamRounded-Book, Gotham Rounded" font-weight="300">Cars by country</tspan>
                    </text>
                </g>
                <g id="Group-9" transform="translate(546.000000, 99.000000)">
                    <g id="Shape" stroke-linecap="square" stroke-linejoin="round">
                        <use fill="#FFFFFF" fill-rule="evenodd" xlink:href="#path-3"></use>
                        <path stroke="#25B8EB" stroke-width="2" d="M222.636507,15.6466223 L222.636513,15.6498341 L222.636507,49.4191004 C222.626505,52.5332291 220.106904,55.0557006 216.991968,55.0657227 L137.641323,55.0657176 C134.527834,55.0556878 132.007505,52.5304493 132,49.4121327 L132.000005,15.6466223 C132.010007,12.5324937 134.529609,10.0100222 137.644544,10 L216.995187,10.0000052 C220.106904,10.0100222 222.626505,12.5324937 222.636507,15.6466223 Z"></path>
                    </g>
                    <text id="Tableau-Visualizatio" font-family="GothamRounded-Medium, Gotham Rounded" font-size="9" font-weight="400" line-spacing="12" fill="#282D38">
                        <tspan x="161.4995" y="26">Tableau</tspan>
                        <tspan x="150.2225" y="38">Visualization</tspan>
                    </text>
                    <path d="M142.954769,31.5309834 L132.716513,24.3383886 L132.716513,27.5797512 L88.6365125,27.5797512 L88.6365125,4.64983412 C88.6282755,2.08522518 86.5536596,0.00824639488 83.9919683,0 L4.64454425,0 C2.08285293,0.00824639488 0.00823701339,2.08522518 0,4.64983412 L0,58.4121327 C0.00617794772,60.9782083 2.08139377,63.0574658 4.64454425,63.0657227 L83.9919683,63.0657227 C86.5536596,63.0574764 88.6282755,60.9804976 88.6365125,58.4158886 L88.6365125,35.4822156 L132.716513,35.4822156 L132.716513,38.7235782 L142.954769,31.5309834 Z" id="Shape" fill="#25B8EB"></path>
                    <text id="Writer" font-family="GothamRounded-Bold, Gotham Rounded" font-size="9" font-weight="bold" line-spacing="12" fill="#FFFFFF">
                        <tspan x="29.992" y="32">Writer</tspan>
                    </text>
                </g>
                <rect id="Rectangle-16" fill="#FFFFFF" opacity="0.5" x="531" y="59" width="248" height="144"></rect>
                <g id="Group-7" opacity="0.5" transform="translate(133.000000, 0.000000)">
                    <path d="M162,0 L362,0 L362,0 C367.522847,-1.01453063e-15 372,4.4771525 372,10 L372,50 L152,50 L152,10 L152,10 C152,4.4771525 156.477153,1.01453063e-15 162,0 Z" id="Rectangle-15" fill="#C8EDFA"></path>
                    <rect id="Rectangle-15" fill="#C8EDFA" x="0" y="35" width="524" height="193" rx="10"></rect>
                    <text id="KEBOOLA-CONNECTION" font-family="GothamRounded-Medium, Gotham Rounded" font-size="14" font-weight="400" fill="#282D38">
                        <tspan x="174.394" y="26">KEBOOLA CONNECTION</tspan>
                    </text>
                </g>
                <g id="Group-10" filter="url(#filter-4)" transform="translate(237.000000, 59.000000)">
                    <g id="Shape" stroke-linecap="square" stroke-linejoin="round">
                        <use fill="#FFFFFF" fill-rule="evenodd" xlink:href="#path-5"></use>
                        <path stroke="#25B8EB" stroke-width="2" d="M307.716513,76.4822156 L295.636512,76.4822156 L295.636507,108.4191 C295.626505,111.533229 293.106904,114.055701 289.991968,114.065723 L210.641323,114.065718 C207.527834,114.055688 205.007505,111.530449 205,108.412133 L205.000005,34.6466223 C205.010007,31.5324937 207.529609,29.0100222 210.644544,29 L289.995187,29.0000052 C293.106904,29.0100222 295.626505,31.5324937 295.636513,34.6498341 L295.636513,66.5797512 L307.716513,66.5797512 L307.716513,62.4137639 L320.694364,71.5309834 L307.716513,80.6482029 L307.716513,76.4822156 Z"></path>
                    </g>
                    <text id="Table-in-storage:-Po" font-family="GothamRounded-Medium, Gotham Rounded" font-size="9" font-weight="400" line-spacing="12" fill="#282D38">
                        <tspan x="238.431" y="48">Table</tspan>
                        <tspan x="226.7445" y="60">in storage:</tspan>
                        <tspan x="274.2555" y="60" font-family="GothamRounded-Book, Gotham Rounded" font-weight="300"></tspan>
                        <tspan x="226.4025" y="72" font-family="GothamRounded-Book, Gotham Rounded" font-weight="300">Population</tspan>
                        <tspan x="236.028" y="84" font-family="GothamRounded-Book, Gotham Rounded" font-weight="300">&amp; Cars</tspan>
                        <tspan x="226.38" y="96" font-family="GothamRounded-Book, Gotham Rounded" font-weight="300">by country</tspan>
                    </text>
                    <path d="M215.954769,71.5309834 L205.716513,64.3383886 L205.716513,67.5797512 L191.636513,67.5797512 L191.636513,14.6498341 C191.628276,12.0852252 189.55366,10.0082464 186.991968,10 L107.644544,10 C105.082853,10.0082464 103.008237,12.0852252 103,14.6498341 L103,128.412133 C103.006178,130.978208 105.081394,133.057466 107.644544,133.065723 L186.991968,133.065723 C189.55366,133.057476 191.628276,130.980498 191.636513,128.415889 L191.636513,75.4822156 L205.716513,75.4822156 L205.716513,78.7235782 L215.954769,71.5309834 Z" id="Shape" fill="#25B8EB"></path>
                    <g id="Shape" stroke-linecap="square" stroke-linejoin="round">
                        <use fill="#FFFFFF" fill-rule="evenodd" xlink:href="#path-6"></use>
                        <path stroke="#25B8EB" stroke-width="2" d="M101.716513,36.4822156 L89.6365123,36.4822156 L89.6365074,58.4191004 C89.6265054,61.5332291 87.1069036,64.0557006 83.9919683,64.0657227 L4.64132288,64.0657176 C1.52783443,64.0556878 -0.992495404,61.5304493 -1,58.4121327 L-0.999994842,4.64662234 C-0.989992881,1.53249367 1.52960893,-0.989977827 4.64454425,-1 L83.9951874,-0.999994819 C87.1069036,-0.989977827 89.6265054,1.53249367 89.6365125,4.64983412 L89.6365125,26.5797512 L101.716513,26.5797512 L101.716513,22.4137639 L114.694364,31.5309834 L101.716513,40.6482029 L101.716513,36.4822156 Z"></path>
                    </g>
                    <text id="Table-in-storage:-Po" font-family="GothamRounded-Medium, Gotham Rounded" font-size="9" font-weight="400" line-spacing="12" fill="#282D38">
                        <tspan x="33.931" y="14">Table </tspan>
                        <tspan x="22.2445" y="26">in storage:</tspan>
                        <tspan x="15.0175" y="38" font-family="GothamRounded-Book, Gotham Rounded" font-weight="300">Population by</tspan>
                        <tspan x="28.765" y="50" font-family="GothamRounded-Book, Gotham Rounded" font-weight="300">country</tspan>
                    </text>
                    <g id="Shape" stroke-linecap="square" stroke-linejoin="round">
                        <use fill="#FFFFFF" fill-rule="evenodd" xlink:href="#path-7"></use>
                        <path stroke="#25B8EB" stroke-width="2" d="M101.716513,116.482216 L89.6365123,116.482216 L89.6365074,138.4191 C89.6265054,141.533229 87.1069036,144.055701 83.9919683,144.065723 L4.64132288,144.065718 C1.52783443,144.055688 -0.992495404,141.530449 -1,138.412133 L-0.999994842,84.6466223 C-0.989992881,81.5324937 1.52960893,79.0100222 4.64454425,79 L83.9951874,79.0000052 C87.1069036,79.0100222 89.6265054,81.5324937 89.6365125,84.6498341 L89.6365125,106.579751 L101.716513,106.579751 L101.716513,102.413764 L114.694364,111.530983 L101.716513,120.648203 L101.716513,116.482216 Z"></path>
                    </g>
                    <text id="Table-in-storage:-Ca" font-family="GothamRounded-Medium, Gotham Rounded" font-size="9" font-weight="400" line-spacing="12" fill="#282D38">
                        <tspan x="33.931" y="94">Table </tspan>
                        <tspan x="22.2445" y="106">in storage:</tspan>
                        <tspan x="36.01" y="118" font-family="GothamRounded-Book, Gotham Rounded" font-weight="300">Cars </tspan>
                        <tspan x="21.88" y="130" font-family="GothamRounded-Book, Gotham Rounded" font-weight="300">by country</tspan>
                    </text>
                    <text id="Transformation" font-family="GothamRounded-Bold, Gotham Rounded" font-size="9" font-weight="bold" line-spacing="12" fill="#FFFFFF">
                        <tspan x="112.8815" y="72">Transformation</tspan>
                    </text>
                </g>
            </g>
        </g>
    </g>
</svg>