<svg xmlns="http://www.w3.org/2000/svg" xmlns:xlink="http://www.w3.org/1999/xlink" width="627" height="347" viewBox="0 0 627 347"><defs><path id="a" d="M623 139.722c-.008-3.156-2.09-5.712-4.664-5.722h-79.672c-2.573.01-4.656 2.566-4.664 5.722v41.55c.006 3.16 2.09 5.718 4.664 5.728h79.672c2.573-.01 4.656-2.566 4.664-5.722v-41.556z"/><path id="b" d="M375 306.643c-.008-2.56-2.09-4.635-4.664-4.643H250.664c-2.573.008-4.656 2.082-4.664 4.643v33.71c.006 2.563 2.09 4.64 4.664 4.647h119.672c2.573-.008 4.656-2.082 4.664-4.643v-33.714z"/><path id="c" d="M0 0h34v78H0z"/><path id="e" d="M28 39.498l-10.24-7.185v3.238h-44.095V12.646c-.01-2.562-2.084-4.637-4.646-4.645h-79.374c-2.562.008-4.638 2.083-4.646 4.645V66.35c.006 2.565 2.082 4.642 4.646 4.65h79.373c2.56-.008 4.636-2.083 4.645-4.645v-22.91H17.76v3.238L28 39.498z"/><path id="f" d="M409 159.498l-10.24-7.185v3.238h-24.095v-32.905c-.01-2.562-2.084-4.637-4.646-4.645H250.645c-2.562.008-4.638 2.083-4.646 4.645v73.706c.006 2.565 2.082 4.642 4.646 4.65H370.02c2.56-.008 4.636-2.083 4.645-4.645v-32.91h24.094v3.238l10.24-7.185z"/><path id="g" d="M303 225.37l7.184 10.25 7.185-10.25h-3.24v-24.116h3.24L310.183 191 303 201.254h3.238v24.115z"/><path id="h" d="M304 301.37l7.184 10.25 7.185-10.25h-3.24v-34.116h3.24L311.183 257 304 267.254h3.238v34.115z"/><path id="i" d="M0 0h24v31H0z"/><path id="k" d="M4 16.37l7.184 10.25 7.185-10.25h-3.24v-34.116h3.24L11.183-28 4-17.746h3.238V16.37z"/><path id="l" d="M303 119.37l7.184 10.25 7.185-10.25h-3.24V95.253h3.24L310.183 85 303 95.254h3.238v24.115z"/><path id="m" d="M256 159.498l-10.24-7.185v3.238h-24.095v-22.905c-.01-2.562-2.084-4.637-4.646-4.645h-79.374c-2.562.008-4.638 2.083-4.646 4.645v53.706c.006 2.565 2.082 4.642 4.646 4.65h79.373c2.56-.008 4.636-2.083 4.645-4.645v-22.91h24.094v3.238l10.24-7.185z"/><path id="n" d="M144 159.498l-10.24-7.184v3.238H88.665v-17.908c-.008-2.56-2.083-4.636-4.645-4.644H4.647c-2.563.008-4.638 2.083-4.646 4.644v43.708c.006 2.563 2.082 4.64 4.646 4.648H84.02c2.563-.008 4.638-2.083 4.646-4.644v-17.912h45.093v3.238l10.24-7.184z"/></defs><g fill="none" fill-rule="evenodd"><path fill="#C8EDFA" d="M212 0h200c5.523 0 10 4.477 10 10v40H202V10c0-5.523 4.477-10 10-10z"/><path fill="#C8EDFA" d="M122 35h380c5.523 0 10 4.477 10 10v230c0 5.523-4.477 10-10 10H122c-5.523 0-10-4.477-10-10V45c0-5.523 4.477-10 10-10z"/><path fill="#282D38" d="M225.654 25.216c0 .476.378.854.868.854.476 0 .854-.378.854-.854v-2.03l1.596-1.54 3.15 4.018c.182.238.392.406.728.406.49 0 .868-.364.868-.84 0-.266-.098-.434-.238-.616l-3.304-4.102 3.052-2.94c.196-.182.308-.378.308-.644 0-.42-.322-.798-.798-.798-.308 0-.518.112-.714.322l-4.648 4.676v-4.144c0-.476-.378-.854-.854-.854-.49 0-.868.378-.868.854v8.232zm10.85.784h5.768c.42 0 .77-.336.77-.77 0-.42-.35-.77-.77-.77h-4.914v-2.632h4.214c.42 0 .77-.336.77-.756 0-.434-.35-.784-.77-.784h-4.214V17.74h4.844c.42 0 .77-.336.77-.77 0-.42-.35-.77-.77-.77h-5.698c-.49 0-.868.378-.868.868v8.064c0 .49.378.868.868.868zm8.512-.868v-8.064c0-.49.378-.868.868-.868h3.528c1.12 0 2.002.308 2.562.868.434.434.658.966.658 1.624v.028c0 1.176-.672 1.806-1.4 2.184 1.148.392 1.946 1.05 1.946 2.38v.028c0 1.75-1.442 2.688-3.626 2.688h-3.668c-.49 0-.868-.378-.868-.868zm1.694-4.802h2.352c1.106 0 1.848-.434 1.848-1.33v-.028c0-.77-.616-1.246-1.722-1.246h-2.478v2.604zm0 4.144h2.856c1.176 0 1.89-.462 1.89-1.344v-.028c0-.826-.658-1.316-2.016-1.316h-2.73v2.688zm13.09 1.694c-3.01 0-5.11-2.282-5.11-5.04V21.1c0-2.758 2.128-5.068 5.138-5.068s5.11 2.282 5.11 5.04v.028c0 2.758-2.128 5.068-5.138 5.068zm.028-1.596c1.946 0 3.304-1.54 3.304-3.444V21.1c0-1.904-1.386-3.486-3.332-3.486s-3.304 1.554-3.304 3.458v.028c0 1.904 1.386 3.472 3.332 3.472zm11.872 1.596c-3.01 0-5.11-2.282-5.11-5.04V21.1c0-2.758 2.128-5.068 5.138-5.068s5.11 2.282 5.11 5.04v.028c0 2.758-2.128 5.068-5.138 5.068zm.028-1.596c1.946 0 3.304-1.54 3.304-3.444V21.1c0-1.904-1.386-3.486-3.332-3.486s-3.304 1.554-3.304 3.458v.028c0 1.904 1.386 3.472 3.332 3.472zm7.196.56c0 .49.378.868.868.868h5.292c.434 0 .784-.35.784-.784 0-.434-.35-.784-.784-.784h-4.438v-7.448c0-.476-.378-.854-.854-.854-.49 0-.868.378-.868.854v8.148zm7.994.14c0-.126.042-.252.112-.392l3.64-8.12c.196-.434.546-.7 1.036-.7h.084c.49 0 .826.266 1.022.7l3.64 8.12c.07.126.098.252.098.364 0 .462-.35.826-.812.826-.406 0-.686-.238-.84-.602l-.798-1.834h-4.76l-.826 1.89c-.14.35-.434.546-.798.546-.448 0-.798-.35-.798-.798zm3.08-3.164h3.444l-1.722-3.962-1.722 3.962zm17.164 4.06c1.582 0 2.632-.504 3.556-1.316.154-.14.28-.35.28-.616 0-.434-.378-.798-.812-.798-.21 0-.392.084-.518.196-.714.602-1.414.938-2.45.938-1.876 0-3.234-1.554-3.234-3.472v-.028c0-1.918 1.372-3.458 3.234-3.458.938 0 1.666.336 2.338.882.112.084.28.168.518.168.476 0 .854-.364.854-.84 0-.308-.154-.546-.336-.686-.854-.658-1.848-1.106-3.36-1.106-2.968 0-5.054 2.282-5.054 5.068v.028c0 2.814 2.128 5.04 4.984 5.04zm10.178 0c-3.01 0-5.11-2.282-5.11-5.04V21.1c0-2.758 2.128-5.068 5.138-5.068s5.11 2.282 5.11 5.04v.028c0 2.758-2.128 5.068-5.138 5.068zm.028-1.596c1.946 0 3.304-1.54 3.304-3.444V21.1c0-1.904-1.386-3.486-3.332-3.486s-3.304 1.554-3.304 3.458v.028c0 1.904 1.386 3.472 3.332 3.472zm7.196.658c0 .462.378.84.854.84.462 0 .84-.378.84-.84v-6.216l5.04 6.524c.238.308.49.518.896.518h.07c.476 0 .84-.378.84-.854V16.97c0-.462-.378-.84-.854-.84-.462 0-.84.378-.84.84v6.02l-4.9-6.342c-.238-.294-.476-.504-.896-.504h-.182c-.49 0-.868.392-.868.868v8.218zm11.06 0c0 .462.378.84.854.84.462 0 .84-.378.84-.84v-6.216l5.04 6.524c.238.308.49.518.896.518h.07c.476 0 .84-.378.84-.854V16.97c0-.462-.378-.84-.854-.84-.462 0-.84.378-.84.84v6.02l-4.9-6.342c-.238-.294-.476-.504-.896-.504h-.182c-.49 0-.868.392-.868.868v8.218zm11.928.77h5.768c.42 0 .77-.336.77-.77 0-.42-.35-.77-.77-.77h-4.914v-2.632h4.214c.42 0 .77-.336.77-.756 0-.434-.35-.784-.77-.784h-4.214V17.74h4.844c.42 0 .77-.336.77-.77 0-.42-.35-.77-.77-.77h-5.698c-.49 0-.868.378-.868.868v8.064c0 .49.378.868.868.868zm13.062.168c1.582 0 2.632-.504 3.556-1.316.154-.14.28-.35.28-.616 0-.434-.378-.798-.812-.798-.21 0-.392.084-.518.196-.714.602-1.414.938-2.45.938-1.876 0-3.234-1.554-3.234-3.472v-.028c0-1.918 1.372-3.458 3.234-3.458.938 0 1.666.336 2.338.882.112.084.28.168.518.168.476 0 .854-.364.854-.84 0-.308-.154-.546-.336-.686-.854-.658-1.848-1.106-3.36-1.106-2.968 0-5.054 2.282-5.054 5.068v.028c0 2.814 2.128 5.04 4.984 5.04zm8.19-.952c0 .476.392.854.868.854s.868-.378.868-.854v-7.42h2.394c.434 0 .784-.364.784-.798 0-.434-.35-.798-.784-.798h-6.51c-.448 0-.798.364-.798.798 0 .434.35.798.798.798h2.38v7.42zm6.762 0c0 .476.378.854.868.854.476 0 .854-.378.854-.854v-8.232c0-.476-.378-.854-.854-.854-.49 0-.868.378-.868.854v8.232zm9.016.952c-3.01 0-5.11-2.282-5.11-5.04V21.1c0-2.758 2.128-5.068 5.138-5.068s5.11 2.282 5.11 5.04v.028c0 2.758-2.128 5.068-5.138 5.068zm.028-1.596c1.946 0 3.304-1.54 3.304-3.444V21.1c0-1.904-1.386-3.486-3.332-3.486s-3.304 1.554-3.304 3.458v.028c0 1.904 1.386 3.472 3.332 3.472zm7.196.658c0 .462.378.84.854.84.462 0 .84-.378.84-.84v-6.216l5.04 6.524c.238.308.49.518.896.518h.07c.476 0 .84-.378.84-.854V16.97c0-.462-.378-.84-.854-.84-.462 0-.84.378-.84.84v6.02l-4.9-6.342c-.238-.294-.476-.504-.896-.504h-.182c-.49 0-.868.392-.868.868v8.218z"/><g stroke-linecap="square" stroke-linejoin="round" transform="translate(2)"><use fill="#FFF" xlink:href="#a"/><path stroke="#25B8EB" stroke-width="2" d="M624 139.72v41.56c-.01 3.667-2.488 6.707-5.664 6.72H538.66c-3.174-.013-5.653-3.057-5.66-6.727V139.72c.01-3.667 2.488-6.707 5.664-6.72h79.676c3.172.013 5.65 3.053 5.66 6.72z"/></g><path fill="#282D38" d="M570 157.318v-6.336c0-.385.296-.682.68-.682h2.19c2.42 0 4.092 1.66 4.092 3.828v.022c0 2.167-1.672 3.85-4.092 3.85h-2.19c-.384 0-.68-.297-.68-.682zm1.352-.55h1.518c1.617 0 2.673-1.09 2.673-2.596v-.022c0-1.507-1.056-2.618-2.673-2.618h-1.518v5.236zm8.767 1.353c-1.09 0-2.058-.626-2.058-1.792v-.022c0-1.254.98-1.87 2.398-1.87.65 0 1.11.1 1.562.242v-.143c0-.825-.506-1.265-1.44-1.265-.507 0-.925.088-1.288.23-.077.023-.143.034-.21.034-.307 0-.56-.242-.56-.55 0-.242.165-.45.363-.528.55-.21 1.11-.34 1.87-.34.87 0 1.518.23 1.925.648.43.418.627 1.034.627 1.793v2.86c0 .363-.287.638-.65.638-.385 0-.65-.264-.65-.56v-.22c-.395.472-1 .846-1.89.846zm.373-.967c.88 0 1.55-.506 1.55-1.243v-.396c-.34-.132-.79-.23-1.32-.23-.857 0-1.363.362-1.363.967v.023c0 .56.495.88 1.133.88zm6.303.946c.352 0 .627-.056.913-.155.186-.077.35-.275.35-.517 0-.308-.263-.55-.56-.55-.044 0-.176.033-.33.033-.45 0-.715-.208-.715-.725v-2.85h1.045c.32 0 .583-.252.583-.57 0-.32-.264-.573-.583-.573h-1.045v-.99c0-.363-.297-.66-.66-.66-.374 0-.67.297-.67.66v.99h-.22c-.32 0-.573.253-.573.572 0 .32.253.572.572.572h.22v3.058c0 1.276.693 1.705 1.672 1.705zm4.246.02c-1.09 0-2.057-.626-2.057-1.792v-.022c0-1.254.98-1.87 2.398-1.87.65 0 1.11.1 1.562.242v-.143c0-.825-.506-1.265-1.44-1.265-.507 0-.925.088-1.288.23-.077.023-.143.034-.21.034-.307 0-.56-.242-.56-.55 0-.242.165-.45.363-.528.55-.21 1.11-.34 1.87-.34.87 0 1.518.23 1.925.648.43.418.627 1.034.627 1.793v2.86c0 .363-.286.638-.65.638-.384 0-.648-.264-.648-.56v-.22c-.396.472-1 .846-1.892.846zm.374-.967c.88 0 1.55-.506 1.55-1.243v-.396c-.34-.132-.79-.23-1.32-.23-.857 0-1.363.362-1.363.967v.023c0 .56.495.88 1.133.88zm-41.817 12.98c1.242 0 2.067-.397 2.793-1.035.12-.11.22-.275.22-.484 0-.34-.297-.627-.638-.627-.164 0-.308.066-.407.154-.56.474-1.11.738-1.924.738-1.475 0-2.542-1.22-2.542-2.728v-.022c0-1.507 1.08-2.717 2.542-2.717.736 0 1.308.265 1.837.694.088.066.22.132.408.132.373 0 .67-.286.67-.66 0-.242-.12-.43-.264-.54-.67-.516-1.452-.868-2.64-.868-2.332 0-3.97 1.793-3.97 3.982v.022c0 2.21 1.672 3.96 3.916 3.96zm7.04 0c-1.77 0-3.08-1.354-3.08-3.004v-.023c0-1.66 1.32-3.036 3.102-3.036 1.78 0 3.09 1.354 3.09 3.015v.022c0 1.65-1.32 3.025-3.112 3.025zm.022-1.167c1.077 0 1.76-.836 1.76-1.837v-.023c0-1.023-.738-1.87-1.783-1.87-1.067 0-1.75.836-1.75 1.848v.022c0 1.012.738 1.86 1.772 1.86zm4.443.43c0 .373.298.66.66.66.375 0 .672-.287.672-.66v-2.674c0-.902.538-1.44 1.308-1.44.793 0 1.244.516 1.244 1.418v2.695c0 .374.295.66.67.66.374 0 .66-.286.66-.66v-3.102c0-1.342-.76-2.222-2.07-2.222-.9 0-1.44.474-1.813 1.013v-.286c0-.374-.298-.67-.672-.67-.374 0-.66.296-.66.67v4.598zm8.812.714c1.21 0 2.155-.605 2.155-1.826v-.022c0-1.045-.957-1.43-1.803-1.694-.683-.22-1.31-.396-1.31-.825v-.022c0-.33.296-.57.813-.57.408 0 .89.153 1.365.395.087.044.154.066.264.066.308 0 .55-.23.55-.538 0-.23-.133-.407-.32-.506-.56-.297-1.21-.473-1.825-.473-1.155 0-2.068.67-2.068 1.77v.023c0 1.11.956 1.463 1.813 1.705.683.21 1.298.364 1.298.815v.022c0 .385-.33.627-.9.627-.53 0-1.112-.187-1.673-.56-.077-.045-.176-.078-.286-.078-.307 0-.538.242-.538.54 0 .22.11.384.254.46.67.463 1.473.694 2.21.694zm8.678-5.313c0-.374-.308-.67-.67-.67-.374 0-.67.296-.67.67v2.673c0 .902-.54 1.43-1.31 1.43-.793 0-1.244-.506-1.244-1.408v-2.695c0-.374-.296-.67-.67-.67-.362 0-.66.296-.66.67v3.09c0 1.354.76 2.234 2.068 2.234.903 0 1.442-.472 1.816-1.022v.297c0 .374.308.66.67.66.375 0 .672-.297.672-.66v-4.598zm1.66 4.598c0 .374.298.66.662.66.373 0 .67-.286.67-.66v-2.673c0-.89.506-1.44 1.244-1.44.737 0 1.178.505 1.178 1.407v2.705c0 .374.296.66.67.66.364 0 .66-.286.66-.66v-2.673c0-.935.518-1.44 1.244-1.44.748 0 1.177.494 1.177 1.418v2.695c0 .374.296.66.67.66.374 0 .66-.286.66-.66v-3.102c0-1.42-.77-2.222-2.036-2.222-.88 0-1.495.408-1.957 1.024-.308-.616-.903-1.023-1.738-1.023-.893 0-1.4.485-1.773 1.002v-.275c0-.374-.297-.67-.67-.67-.375 0-.66.296-.66.67v4.598zm10.452 1.76v-6.358c0-.374.285-.67.66-.67.374 0 .67.296.67.67v.363c.43-.605 1.034-1.09 1.98-1.09 1.364 0 2.695 1.08 2.695 3.015v.022c0 1.925-1.32 3.014-2.694 3.014-.97 0-1.574-.483-1.98-1.022v2.057c0 .374-.298.66-.672.66-.362 0-.66-.286-.66-.66zm2.99-2.19c.914 0 1.663-.714 1.663-1.858v-.022c0-1.122-.76-1.86-1.662-1.86-.9 0-1.693.75-1.693 1.86v.022c0 1.11.792 1.86 1.693 1.86zm6.337 1.134c.352 0 .628-.056.913-.155.188-.077.352-.275.352-.517 0-.308-.264-.55-.56-.55-.046 0-.178.033-.332.033-.45 0-.715-.208-.715-.725v-2.85h1.046c.317 0 .582-.252.582-.57 0-.32-.264-.573-.583-.573h-1.047v-.99c0-.363-.297-.66-.66-.66-.374 0-.67.297-.67.66v.99h-.22c-.32 0-.572.253-.572.572 0 .32.253.572.572.572h.22v3.058c0 1.276.694 1.705 1.673 1.705zm2.553-7.404c0 .396.33.66.76.66.428 0 .758-.264.758-.66v-.066c0-.396-.33-.65-.76-.65-.428 0-.76.254-.76.65v.066zm.1 6.7c0 .373.295.66.66.66.373 0 .67-.287.67-.66v-4.6c0-.373-.298-.67-.672-.67-.374 0-.66.297-.66.67v4.6zm5.828.736c-1.77 0-3.08-1.353-3.08-3.003v-.023c0-1.66 1.32-3.036 3.103-3.036 1.78 0 3.09 1.354 3.09 3.015v.022c0 1.65-1.32 3.025-3.113 3.025zm.023-1.166c1.077 0 1.76-.836 1.76-1.837v-.023c0-1.023-.737-1.87-1.783-1.87-1.067 0-1.75.836-1.75 1.848v.022c0 1.012.74 1.86 1.773 1.86zm4.443.43c0 .373.298.66.66.66.375 0 .673-.287.673-.66v-2.674c0-.902.538-1.44 1.308-1.44.793 0 1.245.516 1.245 1.418v2.695c0 .374.297.66.67.66.375 0 .66-.286.66-.66v-3.102c0-1.342-.76-2.222-2.067-2.222-.903 0-1.442.474-1.816 1.013v-.286c0-.374-.297-.67-.67-.67-.375 0-.66.296-.66.67v4.598z"/><g stroke-linecap="square" stroke-linejoin="round" transform="translate(2)"><use fill="#FFF" xlink:href="#b"/><path stroke="#25B8EB" stroke-width="2" d="M376 306.64v33.72c-.01 3.112-2.54 5.63-5.664 5.64H250.66c-3.122-.01-5.652-2.53-5.66-5.646V306.64c.01-3.112 2.54-5.63 5.664-5.64H370.34c3.12.01 5.65 2.528 5.66 5.64z"/></g><path fill="#282D38" d="M265.69 327.132c1.606 0 2.695-1.023 2.695-2.442v-.022c0-1.42-1.1-2.013-2.267-2.156l1.815-1.88c.23-.232.385-.42.385-.738 0-.363-.285-.594-.67-.594h-3.94c-.33 0-.593.264-.593.594 0 .32.264.583.594.583h2.793l-1.803 1.925c-.21.21-.286.374-.286.55 0 .32.264.583.583.583h.274c1.08 0 1.773.43 1.773 1.188v.022c0 .704-.572 1.166-1.332 1.166-.713 0-1.263-.252-1.748-.736-.11-.1-.252-.176-.45-.176-.353 0-.65.297-.65.65 0 .197.1.384.22.483.627.606 1.475 1.002 2.608 1.002zm4.212-.737c0 .374.298.66.66.66.375 0 .67-.297.67-.66v-1.716c0-1.376.65-2.102 1.596-2.267.298-.055.53-.286.53-.638-.002-.385-.243-.66-.66-.66-.584 0-1.156.55-1.464 1.276v-.593c0-.374-.297-.67-.67-.67-.376 0-.662.296-.662.67v4.598zm10.088-6.82v6.82c0 .374-.298.66-.66.66-.375 0-.67-.286-.67-.66l-.002-.363c-.43.605-1.034 1.09-1.98 1.09-1.363 0-2.695-1.09-2.695-3.015v-.022c0-1.925 1.31-3.014 2.695-3.014.957 0 1.563.474 1.98 1.024v-2.52c0-.373.297-.66.66-.66.375 0 .672.287.672.66zm-2.993 2.65c-.913 0-1.672.705-1.672 1.86v.022c0 1.122.77 1.86 1.673 1.86.89 0 1.683-.75 1.683-1.86v-.022c0-1.122-.79-1.86-1.683-1.86zm8.118 4.16v-6.403c0-.385.298-.682.683-.682h2.353c1.805 0 2.928 1.023 2.928 2.574v.022c0 1.727-1.386 2.63-3.08 2.63h-1.53v1.858c0 .374-.297.67-.67.67-.385 0-.683-.296-.683-.67zm1.353-3.08h1.573c1.024 0 1.662-.573 1.662-1.376v-.023c0-.902-.65-1.375-1.66-1.375h-1.573l-.002 2.772zm7.404 3.816c-1.09 0-2.058-.626-2.058-1.792v-.022c0-1.254.98-1.87 2.398-1.87.65 0 1.112.1 1.563.242v-.143c0-.825-.506-1.265-1.44-1.265-.507 0-.925.088-1.288.23-.078.023-.144.034-.21.034-.308 0-.56-.242-.56-.55 0-.242.165-.45.363-.528.55-.21 1.11-.34 1.87-.34.868 0 1.517.23 1.925.648.428.418.627 1.034.627 1.793v2.86c0 .363-.286.638-.65.638-.385 0-.648-.264-.648-.56v-.22c-.397.472-1.002.846-1.892.846zm.373-.967c.88 0 1.55-.506 1.55-1.243v-.396c-.34-.132-.79-.23-1.32-.23-.857 0-1.363.362-1.363.967v.023c0 .56.495.88 1.133.88zm4.41.242c.002.374.3.66.662.66.373 0 .67-.297.67-.66v-1.716c0-1.376.65-2.102 1.595-2.267.298-.055.53-.286.53-.638-.002-.385-.244-.66-.662-.66-.582 0-1.154.55-1.462 1.276v-.593c0-.374-.298-.67-.67-.67-.375 0-.66.296-.66.67l-.002 4.598zm6.492.704c.35 0 .627-.056.913-.155.187-.077.35-.275.35-.517 0-.308-.263-.55-.56-.55-.043 0-.175.033-.33.033-.45 0-.714-.208-.714-.725v-2.85h1.045c.32 0 .583-.252.583-.57 0-.32-.263-.573-.582-.573h-1.045v-.99c0-.363-.296-.66-.66-.66-.373 0-.67.297-.67.66v.99h-.22c-.32 0-.572.253-.572.572 0 .32.252.572.572.572h.22v3.058c0 1.276.692 1.705 1.67 1.705zm3.63 1.693c.935 0 1.463-.44 1.958-1.628l2.123-5.093c.022-.066.055-.21.055-.32 0-.35-.286-.626-.64-.626-.34 0-.526.23-.637.506l-1.452 3.86-1.562-3.86c-.12-.308-.308-.506-.65-.506-.373 0-.66.275-.66.65 0 .087.034.22.078.318l2.156 4.818-.043.12c-.22.452-.43.617-.825.617-.188 0-.308-.034-.462-.078-.067-.022-.132-.044-.243-.044-.286 0-.538.22-.538.55 0 .32.22.484.418.55.274.11.55.165.923.165zm11.55-1.683c1.616 0 2.75-.858 2.75-2.3v-.02c0-1.277-.837-1.86-2.464-2.256-1.486-.352-1.837-.616-1.837-1.21v-.022c0-.506.462-.913 1.253-.913.605 0 1.177.197 1.77.582.11.066.22.1.352.1.353 0 .64-.276.64-.628 0-.264-.144-.45-.298-.54-.694-.46-1.475-.714-2.443-.714-1.528 0-2.627.913-2.627 2.233v.022c0 1.42.923 1.903 2.563 2.3 1.43.33 1.738.626 1.738 1.176v.023c0 .572-.53.968-1.364.968-.837 0-1.52-.285-2.156-.79-.09-.067-.21-.122-.397-.122-.352 0-.637.275-.637.627 0 .22.11.407.263.517.858.638 1.85.968 2.894.968zm5.192-3.42h2.98c-.09-.86-.594-1.53-1.474-1.53-.815 0-1.387.627-1.507 1.53zm3.75 2.672c-.53.473-1.188.77-2.09.77-1.683 0-2.98-1.22-2.98-3.014v-.022c0-1.66 1.175-3.025 2.837-3.025 1.848 0 2.76 1.52 2.76 2.86 0 .375-.286.64-.627.64h-3.64c.143.945.814 1.473 1.672 1.473.56 0 1-.198 1.375-.506.1-.077.187-.12.34-.12.298 0 .53.23.53.538-.002.165-.08.308-.178.407zm1.892.033c0 .374.297.66.66.66.373 0 .67-.297.67-.66v-1.716c0-1.376.65-2.102 1.595-2.267.298-.055.53-.286.53-.638-.002-.385-.244-.66-.662-.66-.582 0-1.154.55-1.462 1.276v-.593c0-.374-.298-.67-.67-.67-.375 0-.66.296-.66.67l-.002 4.598zm7.722.132l1.935-4.444c.033-.066.077-.198.077-.32 0-.362-.286-.637-.65-.637-.35 0-.528.23-.627.462l-1.517 3.872-1.497-3.85c-.11-.275-.296-.484-.66-.484-.363 0-.66.308-.66.638 0 .12.044.23.077.33l1.937 4.433c.154.352.395.583.758.583h.067c.363 0 .604-.242.76-.583zm3.244-6.83c0 .395.33.66.76.66s.76-.265.76-.66l-.002-.067c0-.396-.33-.65-.76-.65-.428 0-.758.254-.758.65v.066zm.1 6.698c0 .374.296.66.66.66.374 0 .67-.286.67-.66v-4.598c0-.374-.296-.67-.67-.67-.374 0-.66.296-.66.67v4.598zm5.752.737c.97 0 1.595-.33 2.112-.825.122-.1.188-.242.188-.418 0-.32-.253-.584-.572-.584-.155 0-.287.077-.364.143-.363.307-.77.516-1.298.516-1.022 0-1.738-.825-1.738-1.86v-.02c0-1.013.716-1.85 1.683-1.85.53 0 .904.21 1.245.496.087.066.23.132.395.132.34 0 .617-.264.617-.605 0-.22-.122-.386-.21-.463-.494-.43-1.12-.726-2.034-.726-1.75 0-3.025 1.387-3.025 3.037v.022c0 1.65 1.275 3.002 3.002 3.002zm4.433-3.443h2.98c-.086-.86-.592-1.53-1.472-1.53-.814 0-1.386.627-1.507 1.53zm3.75 2.672c-.526.473-1.187.77-2.09.77-1.68 0-2.98-1.22-2.98-3.014v-.022c0-1.66 1.178-3.025 2.84-3.025 1.846 0 2.76 1.52 2.76 2.86 0 .375-.286.64-.627.64h-3.64c.142.945.813 1.473 1.67 1.473.562 0 1.002-.198 1.375-.506.1-.077.188-.12.342-.12.298 0 .53.23.53.538 0 .165-.078.308-.178.407zm3.885.748c1.21 0 2.156-.605 2.156-1.826v-.022c0-1.045-.957-1.43-1.805-1.694-.683-.22-1.31-.396-1.31-.825v-.022c0-.33.298-.57.815-.57.407 0 .89.153 1.364.395.087.044.153.066.263.066.308 0 .55-.23.55-.538 0-.23-.133-.407-.32-.506-.56-.297-1.21-.473-1.825-.473-1.155 0-2.068.67-2.068 1.77v.023c0 1.11.957 1.463 1.815 1.705.68.21 1.298.364 1.298.815v.022c0 .385-.33.627-.903.627-.527 0-1.11-.187-1.67-.56-.08-.045-.178-.078-.288-.078-.308 0-.538.242-.538.54 0 .22.11.384.252.46.67.463 1.474.694 2.212.694z"/><path fill="#25B8EB" d="M377 56.643c-.008-2.56-2.09-4.635-4.664-4.643H252.664c-2.573.008-4.656 2.082-4.664 4.643v33.71c.006 2.563 2.09 4.64 4.664 4.647h119.672c2.573-.008 4.656-2.082 4.664-4.643V56.643z"/><path fill="#FFF" d="M270.25 76.384c0 .374.308.67.682.67.373 0 .68-.296.68-.67v-5.83h1.882c.34 0 .616-.286.616-.627 0-.34-.274-.627-.615-.627h-5.115c-.353 0-.627.286-.627.627 0 .34.274.627.627.627h1.87v5.83zm4.29.01c0 .375.296.66.66.66.374 0 .67-.296.67-.66V74.68c0-1.376.65-2.102 1.596-2.267.296-.055.527-.286.527-.638 0-.385-.24-.66-.66-.66-.583 0-1.155.55-1.463 1.276v-.593c0-.374-.296-.67-.67-.67-.375 0-.66.296-.66.67v4.598zm5.94.727c-1.09 0-2.058-.626-2.058-1.792v-.022c0-1.254.98-1.87 2.398-1.87.65 0 1.112.1 1.563.242v-.143c0-.825-.506-1.265-1.44-1.265-.507 0-.925.088-1.288.23-.077.023-.143.034-.21.034-.308 0-.56-.242-.56-.55 0-.242.165-.45.363-.528.55-.21 1.11-.34 1.87-.34.868 0 1.517.23 1.925.648.428.418.627 1.034.627 1.793v2.86c0 .363-.286.638-.65.638-.385 0-.648-.264-.648-.56v-.22c-.397.472-1.002.846-1.893.846zm.373-.967c.88 0 1.55-.506 1.55-1.243v-.396c-.34-.132-.79-.23-1.32-.23-.857 0-1.363.362-1.363.967v.023c0 .56.495.88 1.133.88zm4.41.242c.002.374.3.66.662.66.373 0 .67-.286.67-.66v-2.673c0-.902.54-1.44 1.31-1.44.792 0 1.243.516 1.243 1.418v2.695c0 .374.296.66.67.66.375 0 .66-.286.66-.66v-3.102c0-1.342-.76-2.222-2.067-2.222-.9 0-1.44.474-1.815 1.013v-.286c0-.374-.297-.67-.67-.67-.375 0-.66.296-.66.67v4.598zm8.813.715c1.21 0 2.155-.605 2.155-1.826v-.022c0-1.045-.956-1.43-1.803-1.694-.682-.22-1.31-.396-1.31-.825v-.022c0-.33.298-.57.815-.57.407 0 .892.153 1.364.395.09.044.154.066.264.066.308 0 .55-.23.55-.538 0-.23-.132-.407-.32-.506-.56-.297-1.21-.473-1.825-.473-1.154 0-2.067.67-2.067 1.77v.023c0 1.11.956 1.463 1.814 1.705.683.21 1.298.364 1.298.815v.022c0 .385-.33.627-.9.627-.53 0-1.113-.187-1.673-.56-.077-.045-.177-.078-.286-.078-.308 0-.538.242-.538.54 0 .22.11.384.252.46.672.463 1.475.694 2.212.694zm3.816-.715c0 .363.298.66.66.66.374 0 .67-.297.67-.66l.002-4.06h1.012c.308 0 .56-.24.56-.55 0-.307-.24-.55-.56-.55h-1.034v-.318c0-.605.264-.88.77-.88.088 0 .198.01.275.022.308.01.56-.243.56-.55 0-.298-.22-.518-.462-.55-.187-.034-.407-.056-.67-.056-.572 0-1.002.154-1.31.462-.308.308-.473.792-.473 1.43v.43h-.23c-.308 0-.56.252-.56.56 0 .308.252.55.56.55h.23v4.06zm6.49.737c-1.77 0-3.08-1.353-3.08-3.003v-.023c0-1.66 1.32-3.036 3.102-3.036 1.783 0 3.09 1.354 3.09 3.015v.022c0 1.65-1.32 3.025-3.112 3.025zm.022-1.166c1.08 0 1.76-.836 1.76-1.837v-.023c0-1.023-.736-1.87-1.78-1.87-1.07 0-1.75.836-1.75 1.848v.022c0 1.012.736 1.86 1.77 1.86zm4.445.43c-.002.373.296.66.66.66.373 0 .67-.298.67-.66v-1.717c0-1.376.65-2.102 1.594-2.267.298-.055.53-.286.53-.638 0-.385-.243-.66-.66-.66-.584 0-1.156.55-1.464 1.276v-.593c0-.374-.298-.67-.67-.67-.375 0-.66.296-.66.67l-.002 4.598zm4.54 0c.002.373.298.66.66.66.375 0 .673-.287.673-.66V73.72c0-.89.505-1.44 1.243-1.44.736 0 1.176.505 1.176 1.407v2.705c0 .374.298.66.67.66.364 0 .66-.286.66-.66l.002-2.673c0-.935.517-1.44 1.243-1.44.748 0 1.177.494 1.177 1.418v2.695c0 .374.296.66.67.66.374 0 .66-.286.66-.66v-3.102c0-1.42-.77-2.222-2.034-2.222-.88 0-1.497.408-1.96 1.024-.307-.616-.9-1.023-1.737-1.023-.89 0-1.397.485-1.77 1.002v-.275c0-.374-.298-.67-.672-.67-.373 0-.66.296-.66.67l.002 4.598zm12.124.725c-1.09 0-2.058-.626-2.058-1.792v-.022c0-1.254.98-1.87 2.398-1.87.65 0 1.112.1 1.563.242v-.143c0-.825-.506-1.265-1.44-1.265-.507 0-.925.088-1.288.23-.08.023-.144.034-.21.034-.31 0-.562-.242-.562-.55 0-.242.166-.45.363-.528.552-.21 1.113-.34 1.872-.34.87 0 1.518.23 1.925.648.428.418.627 1.034.627 1.793v2.86c0 .363-.286.638-.65.638-.384 0-.648-.264-.648-.56v-.22c-.397.472-1.002.846-1.892.846zm.373-.967c.88 0 1.55-.506 1.55-1.243v-.396c-.34-.132-.79-.23-1.32-.23-.857 0-1.363.362-1.363.967v.023c0 .56.495.88 1.133.88zm6.303.946c.353 0 .627-.056.913-.155.188-.077.352-.275.352-.517 0-.308-.263-.55-.56-.55-.044 0-.176.033-.33.033-.452 0-.716-.208-.716-.725v-2.85h1.044c.32 0 .584-.252.584-.57 0-.32-.264-.573-.584-.573h-1.045v-.99c0-.363-.298-.66-.66-.66-.375 0-.67.297-.67.66v.99h-.22c-.32 0-.574.253-.574.572 0 .32.253.572.572.572h.22v3.058c0 1.276.694 1.705 1.673 1.705zm2.553-7.404c0 .396.33.66.76.66.428 0 .757-.264.757-.66v-.066c0-.396-.33-.65-.758-.65-.43 0-.76.254-.76.65v.066zm.1 6.7c-.002.373.296.66.66.66.373 0 .67-.287.67-.66v-4.6c0-.373-.298-.67-.67-.67-.375 0-.66.297-.66.67l-.002 4.6zm5.828.736c-1.77 0-3.08-1.353-3.08-3.003l.002-.023c0-1.66 1.32-3.036 3.1-3.036 1.784 0 3.092 1.354 3.092 3.015v.022c0 1.65-1.32 3.025-3.113 3.025zm.023-1.166c1.08 0 1.76-.836 1.76-1.837v-.023c0-1.023-.736-1.87-1.78-1.87-1.07 0-1.75.836-1.75 1.848v.022c0 1.012.736 1.86 1.77 1.86zm4.445.43c0 .373.297.66.66.66.373 0 .67-.287.67-.66V73.72c0-.902.54-1.44 1.31-1.44.79 0 1.243.516 1.243 1.418v2.695c0 .374.298.66.672.66.373 0 .66-.286.66-.66v-3.102c0-1.342-.76-2.222-2.068-2.222-.902 0-1.442.474-1.815 1.013l-.002-.286c0-.374-.297-.67-.67-.67-.375 0-.66.296-.66.67v4.598zm8.81.714c1.21 0 2.156-.605 2.156-1.826v-.022c0-1.045-.957-1.43-1.803-1.694-.682-.22-1.31-.396-1.31-.825v-.022c0-.33.298-.57.815-.57.407 0 .892.153 1.365.395.087.044.154.066.263.066.308 0 .55-.23.55-.538 0-.23-.132-.407-.32-.506-.56-.297-1.21-.473-1.825-.473-1.155 0-2.067.67-2.067 1.77v.023c0 1.11.958 1.463 1.816 1.705.68.21 1.298.364 1.298.815v.022c0 .385-.33.627-.903.627-.526 0-1.11-.187-1.67-.56-.077-.045-.176-.078-.286-.078-.308 0-.54.242-.54.54 0 .22.11.384.254.46.67.463 1.474.694 2.21.694z"/><path fill="#25B8EB" d="M377 229.643c-.008-2.56-2.09-4.635-4.664-4.643H252.664c-2.573.008-4.656 2.082-4.664 4.643v33.71c.006 2.563 2.09 4.64 4.664 4.647h119.672c2.573-.008 4.656-2.082 4.664-4.643v-33.714z"/><path fill="#FFF" d="M278.23 249.428c0-.1.032-.198.087-.308l2.86-6.38c.154-.34.43-.55.814-.55h.067c.385 0 .65.21.803.55l2.86 6.38c.055.1.077.198.077.286 0 .363-.275.65-.638.65-.32 0-.54-.188-.66-.474l-.627-1.44h-3.74l-.65 1.484c-.11.275-.34.43-.627.43-.35 0-.627-.276-.627-.628zm2.42-2.486h2.706l-1.353-3.113-1.353 3.112zm6.457 4.213v-6.358c0-.374.285-.67.66-.67.373 0 .67.296.67.67v.363c.43-.605 1.034-1.09 1.98-1.09 1.365 0 2.696 1.08 2.696 3.015v.022c0 1.925-1.32 3.014-2.695 3.014-.97 0-1.574-.483-1.98-1.022v2.057c0 .374-.298.66-.67.66-.364 0-.66-.286-.66-.66zm2.99-2.19c.915 0 1.663-.714 1.663-1.858v-.022c0-1.122-.76-1.86-1.66-1.86-.904 0-1.696.75-1.696 1.86v.022c0 1.11.793 1.86 1.695 1.86zm4.39 2.19v-6.358c0-.374.286-.67.66-.67.375 0 .67.296.67.67v.363c.43-.605 1.036-1.09 1.98-1.09 1.365 0 2.696 1.08 2.696 3.015v.022c0 1.925-1.32 3.014-2.695 3.014-.968 0-1.572-.483-1.98-1.022v2.057c0 .374-.296.66-.67.66-.364 0-.66-.286-.66-.66zm2.992-2.19c.912 0 1.66-.714 1.66-1.858v-.022c0-1.122-.758-1.86-1.66-1.86-.903 0-1.695.75-1.695 1.86v.022c0 1.11.792 1.86 1.694 1.86zm4.465.43c0 .374.298.66.66.66.374 0 .67-.286.67-.66l.002-6.82c0-.363-.298-.66-.67-.66-.376 0-.662.297-.662.66v6.82zm3.048-6.7c0 .397.33.66.76.66.428 0 .757-.263.757-.66v-.065c0-.396-.33-.65-.758-.65-.43 0-.76.254-.76.65v.066zm.1 6.7c-.002.374.296.66.66.66.373 0 .67-.286.67-.66v-4.598c0-.374-.298-.67-.67-.67-.375 0-.66.296-.66.67l-.002 4.598zm5.75.737c.97 0 1.596-.33 2.113-.825.12-.1.188-.242.188-.418 0-.32-.254-.584-.572-.584-.154 0-.286.077-.363.143-.364.307-.772.516-1.3.516-1.023 0-1.738-.825-1.738-1.86v-.02c0-1.013.715-1.85 1.683-1.85.53 0 .902.21 1.243.496.09.066.23.132.397.132.34 0 .615-.264.615-.605 0-.22-.12-.386-.21-.463-.493-.43-1.12-.726-2.034-.726-1.748 0-3.024 1.387-3.024 3.037v.022c0 1.65 1.276 3.002 3.002 3.002zm5.27-.01c-1.09 0-2.056-.628-2.056-1.794v-.022c0-1.254.978-1.87 2.397-1.87.65 0 1.11.1 1.563.242v-.143c0-.825-.507-1.265-1.442-1.265-.505 0-.923.088-1.286.23-.08.023-.144.034-.21.034-.308 0-.56-.242-.56-.55 0-.242.163-.45.362-.528.55-.21 1.11-.34 1.87-.34.868 0 1.517.23 1.924.648.43.418.627 1.034.627 1.793v2.86c0 .363-.286.638-.65.638-.384 0-.648-.264-.648-.56v-.22c-.395.472-1 .846-1.892.846zm.375-.97c.88 0 1.55-.505 1.55-1.242v-.396c-.34-.132-.79-.23-1.32-.23-.858 0-1.364.362-1.364.967v.023c0 .56.495.88 1.134.88zm6.303.947c.352 0 .627-.056.913-.155.188-.077.353-.275.353-.517 0-.308-.264-.55-.56-.55-.046 0-.178.033-.332.033-.45 0-.714-.208-.714-.725v-2.85h1.045c.318 0 .582-.252.582-.57 0-.32-.264-.573-.582-.573h-1.046v-.99c0-.363-.298-.66-.66-.66-.375 0-.672.297-.672.66v.99h-.22c-.32 0-.572.253-.572.572 0 .32.253.572.572.572h.22v3.058c0 1.276.694 1.705 1.673 1.705zm2.552-7.404c0 .396.33.66.76.66s.76-.264.76-.66l-.002-.066c0-.396-.33-.65-.76-.65-.428 0-.758.254-.758.65v.066zm.1 6.7c0 .373.296.66.66.66.374 0 .67-.287.67-.66v-4.6c0-.373-.296-.67-.67-.67-.374 0-.66.297-.66.67v4.6zm5.83.736c-1.772 0-3.08-1.353-3.08-3.003v-.023c0-1.66 1.32-3.036 3.1-3.036 1.784 0 3.093 1.354 3.093 3.015v.022c0 1.65-1.32 3.025-3.113 3.025zm.022-1.166c1.078 0 1.76-.836 1.76-1.837v-.023c0-1.023-.737-1.87-1.782-1.87-1.067 0-1.75.836-1.75 1.848v.022c0 1.012.738 1.86 1.772 1.86zm4.444.43c0 .373.296.66.66.66.373 0 .67-.287.67-.66v-2.674c0-.902.54-1.44 1.31-1.44.792 0 1.243.516 1.243 1.418v2.695c0 .374.298.66.67.66.375 0 .66-.286.66-.66l.002-3.102c0-1.342-.76-2.222-2.068-2.222-.903 0-1.442.474-1.816 1.013v-.286c0-.374-.296-.67-.67-.67-.375 0-.66.296-.66.67v4.598zm8.81.714c1.21 0 2.156-.605 2.156-1.826v-.022c0-1.045-.957-1.43-1.803-1.694-.68-.22-1.308-.396-1.308-.825v-.022c0-.33.297-.57.814-.57.406 0 .89.153 1.363.395.088.044.154.066.264.066.308 0 .55-.23.55-.538 0-.23-.132-.407-.32-.506-.56-.297-1.21-.473-1.826-.473-1.154 0-2.067.67-2.067 1.77v.023c0 1.11.957 1.463 1.815 1.705.683.21 1.298.364 1.298.815v.022c0 .385-.33.627-.9.627-.53 0-1.113-.187-1.674-.56-.078-.045-.177-.078-.287-.078-.308 0-.538.242-.538.54 0 .22.11.384.252.46.672.463 1.475.694 2.212.694z"/><path fill="#25B8EB" d="M544 159.498l-10.24-7.185v3.238h-44.095v-22.905c-.01-2.562-2.084-4.637-4.646-4.645h-79.374c-2.562.008-4.638 2.083-4.646 4.645v53.706c.006 2.565 2.082 4.642 4.646 4.65h79.373c2.56-.008 4.636-2.083 4.645-4.645v-22.91h44.094v3.238l10.24-7.185z"/><g transform="translate(516 120)"><mask id="d" fill="#fff"><use xlink:href="#c"/></mask><g stroke-linecap="square" stroke-linejoin="round" mask="url(#d)"><use fill="#25B8EB" xlink:href="#e"/><path stroke="#FFF" stroke-width="2" d="M16.76 44.445h-42.095v21.913c-.01 3.112-2.53 5.632-5.646 5.642h-79.377c-3.114-.01-5.635-2.533-5.643-5.65V12.643c.01-3.112 2.53-5.632 5.646-5.642h79.376c3.112.01 5.633 2.53 5.643 5.645V34.55H16.76v-4.16l12.98 9.108-12.98 9.108v-4.16z"/></g></g><path fill="#FFF" d="M430.864 154.428c.154.43.473.693.88.693h.176c.407 0 .715-.252.87-.692l1.517-4.41 1.518 4.41c.154.44.462.693.87.693h.175c.407 0 .726-.263.88-.692l2.156-6.05c.033-.1.066-.23.066-.33 0-.462-.374-.814-.836-.814-.418 0-.704.275-.814.605l-1.53 4.718-1.54-4.675c-.13-.407-.428-.67-.857-.67h-.132c-.43 0-.726.274-.858.67l-1.54 4.675-1.53-4.72c-.11-.35-.428-.604-.824-.604-.472 0-.868.352-.868.825 0 .098.033.22.066.318l2.156 6.05zm9.955-.198c0 .462.373.836.835.836.462 0 .836-.374.836-.836v-1.562c0-1.188.474-1.837 1.32-2.035.342-.077.628-.34.628-.78 0-.474-.297-.815-.814-.815-.495 0-.89.528-1.133 1.1v-.264c0-.462-.373-.836-.835-.836-.462 0-.836.374-.836.836v4.356zm4.575-6.512c0 .484.407.792.935.792s.935-.308.935-.792v-.022c0-.484-.407-.78-.935-.78s-.935.296-.935.78v.022zm.1 6.512c0 .462.373.836.835.836.462 0 .836-.374.836-.836v-4.356c0-.462-.374-.836-.836-.836-.462 0-.836.374-.836.836v4.356zm5.235.87c.363 0 .65-.045.957-.166.23-.088.43-.33.43-.627 0-.385-.32-.693-.694-.693-.033 0-.143.01-.198.01-.374 0-.54-.186-.54-.57v-2.52h.738c.396 0 .715-.32.715-.715 0-.397-.32-.716-.715-.716h-.737v-.737c0-.462-.374-.836-.836-.836-.462 0-.836.375-.836.837v.737h-.055c-.397 0-.716.32-.716.715 0 .395.32.714.715.714h.054v2.794c0 1.364.693 1.77 1.716 1.77zm3.762-3.51h2.52c-.1-.748-.54-1.254-1.244-1.254-.693 0-1.144.495-1.276 1.254zm3.487 2.827c-.518.44-1.19.715-2.047.715-1.77 0-3.08-1.243-3.08-3.047v-.022c0-1.683 1.2-3.07 2.915-3.07 1.97 0 2.838 1.618 2.838 2.84 0 .483-.34.802-.78.802h-3.312c.165.76.693 1.155 1.44 1.155.463 0 .848-.143 1.19-.396.12-.088.23-.132.406-.132.374 0 .65.286.65.66 0 .22-.1.385-.22.495zm1.902-.187c0 .462.374.836.836.836.462 0 .836-.374.836-.836v-1.562c0-1.188.473-1.837 1.32-2.035.34-.077.627-.34.627-.78 0-.474-.296-.815-.813-.815-.495 0-.89.528-1.133 1.1v-.264c0-.462-.374-.836-.836-.836-.462 0-.836.374-.836.836v4.356zm-44.105 15.43c0-.067.012-.144.055-.232l3.125-6.83c.11-.243.274-.386.55-.386h.043c.264 0 .44.143.54.385l3.124 6.82c.033.077.055.154.055.22 0 .23-.188.418-.42.418-.21 0-.352-.143-.43-.32l-.802-1.77h-4.224l-.803 1.793c-.075.187-.218.297-.416.297-.22 0-.397-.176-.397-.396zm1.96-2.487h3.54l-1.77-3.938-1.772 3.938zm7.192 2.442v-6.875c0-.242.197-.44.428-.44h2.454c1.738 0 2.88.924 2.88 2.442v.022c0 1.66-1.385 2.52-3.024 2.52h-1.87v2.33c0 .243-.197.44-.44.44-.23 0-.428-.197-.428-.44zm.868-3.124h1.904c1.276 0 2.11-.68 2.11-1.693v-.022c0-1.1-.824-1.672-2.067-1.672h-1.947v3.388zm6.556 3.125c0 .242.2.44.43.44.242 0 .44-.198.44-.44v-6.93c0-.242-.198-.44-.44-.44-.23 0-.43.198-.43.44v6.93zm10 .517c-2.344 0-3.916-1.837-3.916-3.96v-.022c0-2.123 1.595-3.982 3.938-3.982s3.916 1.837 3.916 3.96v.022c0 2.123-1.595 3.982-3.938 3.982zm.022-.803c1.76 0 3.014-1.41 3.014-3.158v-.022c0-1.75-1.276-3.18-3.036-3.18s-3.014 1.41-3.014 3.158v.022c0 1.75 1.276 3.18 3.036 3.18zm10.483-4.643c-.002-.242-.19-.43-.42-.43-.24 0-.418.188-.418.43v2.882c0 1.066-.736 1.78-1.704 1.78-1 0-1.573-.66-1.573-1.715v-2.948c0-.242-.2-.43-.43-.43-.24 0-.418.188-.418.43v3.157c0 1.353.803 2.277 2.178 2.277.98 0 1.563-.494 1.947-1.11v.616c0 .242.188.43.418.43.243 0 .418-.2.418-.43v-4.94zm3.804 5.412c.33 0 .595-.056.837-.155.144-.055.243-.176.243-.33 0-.198-.166-.363-.363-.363-.067 0-.22.077-.517.077-.572 0-.957-.254-.957-.947v-3.322h1.474c.21 0 .385-.164.385-.373 0-.198-.176-.374-.385-.374h-1.474v-1.342c0-.23-.2-.428-.43-.428-.24 0-.418.198-.418.43v1.34h-.462c-.197 0-.373.166-.373.375 0 .198.175.374.373.374h.462v3.433c0 1.155.694 1.606 1.606 1.606zm2.54 1.286v-6.7c0-.24.188-.428.42-.428.24 0 .428.187.428.43v.77c.462-.683 1.133-1.266 2.178-1.266 1.364 0 2.717 1.078 2.717 2.948v.022c0 1.86-1.34 2.96-2.716 2.96-1.055 0-1.738-.573-2.178-1.21v2.474c0 .242-.175.43-.418.43-.242 0-.43-.188-.43-.43zm2.873-2.024c1.1 0 2.002-.814 2.002-2.19v-.02c0-1.343-.925-2.2-2.003-2.2-1.056 0-2.058.89-2.058 2.188v.022c0 1.32 1 2.2 2.057 2.2zm9.305-4.675c0-.242-.187-.43-.418-.43-.24 0-.418.188-.418.43v2.882c0 1.066-.736 1.78-1.704 1.78-1 0-1.573-.66-1.573-1.715v-2.948c0-.242-.2-.43-.43-.43-.242 0-.418.188-.418.43v3.157c0 1.353.802 2.277 2.177 2.277.978 0 1.56-.494 1.946-1.11v.616c0 .242.188.43.418.43.243 0 .418-.2.418-.43v-4.94zm3.806 5.412c.33 0 .595-.056.837-.155.143-.055.242-.176.242-.33 0-.198-.166-.363-.363-.363-.067 0-.22.077-.517.077-.572 0-.957-.254-.957-.947v-3.322h1.474c.21 0 .385-.164.385-.373-.002-.198-.178-.374-.387-.374h-1.474v-1.342c0-.23-.2-.428-.43-.428-.24 0-.418.198-.418.43v1.34h-.462c-.197 0-.373.166-.373.375 0 .198.175.374.373.374h.462v3.433c0 1.155.694 1.606 1.606 1.606z"/><g stroke-linecap="square" stroke-linejoin="round" transform="translate(2)"><use fill="#25B8EB" xlink:href="#f"/><path stroke="#C8EDFA" stroke-width="2" d="M397.76 164.445h-22.095v31.913c-.01 3.112-2.53 5.632-5.646 5.642H250.642c-3.114-.01-5.635-2.533-5.643-5.65v-73.708c.01-3.112 2.53-5.632 5.646-5.642h119.376c3.112.01 5.633 2.53 5.643 5.645v31.906h22.094v-4.16l12.98 9.108-12.98 9.108v-4.16z"/></g><path fill="#FFF" d="M294.317 147.11c1.66 0 2.827-.858 2.827-2.387v-.022c0-1.34-.88-1.902-2.442-2.31-1.33-.34-1.66-.505-1.66-1.01v-.023c0-.374.34-.67.99-.67.527 0 1.055.186 1.616.516.132.077.264.12.43.12.44 0 .79-.34.79-.78 0-.33-.186-.56-.373-.67-.693-.44-1.507-.683-2.442-.683-1.573 0-2.695.924-2.695 2.32v.023c0 1.53 1 1.958 2.552 2.354 1.287.33 1.55.55 1.55.98v.02c0 .452-.417.727-1.11.727-.748 0-1.386-.264-1.97-.693-.11-.076-.263-.153-.483-.153-.44 0-.792.34-.792.78 0 .265.132.507.32.64.857.615 1.88.923 2.892.923zm6.06-.01c.364 0 .65-.045.958-.166.23-.088.43-.33.43-.627 0-.385-.32-.693-.694-.693-.032 0-.142.01-.197.01-.374 0-.54-.186-.54-.57v-2.52h.738c.397 0 .716-.32.716-.715 0-.397-.32-.716-.715-.716h-.736v-.737c0-.462-.374-.836-.836-.836-.462 0-.836.375-.836.837v.737h-.055c-.396 0-.715.32-.715.715 0 .395.32.714.715.714h.055v2.794c0 1.364.693 1.77 1.716 1.77zm5.303.032c-1.826 0-3.18-1.353-3.18-3.047v-.022c0-1.694 1.365-3.07 3.202-3.07 1.826 0 3.18 1.354 3.18 3.048v.023c0 1.694-1.365 3.07-3.202 3.07zm.022-1.44c.957 0 1.53-.738 1.53-1.607v-.022c0-.87-.628-1.628-1.552-1.628-.957 0-1.53.737-1.53 1.606v.023c0 .87.628 1.628 1.552 1.628zm4.39.538c0 .462.373.836.835.836.462 0 .836-.374.836-.836v-1.562c0-1.188.473-1.837 1.32-2.035.34-.077.627-.34.627-.78 0-.474-.297-.815-.814-.815-.495 0-.89.528-1.133 1.1v-.264c0-.462-.374-.836-.836-.836-.462 0-.836.374-.836.836v4.356zm5.994.88c-1.11 0-2.024-.638-2.024-1.804v-.022c0-1.287.98-1.88 2.376-1.88.594 0 1.023.098 1.44.24v-.098c0-.693-.428-1.078-1.264-1.078-.462 0-.836.066-1.155.165-.1.033-.166.044-.243.044-.385 0-.693-.297-.693-.682 0-.297.187-.55.45-.65.53-.197 1.1-.307 1.882-.307.913 0 1.573.242 1.99.66.44.44.64 1.09.64 1.88v2.685c0 .45-.364.803-.815.803-.483 0-.802-.34-.802-.693v-.01c-.407.45-.968.747-1.782.747zm.506-1.155c.78 0 1.31-.43 1.31-1.034v-.296c-.287-.132-.66-.22-1.068-.22-.715 0-1.155.286-1.155.814v.022c0 .45.373.715.912.715zm6.974 2.827c-.78 0-1.463-.132-2.156-.407-.286-.11-.473-.34-.473-.65 0-.373.308-.68.682-.68.11 0 .197.02.274.054.484.22 1 .35 1.628.35 1.144 0 1.683-.55 1.683-1.605v-.286c-.495.593-1.034.956-1.925.956-1.375 0-2.618-1-2.618-2.75v-.022c0-1.76 1.265-2.75 2.618-2.75.913 0 1.452.385 1.903.88v-.01c0-.452.374-.826.836-.826.46 0 .835.374.835.836v3.795c0 1.055-.253 1.825-.748 2.32-.55.55-1.397.792-2.54.792zm.198-3.652c.814 0 1.44-.56 1.44-1.364v-.022c0-.803-.626-1.364-1.44-1.364s-1.43.56-1.43 1.364v.022c0 .814.616 1.364 1.43 1.364zm5.94-1.54h2.52c-.1-.748-.54-1.254-1.244-1.254-.693 0-1.144.495-1.276 1.254zm3.487 2.827c-.516.44-1.187.715-2.045.715-1.77 0-3.08-1.243-3.08-3.047v-.022c0-1.683 1.2-3.07 2.915-3.07 1.97 0 2.838 1.618 2.838 2.84 0 .483-.34.802-.78.802h-3.312c.165.76.693 1.155 1.44 1.155.463 0 .848-.143 1.19-.396.12-.088.23-.132.406-.132.374 0 .65.286.65.66 0 .22-.1.385-.22.495zm-60.983 17.09c.176 0 .33-.154.33-.33 0-.143-.066-.23-.165-.297-1.562-1.023-2.398-2.32-2.398-4.037 0-1.705.836-3.014 2.398-4.037.1-.066.165-.154.165-.297 0-.177-.154-.33-.33-.33-.088 0-.176.02-.198.043-1.85 1.09-2.894 2.64-2.894 4.62s1.045 3.53 2.893 4.62c.02.022.11.044.197.044zm3.96-3.08c0 .23.187.407.418.407.22 0 .407-.176.407-.407v-1.903h1.936c.22 0 .396-.176.396-.396 0-.22-.176-.396-.396-.396h-1.936v-1.903c0-.232-.187-.408-.407-.408-.23 0-.418.176-.418.407v1.902h-1.925c-.22 0-.407.176-.407.396 0 .22.187.396.407.396h1.925v1.903zm4.41 1.232c0-.067.012-.144.056-.232l3.124-6.83c.11-.243.275-.386.55-.386h.044c.265 0 .44.143.54.385l3.124 6.82c.033.077.055.154.055.22 0 .23-.188.418-.42.418-.208 0-.35-.143-.428-.32l-.803-1.77h-4.225l-.803 1.793c-.077.187-.22.297-.418.297-.22 0-.396-.176-.396-.396zm1.96-2.487h3.54l-1.77-3.938-1.77 3.938zm11.824-2.486c0-.242-.186-.43-.417-.43-.242 0-.418.188-.418.43v2.882c0 1.066-.737 1.78-1.705 1.78-1 0-1.573-.66-1.573-1.715v-2.948c0-.242-.198-.43-.43-.43-.24 0-.417.188-.417.43v3.157c0 1.353.803 2.277 2.178 2.277.98 0 1.562-.494 1.947-1.11v.616c0 .242.187.43.418.43.242 0 .418-.2.418-.43v-4.94zm7.316-2.343v7.282c0 .242-.187.43-.418.43-.242 0-.43-.188-.43-.43v-.77c-.46.682-1.132 1.265-2.177 1.265-1.363 0-2.716-1.077-2.716-2.947v-.022c0-1.858 1.353-2.958 2.717-2.958 1.057 0 1.74.572 2.18 1.21v-3.058c0-.242.175-.43.417-.43s.43.188.43.43zm-2.87 2.607c-1.1 0-2.003.815-2.003 2.19v.022c0 1.342.935 2.2 2.002 2.2 1.056 0 2.057-.89 2.057-2.2v-.022c0-1.31-1-2.19-2.057-2.19zm4.762-2.276c0 .264.22.45.495.45.286 0 .506-.186.506-.45v-.143c0-.274-.22-.45-.507-.45-.275 0-.495.176-.495.45v.144zm.077 6.952c0 .242.187.43.43.43.24 0 .417-.188.417-.43v-4.94c0-.24-.187-.428-.43-.428-.23 0-.417.198-.417.43v4.938zm4.72.473c.33 0 .593-.056.835-.155.143-.055.242-.176.242-.33 0-.198-.165-.363-.363-.363-.067 0-.22.077-.518.077-.572 0-.957-.254-.957-.947v-3.322h1.474c.208 0 .384-.164.384-.373 0-.198-.176-.374-.385-.374h-1.475v-1.342c0-.23-.198-.428-.43-.428-.24 0-.417.198-.417.43v1.34h-.462c-.198 0-.374.166-.374.375 0 .198.176.374.374.374h.462v3.433c0 1.155.693 1.606 1.606 1.606zm2.09 1c0 .132.087.22.23.22.176 0 .517-.165.748-.396.253-.253.396-.66.396-1.32v-.21c0-.362-.22-.604-.54-.604-.297 0-.506.22-.506.506v.176c0 .297.198.473.43.528.02.43-.166.704-.617.902-.088.033-.143.11-.143.198zm6.06-1.44c0-.067.01-.144.055-.232l3.124-6.83c.11-.243.275-.386.55-.386h.044c.264 0 .44.143.54.385l3.123 6.82c.034.077.056.154.056.22 0 .23-.187.418-.418.418-.21 0-.352-.143-.43-.32l-.802-1.77h-4.224l-.803 1.793c-.078.187-.22.297-.42.297-.22 0-.395-.176-.395-.396zm1.958-2.487h3.542l-1.77-3.938-1.772 3.938zm9.383 2.96c.957 0 1.606-.375 2.145-.914.067-.067.11-.166.11-.265 0-.198-.175-.385-.384-.385-.11 0-.187.055-.242.11-.418.396-.935.693-1.584.693-1.188 0-2.09-.98-2.09-2.21v-.023c0-1.22.88-2.2 2.035-2.2.682 0 1.144.308 1.55.682.067.055.166.1.276.1.22 0 .408-.177.408-.408 0-.132-.066-.242-.132-.297-.506-.462-1.144-.825-2.09-.825-1.66 0-2.915 1.364-2.915 2.97v.022c0 1.595 1.255 2.948 2.916 2.948zm6.116 0c.957 0 1.606-.375 2.145-.914.066-.067.11-.166.11-.265 0-.198-.176-.385-.385-.385-.11 0-.187.055-.242.11-.418.396-.935.693-1.584.693-1.188 0-2.09-.98-2.09-2.21v-.023c0-1.22.88-2.2 2.035-2.2.683 0 1.145.308 1.552.682.066.055.165.1.275.1.22 0 .407-.177.407-.408 0-.132-.066-.242-.132-.297-.506-.462-1.144-.825-2.09-.825-1.66 0-2.915 1.364-2.915 2.97v.022c0 1.595 1.254 2.948 2.915 2.948zm4.06-3.29h3.662c-.088-1.034-.682-1.936-1.815-1.936-.99 0-1.74.825-1.85 1.936zm4.124 2.43c-.54.518-1.177.86-2.145.86-1.56 0-2.837-1.2-2.837-2.96v-.022c0-1.638 1.155-2.958 2.728-2.958 1.684 0 2.64 1.375 2.64 2.882 0 .23-.186.396-.395.396h-4.114c.122 1.232.99 1.925 2.003 1.925.704 0 1.22-.275 1.64-.66.065-.055.142-.1.24-.1.21 0 .375.166.375.364 0 .098-.044.197-.132.274zm3.762.837c1.133 0 2.024-.627 2.024-1.705v-.022c0-1.023-.946-1.364-1.826-1.628-.76-.23-1.463-.44-1.463-.98v-.02c0-.474.43-.826 1.1-.826.484 0 1 .164 1.485.44.044.02.11.043.187.043.21 0 .374-.165.374-.363 0-.165-.1-.286-.21-.352-.55-.297-1.21-.484-1.815-.484-1.122 0-1.936.65-1.936 1.628v.022c0 1.045.99 1.353 1.88 1.606.748.21 1.42.43 1.42 1v.023c0 .55-.496.902-1.178.902-.616 0-1.22-.21-1.804-.605-.055-.044-.132-.066-.21-.066-.208 0-.373.165-.373.363 0 .143.077.253.154.308.615.44 1.44.715 2.188.715zm5.368 0c1.133 0 2.024-.627 2.024-1.705v-.022c0-1.023-.946-1.364-1.826-1.628-.76-.23-1.463-.44-1.463-.98v-.02c0-.474.43-.826 1.1-.826.485 0 1.002.164 1.486.44.044.02.11.043.187.043.21 0 .374-.165.374-.363 0-.165-.1-.286-.21-.352-.55-.297-1.21-.484-1.814-.484-1.122 0-1.936.65-1.936 1.628v.022c0 1.045.99 1.353 1.88 1.606.75.21 1.42.43 1.42 1v.023c0 .55-.495.902-1.177.902-.616 0-1.22-.21-1.804-.605-.055-.044-.132-.066-.21-.066-.208 0-.373.165-.373.363 0 .143.077.253.154.308.616.44 1.44.715 2.19.715zm3.146.99c0 .132.088.22.23.22.177 0 .518-.165.75-.396.252-.253.395-.66.395-1.32v-.21c0-.362-.22-.604-.54-.604-.296 0-.505.22-.505.506v.176c0 .297.198.473.43.528.02.43-.166.704-.617.902-.088.033-.143.11-.143.198zm-78.766 13.526c0 .242.188.43.418.43.243 0 .43-.188.43-.43v-5.742l2.452 3.608c.1.143.22.22.375.22s.264-.077.364-.22l2.464-3.62v5.743c0 .23.197.44.44.44.23 0 .428-.198.428-.44v-6.92c0-.23-.197-.428-.428-.428h-.1c-.175 0-.318.088-.406.23l-2.75 4.137-2.75-4.136c-.088-.132-.22-.23-.407-.23h-.1c-.23 0-.43.197-.43.428v6.93zm11.1.495c-1.057 0-2.124-.604-2.124-1.77v-.022c0-1.2.99-1.837 2.432-1.837.726 0 1.243.1 1.748.243v-.198c0-1.023-.627-1.55-1.694-1.55-.57 0-1.055.13-1.474.318-.055.022-.11.033-.154.033-.197 0-.373-.165-.373-.363 0-.176.12-.308.23-.352.56-.24 1.133-.384 1.86-.384.803 0 1.418.21 1.837.627.385.385.583.935.583 1.66v3.114c0 .242-.176.418-.408.418-.243 0-.408-.176-.408-.396v-.518c-.396.517-1.055.98-2.057.98zm.164-.67c1.046 0 1.904-.638 1.904-1.54v-.55c-.418-.12-.98-.242-1.673-.242-1.066 0-1.66.462-1.66 1.177v.022c0 .715.66 1.133 1.43 1.133zm4.51.176c0 .242.188.43.43.43.24 0 .418-.188.418-.43v-2.882c0-1.067.726-1.782 1.704-1.782 1 0 1.573.66 1.573 1.716v2.948c0 .242.188.43.43.43.23 0 .418-.188.418-.43v-3.157c0-1.354-.803-2.278-2.178-2.278-.98 0-1.574.495-1.947 1.11v-.615c0-.242-.188-.43-.43-.43-.23 0-.418.2-.418.43v4.94zm8.47.495c-1.056 0-2.123-.604-2.123-1.77v-.022c0-1.2.99-1.837 2.432-1.837.724 0 1.24.1 1.747.243v-.198c0-1.023-.626-1.55-1.693-1.55-.572 0-1.057.13-1.474.318-.055.022-.11.033-.154.033-.2 0-.375-.165-.375-.363.002-.176.123-.308.233-.352.56-.24 1.132-.384 1.858-.384.804 0 1.42.21 1.84.627.384.385.582.935.582 1.66v3.114c0 .242-.176.418-.407.418-.243 0-.408-.176-.408-.396v-.518c-.395.517-1.055.98-2.056.98zm.165-.67c1.046 0 1.904-.638 1.904-1.54l-.002-.55c-.418-.12-.978-.242-1.67-.242-1.068 0-1.662.462-1.662 1.177v.022c0 .715.66 1.133 1.43 1.133zm7.03 2.332c-.87 0-1.662-.23-2.377-.67-.132-.067-.22-.2-.22-.353 0-.188.188-.375.386-.375.077 0 .132.022.186.055.595.396 1.276.616 2.014.616 1.254 0 2.067-.693 2.067-2.024v-.67c-.494.66-1.187 1.198-2.232 1.198-1.363 0-2.673-1.023-2.673-2.662v-.022c0-1.66 1.32-2.684 2.673-2.684 1.067 0 1.76.528 2.223 1.144v-.65c0-.23.177-.428.418-.428.243 0 .43.198.43.43v4.322c0 .88-.264 1.55-.726 2.013-.507.506-1.265.76-2.168.76zm-.012-2.97c1.078 0 2.09-.78 2.09-1.925v-.022c0-1.166-1.012-1.925-2.09-1.925-1.078 0-1.97.748-1.97 1.914l.002.022c0 1.144.913 1.936 1.97 1.936zm5.303-1.97h3.662c-.087-1.033-.68-1.935-1.815-1.935-.99 0-1.738.825-1.847 1.936zm4.125 2.432c-.538.517-1.176.858-2.144.858-1.563 0-2.838-1.2-2.838-2.96v-.02c0-1.64 1.154-2.96 2.727-2.96 1.684 0 2.64 1.375 2.64 2.882 0 .23-.186.396-.395.396h-4.114c.12 1.232.99 1.925 2 1.925.705 0 1.222-.275 1.64-.66.067-.055.144-.1.243-.1.208 0 .373.166.373.364 0 .098-.045.197-.132.274zm1.882.352c0 .242.187.43.428.43.243 0 .418-.188.418-.43v-2.87c0-1.046.683-1.794 1.584-1.794.903 0 1.464.627 1.464 1.694v2.97c0 .242.187.43.418.43.24 0 .428-.188.428-.43v-2.904c0-1.122.704-1.76 1.563-1.76.923 0 1.474.616 1.474 1.716l-.002 2.948c0 .242.188.43.43.43.23 0 .418-.188.418-.43v-3.146c0-1.408-.803-2.288-2.113-2.288-.99 0-1.595.506-2.002 1.133-.307-.638-.9-1.133-1.825-1.133-.957 0-1.462.517-1.837 1.078v-.583c0-.242-.186-.43-.428-.43-.23 0-.418.2-.418.43v4.94zm10.966-2.783h3.663c-.087-1.034-.68-1.936-1.813-1.936-.99 0-1.738.825-1.85 1.936zm4.125 2.43c-.538.518-1.176.86-2.144.86-1.564 0-2.84-1.2-2.84-2.96v-.022c0-1.638 1.156-2.958 2.728-2.958 1.683 0 2.64 1.375 2.64 2.882 0 .23-.186.396-.395.396h-4.115c.122 1.232.99 1.925 2.002 1.925.704 0 1.22-.275 1.64-.66.065-.055.142-.1.242-.1.21 0 .373.166.373.364 0 .098-.043.197-.132.274zm1.882.353c0 .242.187.43.428.43.243 0 .418-.188.418-.43v-2.882c0-1.067.727-1.782 1.706-1.782 1.002 0 1.574.66 1.574 1.716v2.948c0 .242.187.43.428.43.23 0 .418-.188.418-.43v-3.157c0-1.354-.803-2.278-2.178-2.278-.978 0-1.572.495-1.947 1.11v-.615c0-.242-.186-.43-.428-.43-.23 0-.417.2-.417.43v4.94zm8.678.473c.33 0 .594-.056.837-.155.143-.055.242-.176.242-.33 0-.198-.166-.363-.363-.363-.067 0-.22.077-.518.077-.572 0-.957-.254-.957-.947v-3.322h1.474c.208 0 .384-.164.384-.373 0-.198-.176-.374-.385-.374h-1.475v-1.342c0-.23-.2-.428-.43-.428-.242 0-.418.198-.418.43v1.34h-.462c-.197 0-.374.166-.374.375 0 .198.178.374.375.374h.462v3.433c0 1.155.693 1.606 1.606 1.606zm2.53 1.407c.088 0 .176-.022.198-.044 1.85-1.09 2.895-2.64 2.895-4.62s-1.046-3.53-2.894-4.62c-.02-.022-.108-.044-.196-.044-.176 0-.33.153-.33.33 0 .142.065.23.164.296 1.563 1.023 2.4 2.32 2.4 4.037 0 1.705-.837 3.014-2.4 4.037-.1.066-.165.154-.165.297 0 .176.155.33.33.33z"/><g fill-rule="nonzero" stroke-linecap="square" stroke-linejoin="round" transform="translate(2)"><use fill="#25B8EB" fill-rule="evenodd" xlink:href="#g"/><path stroke="#C8EDFA" stroke-width="2" d="M305.238 224.37v-22.116h-4.16l9.106-12.997 9.107 12.997h-4.16v22.115h4.16l-9.106 12.99-9.106-12.99h4.16z"/></g><g fill-rule="nonzero" stroke-linecap="square" stroke-linejoin="round" transform="translate(2)"><use fill="#25B8EB" fill-rule="evenodd" xlink:href="#h"/><path stroke="#C8EDFA" stroke-width="2" d="M306.238 300.37v-32.116h-4.16l9.106-12.997 9.107 12.997h-4.16v32.115h4.16l-9.106 12.99-9.106-12.99h4.16z"/></g><g transform="translate(302 285)"><mask id="j" fill="#fff"><use xlink:href="#i"/></mask><g fill-rule="nonzero" stroke-linecap="square" stroke-linejoin="round" mask="url(#j)"><use fill="#25B8EB" fill-rule="evenodd" xlink:href="#k"/><path stroke="#FFF" stroke-width="2" d="M6.238 15.37v-32.116h-4.16l9.106-12.997 9.107 12.997h-4.16V15.37h4.16l-9.106 12.99-9.106-12.99h4.16z"/></g></g><g fill-rule="nonzero" stroke-linecap="square" stroke-linejoin="round" transform="translate(2)"><use fill="#25B8EB" fill-rule="evenodd" xlink:href="#l"/><path stroke="#C8EDFA" stroke-width="2" d="M305.238 118.37V96.253h-4.16l9.106-12.997 9.107 12.997h-4.16v22.115h4.16l-9.106 12.99-9.106-12.99h4.16z"/></g><g stroke-linecap="square" stroke-linejoin="round" transform="translate(2)"><use fill="#25B8EB" xlink:href="#m"/><path stroke="#C8EDFA" stroke-width="2" d="M244.76 164.445h-22.095v21.913c-.01 3.112-2.53 5.632-5.646 5.642h-79.377c-3.114-.01-5.635-2.533-5.643-5.65v-53.708c.01-3.112 2.53-5.632 5.646-5.642h79.376c3.112.01 5.633 2.53 5.643 5.645v21.906h22.094v-4.16l12.98 9.108-12.98 9.108v-4.16z"/></g><path fill="#FFF" d="M153.177 155h4.323c.417 0 .758-.33.758-.748s-.34-.76-.758-.76h-3.488v-1.616h2.938c.418 0 .758-.33.758-.748s-.34-.76-.758-.76h-2.938v-1.56h3.433c.418 0 .758-.33.758-.75 0-.417-.34-.758-.758-.758h-4.268c-.474 0-.847.374-.847.847v6.006c0 .473.373.847.846.847zm6.038-.638c0 .418.34.726.78.726.298 0 .53-.187.727-.43l1.19-1.56 1.186 1.56c.22.276.45.43.78.43.42 0 .772-.297.772-.77 0-.22-.09-.418-.275-.638l-1.475-1.694 1.43-1.672c.132-.165.23-.34.23-.572 0-.418-.34-.726-.78-.726-.297 0-.528.187-.726.43l-1.11 1.45-1.09-1.45c-.22-.276-.45-.43-.78-.43-.42 0-.77.297-.77.77 0 .22.088.418.274.638l1.375 1.584-1.507 1.782c-.142.165-.23.34-.23.572zm8.613.737c.363 0 .65-.045.958-.166.23-.088.428-.33.428-.627 0-.385-.32-.693-.692-.693-.034 0-.143.01-.198.01-.375 0-.54-.186-.54-.57v-2.52h.738c.395 0 .715-.32.715-.715 0-.397-.32-.716-.715-.716h-.737v-.737c0-.462-.374-.836-.837-.836-.462 0-.835.375-.835.837v.737h-.055c-.397 0-.715.32-.715.715 0 .395.32.714.715.714h.055v2.794c0 1.364.692 1.77 1.715 1.77zm2.575-.87c0 .462.374.836.835.836.463 0 .837-.374.837-.836v-1.562c0-1.188.473-1.837 1.32-2.035.34-.077.626-.34.626-.78 0-.474-.296-.815-.813-.815-.494 0-.89.528-1.132 1.1v-.264c0-.462-.374-.836-.837-.836-.462 0-.835.374-.835.836v4.356zm5.995.88c-1.112 0-2.024-.638-2.024-1.804v-.022c0-1.287.978-1.88 2.376-1.88.594 0 1.023.098 1.44.24v-.098c0-.693-.428-1.078-1.264-1.078-.462 0-.837.066-1.155.165-.1.033-.165.044-.242.044-.385 0-.692-.297-.692-.682 0-.297.186-.55.45-.65.53-.197 1.1-.307 1.88-.307.915 0 1.575.242 1.993.66.44.44.637 1.09.637 1.88v2.685c0 .45-.363.803-.815.803-.483 0-.803-.34-.803-.693v-.01c-.407.45-.97.747-1.782.747zm.506-1.155c.78 0 1.31-.43 1.31-1.034v-.296c-.287-.132-.66-.22-1.07-.22-.714 0-1.154.286-1.154.814v.022c0 .45.374.715.913.715zm7.117 1.177c.968 0 1.595-.308 2.09-.76.143-.13.242-.307.242-.527 0-.396-.308-.715-.703-.715-.2 0-.364.088-.453.154-.32.253-.66.407-1.1.407-.912 0-1.496-.725-1.496-1.627v-.022c0-.868.596-1.605 1.43-1.605.44 0 .75.143 1.047.374.1.076.263.164.483.164.418 0 .76-.33.76-.748 0-.286-.154-.484-.264-.572-.496-.418-1.123-.66-2.014-.66-1.804 0-3.09 1.386-3.09 3.07v.02c0 1.684 1.298 3.048 3.07 3.048zm5.49-.033c.363 0 .65-.045.957-.166.23-.088.428-.33.428-.627 0-.385-.32-.693-.693-.693-.032 0-.142.01-.197.01-.374 0-.54-.186-.54-.57v-2.52h.737c.397 0 .715-.32.715-.715 0-.397-.32-.716-.715-.716h-.737v-.737c0-.462-.374-.836-.835-.836-.463 0-.837.375-.837.837v.737h-.055c-.395 0-.714.32-.714.715 0 .395.32.714.714.714h.055v2.794c0 1.364.694 1.77 1.716 1.77zm5.302.032c-1.827 0-3.18-1.353-3.18-3.047v-.022c0-1.694 1.364-3.07 3.2-3.07 1.828 0 3.18 1.354 3.18 3.048v.023c0 1.694-1.363 3.07-3.2 3.07zm.02-1.44c.96 0 1.53-.738 1.53-1.607v-.022c0-.87-.626-1.628-1.55-1.628-.958 0-1.53.737-1.53 1.606v.023c0 .87.627 1.628 1.55 1.628zm4.39.538c0 .462.374.836.837.836.46 0 .834-.374.834-.836v-1.562c0-1.188.474-1.837 1.32-2.035.34-.077.627-.34.627-.78 0-.474-.296-.815-.813-.815-.494 0-.89.528-1.132 1.1v-.264c0-.462-.375-.836-.837-.836-.462 0-.835.374-.835.836v4.356zm6.666.88c1.276 0 2.255-.594 2.255-1.903v-.022c0-1.078-.957-1.474-1.78-1.75-.64-.22-1.2-.373-1.2-.703v-.022c0-.23.208-.407.615-.407.353 0 .804.143 1.276.374.11.055.188.077.31.077.373 0 .67-.286.67-.66 0-.286-.154-.506-.397-.627-.572-.286-1.21-.45-1.826-.45-1.186 0-2.155.67-2.155 1.87v.02c0 1.145.935 1.53 1.76 1.772.65.197 1.222.318 1.222.68v.023c0 .264-.22.44-.704.44-.474 0-1.034-.176-1.595-.528-.088-.055-.21-.088-.33-.088-.375 0-.66.286-.66.66 0 .264.142.462.32.572.713.46 1.494.67 2.22.67zm-50.814 14.55c0-.067.01-.144.055-.232l3.123-6.83c.11-.243.275-.386.55-.386h.044c.264 0 .44.143.54.385l3.123 6.82c.033.077.055.154.055.22 0 .23-.187.418-.418.418-.21 0-.352-.143-.43-.32l-.802-1.77h-4.224l-.802 1.793c-.077.187-.22.297-.418.297-.22 0-.396-.176-.396-.396zm1.958-2.487h3.542l-1.77-3.938-1.772 3.938zm7.194 2.442v-6.875c0-.242.198-.44.43-.44h2.452c1.738 0 2.882.924 2.882 2.442v.022c0 1.66-1.386 2.52-3.025 2.52h-1.87v2.33c0 .243-.198.44-.44.44-.23 0-.43-.197-.43-.44zm.87-3.124h1.902c1.276 0 2.112-.68 2.112-1.693v-.022c0-1.1-.825-1.672-2.068-1.672h-1.947v3.388zm6.555 3.125c0 .242.2.44.43.44.242 0 .44-.198.44-.44v-6.93c0-.242-.198-.44-.44-.44-.23 0-.43.198-.43.44v6.93zm6.502 0c0 .242.198.44.43.44.24 0 .44-.198.44-.44v-6.93c0-.242-.2-.44-.44-.44-.232 0-.43.198-.43.44v6.93zm2.98.01c0 .243.188.43.43.43s.418-.187.418-.43v-2.88c0-1.068.726-1.783 1.705-1.783 1 0 1.573.66 1.573 1.716v2.948c0 .242.187.43.43.43.23 0 .417-.188.417-.43v-3.157c0-1.354-.803-2.278-2.178-2.278-.98 0-1.573.495-1.947 1.11v-.615c0-.242-.187-.43-.43-.43-.23 0-.417.2-.417.43v4.94zm6.777 1.76v-6.698c0-.242.186-.43.417-.43.242 0 .43.188.43.43v.77c.46-.682 1.132-1.265 2.177-1.265 1.364 0 2.717 1.078 2.717 2.948v.022c0 1.86-1.34 2.96-2.716 2.96-1.056 0-1.738-.573-2.178-1.21v2.474c0 .242-.176.43-.418.43s-.43-.188-.43-.43zm2.87-2.023c1.1 0 2.002-.814 2.002-2.19v-.02c0-1.343-.924-2.2-2.002-2.2-1.056 0-2.057.89-2.057 2.188v.022c0 1.32 1 2.2 2.057 2.2zm9.306-4.675c0-.242-.187-.43-.418-.43-.242 0-.418.188-.418.43v2.882c0 1.066-.737 1.78-1.705 1.78-1 0-1.573-.66-1.573-1.715v-2.948c0-.242-.198-.43-.43-.43-.24 0-.417.188-.417.43v3.157c0 1.353.803 2.277 2.178 2.277.98 0 1.562-.494 1.947-1.11v.616c0 .242.187.43.418.43.242 0 .418-.2.418-.43v-4.94zm3.806 5.412c.33 0 .594-.056.836-.155.143-.055.242-.176.242-.33 0-.198-.165-.363-.363-.363-.066 0-.22.077-.517.077-.572 0-.957-.254-.957-.947v-3.322h1.474c.21 0 .385-.164.385-.373 0-.198-.176-.374-.385-.374h-1.474v-1.342c0-.23-.198-.428-.43-.428-.24 0-.417.198-.417.43v1.34h-.462c-.198 0-.374.166-.374.375 0 .198.176.374.374.374h.462v3.433c0 1.155.693 1.606 1.606 1.606z"/><g stroke-linecap="square" stroke-linejoin="round" transform="translate(2)"><use fill="#FFF" xlink:href="#n"/><path stroke="#25B8EB" stroke-width="2" d="M132.76 164.444H89.665v16.915c-.01 3.11-2.53 5.63-5.645 5.64H4.644c-3.114-.01-5.635-2.532-5.643-5.648v-43.71c.01-3.112 2.53-5.632 5.646-5.642h79.378c3.112.01 5.632 2.53 5.642 5.644v16.908h43.093v-4.16l12.98 9.106-12.98 9.107v-4.16z"/></g><path fill="#282D38" d="M34 154.318v-6.336c0-.385.296-.682.68-.682h2.19c2.42 0 4.092 1.66 4.092 3.828v.022c0 2.167-1.672 3.85-4.092 3.85h-2.19c-.384 0-.68-.297-.68-.682zm1.352-.55h1.518c1.617 0 2.673-1.09 2.673-2.596v-.022c0-1.507-1.056-2.618-2.673-2.618h-1.518v5.236zm8.767 1.353c-1.09 0-2.058-.626-2.058-1.792v-.022c0-1.254.98-1.87 2.398-1.87.65 0 1.11.1 1.562.242v-.143c0-.825-.506-1.265-1.44-1.265-.507 0-.925.088-1.288.23-.077.023-.143.034-.21.034-.307 0-.56-.242-.56-.55 0-.242.165-.45.363-.528.55-.21 1.11-.34 1.87-.34.87 0 1.518.23 1.925.648.43.418.627 1.034.627 1.793v2.86c0 .363-.287.638-.65.638-.385 0-.65-.264-.65-.56v-.22c-.395.472-1 .846-1.89.846zm.373-.967c.88 0 1.55-.506 1.55-1.243v-.396c-.34-.132-.79-.23-1.32-.23-.857 0-1.363.362-1.363.967v.023c0 .56.495.88 1.133.88zm6.303.946c.352 0 .627-.056.913-.155.186-.077.35-.275.35-.517 0-.308-.263-.55-.56-.55-.044 0-.176.033-.33.033-.45 0-.715-.208-.715-.725v-2.85H51.5c.32 0 .583-.252.583-.57 0-.32-.264-.573-.583-.573h-1.045v-.99c0-.363-.297-.66-.66-.66-.374 0-.67.297-.67.66v.99h-.22c-.32 0-.573.253-.573.572 0 .32.253.572.572.572h.22v3.058c0 1.276.693 1.705 1.672 1.705zm4.246.02c-1.09 0-2.057-.626-2.057-1.792v-.022c0-1.254.98-1.87 2.398-1.87.65 0 1.11.1 1.562.242v-.143c0-.825-.506-1.265-1.44-1.265-.507 0-.925.088-1.288.23-.077.023-.143.034-.21.034-.307 0-.56-.242-.56-.55 0-.242.165-.45.363-.528.55-.21 1.11-.34 1.87-.34.87 0 1.518.23 1.925.648.43.418.627 1.034.627 1.793v2.86c0 .363-.286.638-.65.638-.384 0-.648-.264-.648-.56v-.22c-.396.472-1 .846-1.892.846zm.374-.967c.88 0 1.55-.506 1.55-1.243v-.396c-.34-.132-.79-.23-1.32-.23-.857 0-1.363.362-1.363.967v.023c0 .56.495.88 1.133.88zM27.833 167.11c1.617 0 2.75-.858 2.75-2.3v-.02c0-1.277-.836-1.86-2.464-2.256-1.486-.352-1.838-.616-1.838-1.21v-.022c0-.506.462-.913 1.254-.913.605 0 1.177.197 1.77.582.11.066.22.1.353.1.35 0 .637-.276.637-.628 0-.264-.143-.45-.297-.54-.693-.46-1.474-.714-2.442-.714-1.53 0-2.63.913-2.63 2.233v.022c0 1.42.925 1.903 2.564 2.3 1.43.33 1.738.626 1.738 1.176v.023c0 .572-.528.968-1.364.968-.836 0-1.518-.285-2.156-.79-.088-.067-.21-.122-.396-.122-.352 0-.638.275-.638.627 0 .22.11.407.264.517.858.638 1.848.968 2.893.968zm6.952.022c-1.77 0-3.08-1.353-3.08-3.003v-.023c0-1.66 1.32-3.036 3.102-3.036 1.782 0 3.09 1.354 3.09 3.015v.022c0 1.65-1.32 3.025-3.112 3.025zm.022-1.166c1.078 0 1.76-.836 1.76-1.837v-.023c0-1.023-.737-1.87-1.782-1.87-1.067 0-1.75.836-1.75 1.848v.022c0 1.012.738 1.86 1.772 1.86zm9.603-4.17c0-.373-.308-.67-.67-.67-.375 0-.672.297-.672.67v2.674c0 .902-.54 1.43-1.31 1.43-.79 0-1.242-.506-1.242-1.408v-2.695c0-.374-.297-.67-.67-.67-.364 0-.66.296-.66.67v3.09c0 1.354.758 2.234 2.067 2.234.902 0 1.44-.472 1.815-1.022v.297c0 .374.308.66.67.66.375 0 .672-.297.672-.66v-4.598zm1.66 4.6c0 .373.298.66.66.66.375 0 .672-.298.672-.66v-1.717c0-1.376.65-2.102 1.595-2.267.297-.055.528-.286.528-.638 0-.385-.242-.66-.66-.66-.583 0-1.155.55-1.463 1.276v-.593c0-.374-.297-.67-.67-.67-.375 0-.66.296-.66.67v4.598zm7.03.736c.968 0 1.595-.33 2.112-.825.12-.1.187-.242.187-.418 0-.32-.254-.584-.573-.584-.154 0-.286.077-.363.143-.363.307-.77.516-1.298.516-1.023 0-1.738-.825-1.738-1.86v-.02c0-1.013.715-1.85 1.683-1.85.53 0 .903.21 1.244.496.088.066.23.132.396.132.34 0 .616-.264.616-.605 0-.22-.12-.386-.21-.463-.494-.43-1.12-.726-2.034-.726-1.75 0-3.025 1.387-3.025 3.037v.022c0 1.65 1.276 3.002 3.003 3.002zm4.433-3.443h2.98c-.087-.86-.593-1.53-1.473-1.53-.814 0-1.386.627-1.507 1.53zm3.75 2.672c-.527.473-1.187.77-2.09.77-1.682 0-2.98-1.22-2.98-3.014v-.022c0-1.66 1.177-3.025 2.838-3.025 1.85 0 2.762 1.52 2.762 2.86 0 .375-.286.64-.627.64h-3.64c.142.945.813 1.473 1.67 1.473.562 0 1.002-.198 1.376-.506.1-.077.188-.12.342-.12.297 0 .528.23.528.538 0 .165-.077.308-.176.407zm3.884.748c1.21 0 2.156-.605 2.156-1.826v-.022c0-1.045-.956-1.43-1.803-1.694-.683-.22-1.31-.396-1.31-.825v-.022c0-.33.297-.57.815-.57.406 0 .89.153 1.363.395.088.044.154.066.264.066.308 0 .55-.23.55-.538 0-.23-.132-.407-.32-.506-.56-.297-1.21-.473-1.825-.473-1.155 0-2.068.67-2.068 1.77v.023c0 1.11.956 1.463 1.814 1.705.682.21 1.298.364 1.298.815v.022c0 .385-.33.627-.902.627-.528 0-1.11-.187-1.672-.56-.077-.045-.176-.078-.286-.078-.308 0-.54.242-.54.54 0 .22.11.384.254.46.67.463 1.474.694 2.21.694zm94.792-95c1.616 0 2.75-.858 2.75-2.3v-.02c0-1.277-.837-1.86-2.465-2.256-1.485-.352-1.837-.616-1.837-1.21v-.022c0-.506.462-.913 1.254-.913.605 0 1.177.197 1.77.582.11.066.22.1.353.1.352 0 .638-.276.638-.628 0-.264-.143-.45-.297-.54-.693-.46-1.474-.714-2.442-.714-1.53 0-2.63.913-2.63 2.233v.022c0 1.42.925 1.903 2.564 2.3 1.43.33 1.738.626 1.738 1.176v.023c0 .572-.528.968-1.364.968-.836 0-1.518-.285-2.156-.79-.088-.067-.21-.122-.396-.122-.352 0-.638.275-.638.627 0 .22.11.407.264.517.858.638 1.848.968 2.893.968zm5.19-3.42h2.982c-.088-.86-.594-1.53-1.474-1.53-.814 0-1.386.627-1.507 1.53zm3.752 2.672c-.528.473-1.188.77-2.09.77-1.683 0-2.98-1.22-2.98-3.014v-.022c0-1.66 1.176-3.025 2.837-3.025 1.847 0 2.76 1.52 2.76 2.86 0 .375-.286.64-.627.64h-3.64c.142.945.813 1.473 1.67 1.473.562 0 1.002-.198 1.376-.506.098-.077.186-.12.34-.12.297 0 .528.23.528.538 0 .165-.077.308-.176.407zm4.576.77c.968 0 1.595-.33 2.112-.825.12-.1.187-.242.187-.418 0-.32-.253-.584-.572-.584-.154 0-.286.077-.363.143-.363.307-.77.516-1.298.516-1.023 0-1.738-.825-1.738-1.86v-.02c0-1.013.715-1.85 1.683-1.85.527 0 .9.21 1.242.496.088.066.23.132.396.132.34 0 .616-.264.616-.605 0-.22-.12-.386-.21-.463-.494-.43-1.12-.726-2.034-.726-1.75 0-3.025 1.387-3.025 3.037v.022c0 1.65 1.276 3.002 3.003 3.002zm8.756-5.335c0-.374-.308-.67-.67-.67-.375 0-.672.296-.672.67v2.673c0 .902-.54 1.43-1.31 1.43-.79 0-1.242-.506-1.242-1.408v-2.695c0-.374-.297-.67-.67-.67-.364 0-.66.296-.66.67v3.09c0 1.354.758 2.234 2.067 2.234.902 0 1.44-.472 1.815-1.022v.297c0 .374.308.66.67.66.375 0 .672-.297.672-.66v-4.598zm1.66 4.598c0 .374.298.66.66.66.375 0 .672-.297.672-.66V69.68c0-1.376.65-2.102 1.595-2.267.298-.055.53-.286.53-.638 0-.385-.243-.66-.66-.66-.584 0-1.156.55-1.464 1.276v-.593c0-.374-.297-.67-.67-.67-.375 0-.66.296-.66.67v4.598zm4.522-6.7c0 .397.33.66.76.66.428 0 .758-.263.758-.66v-.065c0-.396-.33-.65-.76-.65-.428 0-.758.254-.758.65v.066zm.1 6.7c0 .374.296.66.66.66.373 0 .67-.286.67-.66v-4.598c0-.374-.297-.67-.67-.67-.375 0-.66.296-.66.67v4.598zm5.015.704c.353 0 .628-.056.914-.155.187-.077.352-.275.352-.517 0-.308-.264-.55-.56-.55-.045 0-.177.033-.33.033-.452 0-.716-.208-.716-.725v-2.85h1.045c.32 0 .583-.252.583-.57 0-.32-.264-.573-.583-.573h-1.045v-.99c0-.363-.297-.66-.66-.66-.374 0-.67.297-.67.66v.99h-.22c-.32 0-.573.253-.573.572 0 .32.253.572.572.572h.22v3.058c0 1.276.692 1.705 1.67 1.705zm3.63 1.693c.936 0 1.464-.44 1.96-1.628l2.122-5.093c.022-.066.055-.21.055-.32 0-.35-.286-.626-.638-.626-.342 0-.53.23-.64.506l-1.45 3.86-1.563-3.86c-.12-.308-.308-.506-.65-.506-.373 0-.66.275-.66.65 0 .087.034.22.078.318l2.156 4.818-.043.12c-.22.452-.43.617-.825.617-.187 0-.308-.034-.462-.078-.066-.022-.132-.044-.242-.044-.286 0-.54.22-.54.55 0 .32.22.484.42.55.274.11.55.165.923.165zm-47.277 9.602c0 .374.286.66.66.66.374 0 .67-.286.67-.66v-4.61l1.87 2.806c.144.22.32.353.562.353.253 0 .43-.132.572-.352l1.88-2.826v4.62c0 .363.31.67.672.67.384 0 .68-.296.68-.67v-6.446c0-.374-.296-.682-.68-.682h-.144c-.275 0-.473.12-.616.352l-2.343 3.663-2.332-3.65c-.132-.21-.33-.364-.627-.364h-.143c-.385 0-.682.308-.682.682v6.457zm12.155.737c-1.77 0-3.08-1.353-3.08-3.003v-.023c0-1.66 1.32-3.036 3.102-3.036 1.782 0 3.09 1.354 3.09 3.015v.022c0 1.65-1.32 3.025-3.112 3.025zm.022-1.166c1.078 0 1.76-.836 1.76-1.837v-.023c0-1.023-.737-1.87-1.782-1.87-1.067 0-1.75.836-1.75 1.848v.022c0 1.012.738 1.86 1.772 1.86zm4.444.43c0 .373.297.66.66.66.374 0 .67-.287.67-.66V80.72c0-.902.54-1.44 1.31-1.44.792 0 1.243.516 1.243 1.418v2.695c0 .374.297.66.67.66.375 0 .66-.286.66-.66v-3.102c0-1.342-.758-2.222-2.067-2.222-.902 0-1.44.474-1.815 1.013v-.286c0-.374-.297-.67-.67-.67-.375 0-.66.296-.66.67v4.598zm6.798-6.7c0 .396.33.66.76.66.428 0 .758-.264.758-.66v-.066c0-.396-.33-.65-.76-.65-.428 0-.758.254-.758.65v.066zm.1 6.7c0 .373.296.66.66.66.373 0 .67-.287.67-.66v-4.6c0-.373-.297-.67-.67-.67-.375 0-.66.297-.66.67v4.6zm5.015.703c.352 0 .627-.056.913-.155.187-.077.352-.275.352-.517 0-.308-.264-.55-.56-.55-.045 0-.177.033-.33.033-.452 0-.716-.208-.716-.725v-2.85h1.045c.32 0 .584-.252.584-.57 0-.32-.264-.573-.583-.573h-1.044v-.99c0-.363-.297-.66-.66-.66-.374 0-.67.297-.67.66v.99h-.22c-.32 0-.573.253-.573.572 0 .32.253.572.572.572h.22v3.058c0 1.276.693 1.705 1.672 1.705zm5.17.032c-1.77 0-3.08-1.353-3.08-3.003v-.023c0-1.66 1.32-3.036 3.102-3.036 1.78 0 3.09 1.354 3.09 3.015v.022c0 1.65-1.32 3.025-3.113 3.025zm.022-1.166c1.077 0 1.76-.836 1.76-1.837v-.023c0-1.023-.738-1.87-1.783-1.87-1.067 0-1.75.836-1.75 1.848v.022c0 1.012.738 1.86 1.772 1.86zm4.443.43c0 .373.297.66.66.66.374 0 .67-.298.67-.66v-1.717c0-1.376.65-2.102 1.596-2.267.296-.055.527-.286.527-.638 0-.385-.242-.66-.66-.66-.583 0-1.155.55-1.463 1.276v-.593c0-.374-.297-.67-.67-.67-.375 0-.66.296-.66.67v4.598zm4.52-6.7c0 .396.33.66.76.66s.76-.264.76-.66v-.066c0-.396-.33-.65-.76-.65s-.76.254-.76.65v.066zm.1 6.7c0 .373.297.66.66.66.374 0 .67-.287.67-.66v-4.6c0-.373-.296-.67-.67-.67-.374 0-.66.297-.66.67v4.6zm3.07 0c0 .373.296.66.66.66.373 0 .67-.287.67-.66V80.72c0-.902.54-1.44 1.31-1.44.79 0 1.242.516 1.242 1.418v2.695c0 .374.297.66.67.66.375 0 .66-.286.66-.66v-3.102c0-1.342-.758-2.222-2.067-2.222-.902 0-1.44.474-1.815 1.013v-.286c0-.374-.297-.67-.67-.67-.375 0-.66.296-.66.67v4.598zm9.404 2.386c-.814 0-1.54-.176-2.244-.517-.23-.088-.374-.275-.374-.528 0-.297.252-.55.56-.55.1 0 .176.022.242.055.528.297 1.11.462 1.782.462 1.188 0 1.837-.616 1.837-1.782v-.45c-.483.626-1.088 1.066-2.045 1.066-1.364 0-2.64-1.012-2.64-2.717v-.02c0-1.717 1.287-2.73 2.64-2.73.98 0 1.584.452 2.035.99v-.274c0-.363.297-.66.66-.66.374 0 .67.297.67.67v4.016c0 .98-.252 1.705-.736 2.19-.528.527-1.342.78-2.387.78zm.11-3.377c.924 0 1.705-.65 1.705-1.595v-.022c0-.946-.78-1.595-1.705-1.595-.924 0-1.65.638-1.65 1.595v.022c0 .946.737 1.595 1.65 1.595zm231.57-11.02c0 .373.296.67.68.67.375 0 .672-.297.672-.67v-2.52h3.32c.342 0 .617-.275.617-.616 0-.342-.275-.617-.616-.617h-3.32v-2.1h3.816c.34 0 .616-.276.616-.617 0-.34-.275-.616-.616-.616h-4.488c-.385 0-.682.297-.682.682v6.402zm12.22-4.588c0-.374-.308-.67-.67-.67-.375 0-.672.296-.672.67v2.673c0 .902-.54 1.43-1.31 1.43-.79 0-1.242-.506-1.242-1.408v-2.695c0-.374-.297-.67-.67-.67-.364 0-.66.296-.66.67v3.09c0 1.354.758 2.234 2.067 2.234.902 0 1.44-.472 1.815-1.022v.297c0 .374.308.66.67.66.375 0 .672-.297.672-.66v-4.598zm1.738 4.598c0 .374.297.66.66.66.374 0 .67-.286.67-.66v-6.82c0-.363-.296-.66-.67-.66-.374 0-.66.297-.66.66v6.82zm3.146 0c0 .374.298.66.66.66.375 0 .672-.286.672-.66v-6.82c0-.363-.297-.66-.67-.66-.375 0-.66.297-.66.66v6.82zm-40.166 12.033c0-.1.034-.198.09-.308l2.858-6.38c.154-.34.43-.55.815-.55h.065c.386 0 .65.21.804.55l2.86 6.38c.055.1.077.198.077.286 0 .363-.276.65-.64.65-.317 0-.537-.188-.66-.474l-.625-1.44h-3.74l-.65 1.484c-.11.275-.34.43-.626.43-.353 0-.627-.276-.627-.628zm2.42-2.486h2.706l-1.352-3.113-1.353 3.112zm11.54-2.145c0-.374-.308-.67-.67-.67-.375 0-.672.296-.672.67v2.673c0 .902-.54 1.43-1.31 1.43-.79 0-1.243-.506-1.243-1.408v-2.695c0-.374-.297-.67-.67-.67-.365 0-.662.296-.662.67v3.09c0 1.354.76 2.234 2.07 2.234.9 0 1.44-.472 1.814-1.022v.297c0 .374.308.66.67.66.374 0 .67-.297.67-.66l.002-4.598zm3.608 5.302c.35 0 .627-.056.913-.155.187-.077.35-.275.35-.517 0-.308-.263-.55-.56-.55-.044 0-.175.033-.33.033-.45 0-.714-.208-.714-.725v-2.85h1.046c.318 0 .582-.252.582-.57 0-.32-.264-.573-.582-.573h-1.046v-.99c0-.363-.297-.66-.66-.66-.373 0-.67.297-.67.66v.99h-.22c-.32 0-.572.253-.572.572 0 .32.252.572.572.572h.22v3.058c0 1.276.692 1.705 1.67 1.705zm5.17.032c-1.772 0-3.08-1.353-3.08-3.003v-.023c0-1.66 1.32-3.036 3.1-3.036 1.784 0 3.093 1.354 3.093 3.015v.022c0 1.65-1.32 3.025-3.113 3.025zm.022-1.166c1.077 0 1.76-.836 1.76-1.837v-.023c0-1.023-.738-1.87-1.782-1.87-1.067 0-1.75.836-1.75 1.848v.022c0 1.012.738 1.86 1.772 1.86zm4.443.43c0 .373.298.66.66.66.375 0 .67-.287.67-.66V80.72c0-.89.507-1.44 1.244-1.44.738 0 1.178.505 1.178 1.407v2.705c0 .374.297.66.67.66.365 0 .662-.286.662-.66v-2.673c0-.935.517-1.44 1.243-1.44.748 0 1.176.494 1.176 1.418v2.695c0 .374.296.66.67.66.375 0 .66-.286.66-.66v-3.102c0-1.42-.77-2.222-2.035-2.222-.88 0-1.495.408-1.957 1.024-.308-.616-.902-1.023-1.738-1.023-.892 0-1.397.485-1.772 1.002v-.275c0-.374-.296-.67-.67-.67-.375 0-.66.296-.66.67v4.598zm12.123.725c-1.09 0-2.057-.626-2.057-1.792v-.022c0-1.254.978-1.87 2.397-1.87.65 0 1.11.1 1.563.242v-.143c0-.825-.507-1.265-1.442-1.265-.505 0-.923.088-1.286.23-.077.023-.142.034-.21.034-.306 0-.56-.242-.56-.55 0-.242.165-.45.363-.528.55-.21 1.11-.34 1.87-.34.87 0 1.52.23 1.925.648.43.418.627 1.034.627 1.793v2.86c0 .363-.286.638-.65.638-.385 0-.65-.264-.65-.56v-.22c-.394.472-1 .846-1.89.846zm.374-.967c.88 0 1.55-.506 1.55-1.243v-.396c-.34-.132-.79-.23-1.32-.23-.858 0-1.364.362-1.364.967v.023c0 .56.495.88 1.134.88zm6.303.946c.35 0 .627-.056.913-.155.186-.077.35-.275.35-.517.002-.308-.262-.55-.56-.55-.044 0-.175.033-.33.033-.45 0-.714-.208-.714-.725v-2.85h1.045c.32 0 .583-.252.583-.57 0-.32-.264-.573-.582-.573h-1.045v-.99c0-.363-.297-.66-.66-.66-.373 0-.67.297-.67.66v.99h-.22c-.32 0-.572.253-.572.572 0 .32.252.572.572.572h.22v3.058c0 1.276.692 1.705 1.67 1.705zm2.55-7.404c0 .396.332.66.76.66.43 0 .76-.264.76-.66v-.066c0-.396-.33-.65-.76-.65-.428 0-.76.254-.76.65v.066zm.1 6.7c0 .373.298.66.66.66.375 0 .67-.287.67-.66v-4.6c0-.373-.296-.67-.67-.67-.373 0-.66.297-.66.67v4.6zm5.83.736c-1.77 0-3.08-1.353-3.08-3.003v-.023c0-1.66 1.32-3.036 3.103-3.036 1.78 0 3.09 1.354 3.09 3.015v.022c0 1.65-1.32 3.025-3.113 3.025zm.022-1.166c1.078 0 1.76-.836 1.76-1.837v-.023c0-1.023-.737-1.87-1.782-1.87-1.067 0-1.75.836-1.75 1.848v.022c0 1.012.738 1.86 1.772 1.86zm4.444.43c0 .373.296.66.66.66.373 0 .67-.287.67-.66V80.72c0-.902.54-1.44 1.31-1.44.792 0 1.243.516 1.243 1.418v2.695c0 .374.297.66.67.66.375 0 .66-.286.66-.66v-3.102c0-1.342-.76-2.222-2.067-2.222-.903 0-1.442.474-1.815 1.013v-.286c0-.374-.298-.67-.672-.67-.373 0-.66.296-.66.67v4.598z"/></g></svg>