<?xml version="1.0" encoding="UTF-8"?>
<svg width="784px" height="228px" viewBox="0 0 784 228" version="1.1" xmlns="http://www.w3.org/2000/svg" xmlns:xlink="http://www.w3.org/1999/xlink">
    <!-- Generator: Sketch 47.1 (45422) - http://www.bohemiancoding.com/sketch -->
    <title>schema 4</title>
    <desc>Created with Sketch.</desc>
    <defs>
        <path d="M349.954769,31.5309834 L339.716513,24.3383886 L339.716513,27.5797512 L325.636513,27.5797512 L325.636513,4.64983412 C325.628276,2.08522518 323.55366,0.00824639488 320.991968,0 L241.644544,0 C239.082853,0.00824639488 237.008237,2.08522518 237,4.64983412 L237,58.4121327 C237.006178,60.9782083 239.081394,63.0574658 241.644544,63.0657227 L320.991968,63.0657227 C323.55366,63.0574764 325.628276,60.9804976 325.636513,58.4158886 L325.636513,35.4822156 L339.716513,35.4822156 L339.716513,38.7235782 L349.954769,31.5309834 Z" id="path-1"></path>
        <path d="M349.954769,111.530983 L339.716513,104.338389 L339.716513,107.579751 L325.636513,107.579751 L325.636513,84.6498341 C325.628276,82.0852252 323.55366,80.0082464 320.991968,80 L241.644544,80 C239.082853,80.0082464 237.008237,82.0852252 237,84.6498341 L237,138.412133 C237.006178,140.978208 239.081394,143.057466 241.644544,143.065723 L320.991968,143.065723 C323.55366,143.057476 325.628276,140.980498 325.636513,138.415889 L325.636513,115.482216 L339.716513,115.482216 L339.716513,118.723578 L349.954769,111.530983 Z" id="path-2"></path>
        <path d="M163.954769,31.5309834 L153.716513,24.3383886 L153.716513,27.5797512 L108.636513,27.5797512 L108.636513,9.64983412 C108.628276,7.08522518 106.55366,5.00824639 103.991968,5 L4.64454425,5 C2.08285293,5.00824639 0.00823701339,7.08522518 0,9.64983412 L0,53.4121327 C0.00617794772,55.9782083 2.08139377,58.0574658 4.64454425,58.0657227 L103.991968,58.0657227 C106.55366,58.0574764 108.628276,55.9804976 108.636513,53.4158886 L108.636513,35.4822156 L153.716513,35.4822156 L153.716513,38.7235782 L163.954769,31.5309834 Z" id="path-3"></path>
        <path d="M163.954769,111.530983 L153.716513,104.338389 L153.716513,107.579751 L108.636513,107.579751 L108.636513,89.6498341 C108.628276,87.0852252 106.55366,85.0082464 103.991968,85 L4.64454425,85 C2.08285293,85.0082464 0.00823701339,87.0852252 0,89.6498341 L0,133.412133 C0.00617794772,135.978208 2.08139377,138.057466 4.64454425,138.065723 L103.991968,138.065723 C106.55366,138.057476 108.628276,135.980498 108.636513,133.415889 L108.636513,115.482216 L153.716513,115.482216 L153.716513,118.723578 L163.954769,111.530983 Z" id="path-4"></path>
        <filter x="-3.8%" y="-11.3%" width="107.7%" height="129.8%" filterUnits="objectBoundingBox" id="filter-5">
            <feOffset dx="0" dy="3" in="SourceAlpha" result="shadowOffsetOuter1"></feOffset>
            <feGaussianBlur stdDeviation="3" in="shadowOffsetOuter1" result="shadowBlurOuter1"></feGaussianBlur>
            <feColorMatrix values="0 0 0 0 0   0 0 0 0 0   0 0 0 0 0  0 0 0 0.2 0" type="matrix" in="shadowBlurOuter1" result="shadowMatrixOuter1"></feColorMatrix>
            <feMerge>
                <feMergeNode in="shadowMatrixOuter1"></feMergeNode>
                <feMergeNode in="SourceGraphic"></feMergeNode>
            </feMerge>
        </filter>
        <path d="M324.636513,25.6498341 C324.628276,23.0852252 322.55366,21.0082464 319.991968,21 L240.644544,21 C238.082853,21.0082464 236.008237,23.0852252 236,25.6498341 L236,59.4121327 C236.006178,61.9782083 238.081394,64.0574658 240.644544,64.0657227 L319.991968,64.0657227 C322.55366,64.0574764 324.628276,61.9804976 324.636513,59.4158886 L324.636513,25.6498341 Z" id="path-6"></path>
        <path d="M112.954769,41.5309834 L102.716513,34.3383886 L102.716513,37.5797512 L88.6365125,37.5797512 L88.6365125,4.64983412 C88.6282755,2.08522518 86.5536596,0.00824639488 83.9919683,0 L4.64454425,0 C2.08285293,0.00824639488 0.00823701339,2.08522518 0,4.64983412 L0,78.4121327 C0.00617794772,80.9782083 2.08139377,83.0574658 4.64454425,83.0657227 L83.9919683,83.0657227 C86.5536596,83.0574764 88.6282755,80.9804976 88.6365125,78.4158886 L88.6365125,45.4822156 L102.716513,45.4822156 L102.716513,48.7235782 L112.954769,41.5309834 Z" id="path-7"></path>
    </defs>
    <g id="KBC-try-mode" stroke="none" stroke-width="1" fill="none" fill-rule="evenodd">
        <g id="Schema-KBC" transform="translate(-18.000000, -888.000000)">
            <g id="schema-4" transform="translate(18.000000, 888.000000)">
                <g id="Group-12" transform="translate(8.000000, 59.000000)">
                    <path d="M452.954769,71.5309834 L442.716513,64.3383886 L442.716513,67.5797512 L428.636513,67.5797512 L428.636513,14.6498341 C428.628276,12.0852252 426.55366,10.0082464 423.991968,10 L344.644544,10 C342.082853,10.0082464 340.008237,12.0852252 340,14.6498341 L340,128.412133 C340.006178,130.978208 342.081394,133.057466 344.644544,133.065723 L423.991968,133.065723 C426.55366,133.057476 428.628276,130.980498 428.636513,128.415889 L428.636513,75.4822156 L442.716513,75.4822156 L442.716513,78.7235782 L452.954769,71.5309834 Z" id="Shape" fill="#25B8EB"></path>
                    <g id="Shape" stroke-linecap="square" stroke-linejoin="round">
                        <use fill="#FFFFFF" fill-rule="evenodd" xlink:href="#path-1"></use>
                        <path stroke="#25B8EB" stroke-width="2" d="M338.716513,36.4822156 L326.636512,36.4822156 L326.636507,58.4191004 C326.626505,61.5332291 324.106904,64.0557006 320.991968,64.0657227 L241.641323,64.0657176 C238.527834,64.0556878 236.007505,61.5304493 236,58.4121327 L236.000005,4.64662234 C236.010007,1.53249367 238.529609,-0.989977827 241.644544,-1 L320.995187,-0.999994819 C324.106904,-0.989977827 326.626505,1.53249367 326.636513,4.64983412 L326.636513,26.5797512 L338.716513,26.5797512 L338.716513,22.4137639 L351.694364,31.5309834 L338.716513,40.6482029 L338.716513,36.4822156 Z"></path>
                    </g>
                    <text id="Table-in-storage:-Po" font-family="GothamRounded-Medium, Gotham Rounded" font-size="9" font-weight="400" line-spacing="12" fill="#282D38">
                        <tspan x="270.931" y="14">Table </tspan>
                        <tspan x="259.2445" y="26">in storage:</tspan>
                        <tspan x="252.0175" y="38" font-family="GothamRounded-Book, Gotham Rounded" font-weight="300">Population by</tspan>
                        <tspan x="265.765" y="50" font-family="GothamRounded-Book, Gotham Rounded" font-weight="300">country</tspan>
                    </text>
                    <g id="Shape" stroke-linecap="square" stroke-linejoin="round">
                        <use fill="#FFFFFF" fill-rule="evenodd" xlink:href="#path-2"></use>
                        <path stroke="#25B8EB" stroke-width="2" d="M338.716513,116.482216 L326.636512,116.482216 L326.636507,138.4191 C326.626505,141.533229 324.106904,144.055701 320.991968,144.065723 L241.641323,144.065718 C238.527834,144.055688 236.007505,141.530449 236,138.412133 L236.000005,84.6466223 C236.010007,81.5324937 238.529609,79.0100222 241.644544,79 L320.995187,79.0000052 C324.106904,79.0100222 326.626505,81.5324937 326.636513,84.6498341 L326.636513,106.579751 L338.716513,106.579751 L338.716513,102.413764 L351.694364,111.530983 L338.716513,120.648203 L338.716513,116.482216 Z"></path>
                    </g>
                    <text id="Table-in-storage:-Ca" font-family="GothamRounded-Medium, Gotham Rounded" font-size="9" font-weight="400" line-spacing="12" fill="#282D38">
                        <tspan x="270.931" y="94">Table </tspan>
                        <tspan x="259.2445" y="106">in storage:</tspan>
                        <tspan x="273.01" y="118" font-family="GothamRounded-Book, Gotham Rounded" font-weight="300">Cars </tspan>
                        <tspan x="258.88" y="130" font-family="GothamRounded-Book, Gotham Rounded" font-weight="300">by country</tspan>
                    </text>
                    <path d="M222.636513,27.2413626 L222.636513,4.64983412 C222.628276,2.08522518 220.55366,0.00824639488 217.991968,0 L158.644544,0 C156.082853,0.00824639488 154.008237,2.08522518 154,4.64983412 L154,138.412133 C154.006178,140.978208 156.081394,143.057466 158.644544,143.065723 L217.991968,143.065723 C220.55366,143.057476 222.628276,140.980498 222.636513,138.415889 L222.636513,115.482216 L236.716513,115.482216 L236.716513,118.723578 L246.954769,111.530983 L236.716513,104.338389 L236.716513,107.579751 L222.636513,107.579751 L222.636513,35.143827 L237.08,35.143827 L237.08,38.3851896 L247.318256,31.1925948 L237.08,24 L237.08,27.2413626 L222.636513,27.2413626 Z" id="Combined-Shape" fill="#25B8EB"></path>
                    <text id="Extractor" font-family="GothamRounded-Bold, Gotham Rounded" font-size="9" font-weight="bold" line-spacing="12" fill="#FFFFFF">
                        <tspan x="168.3635" y="73">Extractor</tspan>
                    </text>
                    <text id="Transformation" font-family="GothamRounded-Bold, Gotham Rounded" font-size="9" font-weight="bold" line-spacing="12" fill="#FFFFFF">
                        <tspan x="349.8815" y="72">Transformation</tspan>
                    </text>
                    <g id="Shape" stroke-linecap="square" stroke-linejoin="round">
                        <use fill="#FFFFFF" fill-rule="evenodd" xlink:href="#path-3"></use>
                        <path stroke="#25B8EB" stroke-width="2" d="M152.716513,36.4822156 L109.636512,36.4822156 L109.636507,53.4191004 C109.626505,56.5332291 107.106904,59.0557006 103.991968,59.0657227 L4.64132288,59.0657176 C1.52783443,59.0556878 -0.992495404,56.5304493 -1,53.4121327 L-0.999994842,9.64662234 C-0.989992881,6.53249367 1.52960893,4.01002217 4.64454425,4 L103.995187,4.00000518 C107.106904,4.01002217 109.626505,6.53249367 109.636513,9.64983412 L109.636513,26.5797512 L152.716513,26.5797512 L152.716513,22.4137639 L165.694364,31.5309834 L152.716513,40.6482029 L152.716513,36.4822156 Z"></path>
                    </g>
                    <text id="Table-in-database:-P" font-family="GothamRounded-Medium, Gotham Rounded" font-size="9" font-weight="400" line-spacing="12" fill="#282D38">
                        <tspan x="14.1355" y="20">Table in database:</tspan>
                        <tspan x="24.0175" y="32" font-family="GothamRounded-Book, Gotham Rounded" font-weight="300">Population by</tspan>
                        <tspan x="37.765" y="44" font-family="GothamRounded-Book, Gotham Rounded" font-weight="300">country</tspan>
                    </text>
                    <g id="Shape" stroke-linecap="square" stroke-linejoin="round">
                        <use fill="#FFFFFF" fill-rule="evenodd" xlink:href="#path-4"></use>
                        <path stroke="#25B8EB" stroke-width="2" d="M152.716513,116.482216 L109.636512,116.482216 L109.636507,133.4191 C109.626505,136.533229 107.106904,139.055701 103.991968,139.065723 L4.64132288,139.065718 C1.52783443,139.055688 -0.992495404,136.530449 -1,133.412133 L-0.999994842,89.6466223 C-0.989992881,86.5324937 1.52960893,84.0100222 4.64454425,84 L103.995187,84.0000052 C107.106904,84.0100222 109.626505,86.5324937 109.636513,89.6498341 L109.636513,106.579751 L152.716513,106.579751 L152.716513,102.413764 L165.694364,111.530983 L152.716513,120.648203 L152.716513,116.482216 Z"></path>
                    </g>
                    <text id="Table-in-database:-C" font-family="GothamRounded-Medium, Gotham Rounded" font-size="9" font-weight="400" line-spacing="12" fill="#282D38">
                        <tspan x="14.1355" y="104">Table in database:</tspan>
                        <tspan x="19.54" y="116" font-family="GothamRounded-Book, Gotham Rounded" font-weight="300">Cars by country</tspan>
                    </text>
                </g>
                <rect id="Rectangle-17" fill="#FFFFFF" opacity="0.5" x="0" y="52" width="471" height="157"></rect>
                <g id="Group-11" opacity="0.5" transform="translate(141.000000, 0.000000)">
                    <path d="M162,0 L362,0 L362,0 C367.522847,-1.01453063e-15 372,4.4771525 372,10 L372,50 L152,50 L152,10 L152,10 C152,4.4771525 156.477153,1.01453063e-15 162,0 Z" id="Rectangle-15" fill="#C8EDFA"></path>
                    <rect id="Rectangle-15" fill="#C8EDFA" x="0" y="35" width="524" height="193" rx="10"></rect>
                    <text id="KEBOOLA-CONNECTION" font-family="GothamRounded-Medium, Gotham Rounded" font-size="14" font-weight="400" fill="#282D38">
                        <tspan x="174.394" y="26">KEBOOLA CONNECTION</tspan>
                    </text>
                </g>
                <g id="Group-13" filter="url(#filter-5)" transform="translate(451.000000, 89.000000)">
                    <g id="Shape" stroke-linecap="square" stroke-linejoin="round">
                        <use fill="#FFFFFF" fill-rule="evenodd" xlink:href="#path-6"></use>
                        <path stroke="#25B8EB" stroke-width="2" d="M325.636507,25.6466223 L325.636513,25.6498341 L325.636507,59.4191004 C325.626505,62.5332291 323.106904,65.0557006 319.991968,65.0657227 L240.641323,65.0657176 C237.527834,65.0556878 235.007505,62.5304493 235,59.4121327 L235.000005,25.6466223 C235.010007,22.5324937 237.529609,20.0100222 240.644544,20 L319.995187,20.0000052 C323.106904,20.0100222 325.626505,22.5324937 325.636507,25.6466223 Z"></path>
                    </g>
                    <text id="Tableau-Visualizatio" font-family="GothamRounded-Medium, Gotham Rounded" font-size="9" font-weight="400" line-spacing="12" fill="#282D38">
                        <tspan x="264.4995" y="36">Tableau</tspan>
                        <tspan x="253.2225" y="48">Visualization</tspan>
                    </text>
                    <path d="M245.954769,41.5309834 L235.716513,34.3383886 L235.716513,37.5797512 L191.636513,37.5797512 L191.636513,14.6498341 C191.628276,12.0852252 189.55366,10.0082464 186.991968,10 L107.644544,10 C105.082853,10.0082464 103.008237,12.0852252 103,14.6498341 L103,68.4121327 C103.006178,70.9782083 105.081394,73.0574658 107.644544,73.0657227 L186.991968,73.0657227 C189.55366,73.0574764 191.628276,70.9804976 191.636513,68.4158886 L191.636513,45.4822156 L235.716513,45.4822156 L235.716513,48.7235782 L245.954769,41.5309834 Z" id="Shape" fill="#25B8EB"></path>
                    <text id="Writer" font-family="GothamRounded-Bold, Gotham Rounded" font-size="9" font-weight="bold" line-spacing="12" fill="#FFFFFF">
                        <tspan x="132.992" y="42">Writer</tspan>
                    </text>
                    <g id="Shape" stroke-linecap="square" stroke-linejoin="round">
                        <use fill="#FFFFFF" fill-rule="evenodd" xlink:href="#path-7"></use>
                        <path stroke="#25B8EB" stroke-width="2" d="M101.716513,46.4822156 L89.6365124,46.4822156 L89.6365074,78.4191004 C89.6265054,81.5332291 87.1069036,84.0557006 83.9919683,84.0657227 L4.64132288,84.0657176 C1.52783443,84.0556878 -0.992495404,81.5304493 -1,78.4121327 L-0.999994842,4.64662234 C-0.989992881,1.53249367 1.52960893,-0.989977827 4.64454425,-1 L83.9951874,-0.999994819 C87.1069036,-0.989977827 89.6265054,1.53249367 89.6365125,4.64983412 L89.6365125,36.5797512 L101.716513,36.5797512 L101.716513,32.4137639 L114.694364,41.5309834 L101.716513,50.6482029 L101.716513,46.4822156 Z"></path>
                    </g>
                    <text id="Table-in-storage:-Po" font-family="GothamRounded-Medium, Gotham Rounded" font-size="9" font-weight="400" line-spacing="12" fill="#282D38">
                        <tspan x="32.431" y="18">Table</tspan>
                        <tspan x="20.7445" y="30">in storage:</tspan>
                        <tspan x="68.2555" y="30" font-family="GothamRounded-Book, Gotham Rounded" font-weight="300"></tspan>
                        <tspan x="20.4025" y="42" font-family="GothamRounded-Book, Gotham Rounded" font-weight="300">Population</tspan>
                        <tspan x="30.028" y="54" font-family="GothamRounded-Book, Gotham Rounded" font-weight="300">&amp; Cars</tspan>
                        <tspan x="20.38" y="66" font-family="GothamRounded-Book, Gotham Rounded" font-weight="300">by country</tspan>
                    </text>
                </g>
            </g>
        </g>
    </g>
</svg>