<?xml version="1.0" encoding="UTF-8"?>
<svg width="772px" height="228px" viewBox="0 0 772 228" version="1.1" xmlns="http://www.w3.org/2000/svg" xmlns:xlink="http://www.w3.org/1999/xlink">
    <!-- Generator: Sketch 47.1 (45422) - http://www.bohemiancoding.com/sketch -->
    <title>schema 1</title>
    <desc>Created with Sketch.</desc>
    <defs>
        <path d="M767.636513,114.649834 C767.628276,112.085225 765.55366,110.008246 762.991968,110 L683.644544,110 C681.082853,110.008246 679.008237,112.085225 679,114.649834 L679,148.412133 C679.006178,150.978208 681.081394,153.057466 683.644544,153.065723 L762.991968,153.065723 C765.55366,153.057476 767.628276,150.980498 767.636513,148.415889 L767.636513,114.649834 Z" id="path-1"></path>
        <path d="M555.954769,130.530983 L545.716513,123.338389 L545.716513,126.579751 L531.636513,126.579751 L531.636513,93.6498341 C531.628276,91.0852252 529.55366,89.0082464 526.991968,89 L447.644544,89 C445.082853,89.0082464 443.008237,91.0852252 443,93.6498341 L443,167.412133 C443.006178,169.978208 445.081394,172.057466 447.644544,172.065723 L526.991968,172.065723 C529.55366,172.057476 531.628276,169.980498 531.636513,167.415889 L531.636513,134.482216 L545.716513,134.482216 L545.716513,137.723578 L555.954769,130.530983 Z" id="path-2"></path>
        <path d="M349.954769,90.5309834 L339.716513,83.3383886 L339.716513,86.5797512 L325.636513,86.5797512 L325.636513,63.6498341 C325.628276,61.0852252 323.55366,59.0082464 320.991968,59 L241.644544,59 C239.082853,59.0082464 237.008237,61.0852252 237,63.6498341 L237,117.412133 C237.006178,119.978208 239.081394,122.057466 241.644544,122.065723 L320.991968,122.065723 C323.55366,122.057476 325.628276,119.980498 325.636513,117.415889 L325.636513,94.4822156 L339.716513,94.4822156 L339.716513,97.7235782 L349.954769,90.5309834 Z" id="path-3"></path>
        <path d="M349.954769,170.530983 L339.716513,163.338389 L339.716513,166.579751 L325.636513,166.579751 L325.636513,143.649834 C325.628276,141.085225 323.55366,139.008246 320.991968,139 L241.644544,139 C239.082853,139.008246 237.008237,141.085225 237,143.649834 L237,197.412133 C237.006178,199.978208 239.081394,202.057466 241.644544,202.065723 L320.991968,202.065723 C323.55366,202.057476 325.628276,199.980498 325.636513,197.415889 L325.636513,174.482216 L339.716513,174.482216 L339.716513,177.723578 L349.954769,170.530983 Z" id="path-4"></path>
        <path d="M163.954769,90.5309834 L153.716513,83.3383886 L153.716513,86.5797512 L108.636513,86.5797512 L108.636513,68.6498341 C108.628276,66.0852252 106.55366,64.0082464 103.991968,64 L4.64454425,64 C2.08285293,64.0082464 0.00823701339,66.0852252 0,68.6498341 L0,112.412133 C0.00617794772,114.978208 2.08139377,117.057466 4.64454425,117.065723 L103.991968,117.065723 C106.55366,117.057476 108.628276,114.980498 108.636513,112.415889 L108.636513,94.4822156 L153.716513,94.4822156 L153.716513,97.7235782 L163.954769,90.5309834 Z" id="path-5"></path>
        <path d="M163.954769,170.530983 L153.716513,163.338389 L153.716513,166.579751 L108.636513,166.579751 L108.636513,148.649834 C108.628276,146.085225 106.55366,144.008246 103.991968,144 L4.64454425,144 C2.08285293,144.008246 0.00823701339,146.085225 0,148.649834 L0,192.412133 C0.00617794772,194.978208 2.08139377,197.057466 4.64454425,197.065723 L103.991968,197.065723 C106.55366,197.057476 108.628276,194.980498 108.636513,192.415889 L108.636513,174.482216 L153.716513,174.482216 L153.716513,177.723578 L163.954769,170.530983 Z" id="path-6"></path>
    </defs>
    <g id="KBC-try-mode" stroke="none" stroke-width="1" fill="none" fill-rule="evenodd">
        <g id="Schema-KBC" transform="translate(-24.000000, -34.000000)">
            <g id="schema-1" transform="translate(26.000000, 34.000000)">
                <g id="Group">
                    <g id="Group-6">
                        <path d="M295,0 L495,0 L495,0 C500.522847,-1.01453063e-15 505,4.4771525 505,10 L505,50 L285,50 L285,10 L285,10 C285,4.4771525 289.477153,1.01453063e-15 295,0 Z" id="Rectangle-15" fill="#C8EDFA"></path>
                        <rect id="Rectangle-15" fill="#C8EDFA" x="133" y="35" width="524" height="193" rx="10"></rect>
                        <text id="KEBOOLA-CONNECTION" font-family="GothamRounded-Medium, Gotham Rounded" font-size="14" font-weight="400" fill="#282D38">
                            <tspan x="307.394" y="26">KEBOOLA CONNECTION</tspan>
                        </text>
                        <g id="Shape" stroke-linecap="square" stroke-linejoin="round">
                            <use fill="#FFFFFF" fill-rule="evenodd" xlink:href="#path-1"></use>
                            <path stroke="#25B8EB" stroke-width="2" d="M768.636507,114.646622 L768.636513,114.649834 L768.636507,148.4191 C768.626505,151.533229 766.106904,154.055701 762.991968,154.065723 L683.641323,154.065718 C680.527834,154.055688 678.007505,151.530449 678,148.412133 L678.000005,114.646622 C678.010007,111.532494 680.529609,109.010022 683.644544,109 L762.995187,109.000005 C766.106904,109.010022 768.626505,111.532494 768.636507,114.646622 Z"></path>
                        </g>
                        <text id="Tableau-Visualizatio" font-family="GothamRounded-Medium, Gotham Rounded" font-size="9" font-weight="400" line-spacing="12" fill="#282D38">
                            <tspan x="707.4995" y="125">Tableau</tspan>
                            <tspan x="696.2225" y="137">Visualization</tspan>
                        </text>
                        <path d="M688.954769,130.530983 L678.716513,123.338389 L678.716513,126.579751 L634.636513,126.579751 L634.636513,103.649834 C634.628276,101.085225 632.55366,99.0082464 629.991968,99 L550.644544,99 C548.082853,99.0082464 546.008237,101.085225 546,103.649834 L546,157.412133 C546.006178,159.978208 548.081394,162.057466 550.644544,162.065723 L629.991968,162.065723 C632.55366,162.057476 634.628276,159.980498 634.636513,157.415889 L634.636513,134.482216 L678.716513,134.482216 L678.716513,137.723578 L688.954769,130.530983 Z" id="Shape" fill="#25B8EB"></path>
                        <text id="Writer" font-family="GothamRounded-Bold, Gotham Rounded" font-size="9" font-weight="bold" line-spacing="12" fill="#FFFFFF">
                            <tspan x="575.992" y="131">Writer</tspan>
                        </text>
                        <g id="Shape" stroke-linecap="square" stroke-linejoin="round">
                            <use fill="#FFFFFF" fill-rule="evenodd" xlink:href="#path-2"></use>
                            <path stroke="#25B8EB" stroke-width="2" d="M544.716513,135.482216 L532.636512,135.482216 L532.636507,167.4191 C532.626505,170.533229 530.106904,173.055701 526.991968,173.065723 L447.641323,173.065718 C444.527834,173.055688 442.007505,170.530449 442,167.412133 L442.000005,93.6466223 C442.010007,90.5324937 444.529609,88.0100222 447.644544,88 L526.995187,88.0000052 C530.106904,88.0100222 532.626505,90.5324937 532.636513,93.6498341 L532.636513,125.579751 L544.716513,125.579751 L544.716513,121.413764 L557.694364,130.530983 L544.716513,139.648203 L544.716513,135.482216 Z"></path>
                        </g>
                        <text id="Table-in-storage:-Po" font-family="GothamRounded-Medium, Gotham Rounded" font-size="9" font-weight="400" line-spacing="12" fill="#282D38">
                            <tspan x="475.431" y="107">Table</tspan>
                            <tspan x="463.7445" y="119">in storage:</tspan>
                            <tspan x="511.2555" y="119" font-family="GothamRounded-Book, Gotham Rounded" font-weight="300"></tspan>
                            <tspan x="463.4025" y="131" font-family="GothamRounded-Book, Gotham Rounded" font-weight="300">Population</tspan>
                            <tspan x="473.028" y="143" font-family="GothamRounded-Book, Gotham Rounded" font-weight="300">&amp; Cars</tspan>
                            <tspan x="463.38" y="155" font-family="GothamRounded-Book, Gotham Rounded" font-weight="300">by country</tspan>
                        </text>
                        <path d="M452.954769,130.530983 L442.716513,123.338389 L442.716513,126.579751 L428.636513,126.579751 L428.636513,73.6498341 C428.628276,71.0852252 426.55366,69.0082464 423.991968,69 L344.644544,69 C342.082853,69.0082464 340.008237,71.0852252 340,73.6498341 L340,187.412133 C340.006178,189.978208 342.081394,192.057466 344.644544,192.065723 L423.991968,192.065723 C426.55366,192.057476 428.628276,189.980498 428.636513,187.415889 L428.636513,134.482216 L442.716513,134.482216 L442.716513,137.723578 L452.954769,130.530983 Z" id="Shape" fill="#25B8EB"></path>
                        <g id="Shape" stroke-linecap="square" stroke-linejoin="round">
                            <use fill="#FFFFFF" fill-rule="evenodd" xlink:href="#path-3"></use>
                            <path stroke="#25B8EB" stroke-width="2" d="M338.716513,95.4822156 L326.636512,95.4822156 L326.636507,117.4191 C326.626505,120.533229 324.106904,123.055701 320.991968,123.065723 L241.641323,123.065718 C238.527834,123.055688 236.007505,120.530449 236,117.412133 L236.000005,63.6466223 C236.010007,60.5324937 238.529609,58.0100222 241.644544,58 L320.995187,58.0000052 C324.106904,58.0100222 326.626505,60.5324937 326.636513,63.6498341 L326.636513,85.5797512 L338.716513,85.5797512 L338.716513,81.4137639 L351.694364,90.5309834 L338.716513,99.6482029 L338.716513,95.4822156 Z"></path>
                        </g>
                        <text id="Table-in-storage:-Po" font-family="GothamRounded-Medium, Gotham Rounded" font-size="9" font-weight="400" line-spacing="12" fill="#282D38">
                            <tspan x="270.931" y="73">Table </tspan>
                            <tspan x="259.2445" y="85">in storage:</tspan>
                            <tspan x="252.0175" y="97" font-family="GothamRounded-Book, Gotham Rounded" font-weight="300">Population by</tspan>
                            <tspan x="265.765" y="109" font-family="GothamRounded-Book, Gotham Rounded" font-weight="300">country</tspan>
                        </text>
                        <g id="Shape" stroke-linecap="square" stroke-linejoin="round">
                            <use fill="#FFFFFF" fill-rule="evenodd" xlink:href="#path-4"></use>
                            <path stroke="#25B8EB" stroke-width="2" d="M338.716513,175.482216 L326.636512,175.482216 L326.636507,197.4191 C326.626505,200.533229 324.106904,203.055701 320.991968,203.065723 L241.641323,203.065718 C238.527834,203.055688 236.007505,200.530449 236,197.412133 L236.000005,143.646622 C236.010007,140.532494 238.529609,138.010022 241.644544,138 L320.995187,138.000005 C324.106904,138.010022 326.626505,140.532494 326.636513,143.649834 L326.636513,165.579751 L338.716513,165.579751 L338.716513,161.413764 L351.694364,170.530983 L338.716513,179.648203 L338.716513,175.482216 Z"></path>
                        </g>
                        <text id="Table-in-storage:-Ca" font-family="GothamRounded-Medium, Gotham Rounded" font-size="9" font-weight="400" line-spacing="12" fill="#282D38">
                            <tspan x="270.931" y="153">Table </tspan>
                            <tspan x="259.2445" y="165">in storage:</tspan>
                            <tspan x="273.01" y="177" font-family="GothamRounded-Book, Gotham Rounded" font-weight="300">Cars </tspan>
                            <tspan x="258.88" y="189" font-family="GothamRounded-Book, Gotham Rounded" font-weight="300">by country</tspan>
                        </text>
                        <path d="M222.636513,86.2413626 L222.636513,63.6498341 C222.628276,61.0852252 220.55366,59.0082464 217.991968,59 L158.644544,59 C156.082853,59.0082464 154.008237,61.0852252 154,63.6498341 L154,197.412133 C154.006178,199.978208 156.081394,202.057466 158.644544,202.065723 L217.991968,202.065723 C220.55366,202.057476 222.628276,199.980498 222.636513,197.415889 L222.636513,174.482216 L236.716513,174.482216 L236.716513,177.723578 L246.954769,170.530983 L236.716513,163.338389 L236.716513,166.579751 L222.636513,166.579751 L222.636513,94.143827 L237.08,94.143827 L237.08,97.3851896 L247.318256,90.1925948 L237.08,83 L237.08,86.2413626 L222.636513,86.2413626 Z" id="Combined-Shape" fill="#25B8EB"></path>
                        <text id="Extractor" font-family="GothamRounded-Bold, Gotham Rounded" font-size="9" font-weight="bold" line-spacing="12" fill="#FFFFFF">
                            <tspan x="168.3635" y="132">Extractor</tspan>
                        </text>
                        <text id="Transformation" font-family="GothamRounded-Bold, Gotham Rounded" font-size="9" font-weight="bold" line-spacing="12" fill="#FFFFFF">
                            <tspan x="349.8815" y="131">Transformation</tspan>
                        </text>
                        <g id="Shape" stroke-linecap="square" stroke-linejoin="round">
                            <use fill="#FFFFFF" fill-rule="evenodd" xlink:href="#path-5"></use>
                            <path stroke="#25B8EB" stroke-width="2" d="M152.716513,95.4822156 L109.636512,95.4822156 L109.636507,112.4191 C109.626505,115.533229 107.106904,118.055701 103.991968,118.065723 L4.64132288,118.065718 C1.52783443,118.055688 -0.992495404,115.530449 -1,112.412133 L-0.999994842,68.6466223 C-0.989992881,65.5324937 1.52960893,63.0100222 4.64454425,63 L103.995187,63.0000052 C107.106904,63.0100222 109.626505,65.5324937 109.636513,68.6498341 L109.636513,85.5797512 L152.716513,85.5797512 L152.716513,81.4137639 L165.694364,90.5309834 L152.716513,99.6482029 L152.716513,95.4822156 Z"></path>
                        </g>
                        <text id="Table-in-database:-P" font-family="GothamRounded-Medium, Gotham Rounded" font-size="9" font-weight="400" line-spacing="12" fill="#282D38">
                            <tspan x="14.1355" y="79">Table in database:</tspan>
                            <tspan x="24.0175" y="91" font-family="GothamRounded-Book, Gotham Rounded" font-weight="300">Population by</tspan>
                            <tspan x="37.765" y="103" font-family="GothamRounded-Book, Gotham Rounded" font-weight="300">country</tspan>
                        </text>
                        <g id="Shape" stroke-linecap="square" stroke-linejoin="round">
                            <use fill="#FFFFFF" fill-rule="evenodd" xlink:href="#path-6"></use>
                            <path stroke="#25B8EB" stroke-width="2" d="M152.716513,175.482216 L109.636512,175.482216 L109.636507,192.4191 C109.626505,195.533229 107.106904,198.055701 103.991968,198.065723 L4.64132288,198.065718 C1.52783443,198.055688 -0.992495404,195.530449 -1,192.412133 L-0.999994842,148.646622 C-0.989992881,145.532494 1.52960893,143.010022 4.64454425,143 L103.995187,143.000005 C107.106904,143.010022 109.626505,145.532494 109.636513,148.649834 L109.636513,165.579751 L152.716513,165.579751 L152.716513,161.413764 L165.694364,170.530983 L152.716513,179.648203 L152.716513,175.482216 Z"></path>
                        </g>
                        <text id="Table-in-database:-C" font-family="GothamRounded-Medium, Gotham Rounded" font-size="9" font-weight="400" line-spacing="12" fill="#282D38">
                            <tspan x="14.1355" y="163">Table in database:</tspan>
                            <tspan x="19.54" y="175" font-family="GothamRounded-Book, Gotham Rounded" font-weight="300">Cars by country</tspan>
                        </text>
                    </g>
                </g>
                <g id="Group-2" transform="translate(0.000000, 59.000000)"></g>
            </g>
        </g>
    </g>
</svg>