<?xml version="1.0" encoding="UTF-8"?>
<svg width="786px" height="228px" viewBox="0 0 786 228" version="1.1" xmlns="http://www.w3.org/2000/svg" xmlns:xlink="http://www.w3.org/1999/xlink">
    <!-- Generator: Sketch 47.1 (45422) - http://www.bohemiancoding.com/sketch -->
    <title>schema 2</title>
    <desc>Created with Sketch.</desc>
    <defs>
        <path d="M427.636513,45.6498341 C427.628276,43.0852252 425.55366,41.0082464 422.991968,41 L343.644544,41 C341.082853,41.0082464 339.008237,43.0852252 339,45.6498341 L339,79.4121327 C339.006178,81.9782083 341.081394,84.0574658 343.644544,84.0657227 L422.991968,84.0657227 C425.55366,84.0574764 427.628276,81.9804976 427.636513,79.4158886 L427.636513,45.6498341 Z" id="path-1"></path>
        <path d="M215.954769,61.5309834 L205.716513,54.3383886 L205.716513,57.5797512 L191.636513,57.5797512 L191.636513,24.6498341 C191.628276,22.0852252 189.55366,20.0082464 186.991968,20 L107.644544,20 C105.082853,20.0082464 103.008237,22.0852252 103,24.6498341 L103,98.4121327 C103.006178,100.978208 105.081394,103.057466 107.644544,103.065723 L186.991968,103.065723 C189.55366,103.057476 191.628276,100.980498 191.636513,98.4158886 L191.636513,65.4822156 L205.716513,65.4822156 L205.716513,68.7235782 L215.954769,61.5309834 Z" id="path-2"></path>
        <filter x="-3.6%" y="-6.6%" width="107.2%" height="117.4%" filterUnits="objectBoundingBox" id="filter-3">
            <feOffset dx="0" dy="3" in="SourceAlpha" result="shadowOffsetOuter1"></feOffset>
            <feGaussianBlur stdDeviation="3" in="shadowOffsetOuter1" result="shadowBlurOuter1"></feGaussianBlur>
            <feColorMatrix values="0 0 0 0 0   0 0 0 0 0   0 0 0 0 0  0 0 0 0.2 0" type="matrix" in="shadowBlurOuter1" result="shadowMatrixOuter1"></feColorMatrix>
            <feMerge>
                <feMergeNode in="shadowMatrixOuter1"></feMergeNode>
                <feMergeNode in="SourceGraphic"></feMergeNode>
            </feMerge>
        </filter>
        <path d="M348.954769,31.5309834 L338.716513,24.3383886 L338.716513,27.5797512 L324.636513,27.5797512 L324.636513,4.64983412 C324.628276,2.08522518 322.55366,0.00824639488 319.991968,0 L240.644544,0 C238.082853,0.00824639488 236.008237,2.08522518 236,4.64983412 L236,58.4121327 C236.006178,60.9782083 238.081394,63.0574658 240.644544,63.0657227 L319.991968,63.0657227 C322.55366,63.0574764 324.628276,60.9804976 324.636513,58.4158886 L324.636513,35.4822156 L338.716513,35.4822156 L338.716513,38.7235782 L348.954769,31.5309834 Z" id="path-4"></path>
        <path d="M348.954769,111.530983 L338.716513,104.338389 L338.716513,107.579751 L324.636513,107.579751 L324.636513,84.6498341 C324.628276,82.0852252 322.55366,80.0082464 319.991968,80 L240.644544,80 C238.082853,80.0082464 236.008237,82.0852252 236,84.6498341 L236,138.412133 C236.006178,140.978208 238.081394,143.057466 240.644544,143.065723 L319.991968,143.065723 C322.55366,143.057476 324.628276,140.980498 324.636513,138.415889 L324.636513,115.482216 L338.716513,115.482216 L338.716513,118.723578 L348.954769,111.530983 Z" id="path-5"></path>
        <path d="M162.954769,31.5309834 L152.716513,24.3383886 L152.716513,27.5797512 L108.636513,27.5797512 L108.636513,9.64983412 C108.628276,7.08522518 106.55366,5.00824639 103.991968,5 L4.64454425,5 C2.08285293,5.00824639 0.00823701339,7.08522518 0,9.64983412 L0,53.4121327 C0.00617794772,55.9782083 2.08139377,58.0574658 4.64454425,58.0657227 L103.991968,58.0657227 C106.55366,58.0574764 108.628276,55.9804976 108.636513,53.4158886 L108.636513,35.4822156 L152.716513,35.4822156 L152.716513,38.7235782 L162.954769,31.5309834 Z" id="path-6"></path>
        <path d="M162.954769,111.530983 L152.716513,104.338389 L152.716513,107.579751 L108.636513,107.579751 L108.636513,89.6498341 C108.628276,87.0852252 106.55366,85.0082464 103.991968,85 L4.64454425,85 C2.08285293,85.0082464 0.00823701339,87.0852252 0,89.6498341 L0,133.412133 C0.00617794772,135.978208 2.08139377,138.057466 4.64454425,138.065723 L103.991968,138.065723 C106.55366,138.057476 108.628276,135.980498 108.636513,133.415889 L108.636513,115.482216 L152.716513,115.482216 L152.716513,118.723578 L162.954769,111.530983 Z" id="path-7"></path>
    </defs>
    <g id="KBC-try-mode" stroke="none" stroke-width="1" fill="none" fill-rule="evenodd">
        <g id="Schema-KBC" transform="translate(-19.000000, -322.000000)">
            <g id="schema-2" transform="translate(27.000000, 322.000000)">
                <g id="Group-14">
                    <g id="Group-4" transform="translate(339.000000, 69.000000)">
                        <g id="Shape" stroke-linecap="square" stroke-linejoin="round">
                            <use fill="#FFFFFF" fill-rule="evenodd" xlink:href="#path-1"></use>
                            <path stroke="#25B8EB" stroke-width="2" d="M428.636507,45.6466223 L428.636513,45.6498341 L428.636507,79.4191004 C428.626505,82.5332291 426.106904,85.0557006 422.991968,85.0657227 L343.641323,85.0657176 C340.527834,85.0556878 338.007505,82.5304493 338,79.4121327 L338.000005,45.6466223 C338.010007,42.5324937 340.529609,40.0100222 343.644544,40 L422.995187,40.0000052 C426.106904,40.0100222 428.626505,42.5324937 428.636507,45.6466223 Z"></path>
                        </g>
                        <text id="Tableau-Visualizatio" font-family="GothamRounded-Medium, Gotham Rounded" font-size="9" font-weight="400" line-spacing="12" fill="#282D38">
                            <tspan x="367.4995" y="56">Tableau</tspan>
                            <tspan x="356.2225" y="68">Visualization</tspan>
                        </text>
                        <path d="M348.954769,61.5309834 L338.716513,54.3383886 L338.716513,57.5797512 L294.636513,57.5797512 L294.636513,34.6498341 C294.628276,32.0852252 292.55366,30.0082464 289.991968,30 L210.644544,30 C208.082853,30.0082464 206.008237,32.0852252 206,34.6498341 L206,88.4121327 C206.006178,90.9782083 208.081394,93.0574658 210.644544,93.0657227 L289.991968,93.0657227 C292.55366,93.0574764 294.628276,90.9804976 294.636513,88.4158886 L294.636513,65.4822156 L338.716513,65.4822156 L338.716513,68.7235782 L348.954769,61.5309834 Z" id="Shape" fill="#25B8EB"></path>
                        <text id="Writer" font-family="GothamRounded-Bold, Gotham Rounded" font-size="9" font-weight="bold" line-spacing="12" fill="#FFFFFF">
                            <tspan x="235.992" y="62">Writer</tspan>
                        </text>
                        <g id="Shape" stroke-linecap="square" stroke-linejoin="round">
                            <use fill="#FFFFFF" fill-rule="evenodd" xlink:href="#path-2"></use>
                            <path stroke="#25B8EB" stroke-width="2" d="M204.716513,66.4822156 L192.636512,66.4822156 L192.636507,98.4191004 C192.626505,101.533229 190.106904,104.055701 186.991968,104.065723 L107.641323,104.065718 C104.527834,104.055688 102.007505,101.530449 102,98.4121327 L102.000005,24.6466223 C102.010007,21.5324937 104.529609,19.0100222 107.644544,19 L186.995187,19.0000052 C190.106904,19.0100222 192.626505,21.5324937 192.636513,24.6498341 L192.636513,56.5797512 L204.716513,56.5797512 L204.716513,52.4137639 L217.694364,61.5309834 L204.716513,70.6482029 L204.716513,66.4822156 Z"></path>
                        </g>
                        <text id="Table-in-storage:-Po" font-family="GothamRounded-Medium, Gotham Rounded" font-size="9" font-weight="400" line-spacing="12" fill="#282D38">
                            <tspan x="135.431" y="38">Table</tspan>
                            <tspan x="123.7445" y="50">in storage:</tspan>
                            <tspan x="171.2555" y="50" font-family="GothamRounded-Book, Gotham Rounded" font-weight="300"></tspan>
                            <tspan x="123.4025" y="62" font-family="GothamRounded-Book, Gotham Rounded" font-weight="300">Population</tspan>
                            <tspan x="133.028" y="74" font-family="GothamRounded-Book, Gotham Rounded" font-weight="300">&amp; Cars</tspan>
                            <tspan x="123.38" y="86" font-family="GothamRounded-Book, Gotham Rounded" font-weight="300">by country</tspan>
                        </text>
                        <path d="M112.954769,61.5309834 L102.716513,54.3383886 L102.716513,57.5797512 L88.6365125,57.5797512 L88.6365125,4.64983412 C88.6282755,2.08522518 86.5536596,0.00824639488 83.9919683,0 L4.64454425,0 C2.08285293,0.00824639488 0.00823701339,2.08522518 0,4.64983412 L0,118.412133 C0.00617794772,120.978208 2.08139377,123.057466 4.64454425,123.065723 L83.9919683,123.065723 C86.5536596,123.057476 88.6282755,120.980498 88.6365125,118.415889 L88.6365125,65.4822156 L102.716513,65.4822156 L102.716513,68.7235782 L112.954769,61.5309834 Z" id="Shape" fill="#25B8EB"></path>
                        <text id="Transformation" font-family="GothamRounded-Bold, Gotham Rounded" font-size="9" font-weight="bold" line-spacing="12" fill="#FFFFFF">
                            <tspan x="9.8815" y="62">Transformation</tspan>
                        </text>
                    </g>
                    <rect id="Rectangle-16" fill="#FFFFFF" opacity="0.5" x="334" y="55" width="444" height="144"></rect>
                    <g id="Group" opacity="0.5" transform="translate(131.000000, 0.000000)">
                        <path d="M162,0 L362,0 L362,0 C367.522847,-1.01453063e-15 372,4.4771525 372,10 L372,50 L152,50 L152,10 L152,10 C152,4.4771525 156.477153,1.01453063e-15 162,0 Z" id="Rectangle-15" fill="#C8EDFA"></path>
                        <rect id="Rectangle-15" fill="#C8EDFA" x="0" y="35" width="524" height="193" rx="10"></rect>
                        <text id="KEBOOLA-CONNECTION" font-family="GothamRounded-Medium, Gotham Rounded" font-size="14" font-weight="400" fill="#282D38">
                            <tspan x="173.394" y="26">KEBOOLA CONNECTION</tspan>
                        </text>
                    </g>
                    <g id="Group-5" filter="url(#filter-3)" transform="translate(0.000000, 59.000000)">
                        <g id="Shape" stroke-linecap="square" stroke-linejoin="round">
                            <use fill="#FFFFFF" fill-rule="evenodd" xlink:href="#path-4"></use>
                            <path stroke="#25B8EB" stroke-width="2" d="M337.716513,36.4822156 L325.636512,36.4822156 L325.636507,58.4191004 C325.626505,61.5332291 323.106904,64.0557006 319.991968,64.0657227 L240.641323,64.0657176 C237.527834,64.0556878 235.007505,61.5304493 235,58.4121327 L235.000005,4.64662234 C235.010007,1.53249367 237.529609,-0.989977827 240.644544,-1 L319.995187,-0.999994819 C323.106904,-0.989977827 325.626505,1.53249367 325.636513,4.64983412 L325.636513,26.5797512 L337.716513,26.5797512 L337.716513,22.4137639 L350.694364,31.5309834 L337.716513,40.6482029 L337.716513,36.4822156 Z"></path>
                        </g>
                        <text id="Table-in-storage:-Po" font-family="GothamRounded-Medium, Gotham Rounded" font-size="9" font-weight="400" line-spacing="12" fill="#282D38">
                            <tspan x="269.931" y="14">Table </tspan>
                            <tspan x="258.2445" y="26">in storage:</tspan>
                            <tspan x="251.0175" y="38" font-family="GothamRounded-Book, Gotham Rounded" font-weight="300">Population by</tspan>
                            <tspan x="264.765" y="50" font-family="GothamRounded-Book, Gotham Rounded" font-weight="300">country</tspan>
                        </text>
                        <g id="Shape" stroke-linecap="square" stroke-linejoin="round">
                            <use fill="#FFFFFF" fill-rule="evenodd" xlink:href="#path-5"></use>
                            <path stroke="#25B8EB" stroke-width="2" d="M337.716513,116.482216 L325.636512,116.482216 L325.636507,138.4191 C325.626505,141.533229 323.106904,144.055701 319.991968,144.065723 L240.641323,144.065718 C237.527834,144.055688 235.007505,141.530449 235,138.412133 L235.000005,84.6466223 C235.010007,81.5324937 237.529609,79.0100222 240.644544,79 L319.995187,79.0000052 C323.106904,79.0100222 325.626505,81.5324937 325.636513,84.6498341 L325.636513,106.579751 L337.716513,106.579751 L337.716513,102.413764 L350.694364,111.530983 L337.716513,120.648203 L337.716513,116.482216 Z"></path>
                        </g>
                        <text id="Table-in-storage:-Ca" font-family="GothamRounded-Medium, Gotham Rounded" font-size="9" font-weight="400" line-spacing="12" fill="#282D38">
                            <tspan x="269.931" y="94">Table </tspan>
                            <tspan x="258.2445" y="106">in storage:</tspan>
                            <tspan x="272.01" y="118" font-family="GothamRounded-Book, Gotham Rounded" font-weight="300">Cars </tspan>
                            <tspan x="257.88" y="130" font-family="GothamRounded-Book, Gotham Rounded" font-weight="300">by country</tspan>
                        </text>
                        <path d="M221.636513,27.2413626 L221.636513,4.64983412 C221.628276,2.08522518 219.55366,0.00824639488 216.991968,0 L157.644544,0 C155.082853,0.00824639488 153.008237,2.08522518 153,4.64983412 L153,138.412133 C153.006178,140.978208 155.081394,143.057466 157.644544,143.065723 L216.991968,143.065723 C219.55366,143.057476 221.628276,140.980498 221.636513,138.415889 L221.636513,115.482216 L235.716513,115.482216 L235.716513,118.723578 L245.954769,111.530983 L235.716513,104.338389 L235.716513,107.579751 L221.636513,107.579751 L221.636513,35.143827 L236.08,35.143827 L236.08,38.3851896 L246.318256,31.1925948 L236.08,24 L236.08,27.2413626 L221.636513,27.2413626 Z" id="Combined-Shape" fill="#25B8EB"></path>
                        <text id="Extractor" font-family="GothamRounded-Bold, Gotham Rounded" font-size="9" font-weight="bold" line-spacing="12" fill="#FFFFFF">
                            <tspan x="167.3635" y="73">Extractor</tspan>
                        </text>
                        <g id="Shape" stroke-linecap="square" stroke-linejoin="round">
                            <use fill="#FFFFFF" fill-rule="evenodd" xlink:href="#path-6"></use>
                            <path stroke="#25B8EB" stroke-width="2" d="M151.716513,36.4822156 L109.636512,36.4822156 L109.636507,53.4191004 C109.626505,56.5332291 107.106904,59.0557006 103.991968,59.0657227 L4.64132288,59.0657176 C1.52783443,59.0556878 -0.992495404,56.5304493 -1,53.4121327 L-0.999994842,9.64662234 C-0.989992881,6.53249367 1.52960893,4.01002217 4.64454425,4 L103.995187,4.00000518 C107.106904,4.01002217 109.626505,6.53249367 109.636513,9.64983412 L109.636513,26.5797512 L151.716513,26.5797512 L151.716513,22.4137639 L164.694364,31.5309834 L151.716513,40.6482029 L151.716513,36.4822156 Z"></path>
                        </g>
                        <text id="Table-in-database:-P" font-family="GothamRounded-Medium, Gotham Rounded" font-size="9" font-weight="400" line-spacing="12" fill="#282D38">
                            <tspan x="13.1355" y="20">Table in database:</tspan>
                            <tspan x="23.0175" y="32" font-family="GothamRounded-Book, Gotham Rounded" font-weight="300">Population by</tspan>
                            <tspan x="36.765" y="44" font-family="GothamRounded-Book, Gotham Rounded" font-weight="300">country</tspan>
                        </text>
                        <g id="Shape" stroke-linecap="square" stroke-linejoin="round">
                            <use fill="#FFFFFF" fill-rule="evenodd" xlink:href="#path-7"></use>
                            <path stroke="#25B8EB" stroke-width="2" d="M151.716513,116.482216 L109.636512,116.482216 L109.636507,133.4191 C109.626505,136.533229 107.106904,139.055701 103.991968,139.065723 L4.64132288,139.065718 C1.52783443,139.055688 -0.992495404,136.530449 -1,133.412133 L-0.999994842,89.6466223 C-0.989992881,86.5324937 1.52960893,84.0100222 4.64454425,84 L103.995187,84.0000052 C107.106904,84.0100222 109.626505,86.5324937 109.636513,89.6498341 L109.636513,106.579751 L151.716513,106.579751 L151.716513,102.413764 L164.694364,111.530983 L151.716513,120.648203 L151.716513,116.482216 Z"></path>
                        </g>
                        <text id="Table-in-database:-C" font-family="GothamRounded-Medium, Gotham Rounded" font-size="9" font-weight="400" line-spacing="12" fill="#282D38">
                            <tspan x="13.1355" y="104">Table in database:</tspan>
                            <tspan x="18.54" y="116" font-family="GothamRounded-Book, Gotham Rounded" font-weight="300">Cars by country</tspan>
                        </text>
                    </g>
                </g>
            </g>
        </g>
    </g>
</svg>